<svg width="49" height="49" viewBox="0 0 49 49" fill="none" xmlns="http://www.w3.org/2000/svg">
<path d="M16.6927 7.33334C16.4287 7.60362 16.2809 7.96645 16.2809 8.34427C16.2809 8.72209 16.4287 9.08492 16.6927 9.3552L31.4419 24.4858L16.6927 39.6134C16.4287 39.8837 16.2809 40.2465 16.2809 40.6244C16.2809 41.0022 16.4287 41.365 16.6927 41.6353C16.821 41.7671 16.9744 41.8718 17.1439 41.9434C17.3134 42.0149 17.4954 42.0517 17.6794 42.0517C17.8633 42.0517 18.0454 42.0149 18.2149 41.9434C18.3844 41.8718 18.5378 41.7671 18.6661 41.6353L34.3506 25.5422C34.6261 25.2595 34.7803 24.8805 34.7803 24.4858C34.7803 24.0912 34.6261 23.7121 34.3506 23.4295L18.6661 7.33637C18.5378 7.20458 18.3844 7.09982 18.2149 7.0283C18.0454 6.95677 17.8633 6.91992 17.6794 6.91992C17.4954 6.91992 17.3134 6.95677 17.1439 7.0283C16.9744 7.09982 16.821 7.20458 16.6927 7.33637V7.33334Z" fill="#2F3131"/>
</svg>
