<svg width="117" height="133" viewBox="0 0 117 133" fill="none" xmlns="http://www.w3.org/2000/svg">
<path d="M90.6594 112.642C90.1535 118.397 85.3189 122.993 79.3408 122.993H37.5157C31.7376 122.993 27.0306 118.701 26.2654 113.22C26.1505 112.419 26.1228 111.592 26.1886 110.75L27.3984 95.2071L29.1903 72.1683C29.2161 71.8391 29.2562 71.5114 29.3096 71.1907C29.7284 68.6394 30.9911 66.3882 32.7919 64.7195C34.8264 62.8336 37.5474 61.6901 40.5174 61.6901H76.3391C79.2729 61.6901 81.9623 62.8059 83.9863 64.6493C85.7569 66.2585 87.0197 68.4271 87.4939 70.8907C87.5746 71.3095 87.632 71.7347 87.6662 72.1683L89.4412 94.9903L90.6678 110.75C90.7188 111.392 90.7144 112.023 90.6594 112.642Z" fill="white"/>
<path d="M40.5174 62.5965C35.0936 62.5965 30.5154 66.8322 30.0946 72.2396L27.0935 110.82C26.8648 113.759 27.8409 116.568 29.8422 118.731C31.8435 120.894 34.5689 122.085 37.5157 122.085H79.3412C82.2884 122.085 85.0134 120.894 87.0147 118.731C89.016 116.568 89.9921 113.759 89.7634 110.82L86.7622 72.2396C86.3415 66.8322 81.7637 62.5965 76.34 62.5965H40.5174ZM79.3412 123.9H37.5157C34.1071 123.9 30.8253 122.465 28.5106 119.964C26.196 117.461 25.0199 114.078 25.2842 110.68L28.2854 72.099C28.7794 65.7531 34.1522 60.7818 40.5174 60.7818H76.34C82.7052 60.7818 88.0779 65.7531 88.5715 72.099L91.5731 110.68C91.837 114.078 90.6614 117.461 88.3467 119.964C86.0321 122.465 82.7498 123.9 79.3412 123.9Z" fill="#371A45"/>
<path d="M115.567 89.7375C115.358 92.4327 114.395 95.0498 112.065 97.0229C102.711 104.946 87.4281 95.7067 81.5559 87.4649C81.3628 87.1947 79.3323 83.451 77.2895 78.9395C74.0091 71.6883 70.6991 62.4466 74.9575 62.4466C81.8643 62.4466 95.2367 83.2703 107.352 78.8613C112.339 77.0477 112.495 76.8605 112.495 76.8457C112.546 76.9412 116.049 83.5425 115.567 89.7375Z" fill="white"/>
<path d="M88 91C88 94.866 91.134 98 95 98H108C111.866 98 115 94.866 115 91V91C115 87.134 111.866 84 108 84H95C91.134 84 88 87.134 88 91V91Z" fill="#B9AFBE"/>
<path d="M74.9565 63.3539C74.412 63.3539 74.2234 63.5643 74.1007 63.7915C73.7126 64.5097 73.2319 67.1718 77.1464 76.3585C79.4407 81.7437 82.0806 86.6095 82.3028 86.9491C85.9594 92.0822 93.9328 98.0608 101.49 99.0068C105.439 99.5013 108.798 98.6004 111.479 96.3298C117.544 91.1922 113.413 80.9388 112.072 78.0455C111.196 78.4073 109.713 78.9682 107.663 79.7141C99.7436 82.596 91.491 75.5205 84.859 69.8359C80.9708 66.5026 77.2974 63.3539 74.9565 63.3539ZM103.555 100.954C102.812 100.954 102.048 100.906 101.265 100.807C93.1072 99.7859 84.8031 93.5865 80.8168 87.9901C80.6931 87.8173 69.8006 68.1717 72.4766 62.9812C72.8156 62.3233 73.521 61.5392 74.9565 61.5392C77.9691 61.5392 81.7093 64.7453 86.0401 68.4578C92.3132 73.8355 100.12 80.5274 107.042 78.0089C109.341 77.1723 110.579 76.6946 111.243 76.4249L110.399 74.8429L113.429 76.2828L113.413 76.6432C114.387 78.5603 120.369 91.1774 112.651 97.7143C110.108 99.8686 107.056 100.954 103.555 100.954Z" fill="#371A45"/>
<path d="M98.7383 100.302C98.6279 100.302 98.515 100.281 98.4056 100.238C94.0274 98.5113 92.6874 92.7921 92.278 89.537C91.64 84.4613 92.3493 77.9723 94.6085 76.3398C95.0149 76.0463 95.5817 76.1378 95.8752 76.5437C96.1687 76.9496 96.0772 77.5174 95.6713 77.8104C94.5625 78.6118 93.3616 83.6074 94.0784 89.3103C94.6897 94.1722 96.5093 97.5397 99.0714 98.55C99.5377 98.7341 99.7664 99.2608 99.5828 99.7271C99.4422 100.084 99.1001 100.302 98.7383 100.302Z" fill="#371A45"/>
<path d="M108.985 85.3473C103.4 88.0559 101.234 85.0879 95.5743 84.1994C92.1835 83.6678 86.6544 83.9568 87.5191 79.9072C87.7107 79.0059 88.3547 78.5168 89.2071 78.2297C91.3143 77.5174 94.6877 78.0386 95.6297 76.6036C96.935 74.69 94.7135 71.5779 92.3751 69.5474C89.9278 67.4214 87.8404 65.5636 89.0096 63.6034C89.3902 62.9654 89.8555 62.6001 90.3703 62.4342H90.3723C90.5659 62.3704 90.7678 62.3362 90.9737 62.3278C91.546 62.2981 92.1518 62.4595 92.7468 62.7273H92.7493C94.4308 63.4757 96.0356 65.0553 96.5588 65.6017L96.5628 65.6062C96.5841 65.627 96.6034 65.6463 96.6202 65.6656C96.6969 65.7463 96.7375 65.7908 96.7375 65.7908C96.7375 65.7908 96.5885 65.1661 96.5757 64.4113C96.5588 63.5589 96.7162 62.5382 97.4602 62.0749C100.015 60.4805 102.254 63.5292 103.521 65.9314C103.689 66.2502 103.834 66.5541 103.959 66.8432C104.68 68.493 104.769 69.6241 104.769 69.6241C104.769 69.6241 104.918 69.6642 105.171 69.7474C106.41 70.1513 110.177 71.5754 111.697 74.3756C111.846 74.6499 111.972 74.9345 112.074 75.2344C113.426 79.2375 112.601 83.5935 108.985 85.3473Z" fill="white"/>
<path d="M99.3966 73.5059C99.3966 73.5059 96.3048 66.4694 92.0266 63.4118C93.4502 63.9202 95.1406 65.377 96.0638 66.3982C96.2405 66.5937 96.4865 66.6971 96.737 66.6971C96.8721 66.6971 97.0087 66.6669 97.1359 66.6046C98.2977 68.7088 99.508 71.4318 99.3966 73.5059Z" fill="#B9AFBE"/>
<path d="M100.036 73.8375C99.7149 73.8375 99.4056 73.7098 99.4056 73.2168C99.4056 70.5824 98.2596 68.2376 97.2117 66.5635C97.5429 66.3601 97.7102 65.965 97.6206 65.5824C97.5998 65.4918 97.5805 65.3958 97.5632 65.2953C99.0571 67.0164 99.3897 69.4216 100.375 69.4216C100.526 69.4216 100.693 69.3652 100.881 69.2414C102.093 68.4445 102.484 67.5971 103.105 67.1516C103.246 67.4718 103.361 67.7708 103.456 68.0436C103.431 68.0579 103.408 68.0733 103.384 68.0896C100.904 69.8721 100.037 72.0654 100.038 73.8375C100.037 73.8375 100.036 73.8375 100.036 73.8375Z" fill="#B9AFBE"/>
<path d="M104.853 86.46C104.872 85.9823 104.514 85.5685 104.032 85.5229C102.874 85.4135 101.776 85.0349 100.504 84.5963C99.156 84.131 97.6275 83.6038 95.7148 83.3034C95.1055 83.2078 94.454 83.14 93.764 83.0687C91.7939 82.8638 89.3422 82.6094 88.5913 81.5768C88.3304 81.2179 88.27 80.7333 88.4061 80.0952C88.4843 79.7275 88.7115 79.4651 89.0655 79.2721C88.9363 80.1705 89.0496 81.0565 91.4395 81.6649C94.5402 82.4549 96.8206 82.7935 98.5363 82.7935C99.8352 82.7935 100.81 82.5995 101.572 82.2604C103.942 81.2036 101.817 78.8607 100.824 76.4595C101.295 77.1139 101.946 77.5534 102.693 77.6871C102.937 77.7311 103.166 77.7509 103.382 77.7509C104.193 77.7509 104.815 77.4643 105.307 77.0579C105.646 78.1088 106.516 78.8221 107.352 78.8612C107.431 78.8647 107.508 78.8667 107.581 78.8667C109.21 78.8667 109.307 77.9514 110.22 76.7797C110.65 76.2278 111.034 75.9754 111.323 75.8645C111.853 77.6163 111.924 79.3909 111.516 80.8967C111.065 82.5633 110.053 83.8196 108.589 84.53C108.147 84.7448 107.957 85.272 108.158 85.7175C106.916 86.2258 105.844 86.4392 104.853 86.46Z" fill="#B9AFBE"/>
<path d="M103.948 87.3337C103.919 87.3337 103.891 87.3323 103.862 87.3298C102.488 87.2001 101.237 86.7685 99.913 86.3116C98.573 85.8492 97.1875 85.3716 95.4337 85.0963C94.8714 85.0082 94.2422 84.9424 93.5765 84.8736C91.1267 84.6192 88.3503 84.3311 87.1236 82.6436C86.5509 81.8556 86.3851 80.8705 86.6316 79.7167C87.1449 77.3105 89.7754 77.0665 91.8885 76.8709C93.1265 76.7561 94.5293 76.6259 94.8719 76.1047C95.7609 74.7998 93.9403 72.1085 91.7806 70.233C89.2601 68.0446 86.6539 65.7814 88.2295 63.1381C88.9928 61.8576 90.0263 61.5027 90.7584 61.4309C92.4969 61.2606 94.3833 62.4704 95.7099 63.5678C95.8203 62.7016 96.1564 61.8175 96.9791 61.3047C97.8844 60.7399 98.8314 60.5854 99.7947 60.8458C101.397 61.2794 102.922 62.8481 104.324 65.5082C105.103 66.9843 105.437 68.2208 105.577 68.9247C107.19 69.4633 111.69 71.2665 112.933 74.9439C113.675 77.1417 113.794 79.4241 113.268 81.3705C112.676 83.5589 111.332 85.2161 109.381 86.1626C108.93 86.3814 108.387 86.1928 108.169 85.7423C107.95 85.2914 108.138 84.7488 108.589 84.5301C110.054 83.8197 111.065 82.5634 111.516 80.8968C111.95 79.2935 111.842 77.3857 111.214 75.525C110.035 72.0358 104.587 70.5151 104.532 70.5003C104.163 70.3998 103.895 70.0775 103.865 69.6964C103.864 69.686 103.728 68.2688 102.719 66.3547C101.594 64.2202 100.387 62.8857 99.3209 62.5976C98.8517 62.4714 98.4126 62.5491 97.9394 62.8441C97.3687 63.2 97.4122 64.6885 97.6206 65.5825C97.7147 65.9854 97.5246 66.4022 97.1578 66.5937C96.791 66.7853 96.3415 66.7056 96.0638 66.3982C94.8872 65.0964 92.4627 63.0862 90.9351 63.2366C90.6376 63.2663 90.1951 63.3842 89.7882 64.0673C89.0438 65.3166 90.4936 66.7125 92.9701 68.8628C95.5881 71.1359 98.0518 74.6608 96.3801 77.114C95.5669 78.3525 93.7819 78.5178 92.0563 78.6777C89.9932 78.8687 88.625 79.0707 88.4062 80.0954C88.2701 80.7334 88.3305 81.218 88.5913 81.5769C89.3422 82.6095 91.794 82.8639 93.7641 83.0688C94.4541 83.1401 95.1055 83.2079 95.7149 83.3035C97.6275 83.6039 99.1561 84.1311 100.504 84.5964C101.776 85.035 102.875 85.4136 104.032 85.523C104.531 85.5701 104.898 86.0126 104.851 86.5115C104.806 86.9813 104.411 87.3337 103.948 87.3337Z" fill="#371A45"/>
<path d="M98.9447 73.4628C98.9437 73.3376 98.9333 73.1608 98.918 73.0064C98.9007 72.846 98.8833 72.6851 98.8546 72.5238C98.8051 72.2015 98.7309 71.8803 98.6487 71.562C98.4809 70.9259 98.2542 70.3037 97.9938 69.6983C97.728 69.0934 97.4226 68.5069 97.085 67.9391C96.9212 67.653 96.7301 67.3802 96.5559 67.1015L95.9822 66.2927L95.9569 66.2571C95.6658 65.8472 95.7624 65.2795 96.1722 64.9889C96.5816 64.6983 97.1494 64.7944 97.4404 65.2042C97.4592 65.2314 97.4775 65.2601 97.4934 65.2884C97.6691 65.6042 97.8488 65.9165 98.0191 66.2338C98.177 66.559 98.3492 66.8748 98.4933 67.2065C98.7923 67.8634 99.0541 68.537 99.2704 69.2261C99.4813 69.9171 99.6531 70.6205 99.76 71.3373C99.812 71.6956 99.854 72.0555 99.8699 72.4208C99.8867 72.7921 99.8922 73.1356 99.8476 73.5484C99.8214 73.7974 99.5981 73.9771 99.3496 73.9504C99.1175 73.9256 98.9457 73.7306 98.9447 73.5024V73.4628Z" fill="#371A45"/>
<path d="M108.727 71.952C108.727 71.952 107.45 72.6723 106.508 73.882C105.553 75.1067 105.056 77.1882 102.854 76.7946C101.329 76.5204 100.362 74.2924 101.336 71.9218C101.769 70.8655 102.588 69.781 103.914 68.8266C103.914 68.8266 105.736 67.802 107.243 68.7375C108.22 69.3434 108.583 70.1745 108.709 70.8423C108.823 71.4714 108.727 71.952 108.727 71.952Z" fill="white"/>
<path d="M103.381 75.9368C103.268 75.9368 103.146 75.9249 103.013 75.9011C102.521 75.813 102.095 75.2809 101.928 74.5453C101.865 74.2686 101.838 73.9617 101.855 73.6345C102.034 74.0785 102.305 74.4335 102.805 74.4924C102.837 74.4963 102.871 74.4978 102.903 74.4978C103.625 74.4978 104.236 73.5652 105.002 72.6326C105.716 71.7634 106.565 70.8942 107.766 70.7804C107.838 71.0239 107.86 71.2496 107.862 71.4258C107.358 71.7654 106.496 72.4198 105.792 73.3242C105.534 73.6548 105.317 74.0196 105.107 74.3726C104.466 75.4512 104.1 75.9368 103.381 75.9368Z" fill="#B9AFBE"/>
<path d="M108.727 71.9521H108.729H108.727ZM108.727 71.9521H108.729H108.727ZM104.394 69.5993C102.126 71.2526 101.631 73.2351 101.928 74.5454C102.095 75.2809 102.521 75.8131 103.013 75.9012C103.991 76.0754 104.364 75.621 105.107 74.3726C105.317 74.0197 105.534 73.6549 105.792 73.3242C106.495 72.4198 107.358 71.7654 107.862 71.4259C107.857 70.9428 107.702 70.0894 106.766 69.5087C105.833 68.9301 104.614 69.4889 104.394 69.5993ZM103.382 77.751C103.166 77.751 102.937 77.7312 102.693 77.6871C101.463 77.4668 100.492 76.417 100.158 74.9468C99.7308 73.0599 100.353 70.2681 103.384 68.0896C103.412 68.0703 103.44 68.0524 103.469 68.0356C103.563 67.9831 105.781 66.762 107.723 67.9668C110.124 69.4568 109.638 72.0228 109.616 72.1317C109.564 72.3896 109.403 72.6124 109.173 72.7421C109.146 72.7579 108.029 73.4044 107.223 74.4389C107.035 74.68 106.856 74.9815 106.666 75.3002C106.073 76.2977 105.208 77.751 103.382 77.751Z" fill="#371A45"/>
<path d="M112.034 74.9602C111.98 75.4532 111.878 75.7997 111.878 75.7997C111.878 75.7997 111.164 75.57 110.22 76.7798C109.265 78.0044 109.204 78.9484 107.352 78.8612C106.166 78.8058 104.911 77.3921 105.201 75.5829C105.373 74.5028 106.092 73.2846 107.699 72.1302C107.699 72.1302 109.553 71.0546 111.03 72.0411C112.072 72.7361 112.127 74.082 112.034 74.9602Z" fill="white"/>
<path d="M107.581 78.8667C107.508 78.8667 107.431 78.8647 107.352 78.8613C106.516 78.8222 105.646 78.1089 105.307 77.058C105.212 76.7659 105.159 76.4476 105.158 76.111C105.158 75.9393 105.172 75.763 105.2 75.5829C106.254 75.9581 105.75 77.2881 107.237 77.2881C107.293 77.2881 107.351 77.2867 107.413 77.2827C108.581 77.2094 109.121 74.2459 110.625 74.2459C111.019 74.2459 111.479 74.4488 112.033 74.9602C111.98 75.4532 111.878 75.7997 111.878 75.7997C111.878 75.7997 111.824 75.7824 111.726 75.7824C111.63 75.7824 111.492 75.7987 111.323 75.8645C111.034 75.9754 110.65 76.2279 110.22 76.7798C109.306 77.9514 109.21 78.8667 107.581 78.8667Z" fill="#B9AFBE"/>
<path d="M111.602 76.664L111.603 76.6645L111.602 76.664ZM111.603 76.6645H111.604H111.603ZM111.604 76.6649H111.605H111.604ZM111.605 76.6649H111.605H111.605ZM108.183 72.8995C106.529 74.1038 105.79 75.4977 106.155 76.7298C106.375 77.4708 106.958 77.9346 107.395 77.9549C108.309 77.9985 108.429 77.8173 108.923 77.0575C109.084 76.809 109.267 76.5273 109.505 76.2229C110.092 75.469 110.656 75.1225 111.115 74.9745C111.202 74.3112 111.213 73.2544 110.526 72.7955C109.631 72.1981 108.4 72.7876 108.183 72.8995ZM107.573 79.774C107.488 79.774 107.401 79.7721 107.31 79.7681C106.029 79.7082 104.838 78.6712 104.416 77.2456C104.131 76.2858 103.829 73.7935 107.17 71.3932C107.194 71.3759 107.219 71.36 107.244 71.3452C107.34 71.2892 109.609 70.0013 111.533 71.2863C113.69 72.7262 112.789 75.919 112.75 76.0541C112.681 76.2892 112.521 76.4863 112.305 76.6011C112.122 76.6981 111.913 76.7298 111.712 76.6917C111.61 76.7095 111.318 76.8476 110.936 77.3377C110.747 77.5812 110.594 77.8173 110.445 78.0455C109.893 78.8959 109.322 79.774 107.573 79.774Z" fill="#371A45"/>
<path d="M1.59335 89.7375C1.8017 92.4327 2.76477 95.0498 5.09479 97.0229C14.4487 104.946 29.7318 95.7067 35.604 87.4649C35.7971 87.1947 37.8275 83.451 39.8704 78.9395C43.1508 71.6883 46.4608 62.4466 42.2029 62.4466C35.2956 62.4466 21.9237 83.2703 9.80808 78.8613C4.82051 77.0477 4.66533 76.8605 4.66533 76.8457C4.61434 76.9412 1.11078 83.5425 1.59335 89.7375Z" fill="white"/>
<path d="M13.6251 99.1384C10.5526 99.1384 7.88605 98.1974 5.68117 96.3298C4.04198 94.9413 3.14741 93.1786 2.74141 91.2887C4.70918 93.5657 7.6425 95.2749 12.002 95.5665C12.4183 95.5942 12.8247 95.6076 13.2236 95.6076C16.9183 95.6076 19.8804 94.4468 22.3821 92.7366C21.499 95.7101 20.0254 97.7549 18.1484 98.5261C17.3212 98.7409 16.4926 98.9038 15.6694 99.0068C14.9695 99.0944 14.2879 99.1384 13.6251 99.1384ZM22.5281 96.9213C23.6988 95.0448 24.329 92.7935 24.668 90.9313C27.195 88.6677 29.2483 85.9526 31.2228 83.6726C30.7709 85.0527 30.3675 86.4471 30.0229 87.8564C29.869 88.4548 29.7344 89.0578 29.5958 89.6597C27.7548 90.7581 26.4644 92.2129 26.0981 94.9547C24.9507 95.6823 23.7533 96.3466 22.5281 96.9213Z" fill="#B9AFBE"/>
<path d="M5.08825 78.0455C3.74754 80.9388 -0.384075 91.1922 5.68111 96.3298C8.36169 98.6004 11.7237 99.5008 15.6694 99.0068C23.227 98.0608 31.2005 92.0822 34.8655 86.9372C35.0798 86.6095 37.7187 81.7441 40.0135 76.3585C43.9274 67.1718 43.4478 64.5097 43.0592 63.7915C42.9364 63.5643 42.7479 63.3539 42.2034 63.3539C39.862 63.3539 36.1891 66.5026 32.3009 69.8359C26.7247 74.6156 20.0011 80.3779 13.2949 80.3789C12.0252 80.3789 10.758 80.1725 9.49721 79.7141C7.44692 78.9682 5.96415 78.4073 5.08825 78.0455ZM13.6047 100.954C10.1041 100.955 7.05241 99.8691 4.50841 97.7143C-3.2086 91.1779 2.77175 78.5623 3.74704 76.6437L3.72987 76.2843L6.76135 74.8429L5.91698 76.4249C6.58117 76.6946 7.81867 77.1723 10.1179 78.0089C17.04 80.5274 24.8467 73.8355 31.1193 68.4583C35.4506 64.7458 39.1913 61.5392 42.2034 61.5392C43.6389 61.5392 44.3447 62.3233 44.6838 62.9817C47.3608 68.1757 36.4663 87.8173 36.343 87.9901C32.3568 93.5865 24.0527 99.7859 15.8946 100.807C15.1115 100.906 14.3477 100.954 13.6047 100.954Z" fill="#371A45"/>
<path d="M18.4211 100.302C18.0597 100.302 17.7177 100.084 17.5771 99.7271C17.393 99.2608 17.6221 98.7341 18.0884 98.55C20.6501 97.5397 22.4702 94.1717 23.0815 89.3103C23.7983 83.6069 22.5979 78.6118 21.4886 77.8104C21.0827 77.5174 20.9911 76.9496 21.2847 76.5437C21.5782 76.1378 22.1455 76.0463 22.5519 76.3398C24.8105 77.9723 25.5199 84.4608 24.8818 89.5365C24.4729 92.7921 23.1325 98.5113 18.7537 100.238C18.6448 100.281 18.532 100.302 18.4211 100.302Z" fill="#371A45"/>
<path d="M8.17511 85.3473C13.7602 88.0559 15.9263 85.0879 21.5856 84.1994C24.9764 83.6678 30.506 83.9568 29.6408 79.9072C29.4492 79.0059 28.8052 78.5168 27.9528 78.2297C25.8461 77.5174 22.4722 78.0386 21.5302 76.6036C20.2249 74.69 22.4465 71.5779 24.7848 69.5474C27.2321 67.4214 29.3195 65.5636 28.1503 63.6034C27.7697 62.9654 27.3044 62.6001 26.7896 62.4342H26.7876C26.5941 62.3704 26.3921 62.3362 26.1862 62.3278C25.614 62.2981 25.0081 62.4595 24.4131 62.7273H24.4111C22.7291 63.4757 21.1243 65.0553 20.6011 65.6017L20.5971 65.6062C20.5758 65.627 20.5565 65.6463 20.5397 65.6656C20.463 65.7463 20.4229 65.7908 20.4229 65.7908C20.4229 65.7908 20.5714 65.1661 20.5843 64.4113C20.6011 63.5589 20.4442 62.5382 19.6997 62.0749C17.1445 60.4805 14.9061 63.5292 13.6389 65.9314C13.4711 66.2502 13.3266 66.5541 13.2008 66.8432C12.4801 68.493 12.391 69.6241 12.391 69.6241C12.391 69.6241 12.242 69.6642 11.9891 69.7474C10.7496 70.1513 6.98265 71.5754 5.46261 74.3756C5.31371 74.6499 5.18833 74.9345 5.08631 75.2344C3.73417 79.2375 4.55909 83.5935 8.17511 85.3473Z" fill="white"/>
<path d="M17.7632 73.5059C17.6518 71.4318 18.8621 68.7093 20.0238 66.6051C20.1506 66.6674 20.2867 66.6976 20.4223 66.6976C20.6728 66.6976 20.9193 66.5942 21.096 66.3986C22.0182 65.378 23.7106 63.9227 25.1318 63.4133C20.854 66.4714 17.7632 73.5059 17.7632 73.5059Z" fill="#B9AFBE"/>
<path d="M17.1241 73.8375C17.1237 73.8375 17.1232 73.8375 17.1227 73.8375C17.1237 72.0654 16.2559 69.8721 13.7755 68.0896C13.7527 68.0733 13.7289 68.0579 13.7042 68.0435C13.7987 67.7708 13.9141 67.4718 14.0551 67.1516C14.6759 67.5971 15.0669 68.4445 16.2792 69.2414C16.4673 69.3652 16.6336 69.4216 16.7846 69.4216C17.7706 69.4211 18.1028 67.0159 19.5972 65.2948C19.5798 65.3948 19.5605 65.4908 19.5397 65.5804C19.4482 65.9641 19.616 66.3601 19.9481 66.564C18.9002 68.2381 17.7548 70.5829 17.7548 73.2168C17.7548 73.7098 17.4454 73.8375 17.1241 73.8375Z" fill="#B9AFBE"/>
<path d="M12.3064 86.46C11.3159 86.4392 10.2442 86.2258 9.00226 85.7175C9.20273 85.272 9.01315 84.7448 8.57062 84.53C7.1069 83.8196 6.09468 82.5633 5.64393 80.8967C5.23664 79.3909 5.30659 77.6163 5.83733 75.864C6.12641 75.9754 6.50944 76.2278 6.94009 76.7797C7.85336 77.9514 7.94939 78.8667 9.57893 78.8667C9.65219 78.8667 9.72842 78.8647 9.80812 78.8612C10.6437 78.8221 11.5129 78.1088 11.853 77.0584C12.345 77.4643 12.9667 77.7509 13.7785 77.7509C13.9938 77.7509 14.223 77.7306 14.4671 77.6871C15.214 77.5534 15.8654 77.1139 16.3367 76.46C15.3427 78.8607 13.2177 81.2036 15.5882 82.2604C16.3495 82.5995 17.3247 82.7935 18.6241 82.7935C20.3392 82.7935 22.6202 82.4549 25.7204 81.6649C28.1107 81.0565 28.2236 80.1705 28.0944 79.2721C28.4483 79.4651 28.6755 79.7275 28.7542 80.0952C28.8899 80.7333 28.8295 81.2179 28.5686 81.5768C27.8177 82.6094 25.366 82.8638 23.3964 83.0687C22.7063 83.14 22.0544 83.2078 21.4451 83.3034C19.5329 83.6038 18.0043 84.131 16.6554 84.5963C15.3838 85.0349 14.2854 85.4135 13.1281 85.5229C12.646 85.5685 12.2881 85.9823 12.3064 86.46Z" fill="#B9AFBE"/>
<path d="M13.2122 87.3337C12.7494 87.3337 12.3539 86.9813 12.3098 86.5115C12.2628 86.0126 12.6286 85.5701 13.128 85.523C14.2853 85.4136 15.3837 85.035 16.6554 84.5964C18.0043 84.1311 19.5328 83.6039 21.445 83.3035C22.0544 83.2079 22.7063 83.1401 23.3963 83.0688C25.3659 82.8639 27.8177 82.6095 28.5686 81.5769C28.8294 81.218 28.8898 80.7334 28.7542 80.0954C28.5354 79.0707 27.1667 78.8687 25.1036 78.6777C23.378 78.5178 21.5935 78.3525 20.7718 77.1011C19.1086 74.6608 21.5722 71.1359 24.1898 68.8628C26.6663 66.7125 28.1161 65.3166 27.3717 64.0673C26.9648 63.3842 26.5222 63.2663 26.2247 63.2366C24.7041 63.0852 22.2732 65.0964 21.096 66.3987C20.8179 66.7061 20.3669 66.7863 20.0001 66.5932C19.6333 66.4002 19.4437 65.9839 19.5398 65.5805C19.7482 64.6885 19.7912 63.2 19.221 62.8441C18.7473 62.5491 18.3082 62.4709 17.8389 62.5976C16.7732 62.8857 15.5659 64.2202 14.4408 66.3547C13.4315 68.2688 13.2958 69.686 13.2949 69.7004C13.2612 70.079 12.9944 70.4013 12.6271 70.5003C12.5736 70.5151 7.12517 72.0358 5.94598 75.525C5.31758 77.3857 5.21026 79.2935 5.64388 80.8968C6.09463 82.5634 7.10685 83.8197 8.57057 84.5301C9.02151 84.7488 9.20962 85.2914 8.99083 85.7423C8.77204 86.1933 8.22902 86.3814 7.77857 86.1626C5.82807 85.2161 4.4842 83.5594 3.89208 81.3705C3.36584 79.4241 3.48479 77.1417 4.22679 74.9444C5.46959 71.2665 9.97043 69.4633 11.5831 68.9247C11.7232 68.2208 12.0574 66.9843 12.8355 65.5082C14.2383 62.8481 15.7624 61.2794 17.3652 60.8458C18.3285 60.5854 19.2759 60.7399 20.1808 61.3047C21.0035 61.8175 21.3396 62.7016 21.4505 63.5678C22.7766 62.4704 24.664 61.2611 26.4015 61.4309C27.1341 61.5027 28.1671 61.8576 28.9304 63.1381C30.506 65.7814 27.8998 68.0446 25.3793 70.233C23.2191 72.1085 21.399 74.7993 22.2796 76.0923C22.6305 76.6259 24.0334 76.7561 25.2714 76.8709C27.3845 77.0665 30.015 77.3105 30.5283 79.7167C30.7748 80.8705 30.6095 81.8556 30.0362 82.6436C28.8096 84.3311 26.0332 84.6192 23.5839 84.8736C22.9181 84.9424 22.2885 85.0082 21.7267 85.0963C19.9729 85.3716 18.5869 85.8492 17.2469 86.3116C15.9228 86.7685 14.6719 87.2001 13.2978 87.3298C13.2691 87.3323 13.2404 87.3337 13.2122 87.3337Z" fill="#371A45"/>
<path d="M17.3123 73.5485C17.2677 73.1356 17.2732 72.7921 17.29 72.4208C17.3058 72.0555 17.3479 71.6957 17.3999 71.3373C17.5068 70.6205 17.6786 69.9171 17.8899 69.2261C18.1058 68.5371 18.3681 67.8634 18.6666 67.2065C18.8111 66.8749 18.9829 66.5591 19.1408 66.2338C19.3111 65.9165 19.4908 65.6042 19.667 65.2884C19.911 64.8493 20.4649 64.6914 20.904 64.9359C21.3431 65.18 21.5005 65.7339 21.2564 66.173C21.2401 66.2022 21.2228 66.2299 21.204 66.2561L21.1777 66.2927L20.604 67.1016C20.4298 67.3803 20.2387 67.653 20.0754 67.9391C19.7378 68.5069 19.4319 69.0935 19.1661 69.6983C18.9062 70.3037 18.679 70.9259 18.5112 71.562C18.429 71.8803 18.3548 72.2016 18.3057 72.5238C18.2765 72.6852 18.2592 72.846 18.2419 73.0064C18.2265 73.1609 18.2162 73.3376 18.2152 73.4628V73.5024C18.2142 73.7529 18.0102 73.9544 17.7603 73.9534C17.5271 73.9519 17.336 73.7752 17.3123 73.5485Z" fill="#371A45"/>
<path d="M8.43243 71.952C8.43243 71.952 9.71002 72.6723 10.652 73.882C11.6064 75.1067 12.1038 77.1882 14.3061 76.7946C15.8307 76.5204 16.7979 74.2924 15.8243 71.9218C15.3906 70.8655 14.5719 69.781 13.2453 68.8266C13.2453 68.8266 11.4237 67.802 9.91644 68.7375C8.9403 69.3434 8.57697 70.1745 8.45173 70.8423C8.33689 71.4714 8.43243 71.952 8.43243 71.952Z" fill="white"/>
<path d="M13.7785 75.9368C13.0603 75.9368 12.6945 75.4512 12.0534 74.3726C11.8431 74.0196 11.6262 73.6548 11.3688 73.3242C10.6645 72.4198 9.80168 71.7654 9.29826 71.4258C9.29975 71.2496 9.32153 71.0239 9.3938 70.7804C10.5947 70.8942 11.4436 71.7634 12.1579 72.6326C12.9241 73.5652 13.5345 74.4978 14.2572 74.4978C14.2893 74.4978 14.3225 74.4963 14.3552 74.4924C14.8546 74.4335 15.1259 74.0785 15.3051 73.634C15.3219 73.9617 15.2947 74.2686 15.2318 74.5453C15.065 75.2809 14.6393 75.813 14.1468 75.9011C14.0136 75.9249 13.8919 75.9368 13.7785 75.9368Z" fill="#B9AFBE"/>
<path d="M9.2983 71.4259C9.80171 71.7654 10.6645 72.4198 11.3689 73.3242C11.6263 73.6549 11.8431 74.0197 12.0535 74.3726C12.796 75.6215 13.1687 76.0754 14.1468 75.9012C14.6393 75.8131 15.065 75.2809 15.2319 74.5454C15.5289 73.2356 15.0349 71.2531 12.7668 69.5993C12.547 69.4899 11.3263 68.9301 10.3942 69.5087C9.45818 70.0894 9.30275 70.9428 9.2983 71.4259ZM13.7785 77.751C11.951 77.751 11.0867 76.2977 10.4937 75.3002C10.3041 74.9815 10.1249 74.68 9.93734 74.4394C9.12505 73.3965 7.99744 72.7485 7.98605 72.7421C7.75786 72.6119 7.5955 72.3891 7.54352 72.1317C7.52174 72.0233 7.03516 69.4568 9.43739 67.9668C11.3803 66.7615 13.5974 67.9831 13.6909 68.0356C13.7201 68.0524 13.7483 68.0703 13.7756 68.0896C16.8065 70.2681 17.4297 73.0599 17.0015 74.9468C16.6684 76.417 15.6972 77.4668 14.4671 77.6871C14.2231 77.7307 13.9939 77.751 13.7785 77.751Z" fill="#371A45"/>
<path d="M5.12671 74.9602C5.17982 75.4532 5.2819 75.7997 5.2819 75.7997C5.2819 75.7997 5.99618 75.57 6.9401 76.7798C7.89446 78.0044 7.95633 78.9484 9.80812 78.8612C10.9941 78.8058 12.2485 77.3921 11.9594 75.5829C11.7871 74.5028 11.0684 73.2846 9.46162 72.1302C9.46162 72.1302 7.60735 71.0546 6.13008 72.0411C5.08845 72.7361 5.03316 74.082 5.12671 74.9602Z" fill="white"/>
<path d="M9.57889 78.8667C7.94935 78.8667 7.85332 77.9514 6.94005 76.7798C6.5094 76.2279 6.12637 75.9754 5.83729 75.864C5.66726 75.7987 5.5297 75.7824 5.43401 75.7824C5.33595 75.7824 5.28185 75.7997 5.28185 75.7997C5.28185 75.7997 5.17978 75.4532 5.12666 74.9602C5.68101 74.4488 6.14077 74.2459 6.53464 74.2459C8.03845 74.2459 8.5785 77.2094 9.74719 77.2827C9.80857 77.2867 9.86698 77.2881 9.92242 77.2881C11.4094 77.2881 10.906 75.9581 11.9593 75.5829C11.9881 75.763 12.0014 75.9393 12.0014 76.111C12.0009 76.4481 11.9475 76.7664 11.8529 77.0585C11.5129 78.1089 10.6436 78.8222 9.80808 78.8613C9.72838 78.8647 9.65215 78.8667 9.57889 78.8667Z" fill="#B9AFBE"/>
<path d="M6.04469 74.9745C6.5035 75.1225 7.0683 75.469 7.65537 76.2224C7.89248 76.5273 8.07562 76.809 8.23699 77.0575C8.73051 77.8173 8.84881 77.998 9.76506 77.9549C10.2021 77.9346 10.7848 77.4708 11.0045 76.7298C11.3698 75.4977 10.6308 74.1033 8.97553 72.899C8.76961 72.7921 7.5331 72.1951 6.63418 72.7955C5.94678 73.2544 5.95816 74.3117 6.04469 74.9745ZM9.58785 79.774C7.83753 79.774 7.26729 78.8959 6.71536 78.0455C6.56686 77.8173 6.41327 77.5812 6.22378 77.3377C5.99994 77.0506 5.56008 76.664 5.5586 76.664C5.3254 76.7387 5.07181 76.7164 4.8555 76.6016C4.63943 76.4863 4.47871 76.2892 4.41005 76.0541C4.37065 75.919 3.46935 72.7262 5.62676 71.2863C7.55191 70.0013 9.82 71.2892 9.91554 71.3452C9.94128 71.36 9.96603 71.3759 9.99028 71.3932C13.3305 73.7939 13.0291 76.2858 12.7445 77.2456C12.3217 78.6712 11.1313 79.7082 9.8497 79.7681C9.75961 79.7721 9.67249 79.774 9.58785 79.774Z" fill="#371A45"/>
<path d="M25.7114 113.332C27.1949 104.181 30.4505 86.7654 35.6099 72.8638C37.6577 67.3446 43.1977 63.6321 49.4417 63.6321H67.5775C73.8214 63.6321 79.3614 67.3446 81.4093 72.8638C86.5686 86.7654 89.8243 104.181 91.3078 113.332C91.977 117.462 89.456 121.469 85.2643 122.908C79.952 124.73 71.337 126.631 58.5096 126.631C45.6821 126.631 37.0672 124.73 31.7548 122.908C27.5632 121.469 25.0421 117.462 25.7114 113.332Z" fill="white"/>
<path d="M83.8407 79.0963C85.2035 81.9312 86.1529 84.9121 86.986 87.9157C87.8255 90.9189 88.5081 93.9622 89.1382 97.0123C89.457 98.5369 89.7713 100.062 90.0693 101.59C90.3742 103.117 90.6693 104.645 90.9544 106.176C91.236 107.707 91.5117 109.239 91.7711 110.773L92.1552 113.077C92.2775 113.9 92.3369 114.781 92.2374 115.631C92.1374 116.485 91.928 117.323 91.6117 118.12C91.2796 118.91 90.8479 119.654 90.3341 120.335C89.8124 121.011 89.1976 121.608 88.5313 122.135C87.8591 122.657 87.1156 123.075 86.3459 123.427C85.541 123.757 84.8139 123.986 84.0551 124.221C83.3017 124.456 82.5428 124.67 81.7815 124.871C80.2594 125.276 78.7234 125.618 77.1795 125.908C74.0942 126.504 70.9777 126.882 67.8577 127.143C64.7362 127.399 61.6078 127.509 58.4824 127.508C55.3564 127.509 52.228 127.394 49.1066 127.138C45.9866 126.877 42.8706 126.495 39.7852 125.898C38.2423 125.605 36.7058 125.263 35.1842 124.857C34.4229 124.655 33.6646 124.44 32.9112 124.205C32.1558 123.971 31.4217 123.737 30.6183 123.403C29.8486 123.05 29.1135 122.619 28.4393 122.1C27.7755 121.568 27.1706 120.963 26.6469 120.289C26.1381 119.603 25.7129 118.856 25.3872 118.063C25.0679 117.267 24.8719 116.424 24.7773 115.571C24.6739 114.723 24.7521 113.834 24.8729 113.023L25.2575 110.72C25.5174 109.185 25.7931 107.653 26.0752 106.122C26.6445 103.061 27.2573 100.008 27.9211 96.9648C28.2512 95.4432 28.5987 93.925 28.9556 92.4083C29.1313 91.6495 29.3011 90.8892 29.4853 90.1318C29.665 89.3735 29.8288 88.6112 30.0228 87.8563C30.3931 86.3416 30.8317 84.8438 31.3247 83.3622C31.4529 82.9934 31.5861 82.6262 31.7271 82.2613C31.8633 81.895 32.0063 81.5307 32.1612 81.1704C32.4746 80.4506 32.8042 79.7368 33.1948 79.0443C33.2765 78.9003 33.4586 78.8498 33.6027 78.931C33.7071 78.9899 33.7626 79.1023 33.7537 79.2146L33.7532 79.2196C33.6908 80.0121 33.567 80.7828 33.4275 81.5476C33.3586 81.9307 33.2918 82.3138 33.2101 82.6925C33.1359 83.0731 33.0532 83.4513 32.9656 83.828C32.6181 85.3353 32.2404 86.8332 31.8365 88.3251C31.4272 89.8155 31.0297 91.3104 30.6668 92.8137C30.306 94.3181 29.9654 95.8273 29.6362 97.339C28.9764 100.363 28.3671 103.398 27.8008 106.442C27.5201 107.964 27.2464 109.488 26.9875 111.014L26.6059 113.305C26.5682 113.504 26.5593 113.663 26.5366 113.839C26.5172 114.011 26.4905 114.183 26.495 114.357C26.493 114.53 26.4851 114.704 26.4861 114.877L26.5237 115.395C26.6019 116.083 26.7578 116.765 27.0172 117.411C27.2825 118.054 27.629 118.664 28.0448 119.226C28.475 119.778 28.9724 120.276 29.5199 120.717C30.0778 121.145 30.6876 121.502 31.3282 121.798C31.9593 122.06 32.7038 122.305 33.4309 122.528C34.1591 122.756 34.8951 122.964 35.6337 123.16C37.1112 123.555 38.6081 123.888 40.1149 124.173C43.127 124.757 46.1836 125.132 49.2496 125.389C52.3171 125.641 55.399 125.754 58.4824 125.753C61.5662 125.754 64.6481 125.645 67.7156 125.393C70.7816 125.137 73.8393 124.766 76.8513 124.183C78.3586 123.9 79.8555 123.567 81.3336 123.174C82.0726 122.979 82.8087 122.772 83.5368 122.544C84.2615 122.322 85.0144 122.077 85.6455 121.817C86.2855 121.522 86.9038 121.177 87.4592 120.746C88.0081 120.309 88.5155 119.818 88.9432 119.264C89.3629 118.705 89.7144 118.099 89.9862 117.457C90.2416 116.81 90.4099 116.132 90.492 115.444C90.5717 114.748 90.5247 114.07 90.4222 113.358L90.0406 111.068C89.7827 109.542 89.5085 108.018 89.2283 106.496C88.9432 104.974 88.6551 103.453 88.3452 101.937C88.0304 100.421 87.7116 98.9067 87.3666 97.3984C86.6736 94.3824 85.9321 91.3802 85.2208 88.3711C84.5015 85.3625 83.7734 82.3633 83.2824 79.2715C83.2561 79.1102 83.366 78.9587 83.5274 78.933C83.6591 78.9117 83.7853 78.982 83.8407 79.0963Z" fill="#371A45"/>
<path d="M93.276 46.0883C92.8761 46.1067 92.537 45.7973 92.5187 45.3973L91.5613 24.5474C91.5425 24.1475 91.8519 23.8084 92.2519 23.7901C96.4455 23.5975 100.002 26.8413 100.195 31.0354L100.521 38.1456C100.714 42.3392 97.4697 45.8953 93.276 46.0883Z" fill="white"/>
<path d="M92.6087 23.953C92.4923 23.953 92.3765 23.9554 92.2592 23.9609C92.1117 23.9673 91.9756 24.0317 91.8756 24.1411C91.7761 24.25 91.7246 24.3915 91.7315 24.5395L92.6893 45.3899C92.6963 45.5374 92.7601 45.6736 92.8695 45.7736C92.9789 45.8731 93.1205 45.924 93.268 45.9176C97.3612 45.7295 100.539 42.2467 100.35 38.1535L100.024 31.0433C99.9327 29.0604 99.0749 27.2318 97.6087 25.8939C96.2281 24.6351 94.4644 23.953 92.6087 23.953ZM93.2413 46.2596C93.018 46.2596 92.8052 46.1775 92.6394 46.026C92.4626 45.8646 92.3592 45.6444 92.3483 45.4053L91.3905 24.5549C91.3791 24.3163 91.4622 24.0871 91.6231 23.9104C91.7845 23.7337 92.0048 23.6307 92.2438 23.6193C94.3174 23.5233 96.3048 24.2425 97.8388 25.6414C99.3728 27.0408 100.27 28.9535 100.365 31.0275L100.692 38.1377C100.889 42.4189 97.5651 46.0621 93.2833 46.2587C93.2695 46.2596 93.2556 46.2596 93.2413 46.2596Z" fill="#371A45"/>
<path d="M93.961 45.0646C94.2372 43.8167 94.4397 42.5515 94.5674 41.2724C94.6199 40.8709 94.6654 40.4705 94.7045 40.0651C96.7271 39.6265 98.4368 38.388 99.503 36.709L99.5709 38.189C99.7278 41.6055 97.2652 44.5468 93.961 45.0646Z" fill="#B9AFBE"/>
<path d="M92.5215 24.7335L93.4581 45.124C97.0117 44.8404 99.7357 41.7768 99.5708 38.1891L99.2441 31.0789C99.163 29.3043 98.3952 27.6674 97.0825 26.4704C95.8262 25.324 94.213 24.7122 92.5215 24.7335ZM93.2324 45.1379H93.2319H93.2324ZM93.2408 47.0397C92.822 47.0397 92.4245 46.8862 92.1132 46.6021C91.783 46.3006 91.589 45.8883 91.5687 45.4413L90.6108 24.5909C90.5901 24.1434 90.745 23.7153 91.0469 23.3846C91.3489 23.0539 91.7612 22.8604 92.2077 22.8401C94.4892 22.7347 96.6766 23.5252 98.3645 25.0651C100.052 26.6046 101.04 28.7093 101.144 30.9918L101.471 38.1019C101.687 42.8129 98.0304 46.8219 93.3195 47.0382C93.2933 47.0392 93.267 47.0397 93.2408 47.0397Z" fill="#371A45"/>
<path d="M23.43 26.951C23.8295 26.9327 24.1685 27.2421 24.1869 27.6416L25.1447 48.4919C25.163 48.8919 24.8536 49.231 24.4542 49.2493C20.26 49.4419 16.7039 46.1981 16.5114 42.004L16.1847 34.8938C15.9921 30.6997 19.2359 27.1436 23.43 26.951Z" fill="white"/>
<path d="M23.4636 27.1214C23.4547 27.1214 23.4463 27.1214 23.4374 27.1219C19.3442 27.31 16.1673 30.7928 16.3554 34.886L16.6816 41.9962C16.7727 43.9791 17.6305 45.8077 19.0972 47.1456C20.5639 48.4831 22.4632 49.1702 24.4462 49.0786C24.5937 49.0717 24.7303 49.0078 24.8298 48.8985C24.9293 48.7891 24.9808 48.6475 24.9739 48.5L24.016 27.6496C24.0091 27.5021 23.9453 27.3654 23.8359 27.266C23.7334 27.1719 23.6017 27.1214 23.4636 27.1214ZM24.0967 49.4281C22.1553 49.4281 20.3105 48.7148 18.8666 47.3981C17.333 45.9987 16.4356 44.0861 16.3406 42.012L16.0139 34.9018C15.8174 30.6206 19.1408 26.9774 23.422 26.7804C23.6596 26.7675 23.8898 26.8526 24.0665 27.0135C24.2432 27.1749 24.3467 27.3952 24.3576 27.6342L25.3154 48.4841C25.3263 48.7232 25.2436 48.9519 25.0823 49.1286C24.9209 49.3053 24.7006 49.4088 24.4615 49.4197C24.3398 49.4256 24.218 49.4281 24.0967 49.4281Z" fill="#371A45"/>
<path d="M23.7695 48.2996C22.2301 48.2278 20.7767 47.6214 19.6229 46.569C18.3102 45.3716 17.5429 43.7352 17.4612 41.9606L17.3954 40.5266C18.6468 41.9735 20.4332 42.9387 22.4286 43.1263C22.7488 44.887 23.1973 46.6161 23.7695 48.2996Z" fill="#B9AFBE"/>
<path d="M23.4735 27.9011H23.473H23.4735ZM23.2473 27.9154C19.6937 28.1986 16.9697 31.2626 17.1346 34.8504L17.4613 41.9606C17.5429 43.7351 18.3102 45.3716 19.6229 46.569C20.8797 47.7149 22.4924 48.3327 24.1843 48.306L23.2473 27.9154ZM24.0957 50.2087C21.9598 50.2087 19.9298 49.4232 18.3409 47.9743C16.6534 46.4349 15.6659 44.3301 15.561 42.0477L15.2343 34.9375C15.0179 30.2266 18.675 26.2176 23.3859 26.0013C24.3205 25.9602 25.0942 26.6754 25.1367 27.5981L26.0946 48.4485C26.1153 48.8955 25.9604 49.3242 25.6585 49.6548C25.357 49.9855 24.9447 50.1785 24.4977 50.1993C24.363 50.2053 24.2294 50.2087 24.0957 50.2087Z" fill="#371A45"/>
<path d="M31.8074 64.4399C31.7243 64.3469 31.6421 64.2533 31.5604 64.1593C32.049 63.7069 32.5747 63.295 33.133 62.9292C33.2014 62.9945 33.2706 63.0599 33.3395 63.1247C32.794 63.5212 32.2816 63.9613 31.8074 64.4399ZM84.9759 64.3657C84.4942 63.8875 83.9745 63.4495 83.4211 63.0554C83.4889 62.9916 83.5577 62.9262 83.625 62.8614C84.1913 63.2247 84.7254 63.6346 85.2209 64.086C85.1397 64.1796 85.058 64.2726 84.9759 64.3657Z" fill="#5F55BC"/>
<path d="M33.622 66.3333C33.5785 66.2912 33.5354 66.2496 33.4923 66.2075C33.3423 66.0605 33.1938 65.9125 33.0468 65.763C33.5562 65.2418 34.119 64.7735 34.7249 64.3666C34.9417 64.5517 35.1595 64.7324 35.3798 64.9116C34.807 65.3576 34.2215 65.8343 33.622 66.3333ZM83.2967 66.1333C82.6953 65.6353 82.1073 65.1616 81.5331 64.7205C81.7009 64.5829 81.8682 64.4424 82.0335 64.3013C82.6493 64.7047 83.221 65.1705 83.7393 65.6907C83.6378 65.7937 83.5363 65.8962 83.4339 65.9976C83.3883 66.0432 83.3428 66.0882 83.2967 66.1333Z" fill="#B9AFBE"/>
<path d="M33.0469 65.7631C32.6221 65.3324 32.2083 64.8909 31.8074 64.4399C32.2816 63.9613 32.7939 63.5212 33.3394 63.1247C33.7918 63.5519 34.2542 63.9657 34.7249 64.3667C34.119 64.7735 33.5562 65.2418 33.0469 65.7631ZM83.7393 65.6908C83.221 65.1705 82.6493 64.7047 82.0335 64.3013C82.5073 63.8974 82.9686 63.4831 83.421 63.0554C83.9744 63.4494 84.4942 63.8875 84.9758 64.3657C84.5744 64.8181 84.1625 65.2596 83.7393 65.6908Z" fill="#371A45"/>
<path d="M79.4912 69.385C78.9635 68.6925 78.3715 68.0515 77.7235 67.4674C78.5215 66.9664 79.2986 66.4353 80.054 65.876C80.6693 66.3383 81.3069 66.8462 81.9593 67.3827C81.5459 67.75 81.1232 68.1074 80.693 68.4559C80.299 68.7737 79.8986 69.0836 79.4912 69.385Z" fill="#B9AFBE"/>
<path d="M81.9592 67.3827C81.3068 66.8461 80.6693 66.3382 80.054 65.8759C80.5569 65.5037 81.0504 65.1181 81.533 64.7206C82.1072 65.1616 82.6953 65.6353 83.2967 66.1333C82.8621 66.561 82.4161 66.9773 81.9592 67.3827Z" fill="#371A45"/>
<path d="M37.4191 69.5305C37.0281 69.2449 36.643 68.9524 36.2643 68.6519C35.8237 68.3029 35.3921 67.9431 34.9694 67.5733C35.6178 67.0367 36.2524 66.5259 36.8662 66.0576C37.6102 66.6016 38.3725 67.1154 39.1516 67.5985C38.5156 68.1886 37.9349 68.8341 37.4191 69.5305Z" fill="#B9AFBE"/>
<path d="M34.9694 67.5734C34.5095 67.1714 34.0601 66.7576 33.622 66.3334C34.2214 65.8344 34.807 65.3577 35.3797 64.9118C35.8663 65.3073 36.3623 65.6899 36.8662 66.0577C36.2524 66.5259 35.6178 67.0368 34.9694 67.5734Z" fill="#371A45"/>
<path d="M58.3765 76.3423C58.0731 76.3423 57.7697 76.3383 57.4648 76.3309C51.796 76.1883 46.4703 74.7261 41.7752 72.2486C40.2546 71.4462 38.7983 70.5359 37.4192 69.5306C37.935 68.8341 38.5157 68.1886 39.1517 67.5986C44.5977 70.977 50.8649 72.8619 57.441 73.0273C57.7519 73.0352 58.0607 73.0387 58.3701 73.0387C65.456 73.0387 72.0979 71.0002 77.7236 67.4674C78.3716 68.0515 78.9636 68.6926 79.4913 69.3851C78.1716 70.3612 76.7826 71.2477 75.3338 72.0343C70.2848 74.784 64.5027 76.3423 58.3765 76.3423Z" fill="#B9AFBE"/>
<path d="M93.9139 37.4119C93.4209 57.049 77.1023 72.5688 57.4646 72.0762C37.8275 71.5832 22.3073 55.2646 22.8003 35.6269C23.2933 15.9898 39.612 0.469543 59.2496 0.96257C78.8867 1.45559 94.4065 17.7743 93.9139 37.4119Z" fill="white"/>
<path d="M58.3339 1.12198C49.217 1.12198 40.5941 4.56372 33.9636 10.87C27.1123 17.3857 23.2082 26.1794 22.9711 35.6314C22.4816 55.1433 37.9572 71.4159 57.4691 71.9055C57.7691 71.9129 58.0711 71.9169 58.3695 71.9169C77.4805 71.9169 93.2611 56.6189 93.7432 37.4075L93.914 37.4119L93.7432 37.4075C93.9803 27.9554 90.5228 18.9771 84.0066 12.1258C77.4909 5.27454 68.6972 1.37048 59.2452 1.13337C58.9408 1.12545 58.6368 1.12198 58.3339 1.12198ZM58.3695 72.2584C58.0671 72.2584 57.7646 72.2545 57.4607 72.247C47.9171 72.0075 39.0388 68.0663 32.4598 61.1486C25.8812 54.2315 22.39 45.1661 22.6296 35.623C22.8691 26.0794 26.8108 17.2011 33.7279 10.622C40.6456 4.04346 49.7095 0.551743 59.2536 0.791817C68.7972 1.0314 77.6755 4.97258 84.2546 11.8902C90.8331 18.8078 94.3244 27.8728 94.0848 37.4159C93.5982 56.8119 77.6631 72.2584 58.3695 72.2584Z" fill="#371A45"/>
<path d="M58.3725 71.1368C58.0795 71.1368 57.7835 71.1329 57.4889 71.1255C49.4863 70.925 42.1781 68.0094 36.4247 63.2842C41.9801 66.265 49.6298 68.8311 57.8458 68.8395C57.8632 68.8395 57.878 68.8395 57.8953 68.8395C66.5455 68.8395 74.0526 66.5804 79.514 63.8989C73.6487 68.4396 66.3024 71.1368 58.3725 71.1368Z" fill="#B9AFBE"/>
<path d="M58.3344 1.90214C49.419 1.90214 40.9856 5.26814 34.5011 11.4353C27.8008 17.8075 23.9829 26.4076 23.7512 35.6507C23.2721 54.733 38.4067 70.6467 57.489 71.1254C76.5623 71.6065 92.4845 56.4694 92.9631 37.3882L93.914 37.4119L92.9631 37.3882C93.4423 18.3059 78.3072 2.39217 59.2254 1.91351C58.9279 1.90608 58.6304 1.90214 58.3344 1.90214ZM58.3701 73.0386C58.0607 73.0386 57.7518 73.0351 57.4409 73.0272C47.6894 72.7822 38.6171 68.7548 31.8945 61.6862C25.1724 54.6181 21.6049 45.3547 21.8499 35.6032C22.0945 25.8517 26.1218 16.7794 33.1904 10.0568C40.259 3.33466 49.5269 -0.232307 59.2734 0.0117264C69.0249 0.256752 78.0973 4.28408 84.8199 11.3527C91.542 18.4208 95.1094 27.6842 94.8644 37.4357C94.3674 57.255 78.0844 73.0386 58.3701 73.0386Z" fill="#371A45"/>
<path d="M93.7774 38.3223C93.7081 45.282 91.3841 51.721 87.4666 57.0283C84.5303 61.0077 72.5523 67.903 57.8468 67.8886C44.2116 67.8748 31.8796 60.482 29.0225 56.4448C25.2125 51.0601 23.0177 44.5761 23.087 37.6164C23.2711 19.199 39.171 11.7215 58.6923 11.9165C78.2136 12.1116 93.961 19.9048 93.7774 38.3223Z" fill="#371A45"/>
<path d="M58.024 12.8645C47.3568 12.8645 24.2596 15.4375 24.0383 37.6259C23.9725 44.1599 25.9649 50.4776 29.7991 55.8953C32.5206 59.742 44.5526 66.9244 57.8478 66.9378C57.8632 66.9378 57.879 66.9378 57.8943 66.9378C72.6067 66.9378 84.0878 60.0053 86.7014 56.4636C90.643 51.123 92.7611 44.8465 92.826 38.3129H92.8265C92.9096 29.9484 89.6352 23.4763 83.0933 19.0748C77.2068 15.1148 68.766 12.9684 58.6829 12.8675C58.4695 12.8655 58.2488 12.8645 58.024 12.8645ZM57.8953 68.8396C57.878 68.8396 57.8632 68.8396 57.8458 68.8396C43.7086 68.8252 31.2495 61.2379 28.2463 56.9942C24.1794 51.2473 22.0667 44.543 22.136 37.6071C22.2266 28.5629 25.9228 21.6255 33.1231 16.9874C39.4011 12.9437 48.2394 10.8583 58.7017 10.9657C69.1576 11.0701 77.9592 13.3283 84.1551 17.4967C91.2613 22.2774 94.8184 29.2876 94.7283 38.3318C94.659 45.2682 92.4127 51.9284 88.2319 57.5932C85.3352 61.5181 73.466 68.8396 57.8953 68.8396Z" fill="#371A45"/>
<path d="M81.7637 41.9476C81.5534 41.9476 81.3415 41.9278 81.1311 41.8877C78.6566 41.4135 77.1815 38.2619 77.8354 34.8474C78.4334 31.7239 80.6064 29.4632 82.8661 29.4632C83.0765 29.4632 83.2883 29.483 83.4992 29.5236C85.4985 29.9063 86.8459 32.0382 86.9439 34.6444C86.6608 36.1814 86.29 37.6896 85.8366 39.1638C84.8491 40.8651 83.3274 41.9476 81.7637 41.9476Z" fill="#9B8DA2"/>
<path d="M76.3692 50.968C76.1361 50.9675 75.9019 50.9309 75.6732 50.8527C74.3768 50.4121 73.7422 48.8301 74.256 47.3194C74.6793 46.0754 75.749 45.2676 76.8375 45.2676C77.0711 45.2676 77.3048 45.3047 77.5339 45.3824C78.8299 45.8235 79.4644 47.4055 78.9506 48.9162C78.5274 50.1602 77.4577 50.968 76.3692 50.968Z" fill="#9B8DA2"/>
<path d="M57.8944 66.9377C57.879 66.9377 57.8632 66.9377 57.8478 66.9377C53.6869 66.9333 49.6491 66.2269 45.9822 65.1404C62.8018 64.046 76.1391 56.1745 79.5981 51.4868C82.3394 47.7723 84.466 43.6213 85.8366 39.1638C86.2767 38.4064 86.6103 37.5258 86.7944 36.5636C86.9202 35.9087 86.9672 35.2632 86.9439 34.6444C87.3568 32.4016 87.583 30.0974 87.6057 27.7461C87.6245 25.9844 87.5256 24.2999 87.3206 22.6892C91.041 26.769 92.8894 32.0021 92.8265 38.3129H92.826C92.7612 44.8464 90.6431 51.123 86.7014 56.4635C84.0878 60.0053 72.6067 66.9377 57.8944 66.9377Z" fill="#2A1A3B"/>
<path d="M57.8884 67.8896C57.8741 67.8896 57.8602 67.8896 57.8459 67.8896C52.6538 67.8862 47.6518 66.8101 43.2884 65.2558C44.1953 65.2369 45.0937 65.1983 45.9822 65.1404C49.6492 66.2269 53.6869 66.9333 57.8479 66.9378C57.8632 66.9378 57.879 66.9378 57.8944 66.9378C72.6068 66.9378 84.0878 60.0053 86.7014 56.4636C90.6431 51.123 92.7612 44.8464 92.826 38.3129H92.8265C92.8894 32.0022 91.0411 26.769 87.3206 22.6892C87.2509 22.1417 87.1687 21.6022 87.0746 21.0716C91.3544 25.238 93.8497 30.924 93.7769 38.3213C93.7076 45.2825 91.3826 51.721 87.4677 57.0284C84.5333 61.0037 72.5736 67.8896 57.8884 67.8896Z" fill="#2A1A3B"/>
<path d="M85.8366 39.1637C86.29 37.6896 86.6608 36.1813 86.9439 34.6443C86.9672 35.2631 86.9201 35.9086 86.7944 36.5635C86.6103 37.5257 86.2766 38.4063 85.8366 39.1637Z" fill="#6B6577"/>
<path d="M90.9084 23.0946C90.6866 23.0946 90.4634 23.0189 90.2832 22.8654C90.2763 22.86 90.2644 22.8496 90.2579 22.8436L90.1768 22.7704L90.1144 22.6813C84.215 14.2326 72.6998 9.30588 58.5215 9.16431C58.3186 9.16233 58.1151 9.16135 57.9137 9.16135C43.9339 9.16135 32.5781 13.9965 26.692 22.4754L26.6371 22.5471C26.3064 22.9431 25.7184 23.0045 25.3125 22.6803C24.911 22.359 24.8387 21.7779 25.1447 21.369C31.4846 12.2556 43.6527 7.11797 58.5403 7.26202C73.3027 7.41002 85.3545 12.6055 91.6241 21.5215C91.9345 21.869 91.9424 22.3971 91.6311 22.7634C91.4445 22.9832 91.1777 23.0946 90.9084 23.0946Z" fill="#371A45"/>
<path d="M30.9154 48.6525C30.9154 48.6525 25.3927 30.4261 35.257 23.2837C42.4068 18.1065 51.7762 16.771 56.2614 16.771C57.9642 16.771 58.9631 16.9636 58.87 17.2111C58.87 17.2111 43.2364 20.831 37.0108 33.1001C32.2103 42.5605 30.9154 48.6525 30.9154 48.6525Z" fill="#9B8DA2"/>
<path d="M73.3424 87.7886C79.6417 87.5025 82.9582 88.3326 86.3029 90.0706C88.3488 91.1338 90.0516 92.504 90.1253 96.3932C90.1783 99.2177 88.4438 100.618 88.4438 100.618C88.4438 100.618 81.0475 96.7392 72.0212 97.06C70.0655 97.1293 69.8437 87.948 73.3424 87.7886Z" fill="white"/>
<path d="M88.2447 99.5112C86.5118 98.7019 81.3781 96.5561 74.9713 96.1878C74.9476 96.1373 74.9194 96.0893 74.8867 96.0433C74.8659 96.0146 74.8436 95.9868 74.8199 95.9611C74.8258 95.7591 74.8184 95.5567 74.7981 95.3537L74.5951 93.3415C79.8085 93.5925 84.2278 95.083 86.5934 96.0477C86.9018 96.1734 87.2201 96.2329 87.5329 96.2329C88.1408 96.2329 88.7274 96.0086 89.1758 95.6126C89.1986 95.8641 89.2125 96.1294 89.2179 96.4105C89.2471 97.9634 88.6531 98.991 88.2447 99.5112Z" fill="#B9AFBE"/>
<path d="M73.3423 87.7885H73.3448H73.3423ZM72.1429 96.1916H72.1454H72.1429ZM73.1018 96.1332C80.3664 96.1332 86.3465 98.6245 88.2448 99.5111C88.6532 98.9908 89.2472 97.9632 89.218 96.4104C89.1511 92.8588 87.6691 91.8025 85.8847 90.8753C82.882 89.3151 79.7442 88.4058 73.3834 88.6953C72.5687 88.732 72.1088 89.8081 71.9078 90.4462C71.2 92.6895 71.6029 95.6154 72.0974 96.1495C72.4345 96.1387 72.7696 96.1332 73.1018 96.1332ZM88.5502 101.698L88.0225 101.421C87.9508 101.384 80.7193 97.6588 72.0538 97.9667C72.034 97.9672 72.0142 97.9677 71.994 97.9677C70.6748 97.9677 69.8259 96.3891 69.718 93.7245C69.5883 90.5135 70.654 87.0024 73.3012 86.8822C80.0649 86.5748 83.4512 87.5662 86.7212 89.2651C89.2531 90.5808 90.9554 92.2935 91.0321 96.3763C91.0935 99.6071 89.0987 101.255 89.0135 101.324L88.5502 101.698Z" fill="#371A45"/>
<path d="M43.6849 87.7886C37.3856 87.5025 34.0691 88.3326 30.7243 90.0706C28.6785 91.1338 26.9757 92.504 26.9019 96.3932C26.849 99.2177 28.5835 100.618 28.5835 100.618C28.5835 100.618 35.9798 96.7392 45.0056 97.06C46.9618 97.1293 47.1836 87.948 43.6849 87.7886Z" fill="white"/>
<path d="M41.4187 88.642C36.5068 88.642 33.773 89.5088 31.1425 90.8755C29.3585 91.8026 27.8765 92.8589 27.8092 96.4105C27.78 97.9614 28.3725 98.9885 28.7829 99.5107C30.7683 98.5836 37.2167 95.9007 44.9298 96.1497C45.4248 95.6156 45.8272 92.6891 45.1193 90.4463C44.9179 89.8082 44.4585 88.7321 43.6437 88.6955C42.8547 88.6593 42.1147 88.642 41.4187 88.642ZM28.4765 101.698L28.0131 101.324C27.9285 101.256 25.9341 99.6073 25.995 96.3764C26.0722 92.2936 27.774 90.5809 30.306 89.2652C33.5759 87.5664 36.9632 86.5749 43.7259 86.8823C46.3732 87.0026 47.4389 90.5136 47.3087 93.7252C47.1993 96.4293 46.3153 98.0153 44.9738 97.9668C36.3113 97.6584 29.0764 101.384 29.0041 101.422L28.4765 101.698Z" fill="#371A45"/>
<path d="M78.7626 132.027C78.7299 132.099 78.7042 132.176 78.6869 132.255L78.7626 132.027Z" fill="#D66B09"/>
<path d="M28.7829 99.5107C28.3725 98.9885 27.78 97.9614 27.8092 96.4106C27.8142 96.1502 27.8265 95.9032 27.8463 95.669C28.2854 96.0294 28.8448 96.2329 29.4239 96.2329C29.7363 96.2324 30.055 96.1735 30.3629 96.0477C32.734 95.0805 37.1692 93.5851 42.3993 93.3396L42.1959 95.3537C42.1756 95.5572 42.1687 95.7601 42.1741 95.9621C42.1509 95.9878 42.1291 96.0146 42.1083 96.0433C42.0751 96.0898 42.0469 96.1383 42.0231 96.1893C35.6322 96.562 30.5129 98.7029 28.7829 99.5107Z" fill="#B9AFBE"/>
<path d="M28.5122 100.618C28.5122 100.618 26.7777 99.2167 26.8307 96.3937C26.8455 95.6473 26.9203 94.9924 27.0435 94.4167C27.048 94.433 27.0524 94.4494 27.0574 94.4657C27.1979 94.9587 27.4806 95.3686 27.8464 95.669C27.8266 95.9032 27.8142 96.1502 27.8093 96.4105C27.7801 97.9614 28.3726 98.9885 28.7829 99.5107C30.513 98.7029 35.6323 96.562 42.0232 96.1893C41.9257 96.3987 41.9108 96.6397 41.9856 96.8625L42.0633 97.0932C34.3923 97.5357 28.5122 100.618 28.5122 100.618Z" fill="#371A45"/>
<path d="M68.5111 102.817H48.4834C46.3727 102.817 44.4971 101.47 43.8229 99.4701L42.8453 96.5723H74.1496L73.1715 99.4711C72.4968 101.471 70.6217 102.817 68.5111 102.817Z" fill="white"/>
<path d="M70.0258 101.613L69.3056 100.539H70.1105C70.6832 100.539 71.246 100.434 71.7722 100.235C71.3307 100.852 70.7238 101.329 70.0258 101.613Z" fill="#B9AFBE"/>
<path d="M44.1091 97.4798L44.6828 99.1801C45.2332 100.813 46.7603 101.91 48.4834 101.91H68.5111C70.2337 101.91 71.7613 100.813 72.3122 99.1811L72.8859 97.4798H44.1091ZM68.5111 103.725H48.4834C45.9812 103.725 43.7626 102.131 42.9632 99.7603L41.9855 96.8625C41.8925 96.5853 41.938 96.2804 42.1083 96.0433C42.2791 95.8057 42.5533 95.6651 42.8453 95.6651H74.1496C74.4417 95.6651 74.7164 95.8057 74.8867 96.0433C75.057 96.2809 75.1025 96.5858 75.0094 96.8625L74.0313 99.7608C73.2314 102.132 71.0128 103.725 68.5111 103.725Z" fill="#371A45"/>
<path d="M70.1104 99.6315H46.8835C44.6317 99.6315 42.8725 97.6856 43.0987 95.4452L44.4565 81.9951C44.6525 80.0517 46.2885 78.5727 48.2418 78.5727H68.7526C70.7054 78.5727 72.3413 80.0517 72.5374 81.9951L73.8951 95.4452C74.1214 97.6856 72.3626 99.6315 70.1104 99.6315Z" fill="white"/>
<path d="M48.2419 79.4802C46.7485 79.4802 45.5095 80.6003 45.3595 82.0858L44.0017 95.536C43.9181 96.3616 44.1789 97.1551 44.7348 97.7704C45.2912 98.3852 46.0545 98.7243 46.8836 98.7243H70.1105C70.9401 98.7243 71.7029 98.3852 72.2593 97.7704C72.8157 97.1551 73.076 96.3616 72.9929 95.536L71.6346 82.0858C71.4851 80.6003 70.2456 79.4802 68.7527 79.4802H48.2419ZM70.1105 100.539H46.8836C45.5545 100.539 44.2804 99.9732 43.3889 98.9871C42.4974 98.0011 42.0628 96.6769 42.196 95.3538L43.5537 81.9037C43.7978 79.4876 45.8129 77.6655 48.2419 77.6655H68.7527C71.1812 77.6655 73.1963 79.4876 73.4403 81.9037L74.7981 95.3538C74.9318 96.6769 74.4972 98.0011 73.6052 98.9871C72.7137 99.9732 71.4396 100.539 70.1105 100.539Z" fill="#371A45"/>
<path d="M56.3376 100.539C55.8367 100.539 55.4303 100.133 55.4303 99.6316V91.9616C55.4303 91.4324 55.1778 90.9265 54.7556 90.6087L52.1964 88.6822C51.3213 88.0234 50.7986 86.9754 50.7986 85.8795V78.5728C50.7986 78.0719 51.205 77.6655 51.7059 77.6655C52.2068 77.6655 52.6132 78.0719 52.6132 78.5728V85.8795C52.6132 86.4087 52.8657 86.9146 53.2884 87.2328L55.8466 89.1589C56.7222 89.8177 57.2449 90.8657 57.2449 91.9616V99.6316C57.2449 100.133 56.8385 100.539 56.3376 100.539Z" fill="#371A45"/>
<path d="M70.1105 98.7241H68.0894L62.3667 90.1859C62.4414 89.929 62.4984 89.6641 62.536 89.3914C63.0617 91.1957 64.7303 92.5178 66.7019 92.5178C68.5017 92.5178 70.0486 91.4164 70.7045 89.8522C70.9114 90.8952 71.2886 91.7075 71.6445 91.7075C71.9479 91.7075 72.2365 91.1155 72.3904 89.5711L72.9929 95.5358C73.076 96.3615 72.8157 97.155 72.2593 97.7703C71.7029 98.385 70.9401 98.7241 70.1105 98.7241Z" fill="#B9AFBE"/>
<path d="M70.0758 99.6321H68.6983L68.0894 98.7242H70.1105C70.9401 98.7242 71.7029 98.3852 72.2593 97.7704C72.8157 97.1551 73.076 96.3616 72.9929 95.536L72.3905 89.5712C72.5508 87.9639 72.5657 85.3246 72.3014 81.2453C72.8439 81.9576 72.7325 82.9659 72.7325 83.9257L74.319 95.3894C74.319 97.7224 72.4093 99.6321 70.0758 99.6321Z" fill="#371A45"/>
<path d="M45.1911 98.1802C45.0273 98.0619 44.8743 97.9248 44.7347 97.7703C44.1789 97.155 43.918 96.3615 44.0017 95.5359L44.2061 93.5108C44.7847 94.091 45.4911 94.5682 46.2861 94.9459L45.1911 98.1802Z" fill="#B9AFBE"/>
<path d="M44.8779 99.1058C43.5686 98.3812 42.6761 96.9843 42.6761 95.3894V90.6849C42.9063 91.81 43.4459 92.7491 44.2062 93.5109L44.0017 95.5359C43.9181 96.3616 44.1789 97.155 44.7348 97.7703C44.8744 97.9248 45.0274 98.0619 45.1912 98.1802L44.8779 99.1058Z" fill="#371A45"/>
<path d="M70.3589 88.1802C70.3589 90.2003 68.722 91.8378 66.7019 91.8378C64.6818 91.8378 63.0448 90.2003 63.0448 88.1802C63.0448 87.6263 63.0532 86.2126 63.0532 86.2126C63.0532 86.2126 65.2357 84.5231 66.7019 84.5231C68.1671 84.5231 70.3589 86.4571 70.3589 86.4571C70.3589 86.4571 70.3589 87.6258 70.3589 88.1802Z" fill="#22A7F0"/>
<path d="M66.7019 91.1571C65.213 91.1571 63.9755 90.0577 63.7587 88.6281C64.4249 89.5295 65.4951 90.1141 66.7019 90.1141C67.9087 90.1141 68.9789 89.53 69.6452 88.6286C69.4284 90.0582 68.1909 91.1571 66.7019 91.1571Z" fill="#2976B4"/>
<path d="M63.7318 86.5567C63.7294 87.0101 63.7249 87.7991 63.7249 88.1803C63.7249 89.8217 65.0604 91.1572 66.7018 91.1572C68.3433 91.1572 69.6788 89.8217 69.6788 88.1803V86.772C68.8561 86.0973 67.4988 85.2033 66.7018 85.2033C65.8989 85.2033 64.5585 85.9676 63.7318 86.5567ZM66.7018 92.5179C64.31 92.5179 62.3642 90.5721 62.3642 88.1803C62.3642 87.6254 62.3731 86.2082 62.3731 86.2082L62.375 85.877L62.6369 85.6741C62.879 85.487 65.051 83.8426 66.7018 83.8426C68.3764 83.8426 70.5653 85.7315 70.8094 85.9468L71.0395 86.1498V88.1803C71.0395 90.5721 69.0937 92.5179 66.7018 92.5179Z" fill="#371A45"/>
<path d="M70.3589 86.457C70.3589 88.4766 68.722 90.114 66.7019 90.114C64.6818 90.114 63.0448 88.4766 63.0448 86.457C63.0448 84.4369 64.6818 82.7994 66.7019 82.7994C68.722 82.7994 70.3589 84.4369 70.3589 86.457Z" fill="#22A7F0"/>
<path d="M63.2537 85.2334C63.4002 84.8201 63.619 84.4414 63.8952 84.1117C63.6195 84.4414 63.4012 84.8201 63.2546 85.2329C63.2542 85.2329 63.2537 85.2334 63.2537 85.2334Z" fill="white"/>
<path d="M63.0799 86.9673C63.0557 86.801 63.0438 86.6297 63.0438 86.4569C63.0438 86.0278 63.1176 85.6159 63.2537 85.2333C63.2537 85.2333 63.2542 85.2328 63.2547 85.2328C63.1186 85.6154 63.0448 86.0273 63.0448 86.4569C63.0448 86.6302 63.0567 86.8005 63.0799 86.9673Z" fill="#9B8DA2"/>
<path d="M63.0874 87.0149C63.0849 86.9991 63.0824 86.9832 63.08 86.9674C63.0567 86.8006 63.0448 86.6303 63.0448 86.457C63.0448 86.0274 63.1186 85.6155 63.2547 85.2329C63.4012 84.8201 63.6195 84.4414 63.8952 84.1117C64.5664 83.3103 65.5753 82.8005 66.7024 82.8005C68.722 82.8005 70.3589 84.4374 70.3589 86.457C70.3589 86.6238 70.3476 86.7897 70.3248 86.951C70.3466 86.7892 70.3579 86.6238 70.3579 86.456C70.3579 85.9888 70.2703 85.5438 70.107 85.1329C70.0209 85.3562 69.9134 85.569 69.7867 85.7685C69.1383 84.7508 67.9998 84.0761 66.7024 84.0761C65.405 84.0761 64.265 84.7508 63.616 85.7685C63.4898 85.569 63.3819 85.3562 63.2958 85.1329C63.1324 85.5438 63.0448 85.9888 63.0448 86.456C63.0448 86.6461 63.0592 86.8327 63.0874 87.0149Z" fill="#91D3F8"/>
<path d="M66.7014 90.1132C64.8718 90.1132 63.3562 88.7692 63.0874 87.015C63.0913 87.0417 63.0963 87.0684 63.1012 87.0946C63.1849 86.6135 63.3636 86.165 63.616 85.7685C64.263 86.7873 65.4035 87.4629 66.7014 87.4629C67.9997 87.4629 69.1397 86.7873 69.7867 85.7685C70.0391 86.165 70.2173 86.6135 70.3015 87.0946C70.3104 87.0471 70.3178 86.9991 70.3248 86.9511C70.0832 88.7366 68.5532 90.1132 66.7014 90.1132Z" fill="#2976B4"/>
<path d="M70.3015 87.0947C70.2174 86.6136 70.0392 86.1651 69.7867 85.7686C69.9134 85.5691 70.0209 85.3563 70.107 85.133C70.2703 85.5439 70.3579 85.9889 70.3579 86.4562C70.3579 86.624 70.3466 86.7893 70.3248 86.9512C70.3179 86.9992 70.3104 87.0472 70.3015 87.0947ZM63.1012 87.0947C63.0963 87.0685 63.0914 87.0418 63.0874 87.015C63.0592 86.8329 63.0448 86.6463 63.0448 86.4562C63.0448 85.9889 63.1324 85.5439 63.2958 85.133C63.3819 85.3563 63.4898 85.5691 63.616 85.7686C63.3636 86.1651 63.1849 86.6136 63.1012 87.0947Z" fill="#7292BA"/>
<path d="M66.7018 83.4802C65.0604 83.4802 63.7249 84.8157 63.7249 86.4571C63.7249 88.0985 65.0604 89.4335 66.7018 89.4335C68.3433 89.4335 69.6788 88.0985 69.6788 86.4571C69.6788 84.8157 68.3433 83.4802 66.7018 83.4802ZM66.7018 90.7948C64.31 90.7948 62.3642 88.849 62.3642 86.4571C62.3642 84.0653 64.31 82.1194 66.7018 82.1194C69.0937 82.1194 71.0395 84.0653 71.0395 86.4571C71.0395 88.849 69.0937 90.7948 66.7018 90.7948Z" fill="#371A45"/>
</svg>
