<svg width="19" height="19" viewBox="0 0 19 19" fill="none" xmlns="http://www.w3.org/2000/svg">
<path d="M11.3976 9.41791L17.5946 3.23531C17.866 2.96393 18.0184 2.59586 18.0184 2.21208C18.0184 1.82829 17.866 1.46023 17.5946 1.18885C17.3232 0.917473 16.9552 0.765015 16.5714 0.765015C16.1876 0.765015 15.8195 0.917473 15.5482 1.18885L9.36556 7.38586L3.18296 1.18885C2.91158 0.917473 2.54351 0.765015 2.15973 0.765015C1.77594 0.765015 1.40788 0.917473 1.1365 1.18885C0.865123 1.46023 0.712665 1.82829 0.712665 2.21208C0.712665 2.59586 0.865123 2.96393 1.1365 3.23531L7.33351 9.41791L1.1365 15.6005C1.00142 15.7345 0.894207 15.8939 0.821041 16.0695C0.747875 16.2451 0.710205 16.4335 0.710205 16.6237C0.710205 16.814 0.747875 17.0024 0.821041 17.178C0.894207 17.3536 1.00142 17.513 1.1365 17.647C1.27047 17.782 1.42987 17.8893 1.60549 17.9624C1.78111 18.0356 1.96948 18.0733 2.15973 18.0733C2.34998 18.0733 2.53835 18.0356 2.71397 17.9624C2.88959 17.8893 3.04898 17.782 3.18296 17.647L9.36556 11.45L15.5482 17.647C15.6821 17.782 15.8415 17.8893 16.0171 17.9624C16.1928 18.0356 16.3811 18.0733 16.5714 18.0733C16.7616 18.0733 16.95 18.0356 17.1256 17.9624C17.3012 17.8893 17.4606 17.782 17.5946 17.647C17.7297 17.513 17.8369 17.3536 17.9101 17.178C17.9832 17.0024 18.0209 16.814 18.0209 16.6237C18.0209 16.4335 17.9832 16.2451 17.9101 16.0695C17.8369 15.8939 17.7297 15.7345 17.5946 15.6005L11.3976 9.41791Z" fill="#F8F1E5" fill-opacity="100"/>
</svg>
