<svg width="393" height="510" viewBox="0 0 393 510" fill="none" xmlns="http://www.w3.org/2000/svg">
<g clip-path="url(#clip0_752_195)">
<path d="M115.855 191.342L6.20873 167.689L4.78378 167.382C4.05812 167.225 3.30273 167.275 2.60445 167.528C1.90617 167.78 1.29337 168.225 0.836515 168.81C0.37966 169.396 0.0972935 170.098 0.0219081 170.837C-0.0534773 171.576 0.0811857 172.321 0.410379 172.986L43.9445 261.394C44.2263 261.962 44.6404 262.454 45.1519 262.828C45.6635 263.203 46.2576 263.449 46.8842 263.546C47.5127 263.644 48.1556 263.587 48.7573 263.381C49.359 263.175 49.9014 262.825 50.3377 262.362L80.5755 230.479C80.7906 230.246 81.0515 230.061 81.3418 229.934C81.6321 229.807 81.9455 229.742 82.2622 229.742C82.6928 229.736 83.1169 229.847 83.4891 230.064C83.8614 230.28 84.1678 230.594 84.3755 230.971L90.5691 242.427C90.9644 243.191 91.604 243.8 92.3859 244.159C93.1678 244.517 94.0471 244.603 94.8838 244.404L94.9147 244.397C95.7616 244.218 96.5235 243.759 97.0781 243.094C97.6327 242.43 97.9476 241.598 97.9723 240.732L99.213 214.288C99.2278 213.958 99.3102 213.635 99.4551 213.338C99.6107 213.044 99.8218 212.783 100.077 212.57L117.521 198.25C118.095 197.78 118.524 197.157 118.76 196.454C118.995 195.75 119.028 194.995 118.854 194.274C118.68 193.553 118.307 192.895 117.776 192.376C117.246 191.858 116.58 191.499 115.855 191.342H115.855ZM116.525 197.033L99.0807 211.353C98.8533 211.536 98.6474 211.744 98.4666 211.973L6.01056 170.043C5.92901 170.005 5.84395 169.975 5.75658 169.954C5.39996 169.862 5.02243 169.897 4.68929 170.054C4.35614 170.211 4.08832 170.48 3.93215 170.813C3.77599 171.147 3.74129 171.524 3.83405 171.881C3.92682 172.237 4.14123 172.55 4.44019 172.765L80.4597 228.606C80.074 228.807 79.7257 229.073 79.4302 229.392L49.1927 261.275C48.9303 261.551 48.6052 261.759 48.2449 261.883C47.8846 262.006 47.4998 262.041 47.1232 261.984C46.7466 261.927 46.3894 261.78 46.0818 261.555C45.7742 261.331 45.5254 261.035 45.3565 260.694L1.82239 172.286C1.62777 171.887 1.54925 171.441 1.59579 170.999C1.64234 170.557 1.81206 170.137 2.08563 169.787C2.35921 169.437 2.72563 169.17 3.14315 169.018C3.56067 168.866 4.01251 168.835 4.44717 168.927L5.90596 169.242L115.518 192.886C115.954 192.98 116.353 193.195 116.672 193.506C116.991 193.817 117.216 194.212 117.321 194.644C117.426 195.077 117.407 195.531 117.266 195.953C117.125 196.376 116.869 196.75 116.525 197.033Z" fill="#F9BA32"/>
<path d="M139.227 506.72C129.392 504.064 117.422 493.015 119.984 477.829C121.255 470.298 126.133 465.422 131.191 462.27C138.187 457.909 146.154 456.266 153.833 455.851C162.689 455.372 171.535 456.58 180.326 457.856C189.003 459.117 197.682 460.245 206.398 460.935C240.506 463.61 274.823 461.062 308.161 453.379C316.39 451.48 324.569 449.252 332.698 446.695C340.402 444.428 347.934 441.613 355.237 438.272C364.902 433.631 380.62 424.602 379.339 407.878C378.659 399.011 373.437 391.929 368.17 386.996C361.802 381.03 354.432 377.105 347.215 373.293C313.642 355.563 280.004 338.044 246.398 320.421C238.555 316.308 230.66 312.305 223.048 307.485C215.921 302.972 208.828 297.731 203.093 290.483C198.084 284.152 193.608 275.653 193.766 266.153C193.897 258.275 197.482 251.589 201.873 246.592C212.745 234.221 228.124 229.206 242.023 226.578C259.292 223.314 276.81 223.331 294.09 220.179C308.043 217.634 322.951 212.721 334.298 201.208C339.098 196.525 342.493 190.593 344.1 184.083C345.549 177.263 344.844 170.163 342.084 163.761C339.01 156.419 334.107 150.57 328.952 145.781C323.029 140.356 316.312 135.869 309.034 132.474C293.708 125.171 277.592 121.369 261.894 115.764C254.195 113.016 246.419 110.002 239.27 105.281C233.213 101.281 226.616 95.8899 223.246 87.8727C216.294 71.3311 232.88 61.4726 242.278 57.7384C248.665 55.3156 255.245 53.4321 261.947 52.1075C263.364 51.8033 262.763 48.9746 261.352 49.2774C254.297 50.6528 247.384 52.6716 240.697 55.3086C235.03 57.6632 229.182 60.7577 224.731 66.0826C222.704 68.4868 221.206 71.2904 220.333 74.3113C219.46 77.3322 219.232 80.5029 219.663 83.6177C220.843 91.5545 225.968 97.67 230.782 102.1C237.147 107.957 244.405 111.783 251.764 114.901C259.514 118.185 267.428 120.745 275.34 123.255C291.15 128.272 307.669 132.743 321.941 143.418C331.924 150.885 345.487 164.887 342.166 182.242C340.692 189.946 336.215 195.969 331.384 200.399C325.711 205.448 319.169 209.426 312.075 212.14C280.449 224.868 245.642 215.766 214.83 233.053C204.354 238.93 191.629 249.632 191.527 266.47C191.474 275.217 194.98 283.239 199.315 289.58C204.507 297.175 211.23 302.791 218.07 307.485C225.272 312.246 232.751 316.576 240.466 320.452C248.894 324.879 257.325 329.3 265.757 333.715L316.927 360.549L342.351 373.881C350.11 377.951 358.069 381.854 365.124 387.827C370.901 392.718 377.726 400.742 377.136 410.706C376.668 418.618 371.412 424.328 366.609 428.146C360.389 433.089 353.402 436.287 346.45 438.944C338.432 442.008 330.282 444.551 322.116 446.836C305.389 451.512 288.317 454.853 271.062 456.829C253.849 458.811 236.509 459.457 219.197 458.763C210.45 458.411 201.716 457.711 192.996 456.664C184.007 455.581 175.057 453.913 166.046 453.173C157.894 452.504 149.665 452.659 141.637 454.81C134.934 456.606 127.853 459.808 122.765 466.055C119.015 470.824 117.137 476.8 117.485 482.857C117.829 488.902 119.984 494.703 123.67 499.506C127.414 504.412 132.674 507.944 138.632 509.551C140.037 509.93 140.638 507.102 139.227 506.72L139.227 506.72Z" fill="#E6E6E6"/>
<path d="M372.345 424.816C381.565 424.816 389.039 417.342 389.039 408.122C389.039 398.902 381.565 391.428 372.345 391.428C363.125 391.428 355.651 398.902 355.651 408.122C355.651 417.342 363.125 424.816 372.345 424.816Z" fill="#E6E6E6"/>
<path d="M341.889 189.523C351.109 189.523 358.583 182.049 358.583 172.829C358.583 163.609 351.109 156.135 341.889 156.135C332.669 156.135 325.195 163.609 325.195 172.829C325.195 182.049 332.669 189.523 341.889 189.523Z" fill="#E6E6E6"/>
<path d="M304.146 0.69838L257.792 20.8495C255.745 21.7422 254.135 23.4106 253.316 25.4885C252.498 27.5665 252.537 29.8843 253.425 31.9336L267.818 65.0434C268.711 67.0906 270.379 68.7002 272.457 69.5189C274.535 70.3376 276.853 70.2986 278.903 69.4105L325.256 49.2594C327.304 48.3667 328.913 46.6984 329.732 44.6204C330.551 42.5424 330.512 40.2245 329.624 38.1753L315.23 5.0655C314.337 3.01824 312.669 1.4087 310.591 0.589987C308.513 -0.228723 306.195 -0.189739 304.146 0.69838ZM306.065 5.11302C306.342 4.9938 306.633 4.90998 306.931 4.86352L291.26 34.4314L259.072 25.6229C259.272 25.4819 259.486 25.3617 259.711 25.2641L306.065 5.11302ZM323.337 44.8448L276.983 64.9959C276.105 65.3765 275.112 65.3932 274.221 65.0423C273.331 64.6914 272.616 64.0016 272.233 63.1242L257.969 30.3118L291.848 39.5833C292.376 39.7276 292.937 39.688 293.439 39.4709C293.941 39.2538 294.354 38.8721 294.61 38.3889L311.013 7.44062L325.209 40.0944C325.589 40.9727 325.606 41.966 325.255 42.8566C324.904 43.7472 324.215 44.4622 323.337 44.8448Z" fill="#E6E6E6"/>
<path d="M252.155 287.898C275.465 287.898 294.362 269.001 294.362 245.691C294.362 222.38 275.465 203.483 252.155 203.483C228.844 203.483 209.947 222.38 209.947 245.691C209.947 269.001 228.844 287.898 252.155 287.898Z" fill="#F9BA32"/>
<path d="M245.504 508.58H233.864C232.505 508.578 231.202 508.038 230.241 507.077C229.28 506.116 228.739 504.813 228.738 503.454V406.44C228.739 405.081 229.28 403.778 230.241 402.817C231.202 401.856 232.505 401.316 233.864 401.314H245.504C246.863 401.316 248.166 401.856 249.127 402.817C250.088 403.778 250.628 405.081 250.63 406.44V503.454C250.628 504.813 250.088 506.116 249.127 507.077C248.166 508.038 246.863 508.578 245.504 508.58Z" fill="#2F3131"/>
<path d="M268.525 508.58H256.885C255.526 508.578 254.223 508.038 253.262 507.077C252.301 506.116 251.761 504.813 251.759 503.454V406.44C251.761 405.081 252.301 403.778 253.262 402.817C254.223 401.856 255.526 401.316 256.885 401.314H268.525C269.884 401.316 271.187 401.856 272.148 402.817C273.109 403.778 273.65 405.081 273.651 406.44V503.454C273.65 504.813 273.109 506.116 272.148 507.077C271.187 508.038 269.884 508.578 268.525 508.58Z" fill="#2F3131"/>
<path d="M316.761 396.296C316.249 396.295 315.741 396.219 315.252 396.069C314.608 395.873 314.008 395.551 313.489 395.122C312.97 394.693 312.541 394.166 312.227 393.57L266.75 307.876C266.434 307.281 266.239 306.63 266.175 305.96C266.111 305.29 266.18 304.614 266.377 303.97C266.574 303.327 266.896 302.729 267.325 302.209C267.753 301.69 268.28 301.261 268.875 300.945L279.156 295.489C279.751 295.173 280.402 294.977 281.072 294.913C281.742 294.849 282.418 294.918 283.062 295.115C283.706 295.312 284.304 295.635 284.824 296.063C285.343 296.492 285.772 297.019 286.088 297.614L331.564 383.308C331.88 383.903 332.075 384.553 332.139 385.224C332.203 385.894 332.135 386.57 331.937 387.214C331.74 387.857 331.418 388.456 330.989 388.975C330.56 389.494 330.034 389.923 329.439 390.239L319.157 395.695C318.42 396.089 317.597 396.295 316.761 396.296Z" fill="#F9BA32"/>
<path d="M222.09 317.308C221.475 317.308 220.865 317.196 220.289 316.979H220.289L129.534 282.694C128.905 282.456 128.328 282.096 127.838 281.636C127.347 281.175 126.953 280.622 126.676 280.008C126.399 279.394 126.247 278.732 126.226 278.06C126.206 277.387 126.318 276.717 126.557 276.088L130.662 265.198C131.147 263.928 132.115 262.902 133.354 262.344C134.594 261.785 136.004 261.741 137.276 262.219L228.029 296.497C229.298 296.98 230.325 297.946 230.884 299.183C231.443 300.421 231.49 301.83 231.015 303.102L226.901 313.992C226.53 314.967 225.871 315.807 225.011 316.399C224.152 316.991 223.133 317.308 222.09 317.308Z" fill="#F9BA32"/>
<path d="M278.118 295.231H225.23C222.617 295.231 220.498 297.349 220.498 299.963V412.324C220.498 414.938 222.617 417.056 225.23 417.056H278.118C280.732 417.056 282.85 414.938 282.85 412.324V299.963C282.85 297.349 280.732 295.231 278.118 295.231Z" fill="#2F3131"/>
<path d="M283.329 204.357C285.809 209.8 288.183 216.377 285.514 222.199C284.534 224.55 282.697 226.441 280.375 227.488C277.624 228.586 274.625 227.96 272.075 226.633C266.708 223.84 263.248 218.649 258.456 215.093C256.274 213.394 253.694 212.282 250.96 211.863C247.811 211.452 244.685 212.195 241.605 212.769C238.329 213.378 234.943 213.7 231.912 212.039C229.244 210.48 227.157 208.095 225.965 205.245C225.34 203.859 223.301 205.061 223.922 206.439C226.5 212.162 231.831 216.062 238.237 215.611C241.627 215.372 244.901 214.277 248.296 214.121C251.394 214.018 254.431 214.989 256.895 216.87C262.157 220.62 265.728 226.381 271.764 229.105C274.612 230.39 277.874 230.926 280.877 229.819C283.467 228.811 285.625 226.932 286.979 224.505C290.94 217.684 288.396 209.799 285.372 203.163C284.742 201.78 282.702 202.981 283.329 204.357Z" fill="#2F2E41"/>
<path d="M256.82 259.784C254.213 259.711 250.968 259.62 248.469 257.794C247.725 257.228 247.113 256.506 246.677 255.678C246.241 254.851 245.991 253.939 245.945 253.005C245.9 252.341 246.009 251.676 246.263 251.061C246.518 250.446 246.911 249.899 247.412 249.461C248.717 248.358 250.623 248.099 252.679 248.703L250.55 233.147L252.113 232.933L254.616 251.221L253.311 250.623C251.799 249.929 249.721 249.575 248.43 250.666C248.114 250.951 247.867 251.305 247.709 251.701C247.552 252.097 247.487 252.524 247.522 252.949C247.56 253.644 247.747 254.323 248.071 254.939C248.395 255.555 248.848 256.094 249.399 256.52C251.345 257.941 253.931 258.125 256.865 258.206L256.82 259.784Z" fill="#2F2E41"/>
<path d="M242.822 234.488H234.327V236.066H242.822V234.488Z" fill="#2F2E41"/>
<path d="M269.636 234.488H261.141V236.066H269.636V234.488Z" fill="#2F2E41"/>
<path d="M220.428 316.611L183.13 305.238C181.967 304.883 180.985 304.094 180.388 303.035C179.791 301.975 179.625 300.726 179.924 299.548L184.278 282.391C184.45 281.714 184.77 281.082 185.215 280.543C185.661 280.004 186.22 279.57 186.852 279.273C187.485 278.975 188.176 278.822 188.875 278.823C189.574 278.825 190.265 278.982 190.896 279.282L227.89 296.866C229.062 297.311 230.01 298.202 230.527 299.345C231.044 300.487 231.086 301.788 230.646 302.962L226.532 313.854C226.087 315.028 225.195 315.978 224.05 316.495C222.906 317.012 221.603 317.053 220.428 316.611Z" fill="#2F3131"/>
<path d="M267.421 306.905L283.416 342.466C283.915 343.575 284.822 344.45 285.948 344.908C287.075 345.366 288.334 345.373 289.466 344.928L305.934 338.44C306.585 338.184 307.171 337.787 307.649 337.277C308.128 336.767 308.488 336.158 308.703 335.493C308.918 334.827 308.982 334.123 308.893 333.429C308.803 332.736 308.56 332.071 308.183 331.482L286.064 297.008C285.474 295.901 284.47 295.073 283.271 294.705C282.073 294.337 280.777 294.459 279.668 295.044L269.384 300.502C268.275 301.091 267.446 302.097 267.078 303.297C266.71 304.498 266.833 305.795 267.421 306.905Z" fill="#2F3131"/>
<path d="M115.855 191.342L6.20873 167.689L4.78378 167.382C4.05812 167.225 3.30273 167.275 2.60445 167.528C1.90617 167.78 1.29337 168.225 0.836515 168.81C0.37966 169.396 0.0972935 170.098 0.0219081 170.837C-0.0534773 171.576 0.0811857 172.321 0.410379 172.986L43.9445 261.394C44.2263 261.962 44.6404 262.454 45.1519 262.828C45.6635 263.203 46.2576 263.449 46.8842 263.546C47.5127 263.644 48.1556 263.587 48.7573 263.381C49.359 263.175 49.9014 262.825 50.3377 262.362L80.5755 230.479C80.7906 230.246 81.0515 230.061 81.3418 229.934C81.6321 229.807 81.9455 229.742 82.2622 229.742C82.6928 229.736 83.1169 229.847 83.4891 230.064C83.8614 230.28 84.1678 230.594 84.3755 230.971L90.5691 242.427C90.9644 243.191 91.604 243.8 92.3859 244.159C93.1678 244.517 94.0471 244.603 94.8838 244.404L94.9147 244.397C95.7616 244.218 96.5235 243.759 97.0781 243.094C97.6327 242.43 97.9476 241.598 97.9723 240.732L99.213 214.288C99.2278 213.958 99.3102 213.635 99.4551 213.338C99.6107 213.044 99.8218 212.783 100.077 212.57L117.521 198.25C118.095 197.78 118.524 197.157 118.76 196.454C118.995 195.75 119.028 194.995 118.854 194.274C118.68 193.553 118.307 192.895 117.776 192.376C117.246 191.858 116.58 191.499 115.855 191.342H115.855ZM116.525 197.033L99.0807 211.353C98.8533 211.536 98.6474 211.744 98.4666 211.973C98.3036 212.177 98.1628 212.398 98.0467 212.632C97.925 212.871 97.8291 213.122 97.7607 213.381L97.7624 213.389C97.6901 213.659 97.6484 213.937 97.6382 214.216L96.3978 240.661C96.3874 241.181 96.2004 241.682 95.8674 242.081C95.5345 242.481 95.0755 242.755 94.566 242.859L94.5506 242.862C94.0485 242.987 93.519 242.939 93.048 242.725C92.5769 242.511 92.1919 242.144 91.9554 241.684L85.7601 230.22C85.441 229.631 84.9764 229.132 84.4105 228.773C83.8447 228.413 83.1963 228.204 82.5269 228.165L82.5194 228.167C82.4293 228.163 82.3396 228.158 82.2516 228.162C81.627 228.162 81.0119 228.315 80.4598 228.606C80.074 228.807 79.7257 229.073 79.4302 229.392L49.1927 261.275C48.9303 261.551 48.6052 261.759 48.2449 261.883C47.8846 262.006 47.4998 262.041 47.1232 261.984C46.7466 261.927 46.3894 261.78 46.0818 261.555C45.7742 261.331 45.5254 261.035 45.3565 260.694L1.82239 172.286C1.62777 171.887 1.54925 171.441 1.59579 170.999C1.64234 170.557 1.81206 170.137 2.08563 169.787C2.35921 169.437 2.72563 169.17 3.14315 169.018C3.56067 168.866 4.01251 168.835 4.44717 168.927L5.90596 169.242L115.518 192.886C115.954 192.98 116.353 193.195 116.672 193.506C116.991 193.817 117.216 194.212 117.321 194.644C117.426 195.077 117.407 195.531 117.266 195.953C117.125 196.376 116.869 196.75 116.525 197.033Z" fill="#E6E6E6"/>
<path d="M98.8163 212.13L98.1648 213.567L97.7623 213.389L97.7605 213.381L5.37775 171.491L82.5193 228.167L82.5268 228.165L82.7311 228.322L81.801 229.594L80.4597 228.606L4.44009 172.765C4.14113 172.55 3.92672 172.237 3.83395 171.881C3.74118 171.524 3.77588 171.147 3.93205 170.813C4.08821 170.48 4.35604 170.211 4.68918 170.054C5.02233 169.897 5.39986 169.862 5.75647 169.954C5.84385 169.975 5.92891 170.005 6.01045 170.043L98.4665 211.973L98.8163 212.13Z" fill="#E6E6E6"/>
</g>
<defs>
<clipPath id="clip0_752_195">
<rect width="392.82" height="509.827" fill="white"/>
</clipPath>
</defs>
</svg>
