<svg width="748" height="439" viewBox="0 0 748 439" fill="none" xmlns="http://www.w3.org/2000/svg">
<path d="M199.428 344.052C173.111 319.492 159.753 264.042 161.305 229.249C163.117 188.893 176.363 146.76 197.637 112.416C231.285 58.0766 287.943 23.3112 350.471 12.685C406.988 3.07004 475.135 23.8521 518.363 58.9054C547.981 92.4628 574.887 144.499 586.574 192.363C600.424 249.104 584.846 303.738 548.838 348.99C511.375 396.074 464.832 423.015 408.975 430.6C386.88 433.599 344.909 439.106 323.516 430.102C312.096 425.298 303.267 413.836 291.573 408.73C278.559 403.055 262.174 403.631 250.494 394.845C240.24 387.133 237.669 375.404 229.902 366.499C221.249 356.554 208.811 352.81 199.428 344.052" fill="#FCCC68"/>
<path d="M591.424 228.09C582.512 228.792 574.021 228.104 563.992 226.397C501.744 215.771 441.688 184.742 385.375 156.782C355.406 141.9 327.882 128.696 301.593 107.226C289.275 97.1615 276.949 88.0591 263.906 78.5846C256.335 73.0854 250.555 66.1885 244.747 59.432C234.549 67.5931 225.124 76.7307 216.541 86.7249C228.986 98.4187 236.839 113.35 251.054 123.499C266.983 134.87 286.795 143.993 303.932 154.17C338.529 174.727 367.774 192.222 406.585 205.229C441.659 216.979 473.826 232.606 509.16 243.808C534.423 251.794 564.855 254.757 587.976 267.877C590.673 254.898 591.853 241.603 591.424 228.09V228.09ZM325.002 78.9992C384.16 101.671 441.926 132.383 500.086 160.146C519.871 169.586 561.639 196.527 584.605 184.545C579.492 164.529 573.143 143.712 564.624 124.11C541.77 132.756 521.114 123.021 500.234 112.184C477.83 100.561 452.3 89.7589 429.404 78.5778C406.676 67.4739 378.499 54.2208 354.451 46.3618C335.081 40.0267 322.361 33.8955 310.45 23.1498C299.634 26.9916 289.148 31.5986 279.077 36.9574C288.368 55.8642 300.189 69.4897 325.002 78.9992V78.9992ZM299.76 342.261C269.342 330.694 246.65 311.085 218.304 295.858C195.871 283.813 178.046 269.205 162.11 251.632C164.695 276.888 172.814 306.161 186.025 327.351C204.278 338.749 224.871 348.154 242.218 356.308C272.292 370.41 301.249 386.227 332.608 396.116C363.518 405.857 393.908 418.281 423.883 427.791L424.333 427.917C445.087 423.619 464.478 416.462 482.507 406.405C483.49 404.902 484.417 403.35 485.274 401.72C459.773 389.05 423.82 386.066 396.486 380.236C362.83 373.058 332.25 354.615 299.76 342.261V342.261ZM426.51 275.315C390.045 259.737 350.476 249.504 316.104 230.38C288.635 215.097 266.027 194.378 238.777 178.175C226.929 171.131 199.566 156.895 182.738 140.692C178.229 150.784 174.408 161.256 171.241 171.918C172.821 173.224 174.485 174.516 176.333 175.794C192.978 187.285 210.262 196.415 226.62 207.975C255.794 228.589 286.114 240.767 317.255 258.038C332.412 266.458 345.609 277.218 361.594 283.701C383.9 292.747 408.432 293.646 432.185 298.527C464.211 305.115 490.254 317.89 519.913 328.72C527.189 331.382 543.455 338.721 555.36 340.372C563.711 328.776 570.755 316.626 576.338 304.033C558.991 307.58 540.772 304.539 522.343 301.624C488.182 296.223 457.932 288.75 426.51 275.315" fill="#FFE7B4"/>
<path d="M236.893 60.6404C198.195 54.5231 168.549 40.7712 139.634 32.863C106.217 23.7256 41.0339 12.1022 22.078 27.2234C-29.6698 68.4924 99.8261 153.194 129.17 177.494C180.938 220.386 238.909 272.147 300.805 298.899C367.646 327.793 438.87 361.933 507.354 388.517C568.555 412.277 680.851 438.424 720.217 422.173C787.395 394.43 668.413 298.394 642.012 277.794C627.073 266.128 611.678 252.44 595.096 244.04C593.951 254.933 591.556 266.388 585.769 275.146C604.353 297.375 638.746 336.158 591.95 351.75C558.329 362.952 509.924 332.035 480.019 322.772C406.211 299.904 339.328 267.856 272.81 229.34C231.85 205.623 181.261 177.066 147.999 140.236C128.158 118.267 113.739 83.7259 152.002 79.3153C167.124 77.5735 186.346 86.6126 201.229 82.2652C213.969 78.5428 220.213 65.7252 234.477 60.2611L236.893 60.6404" fill="#E2783B"/>
<path d="M550.317 163.258C554.278 158.98 554.587 153.278 550.232 148.79C549.024 147.547 546.981 149.232 548.161 150.546C551.946 154.753 549.769 158.847 546.987 162.85C546.587 163.461 546.552 164.297 547.269 164.754C549.474 166.144 551.539 168.16 552.698 170.52C553.681 172.529 553.821 174.713 554.496 176.813C554.854 177.936 556.862 177.845 557.122 176.693C558.372 171.257 554.818 166.025 550.317 163.258ZM364.346 16.3792L364.03 15.9931C358.875 13.2189 353.938 12.1864 348.565 14.9115C346.935 15.7262 348.094 18.156 349.773 17.4536C354.5 15.466 358.117 16.9692 362.541 18.8233C363.307 19.1464 363.995 18.718 364.395 18.121C364.922 18.739 365.891 19.0692 366.657 18.4862C370.66 15.4311 375.45 14.4478 380.324 15.8806C381.722 16.295 382.986 14.3285 381.581 13.4927C375.822 10.0864 368.75 11.3154 364.346 16.3792V16.3792ZM282.525 50.7232C286.352 45.0764 292.013 43.3907 298.32 45.8559H298.713L299.619 45.5822C301.951 43.4331 304.241 41.3189 306.249 38.9451C307.31 37.6949 305.364 35.9883 304.163 37.0418C302.155 38.7976 300.357 40.7992 298.573 42.7798C291.809 38.945 283.613 42.2671 279.771 48.7918C278.697 50.6319 281.296 52.5352 282.525 50.7232ZM301.326 226.882C302.639 227.226 304.072 225.709 302.969 224.536C301.073 222.52 298.44 221.369 296.733 219.128C294.766 216.544 295.089 213.552 295.686 210.532C295.876 209.555 295.16 209.001 294.359 208.902L294.008 208.116C291.908 206.037 289.414 204.583 287.68 202.118C285.91 199.61 285.018 196.668 284.098 193.767C283.494 191.885 280.72 192.243 280.994 194.315C281.822 200.664 285.797 208.432 292.273 210.588C290.201 217.415 294.113 224.944 301.326 226.882V226.882ZM244.662 315.516C242.569 315.593 242.134 318.613 244.346 318.859C249.41 319.421 250.323 322.546 252.142 326.578C252.648 327.681 254.424 327.645 254.804 326.459C256.77 320.362 250.231 315.319 244.662 315.516ZM235.995 294.264C234.015 293.751 232.982 296.406 234.878 297.256C237.702 298.506 240.588 300.493 241.81 303.45C243.103 306.611 241.986 310.024 241.677 313.262C241.53 314.821 243.552 315.481 244.451 314.28C247.141 310.691 247.528 305.719 245.659 301.617C243.819 297.579 240.153 295.352 235.995 294.264V294.264ZM289.731 156.319C288.579 158.061 291.093 159.802 292.371 158.166C294.787 155.061 297.555 151.655 301.263 150.026C305.372 148.228 309.157 149.885 313.217 150.904C313.617 151.943 315.085 152.793 316.082 151.915C317.985 150.208 320.212 148.291 322.656 147.406C325.599 146.339 328.05 147.406 330.936 148.116C332.172 148.411 333.795 146.907 332.58 145.77C326.785 140.397 319.713 143.88 314.923 148.551L314.656 148.158C304.978 141.31 295.279 147.94 289.731 156.319V156.319ZM523.143 229.642C525.84 227.289 527.336 222.591 526.957 219.037C526.543 215.097 523.586 212.856 520.011 211.697C517.974 211.037 516.872 214.015 518.859 214.816C526.093 217.738 521.486 223.04 520.524 228.273C520.271 229.67 522.153 230.506 523.143 229.642ZM506.491 158.046C508.668 163.005 507.453 167.563 507.362 172.711L508.078 174.01C507.151 174.65 507.074 176.441 508.38 176.897C512.538 178.372 515.888 181.343 517.455 185.508C518.887 189.314 518.178 193.198 518.958 197.075C519.281 198.704 521.402 198.775 522.055 197.349C524.07 192.924 522.771 186.526 520.692 182.312C518.403 177.67 514.694 175.162 509.869 174.01L510.199 173.751C516.984 162.577 507.783 149.836 497.782 144.983C496.272 144.253 494.931 146.774 496.413 147.61C500.69 150.005 504.482 153.481 506.491 158.046V158.046ZM386.47 75.6772C385.269 77.0467 387.411 78.7744 388.738 77.742C391.379 75.6842 394.743 74.3706 398.107 74.5321C401.106 74.6726 403.67 76.1405 406.556 76.6954C407.919 76.9623 408.832 75.0451 407.919 74.0829C402.181 68.0007 391.477 69.9672 386.47 75.6772V75.6772ZM355.855 65.7461C354.528 67.2983 356.888 69.1382 358.362 68.0356C361.776 65.4791 365.807 64.0605 370.105 64.4467C375.45 64.9314 378.386 67.9373 381.062 72.2917C382.017 73.8509 384.728 73.3101 384.328 71.2523C381.876 58.8632 363.251 57.0864 355.855 65.7461V65.7461ZM289.028 392.773C303.546 399.543 318.049 405.92 333.83 409.095C335.642 409.453 336.358 406.384 334.56 405.913C319.228 401.854 304.627 396.214 290.019 390.097C288.305 389.38 287.385 392.007 289.028 392.773V392.773ZM269.539 384.064C271.484 385.637 274.09 386.74 276.323 387.835C277.7 388.509 278.704 386.606 277.903 385.574C276.337 383.53 273.324 383.052 271.372 381.451C269.777 380.152 267.944 382.778 269.539 384.064V384.064ZM293.846 380.896C277.461 375.896 264.355 366.604 250.878 356.336C249.227 355.086 247.457 357.663 249.044 358.948C262.101 369.504 276.133 381.023 293.074 384.274C295.019 384.647 295.721 381.472 293.846 380.896ZM244.894 349.341C246.79 344.867 244.304 341.832 241.038 338.848C239.373 337.324 236.634 339.452 238.278 341.193C240.343 343.378 242.309 345.478 242.113 348.708C242.007 350.359 244.255 350.858 244.894 349.341V349.341ZM229.646 355.542C232.231 358.098 234.78 361.35 238.06 363.015C239.289 363.633 240.617 362.011 240.013 360.88C238.201 357.459 234.555 354.798 231.809 352.122C228.909 349.298 225.853 346.735 222.84 344.045C221.59 342.935 219.736 344.993 220.867 346.215C223.775 349.354 226.598 352.515 229.646 355.542V355.542ZM229.253 323.137C224.674 312.047 219.75 301.315 217.889 289.347C217.58 287.402 214.644 287.936 214.883 289.881C216.393 301.905 220.726 313.852 226.97 324.218C227.806 325.588 229.871 324.661 229.253 323.137ZM216.232 273.299C216.59 270.314 217.608 267.463 217.573 264.436C217.559 262.617 214.876 262.272 214.701 264.162C214.42 267.287 213.57 270.244 213.703 273.397C213.766 274.879 216.063 274.662 216.232 273.299V273.299ZM216.541 325.826C204.341 304.279 199.39 277.78 200.998 253.205C201.117 251.379 198.322 251.105 198.154 252.939C195.871 278.251 201.49 304.911 214.419 326.831C215.178 328.116 217.292 327.147 216.541 325.826V325.826ZM196.334 316.612C197.767 325.89 201.862 336.719 208.246 343.743C209.293 344.895 211.259 343.708 210.564 342.247C206.406 333.419 200.928 325.988 198.975 316.148C198.645 314.456 196.068 314.898 196.334 316.612ZM195 302.27C192.359 281.566 182.456 263.431 184.683 242.003C184.908 239.819 181.726 239.594 181.34 241.687C177.617 261.928 186.284 284.052 192.563 303.05C193.034 304.483 195.176 303.64 195 302.27V302.27ZM168.993 231.363C158.711 259.828 174.984 293.224 187.71 318.262C188.426 319.667 190.519 318.67 189.922 317.209C179.106 290.724 163.1 261.584 171.535 232.304C172.013 230.646 169.583 229.698 168.993 231.363V231.363ZM436.539 383.951C438.33 383.509 438.112 381.24 436.419 380.861C431.763 379.808 426.06 380.7 421.572 382.16C419.641 382.793 420.694 386.192 422.682 385.616C427.247 384.288 432.009 385.082 436.539 383.951ZM389.897 403.385C415.062 402.233 439.418 396.678 462.525 386.627C465.039 385.532 463.206 381.662 460.699 382.778C437.873 392.85 414.078 397.843 389.356 400.337C387.341 400.54 387.959 403.469 389.897 403.385ZM366.861 404.853C368.961 403.111 370.435 403.785 372.62 404.804C374.263 405.576 375.225 403.42 374.425 402.226C371.791 398.272 367.451 398.841 364.325 401.861C362.52 403.595 364.894 406.482 366.861 404.853ZM356.705 419.033C398.107 426.274 447.067 415.31 482.162 392.618C484.677 390.996 481.636 387.442 479.149 389.064C442.523 412.782 399.484 416.849 357.021 415.69C354.844 415.634 354.577 418.661 356.705 419.033V419.033ZM463.073 303.591C468.635 299.742 471.29 292.409 472.477 286.039C472.885 283.848 469.534 283.616 469.071 285.716C468.397 288.764 467.385 291.714 465.826 294.425C464.365 296.968 462.35 299.068 460.804 301.533C459.849 303.064 461.64 304.581 463.073 303.591ZM488.336 300.795C494.285 296.778 497.789 288.814 499.124 281.994C499.517 279.999 496.083 279.192 495.619 281.193C494.018 288.174 489.712 292.859 486.124 298.773C485.196 300.297 486.924 301.743 488.336 300.795V300.795ZM474.514 307.292C495.17 287.444 490.387 245.248 486.784 219.655C486.51 217.759 483.7 218.299 483.869 220.175C486.433 248.507 489.853 280.856 472.224 305.206C471.213 306.611 473.215 308.542 474.514 307.292V307.292ZM245.315 178.583C243.658 182.804 240.912 187.179 240.511 191.758C240.392 193.219 242.428 194.076 243.257 192.77C245.701 188.935 247.366 184.152 248.609 179.805C249.234 177.641 246.144 176.448 245.315 178.583V178.583ZM266.736 128.134C251.165 144.098 232.02 167.029 231.514 190.564C231.472 192.341 234.078 193.163 234.689 191.295C238.397 180.044 240.588 169.22 246.748 158.84C252.851 148.551 261.026 139.723 269.251 131.105C270.957 129.321 268.492 126.336 266.736 128.134ZM220.72 180.058C229.73 162.232 232.21 141.738 248.728 128.478C250.316 127.207 248.321 124.931 246.713 126.097C230.187 138.114 223.353 160.153 217.503 178.871C216.829 181.02 219.736 181.989 220.72 180.058V180.058ZM209.096 173.772C212.053 160.933 214.722 149.394 221.654 137.967C228.319 126.968 237.084 117.395 245.884 108.111C247.085 106.853 245.371 104.747 244.107 106.011C226.261 123.864 205.802 146.114 206.146 173.104C206.16 174.664 208.675 175.605 209.096 173.772V173.772ZM254.769 97.5335C254.333 98.9943 255.646 100.006 256.995 99.5633C259.46 98.7556 261.672 96.0656 263.435 94.0359C265.57 92.7155 263.161 88.1503 260.654 90.468C258.652 92.3291 255.583 94.8295 254.769 97.5335V97.5335ZM503.857 88.2067C502.418 87.0338 500.858 89.3585 502.228 90.5455C518.698 104.894 531.298 122.298 536.242 143.726C536.6 145.306 539.269 145.418 539.262 143.606C539.157 121.89 519.625 101.017 503.857 88.2067ZM488.434 73.303C477.007 63.2246 463.551 55.6395 450.375 48.1175C448.675 47.1553 446.891 49.6134 448.605 50.6529C461.619 58.5611 474.149 67.1859 486.987 75.361C488.385 76.253 489.628 74.3495 488.434 73.303ZM533.482 96.8946C531.993 95.4829 529.513 97.4845 530.995 99.0016C535.069 103.138 539.178 107.275 542.802 111.812C546.447 116.363 548.498 121.301 551.265 126.308C552.206 128.008 554.531 127.165 554.397 125.304C553.611 114.038 541.004 104.016 533.482 96.8946ZM524.759 91.4443C523.972 87.8554 522.097 85.5377 519.526 83.0163C517.918 81.4431 515.214 83.6907 516.836 85.292C519.014 87.4552 520.552 89.6184 521.999 92.3294C522.75 93.72 525.124 93.1229 524.759 91.4443ZM415.202 18.8374C412.92 18.4932 412.639 21.9837 414.865 22.384C451.639 28.8946 487.865 46.2706 509.343 77.6227C510.347 79.0835 512.587 77.5101 511.892 75.979C496.132 41.5928 450.066 24.0417 415.202 18.8374ZM504.883 309.49C516.548 298.07 524.366 279.915 521.837 263.544C521.451 261.071 517.764 261.767 518.037 264.211C519.906 281.193 510.473 293.498 502.663 307.474C501.898 308.844 503.555 310.789 504.883 309.49V309.49ZM551.658 215.174C551.012 212.927 547.718 213.411 548.02 215.813C552.424 251.042 541.404 289.804 515.614 314.61C514.364 315.811 515.635 318.045 517.314 317.237C546.875 303.015 560.002 244.187 551.658 215.174V215.174ZM538.904 308.619C537.415 312.735 535.28 316.036 533.095 319.793C532.161 321.395 533.924 322.961 535.434 321.921C539.444 319.168 541.046 314.357 542.338 309.89C542.984 307.65 539.725 306.379 538.904 308.619ZM552.957 298.983C582.413 267.638 570.811 217.478 570.003 178.751C569.961 176.813 567.109 176.434 566.934 178.456C563.113 221.165 573.985 257.412 550.576 296.813C549.699 298.281 551.609 300.423 552.957 298.983ZM183.777 128.97C182.267 136.007 179.198 142.209 176.859 148.944C176.255 150.686 178.488 151.697 179.598 150.377C184.395 144.66 186.312 136.541 187.654 129.335C188.11 126.849 184.29 126.568 183.777 128.97ZM188.553 154.127C197.36 142.012 203.393 127.924 211.603 115.359C220.614 101.551 231.542 89.4215 244.353 79.041C245.772 77.8892 243.981 75.8247 242.527 76.8922C217.355 95.3284 197.184 123.653 185.687 152.631C184.999 154.373 187.471 155.609 188.553 154.127V154.127ZM258.926 62.1292C254.052 64.4328 250.576 67.8601 247.317 72.0531C246.326 73.3313 248.152 74.8904 249.36 73.9142C253.006 70.9714 256.552 68.0427 260.598 65.6477C262.712 64.3976 261.23 61.0406 258.926 62.1292V62.1292ZM302.148 23.9574C259.502 34.3589 211.533 69.0682 192.394 109.347C191.334 111.566 194.782 113.259 196.138 111.313C221.963 73.8931 257.985 40.0688 302.696 27.0335C304.585 26.4857 304.135 23.4728 302.148 23.9574V23.9574ZM326.266 20.4598C328.008 20.7548 328.52 18.1 326.947 17.503C321.588 15.4803 317.346 17.1657 312.781 20.4104C311.222 21.5201 312.943 23.4657 314.439 22.9811C317.964 21.8433 322.473 19.7996 326.266 20.4598ZM324.131 348.139C319.327 344.916 313.905 342.612 308.644 340.231C306.839 339.423 305.245 342.394 307.022 343.329C312.135 346.018 317.29 348.905 322.789 350.703C324.32 351.202 325.557 349.095 324.131 348.139V348.139ZM341.211 426.583C342.82 427.327 344.238 424.672 342.658 423.809C309.923 405.794 272.917 398.258 243.335 374.294C241.923 373.149 240.413 375.418 241.74 376.577C270.058 401.306 307.661 411.061 341.211 426.583ZM323.562 387.604C320.479 383.123 314.691 380.686 310.604 377.23C309.178 376.029 307.113 378.298 308.398 379.639C312.121 383.523 316.932 387.07 321.546 389.816C323.056 390.722 324.538 389.022 323.562 387.604V387.604ZM344.646 380.938C334.434 372.272 322.607 366.365 310.126 361.694C307.935 360.873 306.734 364.195 308.876 365.094C320.823 370.108 332.046 376.429 343.094 383.165C344.597 384.085 345.973 382.062 344.646 380.938V380.938ZM369.768 355.289C362.759 349.432 353.762 346.925 345.369 343.722C343.29 342.928 342.188 346.046 344.182 346.938C352.287 350.534 360.371 354.137 368.427 357.86C370.028 358.597 370.955 356.287 369.768 355.289V355.289ZM90.6336 111.285C89.0954 109.845 86.539 111.882 88.0771 113.462C90.8724 116.342 94.054 120.97 97.7623 122.593C99.0406 123.148 100.235 121.651 99.6937 120.479C98.0573 116.932 93.471 113.947 90.6336 111.285ZM77.493 77.2784C77.816 78.9288 79.9792 78.6689 80.2882 77.1659C81.0397 73.5208 80.7728 70.0654 85.3801 69.5668C87.0166 69.3912 86.9394 66.6239 85.2678 66.645C79.3823 66.7011 76.4043 71.6527 77.493 77.2784V77.2784ZM69.971 49.3326C71.4459 49.15 71.3898 46.6287 69.8587 46.6779C59.3237 46.9939 49.4208 50.8495 50.6639 63.0911C51.7947 74.2793 60.6511 90.2856 69.2757 97.4354C70.6242 98.5521 72.2254 96.7821 71.6776 95.4055C65.9536 80.9165 38.2397 53.3499 69.971 49.3326V49.3326ZM621.357 397.036C536.038 379.765 457.953 349.214 377.957 315.685C376.082 314.891 375.015 317.834 376.869 318.641C454.863 352.655 535.877 389.142 621.112 399.648C622.811 399.859 622.966 397.366 621.357 397.036V397.036ZM637.532 287.282C636.415 286.25 634.568 287.746 635.699 288.842C651.003 303.752 731.146 358.576 694.934 379.449C692.82 380.664 694.273 383.762 696.563 382.877C743.893 364.546 651.193 299.812 637.532 287.282V287.282ZM609.024 282.801C629.069 302.586 684.911 334.156 673.548 368.022C672.747 370.41 676.209 371.668 677.207 369.378C692.321 334.458 631.211 299.721 610.914 281.193C609.769 280.147 607.873 281.657 609.024 282.801ZM357.393 295.963C305.926 269.113 257.325 239.994 210.051 206.283C208.604 205.25 207.08 207.455 208.478 208.537C253.912 243.836 304.444 273.84 356.543 298.26C357.997 298.941 358.749 296.666 357.393 295.963V295.963ZM305.891 282.331C304.437 281.158 302.351 283.406 303.665 284.768C306.516 287.704 311.988 291.588 316.237 291.503C317.817 291.475 318.61 289.656 317.304 288.61C315.724 287.339 313.624 286.875 311.805 285.997C309.74 284.993 307.689 283.785 305.891 282.331V282.331ZM289.084 275.231C290.721 276.024 292.182 273.278 290.566 272.4C238.25 243.956 190.596 208.432 138.933 179.081C137.367 178.196 135.751 180.367 137.297 181.427C185.968 214.802 235.904 249.427 289.084 275.231ZM168.986 177.199C170.32 178.189 171.676 176.146 170.447 175.106C157.215 163.897 142.782 154.584 131.235 141.443C130.034 140.081 127.906 141.872 129.079 143.269C140.373 156.705 154.974 166.79 168.986 177.199ZM129.978 67.5932C131.411 67.1296 130.596 64.8964 129.185 65.1282C116.711 67.1579 100.635 72.7976 98.591 87.2375C96.6526 100.968 106.745 116.904 114.941 126.996C115.995 128.282 118.151 126.912 117.407 125.402C112.188 114.965 103.866 104.929 102.496 92.9474C100.614 76.5479 117.484 71.6316 129.978 67.5932V67.5932ZM178.095 51.3552C173.467 49.1499 168.677 47.5769 163.936 45.6525C162.349 45.0064 160.958 47.5066 162.517 48.3634C167.139 50.9269 171.914 52.9425 176.662 55.2321C179.057 56.3839 180.483 52.493 178.095 51.3552V51.3552ZM151.161 43.4752C116.599 33.3336 75.1753 18.9567 38.928 26.6824C37.116 27.0687 37.6638 29.4987 39.4055 29.4214C78.1321 27.806 113.087 37.9971 150.592 45.9756C152.017 46.2776 152.565 43.8826 151.161 43.4752V43.4752ZM29.8819 37.3507C31.8765 36.2621 30.4649 33.2071 28.3508 34.1412C-16.1208 53.7573 105.593 157.934 125.891 170C127.309 170.843 128.524 169.01 127.33 167.942C111.732 153.931 -6.01428 56.9388 29.8819 37.3507V37.3507ZM650.982 402.823C648.924 402.191 647.878 405.07 649.823 405.941C669.067 414.552 753.782 411.223 728.589 373.444C727.704 372.11 725.204 373.262 725.689 374.807C736.947 410.485 672.529 409.481 650.982 402.823V402.823ZM402.026 303.225C405.608 304.581 409.113 306.154 412.681 307.552C415.925 308.837 419.233 310.516 422.752 310.705C424.269 310.79 425.168 308.746 423.806 307.847C420.891 305.908 417.33 305.037 414.071 303.801C410.461 302.425 406.844 301.294 403.129 300.233C401.177 299.679 400.081 302.495 402.026 303.225V303.225ZM378.056 288.013C357.632 277.007 335.431 267.294 314.102 258.094C312.5 257.405 311.103 259.976 312.669 260.84C332.685 271.852 354.584 284.487 376.588 290.815C378.21 291.279 379.755 288.926 378.056 288.013V288.013ZM384.061 290.211C386.61 292.262 390.178 293.07 393.219 294.06C394.659 294.537 395.481 292.332 394.034 291.862C391.189 290.935 387.776 290.197 385.409 288.287C384.229 287.339 382.888 289.27 384.061 290.211V290.211ZM160.825 154.577C147.726 143.705 126.235 124.988 123.433 110.14C114.597 63.2739 172.287 79.4135 197.142 80.1439C178.65 101.818 165.432 127.003 160.825 154.577ZM745.607 385.454C745.27 384.148 744.111 383.916 743.226 384.324C741.28 375.896 738.591 367.545 734.791 359.932C734.377 359.11 733.541 359.012 732.909 359.328C695.531 311.991 643.481 278.953 597.71 240.493C596.34 239.341 594.823 241.589 596.13 242.741C642.624 283.897 692.967 317.714 733.513 365.431L734.075 365.719C737.678 374.891 739.567 384.45 742.025 394.002C734.201 466.236 534.753 396.418 495.078 380.257C493.006 379.421 491.995 382.483 493.898 383.439C495.57 384.274 497.902 385.293 500.585 386.416C479.957 404.867 452.524 416.153 425.976 423.148C400.179 429.961 373.434 424.757 347.827 432.012C341.991 432.377 336.211 433.115 330.403 432.679C321.328 431.991 314.706 428.318 307.956 423.373C308.209 422.671 308.089 421.87 307.31 421.456C294.998 414.924 281.457 410.872 268.935 404.642C255.422 397.928 242.899 389.942 230.861 380.931C226.865 366.513 211.68 351.925 197.437 348.638C180.469 325.019 169.07 299.952 161.674 271.789C156.519 252.131 161.246 230.485 154.342 211.627C253.736 282.415 366.657 336.579 478.798 378.157C480.4 378.754 481.214 376.401 479.711 375.706C439.348 356.982 397.208 345.239 357.548 324.429C320.963 305.234 284.596 285.548 248.883 264.773C179.261 224.262 114.372 178.245 54.302 124.91C54.618 124.334 54.7164 123.618 54.1967 122.902C38.4153 101.284 15.0627 86.0716 7.80062 58.5613C-3.42966 15.9649 45.7546 16.0631 74.3325 18.753C124.219 29.604 173.158 38.3904 221.359 56.1594C213.816 62.5295 206.736 69.3491 200.239 76.6041C170.194 76.0563 91.638 62.2556 122.674 118.182C131.664 134.392 145.879 147.673 160.495 159.388L161.176 159.929C164.463 162.555 167.764 165.126 171.03 167.605C212.109 198.768 255.597 227.107 300.006 253.269C301.586 254.203 303.236 251.927 301.663 250.902C255.85 221.13 207.846 193.437 165.594 158.517L164.189 157.358C189.775 72.6851 257.564 30.0466 338.648 5.3175C345.699 5.17704 352.189 6.41314 359.254 7.24892C364.564 7.88101 370.302 8.14785 374.804 5.08568C433.28 6.40606 475.42 31.957 521.268 65.8164L521.072 66.7365C522.792 75.5508 529.198 81.3659 535.701 87.0969C540.07 90.9457 544.621 94.6328 548.554 98.9522C552.065 102.808 554.397 107.289 557.185 111.545C556.469 111.882 555.942 112.683 556.322 113.547C589.809 190.536 598.251 268.376 545.112 339.332C544.038 340.765 544.972 342.591 546.32 343.272C510.726 337.331 477.197 323.445 442.368 314.126C440.865 313.725 439.994 315.952 441.518 316.422C477.042 327.498 512.826 341.629 549.677 347.585C565.733 350.176 589.858 353.969 605.33 346.531C641.929 328.938 604.628 293.119 586.669 277.309C585.517 276.298 583.769 278.208 584.85 279.304C602.388 296.968 610.457 297.86 603.546 324.527C597.52 347.753 598.075 346.896 577.363 346.496C571.379 346.384 565.396 345.745 559.454 345.12C555.514 344.705 551.616 344.087 547.718 343.462L548.947 342.83C601.966 286.264 605.33 177.691 560.62 114.551C561.378 114.389 562.039 113.863 562.017 113.034C561.435 92.9404 535.16 84.5474 526.255 68.2814C527.463 67.7758 528.27 66.2307 527.224 64.9876C493.063 24.2102 424.052 -7.38762 370.646 1.51092C364.704 1.61627 359.037 1.84099 352.87 0.956054C347.006 0.120279 341.078 -0.743506 335.663 2.09391L335.101 2.69782C297.049 9.0188 256.595 27.2091 224.063 53.8696C178.285 31.9709 124.43 22.1244 74.1149 15.1011C48.4166 7.19988 6.06596 9.6509 0.531589 41.8528C-4.23022 69.5106 23.9472 107.029 47.1312 122.811C78.8976 153.573 113.178 181.912 149.342 207.989C155.915 235.767 151.975 262.336 161.007 289.994C168.199 312.04 177.189 335.28 194.867 350.977C194.972 351.56 195.274 352.122 196.018 352.48C203.646 356.139 210.297 360.325 216.007 366.674C219.743 370.846 222.56 375.636 225.776 380.166L226.022 381.816C235.862 392.976 249.22 400.73 262.227 407.662C274.406 414.166 288.059 421.547 301.916 424.033C314.144 440.334 338.507 441.915 356.536 435.467L357.414 434.667C383.878 431.879 409.731 434.695 435.822 426.576C460.931 418.759 485.793 408.315 505.431 390.462L506.358 388.727C565.515 411.644 767.477 469.713 745.607 385.454" fill="#260029"/>
</svg>
