<svg width="691" height="631" viewBox="0 0 691 631" fill="none" xmlns="http://www.w3.org/2000/svg">
<path d="M113.87 134.914C151.62 90.4046 177.711 70.3938 224.158 48.5455C271.774 26.1626 327.119 16.185 380.292 23.3453C499.311 39.403 572.517 115.449 621.047 217.029C664.788 308.587 637.995 445.813 561.415 512.594C539.8 531.435 523.13 545.01 499.801 561.669C478.097 577.17 447.941 585.043 421.94 594.753C358.733 612.726 298.444 610.877 242.977 588.383C193.434 568.272 140.016 526.702 104.66 486.258C68.8367 445.256 45.8526 387.662 47.0553 332.339C47.8014 297.774 43.7369 261.004 60.2289 230.381C73.7143 205.348 77.6005 175.804 100.184 153.8L113.87 134.914Z" fill="#7CCAEA"/>
<path d="M348.517 92.7429C351.357 82.9101 359.953 81.6407 365.811 75.3935C379.318 61.0173 370.733 49.191 370.744 30.9729C370.744 27.8327 370.432 25.0042 369.909 22.365C319.954 17.7214 268.685 27.6213 224.153 48.5453C177.706 70.3936 151.615 90.4044 113.865 134.914L102.373 150.771L102.807 151.506C118.442 156.161 125.046 150.07 135.123 140.092C149.7 125.671 147.35 128.333 167.261 130.237C181.225 131.573 188.842 127.364 197.806 119.602C202.494 115.549 205.022 108.834 211.292 105.66C217.817 102.353 222.572 107.063 228.474 104.124C239.899 98.4444 244.899 78.7342 255.433 76.4625C267.727 73.8122 275.545 91.5738 282.371 99.3576C296.658 115.649 326.234 148.656 345.633 118.567C351.735 109.079 345.7 102.431 348.517 92.7429" fill="#B39B17"/>
<path d="M561.422 512.593C616.856 464.242 646.176 378.998 641.566 300.87C627.579 293.487 608.07 295.257 591.166 295.87C580.643 296.237 568.326 294.979 557.736 296.015C545.498 297.206 533.928 308.242 522.458 305.313C526.144 296.783 524.251 288.665 517.636 283.431C505.944 274.155 492.915 285.224 481.701 282.841C467.526 279.834 469.341 265.035 456 260.603C450.332 258.732 443.272 263.855 438.54 262.006C433.907 260.191 427.849 250.648 424.72 246.683C420.511 241.338 417.76 233.699 412.259 229.668C407.604 226.249 399.353 227.341 395.288 224.267C380.778 213.365 393.674 203.477 386.458 192.018C377.805 178.265 365.923 196.205 354.041 192.876C346.491 190.76 329.732 169.112 325.111 190.292C323.095 199.568 337.973 212.541 337.093 223.332L332.371 216.795C331.514 221.171 327.672 226.116 327.193 231.394C326.336 240.759 332.082 247.095 326.781 257.329C319.287 271.794 296.113 284.879 299.988 303.821C302.538 316.337 311.08 314.856 319.242 321.883C326.959 328.509 331.647 336.66 340.122 341.883C356.636 352.05 374.854 342.974 390.444 348.998C401.502 353.275 408.139 366.37 419.932 370.836C432.081 375.446 442.347 371.214 441.69 387.896C441.145 401.871 425.912 406.158 420.722 417.717C413.128 434.588 426.257 440.478 428.773 453.663C430.422 462.271 421.413 463.24 429.074 472.605C431.201 475.2 440.366 478.518 443.84 478.229C453.405 477.405 450.7 471.001 457.27 467.037C462.548 463.875 467.492 464.888 471.902 462.538C484.062 456.057 491.534 446.559 502.136 439.131C508.739 434.499 508.06 433.151 516.178 431.358C519.886 430.534 526.244 434.064 532.269 431.414C540.153 427.928 552.97 399.421 564.162 415.156C568.794 421.67 558.694 441.959 557.736 449.175C555.866 463.151 560.977 473.173 562.747 485.411C564.763 499.476 555.554 503.796 554.329 515.834C554.206 516.981 554.184 518.028 554.217 519.019C556.612 516.847 559.017 514.687 561.422 512.593V512.593ZM325.768 207.686L332.371 216.795C333.05 213.365 331.87 210.281 325.768 207.686Z" fill="#B39B17"/>
<path d="M190.647 515.689C216.626 518.974 240.513 518.328 263.207 505.723C276.682 498.24 276.849 486.235 287.45 477.65C296.526 470.311 310.39 470.456 320.668 462.616C342.873 445.679 345.456 424.855 348.296 398.575C349.454 387.795 360.512 373.442 350.99 364.21C343.808 357.25 329.075 361.972 321.503 352.395C312.093 340.491 316.036 335.201 302.639 328.164C286.771 319.845 287.539 320.825 280.011 304.923C277.027 298.665 278.775 298.119 274.087 292.763C270.279 288.376 264.009 287.084 259.655 281.505C253.787 273.977 250.992 254.701 235.034 265.859C224.656 273.12 231.638 289.01 227.473 299.756C222.094 313.632 203.442 315.881 199.066 327.896C197.061 333.364 204.623 338.086 203.086 344.221C201.07 352.194 194.812 358.898 192.239 365.847C187.429 378.853 195.892 381.704 201.014 392.473C206.682 404.365 212.562 424.644 212.172 436.615C211.638 453.363 201.193 449.888 189.522 463.841C180.959 474.075 169.144 485.255 169.767 499.053C170.625 518.262 184.756 521.179 200.346 518.83L190.647 515.689Z" fill="#B39B17"/>
<path d="M69.4051 416.671C75.2179 404.432 78.7031 389.121 79.4158 375.457C80.6407 352.195 81.5205 332.473 90.0616 310.447C93.7698 300.904 104.337 291.973 104.571 280.514C104.816 268.632 94.6162 259.301 95.3734 246.16C96.2197 231.406 101.108 228.287 95.5849 212.987C92.1996 203.622 88.4471 188.834 81.5429 180.382C73.4806 196.807 68.7812 214.501 60.229 230.381C43.7369 261.004 47.8014 297.774 47.0553 332.34C46.3872 363.03 53.1803 394.41 65.463 423.263C66.8215 421.437 68.1356 419.354 69.4051 416.671" fill="#B39B17"/>
<path d="M298.219 519.342C298.765 502.683 344.232 466.67 347.495 496.692C351.247 531.458 311.059 523.54 294.611 517.861L298.219 519.342Z" fill="#C28B13"/>
<path d="M407.723 96.7964C430.028 94.1016 435.15 118.622 452.934 124.201C468.524 129.079 491.141 112.42 502.365 102.052C498.334 89.5581 485.517 91.4624 475.317 87.1084C458.713 79.9926 467.087 76.0171 457.199 62.9438C437.945 37.4875 401.665 86.997 413.814 98.4556L407.723 96.7964" fill="#B4E9FF"/>
<path d="M499.812 561.669C500.858 560.923 501.827 560.199 502.852 559.464C495.435 554.508 486.582 551.769 477.128 551.736C452.819 551.68 426.371 561.101 404.734 560.967C392.786 560.889 382.007 552.259 370.504 549.642C360.08 547.27 348.399 548.974 338.054 548.996C313.11 549.063 292.13 534.397 267.832 527.727C255.85 524.431 249.38 517.226 237.932 513.384C221.34 507.839 215.439 519.353 200.305 519.509C189.481 519.62 173.301 509.342 171.33 498.262C169.214 486.369 180.027 477.349 180.394 464.264C173.802 459.398 165.305 456.113 158.891 450.59C151.018 443.797 148.958 434.543 142.199 427.906C128.157 414.098 110.083 415.379 101.074 394.232C91.7203 372.283 87.1991 368.274 78.1569 393.976C74.2372 405.111 71.7541 416.18 66.7319 426.136C76.4646 448.218 89.3818 468.752 104.671 486.258C140.027 526.702 193.445 568.272 242.988 588.383C298.455 610.877 358.744 612.726 421.95 594.753C447.952 585.043 478.108 577.17 499.812 561.669" fill="#3B95BB"/>
<path d="M61.5835 235.002C95.6255 154.301 144.879 84.77 228.486 50.0154C303.696 18.7574 389.675 16.9868 464.017 51.2514C600.352 114.079 670.518 274.044 614.784 415.145C559.406 555.321 410.621 628.349 265.779 590.332C106.56 548.529 16.7396 395.279 60.1133 236.183C60.8928 233.31 56.6838 231.639 55.6927 234.546C-31.4889 491.024 278.853 698.995 498.36 566.557C723.146 430.935 664.427 79.8482 407.737 24.5259C253.485 -8.72543 104.957 87.0306 57.4522 233.477C56.5725 236.194 60.47 237.619 61.5835 235.002" fill="#260029"/>
<path d="M632.525 289.589C619.496 300.257 608.038 286.438 594.608 283.944C581.702 281.538 573.661 290.302 561.122 290.736C559.096 290.814 558.16 293.542 560.287 294.389C566.011 296.683 570.31 296.081 575.866 293.843C587.436 289.222 594.452 289.01 605.799 294.456C617.425 300.046 625.565 303.498 635.955 293.632C638.405 291.304 635.197 287.429 632.525 289.589" fill="#260029"/>
<path d="M561.729 290.491C546.585 283.899 532.153 292.585 522.142 303.988C523.868 303.921 525.605 303.832 527.331 303.754C524.792 300.09 525.126 301.382 525.082 298.086C525.004 293.643 526.608 290.046 525.461 285.536C523.534 277.952 517.22 272.83 509.67 271.716C507.866 271.449 506.685 274.266 508.4 275.18C512.509 277.396 516.785 279.222 519.235 283.398C522.977 289.712 520.227 292.986 519.369 299.066C518.835 302.752 519.993 304.667 522.331 307.997C523.657 309.89 526.273 309.199 527.532 307.752C536.251 297.674 547.32 292.061 560.727 294.89C563.367 295.447 563.968 291.449 561.729 290.491" fill="#260029"/>
<path d="M507.874 271.527C501.449 268.142 493.82 270.859 487.328 272.752C484.266 273.643 480.48 275.202 477.195 274.612C470.647 273.409 470.068 265.291 467.15 260.614C466.137 258.988 463.275 259.022 463.13 261.305C462.607 270.28 468.82 280.514 478.542 280.514C482.684 280.514 486.66 278.955 490.547 277.696C496.259 275.848 501.192 275.48 507.105 275.046C508.697 274.923 509.344 272.307 507.874 271.527" fill="#260029"/>
<path d="M462.73 257.518C458.498 254.111 453.465 253.799 448.231 253.688C445.892 253.632 443.42 253.699 441.16 252.93C438.476 252.04 436.572 249.913 434.088 248.654C432.919 248.064 431.605 249.367 431.839 250.536C432.796 255.425 437.407 258.576 442.151 259.423C444.601 259.868 447.128 259.69 449.611 259.745C453.42 259.835 456.883 260.703 460.58 261.616C463.108 262.229 464.89 259.255 462.73 257.518" fill="#260029"/>
<path d="M458.583 259.256C459.541 260.625 460.176 261.483 461.512 262.474C462.636 263.32 464.697 262.218 464.251 260.725C463.728 258.955 463.048 257.919 461.979 256.383C460.331 254.033 456.969 256.928 458.583 259.256Z" fill="#260029"/>
<path d="M435.771 250.202C423.979 240.715 418.678 229.991 408.89 219.267C399.836 209.356 404.224 233.911 391.507 205.203C388.255 197.853 390.983 181.963 378.255 181.016C373.199 180.626 374.235 183.199 370.449 184.702C365.961 186.461 372.453 188.277 364.324 189.089C359.981 189.535 352.587 183.421 348.645 182.052C336.986 178.01 325.795 178.767 318.701 189.546C317.476 191.383 320.004 194 321.686 192.263C336.518 177.041 353.601 195.437 369.725 196.662C371.552 196.784 372.353 193.221 373.311 193.21C387.308 193.121 383.233 199.368 384.692 210.036C386.518 223.254 389.28 219.913 398.611 224.657C413.322 232.151 417.397 247.831 433.923 253.721C436.139 254.501 437.52 251.605 435.771 250.202" fill="#260029"/>
<path d="M320.29 188.421C310.001 204.323 328.842 204.568 329.889 218.933C330.189 223.109 325.278 222.53 324.298 226.828C321.336 239.645 327.183 248.543 320.524 262.162C314.009 275.469 298.152 284.879 297.194 300.469C295.68 325.368 327.016 321.738 327.584 341.248C327.639 343.831 331.604 345.368 332.439 342.361C340.958 311.827 292.684 327.183 311.927 284.645C316.593 274.333 327.673 266.772 330.379 254.968C332.695 244.857 326.136 229.512 335.946 222.964L336.481 220.47C332.65 211.327 319.043 201.149 323.909 190.303C324.867 188.176 321.56 186.472 320.29 188.421" fill="#260029"/>
<path d="M328.115 339.923C334.574 351.404 344.351 357.373 357.647 356.694C373.571 355.881 387.324 346.215 400.029 359.745C401.355 361.159 403.96 360.134 403.57 358.097C401.488 347.128 391.154 344.89 381.41 346.126C361.956 348.576 346.177 356.671 332.625 337.017C330.887 334.522 326.634 337.262 328.115 339.923" fill="#260029"/>
<path d="M397.815 356.526C404.196 366.359 412.748 376.882 425.02 378.976C434.73 380.635 444.262 374.833 439.886 389.989C437.804 397.216 430.788 403.33 426.011 408.73C420.766 414.666 413.817 421.659 413.884 430.2C413.906 434.176 415.387 437.26 417.525 440.456C423.093 448.786 426.445 447.605 422.425 458.808C421.623 461.035 424.63 462.549 426.033 460.701C428.94 457.405 431.322 453.763 433.171 449.766C433.973 448.307 433.917 446.458 432.414 445.445C396.768 421.202 460.019 403.296 443.717 372.617C442.881 371.036 441.334 370.68 439.719 371.192C417.67 378.23 414.118 363.82 400.487 353.597C398.516 352.116 396.668 354.756 397.815 356.526" fill="#260029"/>
<path d="M421.076 458.295C423.169 468.651 432.312 477.115 442.69 479.141C455.619 481.669 462.924 471.914 465.585 460.444C464.104 461.135 462.634 461.803 461.175 462.482C472.656 465.133 481.888 463.017 490.54 454.743C492.656 452.738 490.507 448.997 487.701 450.344C478.814 454.576 473.135 458.173 462.679 455.845C460.741 455.4 459.293 457.315 458.937 458.941C454.138 481.424 432.211 472.772 425.207 456.981C424.205 454.743 420.586 455.868 421.076 458.295Z" fill="#260029"/>
<path d="M486.852 456.425C497.598 449.365 504.691 440.523 510.293 428.998C508.5 429.31 506.696 429.633 504.892 429.944C525.237 453.419 534.424 422.673 552.875 415.034C555.069 414.121 553.488 410.88 551.294 411.715C544.624 414.276 539.435 418.23 534.201 423.029C525.693 430.835 519.491 436.904 509.736 425.846C508.066 423.953 505.348 424.666 504.346 426.804C499.48 437.071 493.032 446.069 484.391 453.508C482.475 455.167 484.858 457.739 486.852 456.425" fill="#260029"/>
<path d="M549.691 414.777C553.533 414.299 559.958 413.397 560.37 418.385C560.648 421.904 557.853 426.526 556.406 429.599C553.7 435.345 547.341 443.942 549.535 450.59C550.025 452.082 551.952 451.759 552.753 450.857C555.983 447.271 557.72 441.247 559.802 436.904C562.174 431.96 564.913 426.904 566.027 421.459C568.488 409.366 558.087 408.731 549.023 411.014C546.651 411.615 547.23 415.067 549.691 414.777Z" fill="#260029"/>
<path d="M549.026 450.167C550.24 458.418 551.832 466.603 553.692 474.721C555.061 480.723 558.636 487.516 556.509 493.574C552.924 503.808 544.817 512.749 541.71 523.662C541.187 525.522 543.246 527.159 544.85 525.856C554.382 518.15 555.529 503.963 563.97 494.888C565.061 493.73 565.284 492.594 564.783 491.09C560.24 477.349 557.211 463.34 553.436 449.387C552.69 446.648 548.603 447.271 549.026 450.167" fill="#260029"/>
<path d="M354.714 389.076C358.3 382.361 359.625 374.677 354.369 368.341C349.391 362.35 340.65 360.379 333.478 362.885C331.307 363.631 332.42 366.459 334.169 366.816C339.291 367.874 345.372 367.907 349.236 371.96C353.055 375.958 352.22 382.105 350.549 386.893C349.703 389.332 353.4 391.526 354.714 389.076" fill="#260029"/>
<path d="M334.083 360.914C328.415 359.422 325.197 357.684 322.68 352.228C320.709 347.952 319.796 343.275 317.858 338.988C314.128 330.725 304.841 324.578 295.887 329.556C294.117 330.547 294.651 332.896 296.544 333.286C302.034 334.422 307.168 333.364 310.831 338.498C313.448 342.161 314.462 346.905 316.009 351.059C318.949 358.909 324.339 366.27 333.66 365.502C335.965 365.301 336.332 361.504 334.083 360.914" fill="#260029"/>
<path d="M300.223 329.723C282.718 324.289 279.633 311.494 281.181 294.556C281.348 292.574 279.5 290.692 277.462 291.137C257.384 295.525 264.467 265.993 247.507 263.131C239.924 261.85 229.422 267.73 225.425 273.81C219.378 283.019 224.2 295.703 226.182 305.447C226.65 307.741 230.235 307.741 230.402 305.291C231.248 292.485 222.819 275.447 240.826 270.18C250.759 267.285 252.641 274.991 255.625 282.507C259.957 293.476 266.003 300.146 278.564 297.373C277.339 296.238 276.092 295.102 274.867 293.955C273.164 313.298 277.585 330.992 299.244 334.055C301.727 334.4 302.651 330.469 300.223 329.723" fill="#260029"/>
<path d="M227.484 298.966C220.301 312.974 200.569 315.847 195.068 330.313C190.112 343.375 205.123 350.88 188.72 360.491C187.395 361.259 186.872 362.617 187.439 364.076C190.424 371.715 195.078 378.519 198.141 385.991C202.294 396.069 200.123 398.519 200.613 408.018C201.114 417.817 204.01 424.966 211.192 431.859C213.397 433.964 216.693 431.28 214.833 428.775C206.404 420.557 205.235 410.601 211.348 398.875C212.15 397.806 211.894 396.459 211.192 395.457C203.197 383.965 193.007 374.243 197.952 360.891C199.399 356.983 203.252 352.774 204.744 348.776C204.121 346.76 203.23 344.845 202.061 343.052C200.925 334.589 203.174 328.386 208.798 324.444C211.649 321.204 216.125 319.166 219.41 316.337C224.889 311.616 229.187 307.462 231.036 300.28C231.648 297.908 228.597 296.816 227.484 298.966" fill="#260029"/>
<path d="M208.88 431.024C213.88 438.263 204.938 442.672 199.727 445.857C196.286 447.951 195.15 449.688 192.834 453.173C187.778 460.768 183.747 468.04 181.82 476.937C181.43 478.696 184.147 479.565 185.049 478.118C191.575 467.661 195.807 455.712 206.386 448.63C213.613 443.775 221.497 434.71 211.341 428.318C209.504 427.183 207.722 429.321 208.88 431.024" fill="#260029"/>
<path d="M181.209 476.592C178.792 477.215 176.375 477.839 173.981 478.44C172.779 478.663 171.91 479.665 171.754 480.834C164.36 541.391 226.019 522.883 265.439 508.952C277.188 504.799 275.829 502.415 284.114 495.567C297.354 484.609 312.376 477.761 324.492 467.46C329.459 463.251 347.81 443.507 349.96 439.476C354.959 430.167 355.115 432.639 352.754 422.171C352.198 419.666 348.311 420.334 348.824 422.862C349.937 428.396 326.797 455.868 322.722 459.821C310.383 471.792 293.178 472.939 281.018 485.066C266.408 499.643 266.352 502.003 246.353 506.892C235.718 509.498 224.727 512.516 213.958 514.398C197.466 517.271 169.75 515.478 176.331 490.021C178.313 482.36 178.681 483.763 183.146 479.598C184.683 478.151 183.102 475.924 181.209 476.592" fill="#260029"/>
<path d="M347.842 426.047C348.532 419.265 349.935 412.484 351.283 405.791C352.619 399.199 354.902 392.361 354.457 385.624C354.245 382.54 350.024 382.852 348.977 385.134C346.049 391.504 345.27 399.589 344.223 406.515C343.198 413.23 342.886 419.522 344.134 426.203C344.512 428.285 347.619 428.174 347.842 426.047Z" fill="#260029"/>
<path d="M332.777 485.033C320.717 489.287 287.432 502.939 294.915 520.734L296.708 522.003C313.478 522.794 337.052 525.088 347.609 508.574C351.896 501.848 354.736 489.609 349.157 482.872C342.409 474.699 332.186 481.659 326.585 487.327C324.926 489.019 327.008 491.413 328.945 490.099C331.395 488.44 336.496 484.61 340.015 485.144C347.877 486.324 346.852 494.353 345.649 499.498C344.279 505.289 340.961 509.52 335.794 512.427C327.621 517.026 317.175 517.07 308.066 517.282C305.081 517.349 299.08 518.841 298.077 515.032C296.786 510.066 306.808 503.852 309.948 501.881C317.977 496.837 327.164 493.763 335.07 488.596C337.253 487.171 334.87 484.309 332.777 485.033" fill="#260029"/>
<path d="M97.5436 161.15C103.111 164.023 114.882 160.259 120.628 158.433C127.71 156.183 134.982 152.097 136.998 144.424C137.666 141.918 134.38 139.747 132.743 142.197C128.133 149.079 122.454 152.23 114.459 154.068C109.381 155.237 100.895 154.602 97.0423 158.277C96.0623 159.223 96.4078 160.571 97.5436 161.15" fill="#260029"/>
<path d="M136.114 145.226C142.116 139.112 148.987 133.901 155.167 127.954C154.031 128.01 152.896 128.066 151.749 128.11C158.241 132.242 166.715 132.331 174.031 134.157C175.713 134.591 177.416 132.754 176.091 131.228C170.713 125.048 161.604 127.42 154.967 123.511C153.586 122.709 152.083 122.954 151.058 124.213C145.669 130.827 138.553 135.872 132.963 142.353C131.381 144.19 134.41 146.974 136.114 145.226Z" fill="#260029"/>
<path d="M172.881 132.631C194.083 138.444 199.796 114.257 216.722 107.687C218.549 106.975 217.736 104.48 216.11 104.202C208.214 102.821 202.524 108.578 197.936 114.202C191.099 122.576 185.91 130.438 173.738 128.901C171.612 128.623 170.754 132.041 172.881 132.631" fill="#260029"/>
<path d="M214.619 106.463C222.102 107.854 231.49 108.846 236.801 102.153C238.761 99.7031 239.886 96.663 241.166 93.8234C243.149 89.3913 245.977 85.5719 248.149 81.2735C249.307 78.9907 245.944 76.9304 244.196 78.5006C239.084 83.0996 237.291 90.0929 234.307 96.0394C230.509 103.578 222.503 102.687 215.009 102.376C212.336 102.253 212.047 105.984 214.619 106.463" fill="#260029"/>
<path d="M249.805 79.8371C265.361 74.1467 278.412 100.85 286.007 111.095C293.468 121.184 303.913 135.07 317.821 135.204C320.605 135.237 321.83 131.306 318.946 130.249C299.481 123.111 291.007 106.529 278.758 91.0284C274.248 85.3492 269.27 79.4919 263.022 75.65C256.842 71.8527 254.415 72.9552 248.234 76.5186C246.163 77.699 247.589 80.65 249.805 79.8371Z" fill="#260029"/>
<path d="M319.471 133.544C328.513 135.604 339.493 128.856 345.039 122.186C350.54 115.593 355.083 101.262 346.687 95.1259C345.406 94.1793 343.747 95.1371 343.524 96.5736C342.901 100.66 344.816 104.502 344.292 108.656C343.747 113.121 341.219 117.052 338.079 120.159C332.5 125.638 325.908 127.286 318.792 129.702C316.654 130.437 317.812 133.166 319.471 133.544" fill="#260029"/>
<path d="M350.156 96.9305C349.8 92.6098 350.245 87.4986 353.408 84.3138C356.559 81.1401 361.537 79.9152 365.445 77.933C367.094 77.0867 366.626 74.7037 364.833 74.4475C350.958 72.4654 340.702 85.5053 346.548 98.0775C347.506 100.138 350.323 98.9795 350.156 96.9305Z" fill="#260029"/>
<path d="M361.195 78.7122C368.322 74.8258 373.377 67.866 373.455 59.5253C373.522 51.5633 368.366 41.8083 360.304 39.6702C358.689 39.2471 356.808 40.7839 357.721 42.5099C360.627 48.0444 366.05 51.5521 367.097 58.1222C368.233 65.16 363.712 70.7279 359.046 75.3826C357.543 76.8859 359.079 79.8703 361.195 78.7122" fill="#260029"/>
<path d="M364.957 41.641C364.4 37.8772 364.122 34.4698 366.505 31.2293C368.264 28.8351 371.026 27.4987 372.963 25.2604C374.021 24.0244 372.919 21.8639 371.36 21.8082C361.315 21.4185 355.77 35.2379 359.868 43.2557C361.249 45.9839 365.402 44.6811 364.957 41.641" fill="#260029"/>
<path d="M434.466 55.9394C423.297 62.0306 398.598 86.3064 407.418 100.839C408.03 101.852 408.932 102.375 410.135 102.231C428.486 100.059 434.522 118.555 448.063 127.097C461.326 135.448 474.856 126.584 482.951 114.87C483.954 113.422 482.049 111.696 480.691 112.809C470.557 121.094 459.444 133.589 447.417 120.894C441.805 114.97 438.019 107.676 431.649 102.32C425.391 97.0412 420.769 97.676 413.542 95.8609C413.542 95.8609 409.734 96.1282 411.004 97.3754C408.364 94.803 414.522 83.8121 416.048 81.2286C420.925 72.9213 427.919 64.7143 436.371 59.9371C438.843 58.5562 436.994 54.5585 434.466 55.9394Z" fill="#260029"/>
<path d="M437.981 60.1487C453.159 60.8392 448.571 71.5073 453.438 81.9414C456.422 88.3333 459.93 88.6896 466.155 89.8143C473.76 91.1952 482.379 93.2775 489.573 96.1839C504.261 102.13 485.007 108.812 478.871 113.701C477.446 114.836 478.604 117.308 480.397 116.941C487.045 115.56 504.049 108.344 501.332 98.7118C499.283 91.4735 487.201 89.4914 481.11 88.3778C475.854 87.4201 470.097 87.732 465.041 85.7832C458.56 83.2665 457.981 77.2421 456.634 70.9838C454.462 60.9171 449.017 51.9529 437.402 56.8638C435.854 57.5319 436.289 60.0708 437.981 60.1487" fill="#260029"/>
<path d="M77.7007 188.477C76.1974 197.92 77.389 205.86 82.2441 214.178C84.2708 217.63 91.8767 223.41 92.723 226.717C94.2598 232.786 90.6181 234.579 89.1371 239.779C84.9723 254.345 99.8607 263.933 101.787 277.663C102.121 280.035 105.752 279.846 105.974 277.496C106.542 271.46 105.072 267.062 101.965 261.884C100.306 259.133 97.6339 256.973 96.0861 254.2C90.6741 244.456 94.1481 238.176 100.462 229.902L100.317 226.973C89.6494 215.559 81.8208 205.916 82.8564 188.967C83.0568 185.626 78.2241 185.203 77.7007 188.477" fill="#260029"/>
<path d="M100.735 276.048C102.205 291.705 89.3436 298.153 82.5842 310.179C81.259 312.529 83.464 316.282 86.3371 314.634C85.0899 313.798 83.6757 313.064 82.2503 312.329C83.1857 317.095 84.1433 322.74 84.043 327.596C83.9094 334.322 81.0694 336.371 77.8401 342.027C72.7845 350.88 74.5442 357.194 81.1922 364.989C82.7512 366.827 86.2476 364.8 84.8891 362.595C75.4349 347.217 87.6178 344.778 89.767 332.217C90.8026 326.17 89.3879 317.273 88.1852 311.293C87.8289 309.511 85.6799 308.075 83.9316 309.088C85.0006 310.669 86.2703 312.161 87.5175 313.643C94.5219 301.037 111.247 290.981 104.588 274.812C103.664 272.574 100.535 273.877 100.735 276.048Z" fill="#260029"/>
<path d="M82.519 362.239C80.6705 375.78 76.6952 388.219 72.6084 401.169C69.7465 410.2 65.8713 419.276 66.5283 428.831C66.6953 431.036 69.6017 430.724 70.3812 429.176C75.5259 418.82 77.9087 405.679 80.971 394.466C83.8106 384.087 86.205 373.408 86.4611 362.618C86.5168 360.079 82.8642 359.689 82.519 362.239" fill="#260029"/>
<path d="M407.919 506.959C429.244 532.861 464.355 541.402 496.091 546.881C497.695 547.159 498.33 544.509 496.737 544.074C464.967 535.478 433.142 531.168 410.168 505.055C408.921 503.64 406.728 505.489 407.919 506.959Z" fill="#260029"/>
<path d="M435.669 502.482C440.547 506.235 445.335 510.344 450.725 513.329C452.005 514.041 453.854 512.471 452.617 511.257C448.107 506.848 442.718 503.362 437.618 499.687C435.825 498.384 433.921 501.146 435.669 502.482Z" fill="#260029"/>
<path d="M458.702 517.771C475.884 526.235 496.14 534.898 515.75 533.451C517.499 533.317 517.142 530.811 515.628 530.533C495.918 526.947 478.134 523.44 459.749 514.943C457.967 514.13 456.998 516.925 458.702 517.771Z" fill="#260029"/>
<path d="M467.708 496.736C480.146 507.972 499.745 517.46 516.66 518.228C518.275 518.306 518.932 515.957 517.306 515.389C500.246 509.453 484.156 505.534 469.412 494.298C467.842 493.106 466.316 495.489 467.708 496.736Z" fill="#260029"/>
<path d="M499.481 498.652C504.002 501.291 509.269 503.963 514.325 505.311C516.14 505.79 517.287 503.652 515.839 502.438C511.808 499.019 506.084 497.326 501.329 495.133C499.28 494.197 497.521 497.494 499.481 498.652" fill="#260029"/>
<path d="M373.443 519.72C378.766 523.985 383.721 528.707 389.678 532.103C391.081 532.894 393.075 531.168 391.739 529.843C386.772 524.932 381.327 520.633 375.648 516.558C373.61 515.099 371.516 518.184 373.443 519.72" fill="#260029"/>
<path d="M403.91 538.907C422.295 549.052 443.486 556.435 464.321 559.486C465.936 559.72 466.471 557.259 464.945 556.725C444.889 549.587 424.667 545.678 405.38 536.101C403.765 535.299 402.318 538.028 403.91 538.907" fill="#260029"/>
<path d="M344.768 529.542C365.191 551.646 398.831 571.891 429.811 571.68C431.748 571.668 431.96 569.118 430.101 568.718C398.787 561.891 370.335 550.522 347.184 527.504C345.759 526.09 343.376 528.039 344.768 529.542" fill="#260029"/>
<path d="M322.156 542.348C324.996 546.791 329.372 550.477 334.45 552.059C336.377 552.66 337.379 550.344 335.998 549.097C332.579 546.001 328.693 543.562 325.519 540.166C324.049 538.607 320.864 540.31 322.156 542.348Z" fill="#260029"/>
<path d="M342.927 557.571C357.337 567.381 374.608 576.268 391.947 579.029C393.684 579.308 394.196 576.691 392.615 576.078C375.889 569.642 359.976 564.942 344.754 554.965C343.05 553.829 341.223 556.401 342.927 557.571" fill="#260029"/>
<path d="M308.106 555.622C321.157 565.689 335.912 575.778 351.947 580.299C353.829 580.833 354.753 578.306 352.994 577.482C337.794 570.333 324.264 561.647 309.977 552.95C308.184 551.847 306.435 554.33 308.106 555.622" fill="#260029"/>
<path d="M279.079 554.954C281.663 555.823 282.754 557.805 284.613 559.564C285.816 560.7 287.898 559.609 287.163 557.927C285.827 554.976 283.355 552.66 280.304 551.613C278.143 550.845 276.908 554.219 279.079 554.954Z" fill="#260029"/>
<path d="M299.771 570.978C307.889 575.633 315.65 581.758 324.347 585.277C326.007 585.956 327.198 583.562 325.773 582.537C318.312 577.181 309.726 572.66 301.608 568.361C299.827 567.426 297.967 569.932 299.771 570.978" fill="#260029"/>
<path d="M262.775 565.7C268.098 569.686 273.387 573.428 279.667 575.744C281.349 576.356 282.195 573.896 280.614 573.149C274.801 570.455 269.623 567.047 264.49 563.25C262.942 562.092 261.227 564.553 262.775 565.7" fill="#260029"/>
<path d="M542.482 258.387C566.112 271.672 596.056 273.888 622.671 272.73C624.408 272.652 624.208 269.857 622.548 269.701C594.999 267.318 569.687 267.34 543.874 255.737C542.337 255.047 541.001 257.541 542.482 258.387" fill="#260029"/>
<path d="M550.733 273.253C553.128 277.819 559.464 278.877 564.119 277.73C565.655 277.351 565.766 274.846 563.996 274.779C559.597 274.623 556.257 274.367 552.548 271.705C551.569 271.015 550.154 272.151 550.733 273.253" fill="#260029"/>
<path d="M539.242 244.1C543.496 246.405 547.694 248.721 552.616 247.652C554.331 247.285 554.319 244.69 552.504 244.523C548.228 244.133 545.155 242.997 541.413 240.993C539.286 239.868 537.104 242.931 539.242 244.1Z" fill="#260029"/>
<path d="M568.068 253.399C581.063 255.782 593.858 258.321 607.087 257.073C608.524 256.94 608.446 254.523 606.987 254.523C594.059 254.568 581.085 252.252 568.391 250.08C566.253 249.701 565.974 253.009 568.068 253.399Z" fill="#260029"/>
<path d="M544.351 223.744C560.62 233.643 581.355 238.164 600.33 237.964C602.379 237.942 602.613 235.247 600.631 234.824C581.901 230.781 563.705 230.136 546.311 220.949C544.418 219.958 542.425 222.586 544.351 223.744" fill="#260029"/>
<path d="M551.405 209.924C555.491 210.893 559.534 211.995 563.565 213.131C565.257 213.599 566.549 211.439 565.034 210.325C561.248 207.552 556.839 206.695 552.273 206.127C550.124 205.86 549.211 209.401 551.405 209.924" fill="#260029"/>
<path d="M577.161 215.659C584.021 218.12 591.482 218.71 598.687 217.73C600.279 217.508 600.145 215.08 598.564 214.924C591.649 214.267 585.057 214.791 578.342 212.463C576.271 211.739 575.09 214.913 577.161 215.659" fill="#260029"/>
<path d="M562.528 197.831C569.866 199.312 576.615 202.586 583.864 204.212C585.512 204.568 586.403 201.951 585 201.138C578.374 197.274 570.367 195.37 562.884 194C560.434 193.544 560.122 197.341 562.528 197.831" fill="#260029"/>
<path d="M102.463 192.074C114.145 215.57 129.122 238.61 149.345 255.681C150.469 256.639 152.162 254.812 151.104 253.743C132.507 234.802 116.973 214.679 104.913 190.905C104.122 189.357 101.673 190.504 102.463 192.074" fill="#260029"/>
<path d="M116.416 185.192C117.909 187.33 119.389 189.468 121.049 191.484C122.051 192.709 124.278 191.372 123.432 189.947C122.04 187.575 120.47 185.337 118.9 183.076C117.719 181.361 115.203 183.477 116.416 185.192" fill="#260029"/>
<path d="M133.801 213.165C142.208 228.253 154.447 240.647 166.44 252.908C167.598 254.088 169.491 252.529 168.433 251.215C157.765 237.942 144.959 226.873 136.396 211.94C135.494 210.358 132.899 211.55 133.801 213.165Z" fill="#260029"/>
<path d="M127.086 172.976C141.808 195.047 154.446 218.232 175.56 234.98C176.84 236.004 178.243 233.944 177.007 232.92C156.796 215.893 144.502 192.219 129.458 170.949C128.289 169.301 125.984 171.328 127.086 172.976Z" fill="#260029"/>
<path d="M143.186 168.923C144.322 170.504 145.514 172.041 146.75 173.555C147.741 174.758 149.935 173.444 149.11 172.029C148.041 170.225 146.928 168.477 145.758 166.729C144.556 164.947 141.906 167.141 143.186 168.923" fill="#260029"/>
<path d="M156.403 190.682C163.474 197.742 169.176 206.127 176.637 212.797C177.817 213.855 179.576 211.907 178.507 210.748C171.803 203.521 165.545 195.804 158.452 188.945C157.227 187.764 155.178 189.446 156.403 190.682Z" fill="#260029"/>
<path d="M157.775 158.711C165.191 169.424 172.496 180.248 180.324 190.693C181.349 192.074 183.197 190.37 182.306 189C175.202 178.054 167.552 167.464 160.046 156.785C158.944 155.203 156.706 157.141 157.775 158.711Z" fill="#260029"/>
<path d="M178.532 160.939C179.679 162.509 180.826 164.101 181.973 165.682C182.964 167.052 184.879 165.359 183.966 163.99C182.863 162.364 181.784 160.727 180.681 159.112C179.679 157.609 177.452 159.446 178.532 160.939Z" fill="#260029"/>
<path d="M115.172 238.075C122.511 256.895 137.956 276.56 154.816 287.73C156.453 288.821 157.922 286.549 156.519 285.302C140.729 271.227 127.31 255.893 118.056 236.695C117.154 234.835 114.438 236.171 115.172 238.075" fill="#260029"/>
<path d="M110.258 258.732C112.107 261.416 113.922 264.111 116.06 266.583C117.14 267.83 119.412 266.494 118.566 264.968C116.929 261.973 114.936 259.222 112.964 256.427C111.65 254.556 108.955 256.861 110.258 258.732" fill="#260029"/>
<path d="M122.671 275.837C127.627 286.26 135.211 294.923 143.796 302.54C144.965 303.565 146.591 301.683 145.611 300.547C138.362 292.028 130.378 284.745 125.188 274.645C124.364 273.053 121.892 274.222 122.671 275.837Z" fill="#260029"/>
<path d="M118.257 293.698C122.344 299.589 126.319 305.58 130.595 311.349C131.753 312.908 133.881 310.97 132.856 309.422C128.925 303.42 124.682 297.607 120.551 291.75C119.437 290.157 117.165 292.106 118.257 293.698" fill="#260029"/>
<path d="M102.632 380.991C111.229 390.78 120.883 401.637 131.886 408.719C133.445 409.722 134.803 407.606 133.489 406.437C123.623 397.573 115.004 387.038 104.792 378.62C103.367 377.439 101.44 379.622 102.632 380.991" fill="#260029"/>
<path d="M99.9333 397.751C102.929 399.499 104.666 401.748 106.982 404.209C108.14 405.457 110.423 404.176 109.577 402.539C107.818 399.098 105.29 396.771 101.983 394.844C100.012 393.686 97.9511 396.604 99.9333 397.751" fill="#260029"/>
<path d="M116.755 414.543C123.136 420.278 128.715 426.381 134.305 432.873C135.318 434.042 137.501 432.773 136.655 431.347C132.089 423.663 125.229 417.817 118.459 412.105C116.978 410.857 115.363 413.285 116.755 414.543" fill="#260029"/>
<path d="M95.2594 414.778C110.905 430.412 124.959 451.982 145.226 461.971C146.851 462.773 147.965 460.278 146.64 459.265C136.684 451.581 127.865 443.652 119.435 434.321C112.475 426.593 105.716 418.72 97.3197 412.517C95.95 411.493 94.0011 413.508 95.2594 414.778Z" fill="#260029"/>
<path d="M88.4485 426.125C97.5352 442.661 111.989 457.761 129.105 465.901C130.474 466.547 131.566 464.398 130.33 463.585C114.684 453.229 101.388 440.779 91.9006 424.488C90.6757 422.394 87.2569 423.953 88.4485 426.125" fill="#260029"/>
<path d="M92.3865 445.456C94.6025 448.686 96.6517 452.037 99.2909 454.933C100.505 456.247 102.899 454.877 102.019 453.173C100.149 449.554 97.6095 446.336 95.2488 443.029C93.8345 441.058 91.0502 443.485 92.3865 445.456" fill="#260029"/>
<path d="M111.777 472.46C119.494 479.944 127.122 488.318 136.431 493.841C137.913 494.71 139.36 492.716 137.979 491.647C129.482 485.11 121.699 478.006 113.959 470.601C112.645 469.354 110.441 471.169 111.777 472.46" fill="#260029"/>
<path d="M255.036 616.256C294.891 632.882 349.656 636.668 390.446 621.289C392.284 620.588 391.27 617.748 389.411 618.071C342.975 625.71 301.873 625.565 256.25 612.96C254.09 612.358 252.909 615.376 255.036 616.256Z" fill="#260029"/>
<path d="M410.959 619.463C430.001 613.773 453.175 608.784 468.509 595.532C469.99 594.263 468.431 591.724 466.638 592.626C457.206 597.325 448.375 602.559 438.475 606.345C429.066 609.942 419.4 612.815 409.979 616.378C408.276 617.024 409.189 619.986 410.959 619.463Z" fill="#260029"/>
<path d="M130.483 83.5894C176.329 52.8659 214.614 23.0333 269.958 11.3296C272.13 10.873 271.484 7.88867 269.368 8.00003C216.763 11.0401 166.251 46.7747 128.045 80.7164C126.185 82.3645 128.512 84.9257 130.483 83.5894Z" fill="#260029"/>
<path d="M306.129 8.55717C331.34 0.561716 355.961 9.85993 381.373 6.7642C383.233 6.55262 383.088 3.63513 381.24 3.50151C356.585 1.73092 328.69 -4.19312 305.016 5.06067C303.089 5.80676 304.125 9.19191 306.129 8.55717Z" fill="#260029"/>
<path d="M57.0242 184.847C50.6101 196.628 44.7971 208.889 41.089 221.806C40.5878 223.555 43.1047 224.535 43.7728 222.786C48.5501 210.515 53.4383 198.321 59.6075 186.651C60.5318 184.891 58.0042 183.054 57.0242 184.847" fill="#260029"/>
<path d="M51.3184 153.845C23.9022 199.68 3.5015 247.363 0.00487945 301.16C-0.162156 303.843 4.01374 304.244 4.18078 301.549C7.69967 247.385 28.6461 202.787 53.8462 155.616C54.7482 153.912 52.3652 152.119 51.3184 153.845Z" fill="#260029"/>
<path d="M31.3993 253.777C23.7825 275.525 19.9517 300.046 24.8848 322.841C25.3302 324.901 28.114 324.288 28.0249 322.284C27.0115 298.776 27.3012 277.619 34.5617 254.935C35.2298 252.886 32.112 251.706 31.3993 253.777" fill="#260029"/>
<path d="M657.161 288.788C658.218 338.386 651.771 382.027 633.987 428.608C633.352 430.278 635.98 431.781 636.86 430.111C659.176 387.829 664.321 335.669 660.078 288.665C659.922 287.039 657.127 287.128 657.161 288.788" fill="#260029"/>
<path d="M627.287 445.734C615.472 460.846 603.59 476.246 592.588 491.959C591.408 493.663 593.869 496.101 595.361 494.487C608.456 480.322 618.969 463.407 630.015 447.661C631.263 445.89 628.601 444.053 627.287 445.734Z" fill="#260029"/>
<path d="M687.143 318.531C685.039 328.097 683.97 337.985 682.177 347.618C681.898 349.143 684.282 350.023 685.05 348.676C689.961 339.968 689.638 328.565 690.729 318.865C690.985 316.505 687.622 316.338 687.143 318.531Z" fill="#260029"/>
<path d="M681.28 363.943C662.627 414.176 641.993 459.532 609.576 502.538C608.396 504.097 610.768 506.38 612.16 504.888C648.029 466.402 669.209 414.722 684.03 364.956C684.576 363.163 681.948 362.15 681.28 363.943" fill="#260029"/>
<path d="M544.934 545.4C553.598 539.587 562.262 533.707 570.725 527.616C572.74 526.168 570.257 523.351 568.264 524.698C559.622 530.533 551.126 536.625 542.685 542.749C540.847 544.074 543.108 546.636 544.934 545.4" fill="#260029"/>
<path d="M509.054 40.6615C555.98 78.4228 596.781 114.992 624.208 169.39C625.01 170.949 627.738 170.248 627.271 168.422C612.739 112.186 555.1 70.6611 510.891 38.0445C509.221 36.8085 507.472 39.3809 509.054 40.6615Z" fill="#260029"/>
<path d="M554.579 47.2646C560.514 52.2312 565.124 58.5451 570.124 64.4025C571.238 65.7054 573.61 64.3134 572.719 62.721C568.565 55.3269 563.799 49.0241 556.873 43.9908C554.768 42.4429 552.63 45.6277 554.579 47.2646Z" fill="#260029"/>
<path d="M584.919 77.0081C608.248 96.8854 621.5 121.93 637.446 147.408C638.593 149.268 641.188 148.043 640.486 145.961C631.344 118.511 609.573 91.5848 587.168 73.7899C585.164 72.1975 583.026 75.3823 584.919 77.0081" fill="#260029"/>
<path d="M635.737 199.546C641.872 218.398 644.913 239.189 653.665 257.073C654.389 258.554 656.984 257.874 656.538 256.16C651.472 236.75 645.091 217.185 638.588 198.176C637.931 196.261 635.124 197.641 635.737 199.546" fill="#260029"/>
<path d="M649.941 201.773C652.068 208.755 655.03 215.548 657.926 222.252C658.627 223.9 661.288 223.064 660.932 221.294C659.473 214.078 655.564 207.675 653.304 200.693C652.691 198.8 649.362 199.846 649.941 201.773" fill="#260029"/>
<path d="M61.6002 466.458C81.9118 510.856 116.421 563.016 166.532 576.279C168.871 576.891 170.185 573.606 167.857 572.682C118.014 552.961 87.8804 511.636 63.9943 465.334C63.2037 463.819 60.8875 464.91 61.6002 466.458" fill="#260029"/>
<path d="M84.8253 546.201C93.3553 559.363 104.636 571.557 116.496 581.813C117.788 582.915 119.491 580.9 118.455 579.653C108.411 567.481 97.253 556.39 87.5315 543.896C86.095 542.036 83.6004 544.33 84.8253 546.201" fill="#260029"/>
</svg>
