<svg width="42" height="40" viewBox="0 0 42 40" fill="none" xmlns="http://www.w3.org/2000/svg">
<path d="M20.6164 0C9.28691 0 0.110535 9.17638 0.110535 20.5059C0.110535 29.5797 5.98034 37.2438 14.1314 39.9608C15.1567 40.1403 15.5412 39.5251 15.5412 38.9868C15.5412 38.4998 15.5156 36.8849 15.5156 35.1676C10.3635 36.116 9.03059 33.9116 8.62047 32.7581C8.38978 32.1686 7.39012 30.3487 6.51862 29.8617C5.80092 29.4772 4.77562 28.5288 6.49299 28.5032C8.10783 28.4775 9.26128 29.9898 9.64577 30.605C11.4913 33.7065 14.439 32.835 15.6181 32.2968C15.7975 30.9639 16.3358 30.0667 16.9254 29.5541C12.3628 29.0414 7.59518 27.2728 7.59518 19.4293C7.59518 17.1993 8.38978 15.3538 9.69703 13.9184C9.49197 13.4057 8.77427 11.3039 9.90209 8.48431C9.90209 8.48431 11.6195 7.94603 15.5412 10.5862C17.1817 10.1248 18.9247 9.89408 20.6677 9.89408C22.4107 9.89408 24.1537 10.1248 25.7941 10.5862C29.7159 7.9204 31.4333 8.48431 31.4333 8.48431C32.5611 11.3039 31.8434 13.4057 31.6383 13.9184C32.9456 15.3538 33.7402 17.1737 33.7402 19.4293C33.7402 27.2984 28.9469 29.0414 24.3844 29.5541C25.1277 30.1949 25.7685 31.4253 25.7685 33.3477C25.7685 36.0903 25.7429 38.2947 25.7429 38.9868C25.7429 39.5251 26.1274 40.1659 27.1527 39.9608C31.2237 38.5869 34.7612 35.9707 37.2672 32.4807C39.7733 28.9906 41.1216 24.8025 41.1223 20.5059C41.1223 9.17638 31.9459 0 20.6164 0Z" fill="#2F3131"/>
</svg>
