<svg width="484" height="485" viewBox="0 0 484 485" fill="none" xmlns="http://www.w3.org/2000/svg">
<path d="M22.8072 157.603C55.2237 76.4027 133.996 16.6122 220.425 3.42644C238.822 0.618706 257.573 -0.240356 276.07 1.78295C323.67 6.99998 368.065 31.5162 401.515 65.7879C434.959 100.053 457.937 143.589 472.306 189.266C478.799 209.916 483.649 231.55 481.557 253.097C479.739 271.848 472.754 289.684 465.121 306.904C434.604 375.697 387.464 443.3 316.511 468.352C245.49 493.422 167.228 469.834 105.122 432.499C50.3553 399.584 18.6361 342.01 9.27903 278.945C3.24646 238.255 7.52963 195.871 22.8072 157.603Z" fill="#BB6C51"/>
<path d="M107.02 158.138C112.804 141.279 118.874 123.935 130.74 110.637C149.093 90.0615 177.743 82.8275 204.606 76.6268C222.187 72.5615 239.768 68.4962 257.355 64.4371C239.494 79.4469 223.98 97.2397 211.535 116.969C199.912 135.384 190.549 155.966 173.808 169.898C164.345 177.767 153.002 183.059 141.491 187.417C130.36 191.626 104.648 203.535 93.4922 198.754C96.2065 185.101 102.482 171.361 107.02 158.138" fill="#9B5840"/>
<path d="M136.96 216.105C152.368 207.644 169.289 201.63 183.129 190.791C212.364 167.9 222.817 127.845 249.462 101.984C270.492 81.5762 299.933 71.8518 329.062 68.6269C305.605 77.5669 286.56 95.7331 272.397 116.458C258.222 137.177 248.441 160.529 238.866 183.732C234.913 193.307 230.898 203.037 224.411 211.105C210.521 228.375 187.344 235.485 165.23 236.935C153.483 237.701 141.53 237.166 130.137 240.141C106.461 246.33 91.5445 265.554 76.958 283.621C87.3858 254.348 109.966 230.915 136.96 216.105" fill="#9B5840"/>
<path d="M323.177 433.899C326.906 425.999 331.681 418.585 337.34 411.917C343.684 404.446 351.086 397.959 358.457 391.503C374.631 377.328 390.811 363.165 406.991 349.001C412.028 344.581 417.376 340.005 423.919 338.567C430.474 337.123 438.505 340.068 440.354 346.511C441.338 349.948 440.429 353.621 439.277 357.001C431.016 381.268 411.075 399.51 391.154 415.652C375.142 428.62 358.638 440.972 341.679 452.676C335.198 457.146 328.923 463.963 322.199 457.065C316.385 451.101 320.257 440.1 323.177 433.899" fill="#9B5840"/>
<path d="M259.449 385.801C265.357 373.437 266.434 359.311 271.365 346.524C276.464 333.288 285.777 321.715 297.612 313.895C303.806 309.799 310.86 306.674 318.275 306.319C324.438 306.026 330.508 307.651 336.634 308.342C362.283 311.262 386.949 297.964 407.736 282.656C428.523 267.341 447.978 249.287 472.133 240.166C449.205 226.221 419.938 223.233 394.669 232.253C364.051 243.179 341.726 269.451 313.836 286.161C294.312 297.865 272.299 304.719 251.979 314.985C231.664 325.251 212.147 340.136 204.085 361.428C196.154 382.383 200.58 405.698 199.983 428.104C199.827 433.837 196.291 445.697 200.705 448.835C218.977 429.118 247.677 410.423 259.449 385.801" fill="#9B5840"/>
<path d="M423.621 156.077C393.919 161.313 370.336 183.202 348.603 204.12C343.037 209.48 336.967 216.472 338.953 223.936C340.367 229.265 345.758 232.814 351.218 233.586C356.671 234.351 362.187 232.851 367.386 231.033C384.867 224.914 400.96 214.996 418.883 210.327C434.229 206.336 450.341 206.349 466.154 207.569C467.648 207.681 469.342 207.75 470.431 206.716C471.359 205.845 471.539 204.463 471.639 203.199C472.728 189.515 470.91 170.894 462.873 159.203C455.241 148.102 436.651 153.78 423.621 156.077" fill="#9B5840"/>
<path d="M123.732 65.3584C139.619 55.9703 157.599 50.8405 175.348 45.7978C187.239 42.4173 199.13 39.043 211.027 35.6625C216.256 34.1808 221.623 32.6245 225.956 29.3374C230.289 26.0503 233.408 20.5717 232.337 15.2426C231.16 9.35944 225.227 5.39381 219.288 4.55958C213.349 3.72535 207.372 5.34391 201.595 6.95633C178.784 13.3064 155.775 19.7437 134.844 30.8128C113.515 42.0935 94.957 57.8754 76.5853 73.5265C66.5809 82.0493 51.266 92.9191 47.1695 105.993C44.2373 115.337 46.049 124.184 56.01 121.414C67.5522 118.189 80.8624 100.801 89.4163 92.8382C100.162 82.8399 111.038 72.854 123.732 65.3584" fill="#9B5840"/>
<path d="M395.496 60.1848C461.48 133.653 495.441 219.304 458.2 315.9C422.602 408.232 345.56 477.273 243.044 475.312C153.738 473.6 63.847 421.623 28.6663 337.565C-9.78901 245.694 11.627 155.424 72.152 79.5153C74.1131 77.0562 70.3341 73.5449 68.0493 75.7737C-46.0965 187.267 -10.536 383.971 129.147 455.907C194.192 489.394 276.077 496.336 343.07 464.249C412.828 430.843 460.578 356.572 477.86 282.818C497.57 198.747 462.651 112.679 398.465 56.9351C396.548 55.2729 393.833 58.3296 395.496 60.1848" fill="#260029"/>
<path d="M413.477 73.2152C371.884 18.0628 288.841 -4.42391 222.675 0.712184C149.637 6.38368 83.1478 42.8966 44.045 105.445C42.5322 107.873 45.9065 110.226 47.6808 107.985C91.652 52.596 148.435 16.0457 219.942 9.37813C293.827 2.49887 354.34 31.8586 410.7 76.2594C412.63 77.7784 414.834 75.0206 413.477 73.2152Z" fill="#260029"/>
<path d="M478.113 235.497C441.75 227.391 403.095 220.232 369.502 240.857C350.775 252.356 336.475 269.644 317.164 280.489C295.679 292.561 271.107 297.753 249.43 309.432C224.982 322.599 206.616 341.438 203.703 369.87C202.352 383.124 204.562 395.656 201.704 408.835C199.183 420.459 193.157 429.872 189.652 441.084C185.748 453.548 185.449 463.322 191.227 475.281C192.366 477.622 196.039 475.891 194.887 473.544C184.055 451.512 201.2 431.03 205.919 410.822C208.664 399.055 206.697 387.171 207.525 375.267C210.812 328.053 250.936 312.433 289.136 297.205C316.311 286.372 334.67 272.608 357.231 254.759C394.423 225.318 434.086 229.552 477.814 238.685C479.838 239.108 480.093 235.939 478.113 235.497" fill="#260029"/>
<path d="M475.863 246.423C438.92 242.545 422.578 273.087 396.804 293.501C364.269 319.256 322.259 294.746 289.481 318.092C281.077 324.075 275.325 331.116 271.683 340.759C267.698 351.318 270.674 363.265 267.462 373.705C262.369 390.284 252.084 403.98 238.936 414.57C218.547 430.999 195.718 449.234 203.332 478.195C203.948 480.548 207.702 479.901 207.074 477.535C196.652 438.115 242.279 424.96 261.217 400.462C283.387 371.787 264.044 326.16 309.945 314.307C336.404 307.471 363.759 318.702 388.723 304.371C419.303 286.815 434.07 246.61 475.52 250.034C477.855 250.227 478.185 246.666 475.863 246.423" fill="#260029"/>
<path d="M290.941 307.495C266.412 320.893 257.827 349.051 251.782 374.507C251.421 376.014 253.681 376.873 254.054 375.354C260.485 349.406 269.139 325.008 292.192 309.432C293.275 308.697 292.093 306.867 290.941 307.495Z" fill="#260029"/>
<path d="M250.49 378.735C244.196 408.892 220.645 412.864 204.228 434.112C194.622 446.538 192.972 461.728 196.782 476.607C197.386 478.967 201.153 478.307 200.524 475.941C191.908 443.537 214.363 431.827 234.528 413.324C244.831 403.855 250.372 392.624 252.912 378.965C253.198 377.415 250.808 377.235 250.49 378.735" fill="#260029"/>
<path d="M301.913 301.886C275.759 307.546 247.14 318.422 231.29 341.257C224.672 350.795 221.348 361.944 218.59 373.088C212.227 398.825 206.892 423.073 196.906 447.87C196.084 449.893 199.234 451.039 200.075 449.04C212.115 420.272 214.811 390.414 225.531 361.733C239.109 325.413 270.2 317.108 302.847 304.812C304.484 304.196 303.612 301.525 301.913 301.886" fill="#260029"/>
<path d="M261.217 327.604C252.396 343.554 250.472 361.34 243.723 378.037C239.104 389.449 232.841 396.683 223.422 404.328C218.342 408.449 215.31 410.678 213.056 416.922C212.539 418.354 214.694 419.612 215.503 418.205C223.285 404.614 237.934 398.937 244.875 383.89C253.074 366.128 254.301 346.212 263.346 328.719C263.975 327.511 261.883 326.396 261.217 327.604" fill="#260029"/>
<path d="M262.437 325.326C222.425 341.481 225.687 380.223 212.694 414.781C212.028 416.555 214.786 418.137 215.726 416.369C222.892 402.909 223.708 388.055 227.505 373.487C232.84 352.992 245.173 338.157 263.62 327.81C265.157 326.945 264.086 324.666 262.437 325.326" fill="#260029"/>
<path d="M250.348 340.28C233.626 354.287 230.252 376.755 224.643 396.689C224.126 398.526 226.772 399.56 227.45 397.729C234.61 378.374 235.438 356.84 252.216 342.484C253.623 341.276 251.774 339.091 250.348 340.28" fill="#260029"/>
<path d="M250.646 341.973C246.251 350.795 245.093 360.37 241.868 369.577C238.301 379.744 231.397 385.851 225.769 394.542C224.748 396.129 226.721 397.997 228.222 396.777C245.392 382.856 245.672 361.963 253.255 342.932C253.933 341.238 251.424 340.404 250.646 341.973" fill="#260029"/>
<path d="M457.771 240.845C429.893 241.175 419.31 262.335 400.334 279.132C367.563 308.124 326.107 286.279 290.671 306.076C288.965 307.029 290.185 309.706 291.985 308.84C320.684 295.063 351.327 306.145 380.251 295.624C411.204 284.361 422.367 246.105 457.89 243.87C459.602 243.764 459.496 240.82 457.771 240.845Z" fill="#260029"/>
<path d="M455.221 239.039C435.984 236.711 413.174 231.812 394.173 237.751C371.898 244.717 355.899 264.776 337.826 278.391C336.512 279.381 338.131 281.149 339.444 280.303C356.297 269.339 370.118 252.232 388.651 243.92C409.115 234.738 433.419 241.019 454.941 241.984C456.84 242.065 457.114 239.27 455.221 239.039" fill="#260029"/>
<path d="M308.903 296.389C310.341 296.389 310.565 294.148 309.114 294.148C307.676 294.148 307.452 296.389 308.903 296.389Z" fill="#260029"/>
<path d="M306.118 294.945C299.73 298.288 292.944 302.297 288.207 307.825C287.167 309.027 289.028 310.558 290.186 309.637C295.783 305.198 300.795 300.535 307.126 297.074C308.452 296.352 307.468 294.235 306.118 294.945Z" fill="#260029"/>
<path d="M335.379 280.203C328.487 283.614 321.452 286.87 314.728 290.587C313.234 291.415 314.299 293.75 315.874 293.009C322.834 289.734 329.589 285.924 336.387 282.338C337.726 281.635 336.742 279.531 335.379 280.203Z" fill="#260029"/>
<path d="M430.352 243.721C415.087 250.899 406.564 263.767 393.939 274.307C374.465 290.556 348.455 289.716 324.561 292.909C322.245 293.221 322.917 296.638 325.19 296.445C345.329 294.746 368.128 294.341 386.107 283.963C403.439 273.952 413.574 255.575 431.479 246.105C432.979 245.315 431.902 242.993 430.352 243.721" fill="#260029"/>
<path d="M430.847 243.372C413.845 243.515 397.689 244.325 382.642 253.072C366.605 262.398 351.782 274.955 337.22 286.372C335.957 287.368 337.532 289.13 338.82 288.252C350.892 280.022 362.558 271.225 374.543 262.865C392.64 250.239 408.758 246.971 430.585 246.18C432.353 246.111 432.677 243.36 430.847 243.372" fill="#260029"/>
<path d="M334.85 287.879C331.164 289.317 327.061 290.55 323.669 292.604C322.374 293.389 322.822 295.885 324.559 295.394C328.524 294.279 332.316 292.106 336.014 290.326C337.601 289.566 336.462 287.251 334.85 287.879" fill="#260029"/>
<path d="M412.741 249.442C387.471 250.662 369.349 270.983 349.159 283.808C347.634 284.772 348.673 287.244 350.398 286.41C372.3 275.882 387.484 254.317 413.208 252.107C414.97 251.957 414.441 249.355 412.741 249.442" fill="#260029"/>
<path d="M410.535 251.036C401.191 255.948 395.046 264.652 386.162 270.217C375.94 276.623 364.379 278.671 353.559 283.534C351.996 284.237 352.812 286.603 354.461 286.36C364.839 284.816 375.877 280.471 384.842 275.092C394.847 269.09 401.589 259.198 411.668 253.427C413.125 252.593 412.054 250.239 410.535 251.036" fill="#260029"/>
<path d="M395.066 257.915C391.692 259.802 388.554 262.074 385.36 264.24C381.973 266.538 377.97 268.679 375.169 271.674C374.092 272.826 375.131 274.674 376.7 274.046C380.218 272.645 383.374 269.98 386.474 267.845C389.93 265.461 393.503 263.188 396.747 260.524C398.091 259.422 396.647 257.031 395.066 257.915" fill="#260029"/>
<path d="M474.919 225.573C457.861 220.008 440.66 217.405 422.637 218.626C400.026 220.163 385.084 231.282 364.496 236.431C352.587 246.927 344.077 240.309 338.965 216.565C343.697 210.053 349.013 204.045 354.909 198.542C364.721 189.26 375.883 181.471 387.768 175.078C409.75 163.255 433.943 156.8 458.496 153.158C461.329 152.74 460.551 148.414 457.731 148.793C427.101 152.865 397.343 161.649 371.488 179.093C355.936 189.59 327.71 211.118 328.625 232.577C329.16 245.228 338.71 249.529 350.358 247.363C367.665 244.132 384.088 229.863 401.838 225.629C426.329 219.777 449.762 221.801 473.78 228.649C475.785 229.215 476.943 226.233 474.919 225.573Z" fill="#260029"/>
<path d="M461.424 155.343C436.005 157.976 411.14 166.941 389.307 180.146C377.342 187.38 347.695 205.116 347.527 222.274C347.465 229.029 348.343 229.988 355.017 231.382C368.265 234.134 388.311 221.558 400.768 218.881C419.059 214.94 437.437 215.052 455.883 217.399C458.131 217.686 458.455 214.193 456.213 213.894C440.139 211.765 424.058 211.448 408.021 214.038C400.021 215.326 392.308 217.518 384.582 219.908C376.221 222.492 349.183 239.631 356.791 212.139C360.919 197.216 395.371 180.264 406.826 174.717C424.413 166.194 442.835 161.762 461.941 158.288C463.852 157.945 463.323 155.15 461.424 155.343" fill="#260029"/>
<path d="M470.067 218.732C468.555 218.744 467.664 218.109 466.513 217.275C465.398 216.478 463.699 217.792 464.402 219.062C465.51 221.048 467.521 221.925 469.769 221.888C471.779 221.857 472.109 218.719 470.067 218.732" fill="#260029"/>
<path d="M463.447 205.471C451.133 203.659 438.912 202.968 426.48 203.672C419.588 204.064 372.211 214.486 373.102 202.196C373.245 200.223 370.431 200.017 370.082 201.91C368.377 211.348 375.337 215.102 384.202 214.448C395.078 213.645 406.079 208.982 417.061 207.675C432.531 205.82 447.771 206.162 463.236 207.712C464.686 207.855 464.879 205.676 463.447 205.471" fill="#260029"/>
<path d="M387.188 193.038C409.737 179.846 433.531 172.208 459.685 170.919C462.163 170.794 461.472 166.978 459.006 167.103C432.691 168.472 407.726 176.205 385.694 190.723C384.387 191.588 385.831 193.835 387.188 193.038" fill="#260029"/>
<path d="M461.028 177.132C435.13 176.317 409.978 183.078 388.992 198.517C387.685 199.482 388.4 201.978 390.075 201.978C413.234 201.997 436.418 190.891 459.397 196.475C461.688 197.029 462.983 193.549 460.673 193.007C436.699 187.355 414.386 199.974 390.449 198.063C390.81 199.214 391.177 200.366 391.532 201.518C412.437 187.031 435.236 179.056 460.804 179.517C462.335 179.542 462.578 177.182 461.028 177.132" fill="#260029"/>
<path d="M454.763 183.974C448.002 184.354 440.457 183.887 433.858 185.418C432.351 185.767 432.339 188.052 433.976 188.207C440.837 188.867 448.401 187.386 455.274 186.85C457.16 186.707 456.606 183.874 454.763 183.974" fill="#260029"/>
<path d="M364.095 174.748C311.115 194.078 310.536 265.834 262.469 292.704C260.769 293.656 261.952 296.171 263.77 295.443C315.928 274.45 314.241 201.424 365.483 177.674C367.407 176.784 366.025 174.044 364.095 174.748" fill="#260029"/>
<path d="M342.3 253.389C325.13 263.008 307.655 272.184 290.522 281.815C288.711 282.836 289.962 285.414 291.892 284.71C309.984 278.13 328.567 267.509 344.044 256.091C345.507 255.014 343.907 252.493 342.3 253.389" fill="#260029"/>
<path d="M320.825 239.039C313.547 254.111 303.699 266.656 294.808 280.632C293.962 281.964 295.711 283.807 296.95 282.587C308.592 271.076 316.741 254.796 323.235 239.929C323.907 238.398 321.535 237.57 320.825 239.039Z" fill="#260029"/>
<path d="M328.881 253.395C325.83 255.058 322.257 256.527 319.704 258.905C318.478 260.051 319.741 261.763 321.217 261.252C324.51 260.132 327.499 257.635 330.393 255.742C331.726 254.877 330.275 252.636 328.881 253.395Z" fill="#260029"/>
<path d="M326.611 243.565C324.388 248.913 322.545 254.192 319.893 259.372C318.965 261.184 321.991 262.759 323.05 261.028C326.112 255.998 328.926 250.158 329.978 244.331C330.346 242.32 327.339 241.816 326.611 243.565" fill="#260029"/>
<path d="M243.423 298.288C217.693 311.275 192.13 330.468 181.64 358.371C176.753 371.364 176.747 383.983 177.245 397.698C177.818 413.505 178.939 426.684 175.82 442.005C173.647 452.682 170.652 460.607 170.596 471.465C170.59 474.453 175.253 474.914 175.265 471.9C175.321 458.36 181.273 446.207 182.83 432.978C184.436 419.369 181.616 405.729 181.566 392.138C181.404 347.345 208.927 323.072 244.749 301.09C246.405 300.069 245.241 297.373 243.423 298.288" fill="#260029"/>
<path d="M210.793 332.448C200.758 344.338 192.085 358.097 188.593 373.449C184.733 390.401 187.609 408.673 186.906 425.937C186.837 427.693 189.639 428.583 190.106 426.665C193.623 412.259 190.423 398.071 191.687 383.435C193.324 364.547 202.98 349.524 213.296 334.203C214.417 332.535 212.045 330.953 210.793 332.448Z" fill="#260029"/>
<path d="M363.866 314.269C341.112 316.211 314.528 319.673 298.354 337.839C282.828 355.271 282.417 380.864 268.441 399.534C267.457 400.848 269.349 402.616 270.582 401.483C283.749 389.387 285.275 371.613 291.961 355.868C304.705 325.842 335.49 321.011 364.389 317.22C366.319 316.965 365.759 314.107 363.866 314.269" fill="#260029"/>
<path d="M453.818 259.627C430.64 271.201 414.79 292.878 393.007 306.674C391.594 307.564 392.559 309.88 394.152 309.09C417.361 297.566 431.948 274.133 455.001 262.105C456.564 261.296 455.412 258.831 453.818 259.627" fill="#260029"/>
<path d="M250.298 416.101C235.985 423.553 222.532 436.888 221.716 453.94C221.094 466.864 229.536 480.436 243.263 481.214C245.056 481.32 245.853 478.581 243.991 478.014C228.241 473.227 221.523 458.596 228.091 443.244C232.829 432.169 242.584 425.476 251.929 418.622C253.311 417.613 251.817 415.316 250.298 416.101" fill="#260029"/>
<path d="M469.807 301.002C466.694 286.005 454.305 284.554 440.758 288.607C429.023 292.125 419.485 300.523 409.711 307.44C391.663 320.227 375.259 328.127 352.897 330.437C351.247 330.605 351.714 333.101 353.339 332.964C370.11 331.564 385.438 327.48 399.987 318.789C411.909 311.661 458.576 268.704 466.924 301.513C467.385 303.312 470.186 302.864 469.807 301.002Z" fill="#260029"/>
<path d="M343.921 339.62C331.239 346.213 318.408 353.739 309.923 365.618C300.205 379.214 298.505 396.652 287.038 409.234C285.961 410.423 287.417 412.334 288.7 411.201C297.939 403.04 301.22 392.251 305.87 381.207C313.696 362.611 327.927 351.766 345.129 342.16C346.697 341.282 345.546 338.773 343.921 339.62" fill="#260029"/>
<path d="M282.879 414.364C270.484 422.488 257.279 438.905 257.765 454.612C257.815 456.274 260.181 457.146 260.828 455.309C263.493 447.733 264.532 440.517 268.797 433.489C272.881 426.765 278.322 421.094 284.541 416.325C285.886 415.298 284.224 413.48 282.879 414.364" fill="#260029"/>
<path d="M263.802 467.561C264.151 471.359 265.122 476.956 268.807 478.985C270.065 479.67 271.721 478.854 271.472 477.286C270.893 473.693 268.172 470.568 267.338 466.933C266.821 464.666 263.59 465.264 263.802 467.561" fill="#260029"/>
<path d="M452.023 336.638C450.753 323.334 434.803 324.641 424.799 327.853C412.97 331.651 403.775 340.89 395.371 349.531C380.784 364.522 367.032 373.617 348.89 384.456C331.359 394.94 317.8 409.776 313.237 430.252C309.837 445.485 311.45 464.144 330.102 465.171C332.411 465.295 332.729 461.902 330.438 461.591C325.451 453.703 320.464 445.809 315.472 437.921C316.567 433.246 317.663 428.571 318.752 423.895C321.884 415.31 327.786 406.246 334.341 399.889C344.657 389.891 358.185 384.68 370.107 377.06C378.468 371.713 385.41 365.381 392.289 358.278C399.386 350.95 441.203 306.387 449.564 337.073C449.988 338.623 452.173 338.25 452.023 336.638" fill="#260029"/>
<path d="M444.878 352.992C450.164 346.144 447.655 337.789 439.512 334.16C421.937 326.316 402.426 354.02 392.527 363.924C370.458 386.013 299.243 414.625 326.2 457.121C327.551 459.25 331.156 457.588 329.792 455.409C309.223 422.594 350.368 401.521 371.977 386.797C380.5 380.995 387.945 374.383 395.217 367.093C399.786 362.511 404.119 357.674 408.726 353.123C410.513 351.249 412.381 349.456 414.317 347.738C421.358 339.757 430.765 340.965 442.544 351.361C441.653 352.943 443.733 354.474 444.878 352.992" fill="#260029"/>
<path d="M436.222 369.073C438.893 363.327 437.891 356.834 431.727 353.64C422.271 348.728 413.125 356.952 407.136 363.103C392.849 377.795 380.634 388.839 363.06 399.709C351.835 406.651 342.005 413.648 336.763 426.149C335.885 428.247 339.216 429.473 340.068 427.375C347.483 409.016 366.502 402.579 381.525 391.796C388.012 387.133 394.094 381.923 399.728 376.251C401.446 374.508 402.461 373.387 404.13 371.594C405.935 369.596 407.734 367.591 409.527 365.58C414.8 357.375 422.588 358.129 432.885 367.84C431.952 369.951 435.27 371.128 436.222 369.073" fill="#260029"/>
<path d="M334.091 434.392C330.188 439.36 328.208 449.725 334.066 454.158C335.224 455.036 337.048 453.896 336.731 452.464C336.146 449.856 334.695 447.72 334.558 444.95C334.415 441.887 335.262 438.942 336.949 436.396C338.194 434.51 335.473 432.636 334.091 434.392" fill="#260029"/>
<path d="M419.739 371.687C418.058 384.618 403.173 398.594 394.177 406.762C389.913 410.628 385.374 414.283 380.705 417.651C377.972 419.618 366.473 429.616 362.701 428.664C350.019 425.452 367.974 415.466 370.788 413.237C376.222 408.923 381.67 404.671 387.204 400.487C397.047 393.066 408.465 377.571 420.798 375.149C422.36 374.838 422.404 372.204 420.679 372.217C412.623 372.298 408.595 376.705 402.893 382.196C393.442 391.311 383.388 399.584 372.805 407.373C368.889 410.261 341.023 424.81 353.07 433.395C362.259 439.951 383.948 420.552 390.112 415.36C402.115 405.243 421.047 388.49 422.821 371.986C423.039 369.994 419.995 369.72 419.739 371.687" fill="#260029"/>
<path d="M401.071 337.783C384.785 341.624 373.623 353.976 361.57 364.758C350.625 374.564 332.111 380.559 326.028 394.585C325.325 396.222 327.815 397.517 328.78 396.023C336.68 383.933 353.346 377.521 364.179 367.834C376.101 357.176 386.976 346.729 401.856 340.236C403.175 339.663 402.516 337.441 401.071 337.783" fill="#260029"/>
<path d="M277.227 402.735C267.533 419.145 249.199 425.358 242.911 444.62C239.164 456.119 238.653 471.801 250.581 478.4C253.152 479.813 255.786 476.016 253.208 474.646C233.392 464.156 249.025 433.732 260.405 423.752C267.54 417.496 274.624 412.627 279.449 404.285C280.314 402.785 278.117 401.216 277.227 402.735" fill="#260029"/>
<path d="M233.994 459.941C232.058 467.088 234.554 476.545 241.502 480.143C243.507 481.183 244.783 478.095 243.233 476.837C238.072 472.61 234.623 467.81 236.235 460.769C236.571 459.3 234.399 458.428 233.994 459.941" fill="#260029"/>
<path d="M379.446 49.8878C333.04 56.6549 276.039 49.7071 240.765 87.129C227.256 101.466 219.679 120.23 210.988 137.581C192.106 175.277 168.735 191.177 128.045 199.949C126.096 200.372 126.601 203.267 128.58 202.999C171.972 197.104 195.393 177.138 214.879 139.019C229.665 110.089 242.627 83.3314 274.221 69.5418C306.881 55.2852 345.467 59.0518 379.944 52.6893C381.749 52.3593 381.264 49.6201 379.446 49.8878" fill="#260029"/>
<path d="M121.943 202.67C70.5886 210.875 39.4483 278.205 39.4981 325.22C39.5043 327.144 42.2497 327.468 42.5174 325.507C48.8613 279.051 69.6734 216.92 122.585 206.274C124.888 205.814 124.278 202.296 121.943 202.67Z" fill="#260029"/>
<path d="M327.288 49.0287C268.849 45.2062 207.458 53.5173 153.856 78.0959C108.845 98.7399 90.4552 140.339 81.0545 186.969C80.6997 188.743 83.6381 189.409 84.1549 187.678C99.7997 135.315 115.967 97.8247 171.064 76.7138C221.198 57.5017 273.518 50.4543 326.996 52.1103C328.969 52.1726 329.287 49.1594 327.288 49.0287" fill="#260029"/>
<path d="M81.3044 184.055C67.8697 221.458 37.2087 249.131 36.6422 291.365C36.6235 292.841 38.952 293.644 39.3628 291.988C45.1028 269.345 49.9152 248.932 62.2356 228.699C70.9887 214.311 81.7527 201.848 84.0935 184.69C84.3176 183.059 81.8523 182.524 81.3044 184.055Z" fill="#260029"/>
<path d="M261.668 60.1727C220.343 65.0287 175.712 71.97 142.262 98.9454C109.092 125.697 105.356 165.814 87.707 202.159C87.0533 203.51 88.5351 205.166 89.9358 204.83C123.616 196.836 159.127 187.89 183.88 162.017C213.607 130.945 221.893 86.1768 262.129 64.4371C264.488 63.1671 262.726 59.3882 260.33 60.6519C197.445 93.8342 194.121 191.215 108.637 196.102C97.892 196.718 98.222 200.871 97.7799 189.608C97.5122 182.897 103.781 172.233 106.097 165.372C113.282 144.075 121.145 123.487 137.972 107.755C171.69 76.2533 218.512 70.0091 262.154 62.9119C263.928 62.6193 263.436 59.961 261.668 60.1727" fill="#260029"/>
<path d="M223.386 84.6697C222.122 60.8196 175.878 85.4107 167.891 90.5281C141.625 107.35 111.854 143.694 107.609 175.756C104.515 199.121 134.13 182.648 144.707 176.615C179.968 156.513 202.928 122.932 222.215 88.3242C223.703 85.6534 219.831 83.5802 218.474 86.3631C207.342 109.205 193.347 130.204 175.362 148.245C167.411 156.22 158.77 163.423 149.432 169.699C138.936 176.752 110.323 195.834 113.822 170.122C116.717 148.893 136.688 123.287 151.642 108.837C155.988 104.635 216.936 61.6724 220.092 85.2487C220.385 87.4338 223.498 86.7553 223.386 84.6697Z" fill="#260029"/>
<path d="M209.265 92.8006C209.57 92.0722 209.881 91.3375 210.186 90.6029C210.454 89.9679 210.273 89.2146 209.85 88.6916C201.987 78.9237 179.78 96.044 172.353 100.856C154.393 112.498 138.58 127.857 127.311 146.116C123.408 152.448 115.203 167.806 127.71 170.577C141.033 173.527 167.03 150.15 175.597 142.281C177.066 140.937 175.155 138.664 173.592 139.916C163.133 148.345 152.494 156.059 140.497 162.216C138.107 163.467 135.678 164.65 133.219 165.758C126.228 159.451 125.294 153.631 130.418 148.289C132.292 143.769 136.899 139.337 139.968 135.688C147.775 126.387 156.366 117.865 166.072 110.537C171.532 106.416 177.284 102.693 183.242 99.3374C184.587 98.5779 206.75 88.5672 206.028 91.6053C205.523 93.722 208.381 94.8986 209.265 92.8006Z" fill="#260029"/>
<path d="M178.577 138.372C180.015 138.372 180.239 136.125 178.789 136.125C177.35 136.125 177.126 138.372 178.577 138.372Z" fill="#260029"/>
<path d="M195.556 120.393C202.018 112.356 206.98 103.273 209.937 93.3739C210.634 91.0517 207.054 89.7444 206.401 92.0666C203.674 101.841 199.49 110.737 193.395 118.88C192.368 120.256 194.497 121.707 195.556 120.393Z" fill="#260029"/>
<path d="M194.684 98.0736C181.212 103.123 168.761 110.942 158.899 121.501C155.164 125.497 141.443 138.627 146.784 145.494C153.103 153.631 167.385 142.698 172.378 138.671C183.441 129.724 193.401 118.406 199.253 105.357C199.926 103.857 197.554 102.606 196.682 104.013C191.577 112.287 186.597 120.262 179.811 127.321C176.798 130.459 173.573 133.36 170.118 136.006C167.87 137.73 165.106 140.389 162.467 141.31C161.489 141.808 160.512 142.306 159.534 142.804C152.655 140.725 150.582 138.092 153.296 134.898C155.749 127.483 165.48 119.764 171.332 114.964C178.74 108.894 187.139 104.361 196.029 100.9C197.915 100.165 196.558 97.3701 194.684 98.0736Z" fill="#260029"/>
<path d="M203.423 163.523C182.654 216.291 117.815 207.264 82.8333 243.746C54.2455 273.567 48.0324 323.9 53.6105 362.897C53.9965 365.624 58.1614 364.871 57.8065 362.163C53.8471 332.224 56.8665 302.459 68.5706 274.469C81.2458 244.163 104.654 230.859 133.877 219.852C163.722 208.615 195.417 197.621 206.193 164.551C206.784 162.745 204.12 161.749 203.423 163.523Z" fill="#260029"/>
<path d="M363.18 63.5341C315.255 68.3776 263.764 77.2366 235.568 120.591C234.734 121.88 236.676 123.25 237.529 121.961C266.011 79.0608 316.482 72.3557 363.659 66.2733C365.446 66.043 364.942 63.3536 363.18 63.5341Z" fill="#260029"/>
<path d="M222.595 137.979C222.097 140.177 220.696 141.609 219.457 143.377C218.561 144.666 219.986 146.166 221.35 145.618C224.294 144.423 225.652 141.298 225.919 138.297C226.119 136.087 223.049 135.944 222.595 137.979" fill="#260029"/>
<path d="M354.807 33.577C327.919 22.8566 292.253 29.4308 264.306 32.8362C229.287 37.1007 194.107 44.3161 162.4 60.2225C160.968 60.9446 162.001 63.1361 163.47 62.4824C192.936 49.4274 222.389 41.2158 254.358 37.6797C286.021 34.1809 322.689 28.0302 353.655 36.6775C355.685 37.2502 356.812 34.3739 354.807 33.577" fill="#260029"/>
<path d="M147.845 68.3218C141.483 71.4097 134.772 75.3567 130.638 81.2399C129.835 82.3854 131.192 84.334 132.524 83.4749C138.333 79.7582 143.444 75.1949 149.501 71.8206C151.655 70.6191 150.111 67.2199 147.845 68.3218" fill="#260029"/>
<path d="M121.567 89.6756C104.198 104.605 87.4074 120.635 77.7329 141.796C72.217 153.867 69.7517 167.053 65.2942 179.498C62.2561 187.996 58.4025 196.015 54.2438 204.021C52.2828 208.017 50.1661 211.927 47.8875 215.743C43.0316 226.526 32.7034 229.334 16.9029 224.167C17.0336 222.436 14.2446 221.639 13.8025 223.457C8.4859 245.551 34.2037 241.355 44.3949 229.521C56.4414 215.532 65.1697 193.5 70.8598 176.267C82.3958 141.348 95.7746 117.261 123.839 92.3651C125.533 90.8648 123.285 88.194 121.567 89.6756" fill="#260029"/>
<path d="M61.3304 210.944C55.9889 219.871 50.9712 229.11 45.2561 237.801C39.2547 246.921 22.1031 258.793 15.4542 242.675C14.7694 241.019 11.8684 241.878 12.3913 243.646C15.143 252.929 26.2058 255.793 34.4921 251.733C48.456 244.898 55.9142 224.802 63.2043 212.257C63.9327 210.993 62.0899 209.674 61.3304 210.944" fill="#260029"/>
<path d="M38.8311 254.89C36.7456 260.181 34.6102 265.461 32.4686 270.734C31.485 273.156 30.7254 277.781 26.9589 276.629C25.6827 276.237 23.9084 268.611 23.4912 267.453C18.8158 254.541 17.5023 241.044 13.4682 228.026C13.0261 226.607 10.5173 226.308 10.5422 228.145C10.6667 238.834 14.184 249.05 17.2719 259.173C19.6812 267.073 21.3808 276.617 26.2057 283.378C26.5605 283.882 27.3076 284.094 27.8928 283.988C31.1363 283.397 31.4538 281.946 32.8358 278.958C36.2474 271.574 38.6319 263.469 41.3463 255.817C41.919 254.193 39.4661 253.283 38.8311 254.89" fill="#260029"/>
<path d="M34.4631 317.55C29.0967 297.883 14.7405 275.16 18.2455 254.56C18.4758 253.196 16.2035 252.655 15.8673 254.012C13.5451 263.306 14.9896 271.275 17.9965 280.365C22.2112 293.096 26.5069 306.089 31.8671 318.378C32.471 319.766 34.874 319.069 34.4631 317.55Z" fill="#260029"/>
<path d="M48.7174 356.092C38.9183 340.392 31.429 323.695 22.5762 307.508C21.6859 305.889 19.4511 307.023 20.03 308.716C25.9568 326.141 36.1044 342.427 46.084 357.804C47.0427 359.286 49.6699 357.618 48.7174 356.092Z" fill="#260029"/>
<path d="M98.5644 101.897C118.455 81.707 138.327 63.3789 164.039 50.5356C184.876 40.1202 211.098 38.57 230.565 26.1127C253.65 11.3332 226.207 5.90456 211.515 7.51698C209.479 7.7411 210.058 10.8165 212.069 10.636C226.176 21.3751 227.154 27.4263 215.007 28.7959C211.39 30.0971 207.724 31.2239 204.007 32.1764C199.786 33.4464 195.559 34.5296 191.35 35.9117C177.305 40.5373 163.821 46.6821 151.034 54.0967C130.383 66.0561 111.24 81.1842 96.4478 99.9667C95.4517 101.237 97.4064 103.073 98.5644 101.897Z" fill="#260029"/>
<path d="M197.885 11.5815C200.12 11.7123 203.475 11.8243 205.368 13.1442C209.377 15.9394 204.82 18.9525 202.268 20.2039C197.524 22.5447 192.605 24.6054 188.005 27.2263C186.542 28.0606 187.557 30.059 189.107 29.5485C194.143 27.8925 199.012 25.6762 203.924 23.6902C206.825 22.5136 210.137 21.0132 211.108 17.7261C211.905 15.0304 210.722 12.1853 208.649 10.4048C205.43 7.63445 201.67 7.98932 197.76 8.54962C196.061 8.79242 196.154 11.4757 197.885 11.5815" fill="#260029"/>
<path d="M152.174 42.3112C138.994 48.2629 125.011 54.6503 113.917 64.1007C112.741 65.103 114.011 67.2633 115.437 66.4478C128.143 59.1389 139.853 50.7033 153.201 44.4715C154.595 43.8178 153.581 41.67 152.174 42.3112Z" fill="#260029"/>
<path d="M179.513 28.777C174.476 30.5824 169.172 32.1949 164.633 35.1022C163.264 35.9863 163.693 38.4391 165.58 38.0594C171.008 36.9699 176.082 34.3863 181.1 32.1139C183.304 31.1178 181.71 27.9863 179.513 28.777" fill="#260029"/>
<path d="M85.3422 104.181C79.4528 110.979 74.8397 118.898 69.1682 125.921C65.8749 129.998 62.4259 133.958 58.7653 137.718C57.1467 139.411 55.4782 141.049 53.7537 142.636C48.5304 148.8 42.7905 147.872 36.5338 139.841C37.175 137.388 33.6327 135.956 32.7735 138.447C28.5962 150.593 43.606 154.191 51.9172 149.179C59.1451 144.822 64.8415 137.45 70.3138 131.119C76.9689 123.418 84.0784 115.051 88.125 105.638C88.8846 103.87 86.4379 102.911 85.3422 104.181" fill="#260029"/>
<path d="M106.01 69.5108C96.391 76.9379 87.4512 84.7634 80.2046 94.5749C76.9984 98.9079 74.0848 103.453 70.8538 107.773C69.8017 109.18 47.6697 132.7 47.1904 120.822C47.097 118.406 43.3741 117.914 43.3368 120.455C43.1313 134.711 60.3637 124.483 65.5371 119.583C71.6817 113.743 76.1892 106.428 81.0451 99.5492C88.6714 88.7416 98.0097 80.3743 108.039 71.9013C109.583 70.5939 107.603 68.2781 106.01 69.5108" fill="#260029"/>
<path d="M164.18 27.7373C126.459 40.9168 93.1588 63.4472 67.1047 93.7906C65.5857 95.5587 68.5304 97.5321 70.0494 95.8512C96.6139 66.3793 128.408 44.5961 165.599 30.7256C167.61 29.9785 166.166 27.04 164.18 27.7373" fill="#260029"/>
<path d="M76.5318 126.612C69.3039 139.119 42.5526 187.946 40.878 190.754C37.1364 198.436 30.2135 198.399 20.1032 190.66C20.0533 188.176 16.2246 187.716 16.181 190.287C15.9382 203.616 29.2361 208.621 38.8359 199.856C47.2093 192.217 51.9033 178.963 57.1266 169.157C64.4416 155.417 71.7941 141.703 78.8477 127.826C79.5263 126.494 77.2789 125.311 76.5318 126.612" fill="#260029"/>
<path d="M404.226 68.9755C364.127 70.2331 324.52 80.0632 289.258 99.4248C287.664 100.303 288.81 102.799 290.478 102.002C327.053 84.6267 363.853 74.3482 404.35 72.0759C406.093 71.9763 405.994 68.9195 404.226 68.9755" fill="#260029"/>
<path d="M271.74 116.595C256.027 136.336 248.419 158.375 240.32 182.032C226.549 222.224 200.538 234.433 160.402 237.241C127.425 239.544 86.1623 243.012 79.0402 282.363C78.7725 283.839 81.244 284.418 81.6238 282.949C97.9099 220.649 176.439 256.185 217.136 227.728C228.553 219.74 235.097 208.379 240.114 195.691C250.841 168.604 257.814 143.197 274.417 118.469C275.606 116.707 273.041 114.952 271.74 116.595Z" fill="#260029"/>
<path d="M257.414 122.87C237.741 133.609 227.799 152.174 216.431 170.707C195.762 204.4 170.243 215.656 133.301 225.729C131.172 226.308 131.67 229.607 133.905 229.159C159.28 224.11 185.253 216.415 203.077 196.587C223.783 173.546 232.007 142.935 259.045 125.398C260.477 124.464 258.914 122.061 257.414 122.87" fill="#260029"/>
<path d="M258.912 124.564C243.162 141.167 238.069 162.515 228.687 182.823C219.585 202.52 206.369 218.414 183.919 222.293C167.969 225.051 151.391 224.416 135.322 226.426C133.505 226.657 133.573 229.714 135.453 229.707C162.609 229.583 196.489 231.65 216.404 209.817C237.988 186.153 241.114 151.495 260.923 126.4C261.876 125.192 259.996 123.424 258.912 124.564" fill="#260029"/>
<path d="M296.597 84.7756C287.296 89.9552 279.414 97.2704 272.106 104.934C265.594 111.751 257.681 119.67 254.861 128.859C254.406 130.347 256.255 132.009 257.538 130.733C264.249 124.065 268.725 115.094 275.025 107.941C281.948 100.084 290.116 93.784 298.035 87.0044C299.156 86.0456 297.96 84.016 296.597 84.7756" fill="#260029"/>
<path d="M143.175 224.602C129.049 222.249 111.655 230.741 103.331 242.065C102.372 243.366 104.153 244.885 105.367 243.926C110.933 239.55 116.343 235.316 122.96 232.596C129.547 229.881 136.408 229.489 143.324 228.3C145.478 227.926 145.198 224.938 143.175 224.602" fill="#260029"/>
<path d="M228.769 167.271C224.448 176.759 219.194 185.456 212.427 193.4C205.771 201.219 197.74 206.131 189.603 212.133C187.823 213.452 189.342 216.378 191.409 215.98C212.937 211.815 224.174 186.34 231.315 168.211C231.956 166.568 229.485 165.696 228.769 167.271" fill="#260029"/>
<path d="M128.354 256.496C79.3397 286.347 52.9993 374.29 86.1318 423.796C88.0804 426.715 92.5442 423.565 91.1746 420.54C67.5734 368.519 82.8634 292.38 129.885 258.874C131.186 257.946 129.742 255.655 128.354 256.496" fill="#260029"/>
<path d="M76.6423 293.239C68.7483 311.654 64.5585 332.336 61.9935 352.164C59.9266 368.164 56.1726 387.6 64.1102 402.355C65.6728 405.268 69.5762 403.201 68.6237 400.207C57.8846 366.495 70.7217 326.832 79.2134 294.192C79.6554 292.498 77.3458 291.589 76.6423 293.239Z" fill="#260029"/>
<path d="M396.758 76.3404C357.388 82.5162 303.842 85.0935 279.68 122.061C278.609 123.705 280.9 125.211 282.133 123.773C311.3 89.8748 356.323 87.8639 397.331 79.5652C399.392 79.1419 398.844 76.0105 396.758 76.3404Z" fill="#260029"/>
<path d="M349.004 93.9028C328.092 96.9285 306.57 105.607 292.033 121.439C290.732 122.858 292.413 125.031 294.013 123.779C311.084 110.457 327.843 100.508 349.495 96.7106C351.307 96.3931 350.815 93.6414 349.004 93.9028" fill="#260029"/>
<path d="M275.461 131.897C270.973 140.768 266.702 150.953 264.33 160.615C263.932 162.234 266.135 163.137 266.808 161.531C270.755 152.086 274.278 142.387 278.163 132.893C278.892 131.137 276.277 130.278 275.461 131.897" fill="#260029"/>
<path d="M303.755 231.743C288.764 253.184 273.187 273.024 249.53 285.245C233.748 293.401 217.263 298.661 205.297 312.389C203.984 313.889 206.437 316.124 207.875 314.742C224.248 298.967 245.888 293.918 264.191 281.273C282.034 268.953 294.018 250.967 305.691 233.094C306.519 231.824 304.633 230.491 303.755 231.743" fill="#260029"/>
<path d="M271.048 261.893C259.431 270.292 247.098 276.791 234.722 283.907C233.227 284.766 234.255 286.926 235.873 286.323C249.283 281.305 261.685 272.875 272.866 264.041C274.304 262.908 272.505 260.841 271.048 261.893" fill="#260029"/>
<path d="M171.534 365.157C160.646 389.063 169.573 416.63 163.79 441.794C163.36 443.643 165.888 444.72 166.628 442.846C176.328 418.311 165.458 391.192 174.242 366.166C174.871 364.385 172.3 363.489 171.534 365.157Z" fill="#260029"/>
<path d="M159.413 411.332C159.121 413.38 159.127 415.466 158.896 417.526C158.66 419.587 158.093 421.585 157.882 423.646C157.745 424.966 159.725 425.85 160.434 424.58C162.545 420.807 163.254 415.397 161.991 411.232C161.58 409.875 159.637 409.794 159.413 411.332" fill="#260029"/>
<path d="M419.13 149.397C407.133 151.452 393.387 154.552 383.109 161.35C381.565 162.371 383.27 164.314 384.721 163.841C396.518 160.006 407.338 154.82 419.621 152.168C421.383 151.788 420.923 149.086 419.13 149.397Z" fill="#260029"/>
<path d="M401.611 116.29C375.096 120.66 346.104 133.821 328.23 154.384C327.016 155.785 329.183 157.516 330.527 156.476C353.35 138.932 373.783 126.219 402.177 119.483C404.188 119.004 403.684 115.954 401.611 116.29" fill="#260029"/>
<path d="M321.286 161.823C318.304 164.749 315.21 167.57 312.614 170.857C311.605 172.139 313.448 173.658 314.656 172.718C317.856 170.228 320.601 167.24 323.446 164.37C324.946 162.863 322.83 160.304 321.286 161.823" fill="#260029"/>
<path d="M367.443 113.196C352.221 121.47 335.456 131.207 323.665 144.063C322.326 145.519 323.982 147.48 325.644 146.397C340.38 136.785 353.715 125.305 368.8 116.06C370.5 115.02 369.267 112.206 367.443 113.196Z" fill="#260029"/>
<path d="M279.082 205.191C264.527 222.735 248.77 236.705 231.27 251.098C230.087 252.076 231.376 254.236 232.764 253.414C251.708 242.239 268.984 224.87 281.79 207.084C283.054 205.334 280.421 203.572 279.082 205.191" fill="#260029"/>
<path d="M247.758 228.718C245.28 230.946 242.653 233.063 240.449 235.559C239.353 236.805 241.289 238.305 242.484 237.421C245.056 235.516 247.309 233.125 249.644 230.946C251.013 229.676 249.165 227.454 247.758 228.718" fill="#260029"/>
<path d="M196.956 274.949C177.433 282.644 157.754 295.817 146.859 314.232C145.931 315.795 147.961 317.171 149.131 315.832C163.425 299.459 177.682 285.843 198.014 277.177C199.477 276.549 198.419 274.37 196.956 274.949" fill="#260029"/>
<path d="M163.353 287.312C158.845 290.008 153.734 293.681 151.418 298.556C150.783 299.901 152.695 301.108 153.734 300.175C157.526 296.8 160.371 293.065 164.803 290.369C166.64 289.255 165.233 286.192 163.353 287.312Z" fill="#260029"/>
<path d="M130.923 356.833C119.076 377.714 117.918 402.902 121.441 426.261C121.697 427.954 124.61 427.923 124.548 426.13C123.689 402.286 122.35 380.21 133.706 358.296C134.528 356.709 131.813 355.277 130.923 356.833Z" fill="#260029"/>
<path d="M113.518 392.886C111.308 400.257 110.816 407.752 112.977 415.198C113.437 416.798 115.797 416.456 115.573 414.731C114.683 407.746 114.695 400.83 116.451 393.969C116.942 392.051 114.097 390.925 113.518 392.886" fill="#260029"/>
<path d="M178.237 241.891C165.773 242.657 151.336 245.465 140.522 252.045C139.178 252.867 139.645 255.531 141.456 254.971C154.057 251.092 165.605 246.847 178.772 244.941C180.789 244.649 180.179 241.773 178.237 241.891" fill="#260029"/>
<path d="M129.353 247.836C110.228 253.713 91.5761 269.439 87.2245 289.815C86.7949 291.839 89.7583 292.181 90.524 290.569C99.2959 272.191 110.514 257.922 130.181 250.426C131.607 249.884 130.841 247.376 129.353 247.836Z" fill="#260029"/>
<path d="M121.701 274.139C98.2057 293.582 88.6993 324.411 88.139 354.156C88.1017 356.211 91.0278 356.516 91.3266 354.461C95.6471 324.921 99.6813 297.037 123.544 276.312C124.932 275.11 123.12 272.962 121.701 274.139Z" fill="#260029"/>
</svg>
