<svg width="22" height="23" viewBox="0 0 22 23" fill="none" xmlns="http://www.w3.org/2000/svg">
<path d="M17.0503 19.9152C16.8648 19.8345 16.6832 19.7496 16.5155 19.67C15.6629 19.2686 14.839 18.8022 14.0032 18.363C13.278 17.9815 12.4916 17.6765 11.8058 17.2164C11.3331 16.8989 10.8822 16.4094 10.2823 16.4031C9.30934 16.3916 8.37685 17.4795 7.71771 18.1125C7.28157 18.5307 6.81782 18.9227 6.39549 19.3566C6.2465 19.5096 6.10143 19.6637 5.95638 19.8188C5.97019 19.7685 5.99189 19.7119 6.00176 19.6648C6.14188 18.9342 6.27213 18.2027 6.42508 17.4743C6.66979 16.3119 7.10793 14.6759 6.85138 13.4936C6.63726 12.5043 5.25284 12.0683 4.51279 11.6637C3.80333 11.2759 3.03566 10.9342 2.30646 10.5402C3.95629 10.1042 5.65147 9.89769 7.33386 9.62099C7.66441 9.74047 8.0986 9.6388 8.26634 9.19651C9.10408 6.98821 9.39518 4.53676 10.4224 2.42383C10.8852 3.63541 11.3005 4.87529 11.7456 6.08687C12.1777 7.26491 12.5537 8.74375 13.7082 9.33906C14.6999 9.84948 15.879 9.78449 16.9506 9.87672C17.6216 9.93541 18.5373 9.78554 19.3198 9.88511C18.4919 10.646 17.6216 11.3723 16.7118 11.9897C15.9698 12.4938 14.8035 13.0293 14.5647 14.0355C14.3358 15.0029 15.4251 16.0803 15.8158 16.8748C16.2964 17.8537 16.6378 18.9038 17.0503 19.9152ZM18.0765 12.7044C19.1224 11.8911 20.1684 11.0757 21.1078 10.123C21.4472 9.77926 21.308 9.26361 20.9715 9.00368C20.1328 8.35387 18.8994 8.48382 17.9206 8.48906C16.9121 8.49535 15.7596 8.48172 14.7798 8.22809C13.5177 7.90213 13.2681 6.28389 12.834 5.15721C12.239 3.61234 11.788 2.00563 11.1151 0.496395C10.8763 -0.038126 10.226 0.110703 9.95565 0.496395C8.36503 2.76235 8.04928 5.61104 7.17799 8.21343C4.9233 8.59597 2.638 8.80035 0.475071 9.62204C-0.10809 9.84423 -0.145575 10.5485 0.314245 10.9258C1.30098 11.7339 2.53243 12.1552 3.62376 12.7788C4.06484 13.0304 4.53155 13.2306 4.97065 13.4884C5.14925 13.5932 5.4857 13.9726 5.53701 13.8343C5.54293 14.0166 5.51925 14.2294 5.51234 14.3772C5.44229 15.8361 5.07324 17.2311 4.81768 18.6586C4.64204 19.6396 4.04409 20.8355 4.30952 21.8301C4.42595 22.2692 4.92129 22.4946 5.29625 22.2567C6.39153 21.5607 7.22927 20.4697 8.18444 19.584C8.58801 19.2099 8.97286 18.8137 9.3863 18.4521C9.83625 18.0591 10.1076 17.7038 10.6266 18.0675C11.864 18.9363 13.2415 19.5599 14.5716 20.2611C15.6373 20.8239 17.0216 21.7232 18.2639 21.6278C18.7573 21.5901 19.1175 21.0472 18.8432 20.5546C18.1761 19.3577 17.8249 17.9941 17.2536 16.7448C16.9881 16.1631 16.7138 15.572 16.3635 15.0427C16.256 14.8813 16.1356 14.7293 16.031 14.5648C15.9846 14.4956 15.9451 14.4212 15.9037 14.3489C16.3822 13.6372 17.4173 13.2169 18.0765 12.7044Z" fill="#F9BA32"/>
</svg>
