<svg width="693" height="938" viewBox="0 0 693 938" fill="none" xmlns="http://www.w3.org/2000/svg">
<path d="M251.248 33.7683C251.796 34.8289 252.319 35.3994 252.29 35.9437C252.277 36.3257 251.488 36.9928 251.105 36.962C250.655 36.9204 249.911 36.2129 249.934 35.8432C249.975 35.281 250.572 34.7649 251.248 33.7683" fill="#2F3131"/>
<path d="M251.87 88.1302C251.298 87.5221 250.537 87.0348 250.592 86.7019C250.711 86.1312 251.321 85.6511 251.734 85.1376C252.158 85.6066 252.814 86.0303 252.948 86.5789C253.032 86.9243 252.36 87.4701 251.87 88.1302" fill="#2F3131"/>
<path d="M250.051 0.752763C250.582 1.39458 251.214 1.82647 251.185 2.20512C251.159 2.6615 250.559 3.06973 250.205 3.4963C249.784 3.13262 249.095 2.81398 249.024 2.39292C248.961 1.98796 249.561 1.49564 250.051 0.752763Z" fill="#2F3131"/>
<path d="M250.155 7.29904C250.751 7.8424 251.419 8.19297 251.393 8.48239C251.361 8.97661 250.892 9.4377 250.6 9.90771C250.204 9.64501 249.5 9.40593 249.475 9.11038C249.446 8.62539 249.833 8.09377 250.155 7.29904" fill="#2F3131"/>
<path d="M251.925 54.4403C252.239 55.1334 252.623 55.5796 252.557 55.9304C252.478 56.2728 251.935 56.5126 251.598 56.8006C251.325 56.4353 250.823 56.0562 250.836 55.7019C250.842 55.359 251.384 55.0378 251.925 54.4403" fill="#2F3131"/>
<path d="M253.183 95.8207C252.685 96.3805 252.304 97.0413 252.097 96.9944C251.621 96.8807 251.231 96.4144 250.803 96.0899C251.115 95.7561 251.394 95.2225 251.755 95.1485C252.109 95.0847 252.55 95.5005 253.183 95.8207Z" fill="#2F3131"/>
<path d="M252.919 65.2016C252.402 65.6791 252.051 65.9901 251.698 66.3024C251.372 65.8507 250.948 65.4369 250.786 64.9305C250.739 64.7799 251.465 64.1786 251.847 64.1844C252.16 64.182 252.479 64.7556 252.919 65.2016Z" fill="#2F3131"/>
<path d="M252.517 103.617C252.763 104.163 253.075 104.525 253.007 104.794C252.93 105.106 252.519 105.338 252.253 105.603C251.981 105.236 251.617 104.899 251.499 104.493C251.462 104.355 252.007 104.029 252.517 103.617" fill="#2F3131"/>
<path d="M251.57 75.3704C251.996 75.8657 252.433 76.1486 252.43 76.4311C252.434 76.731 252.042 77.0469 251.809 77.3459C251.52 77.1153 251.043 76.9215 250.989 76.6418C250.93 76.3409 251.27 75.9649 251.57 75.3704Z" fill="#2F3131"/>
<path d="M251.893 26.3069C251.409 26.6241 251.109 26.8283 250.81 27.0324C250.558 26.6628 250.32 26.3003 250.068 25.9307C250.378 25.7388 250.71 25.3743 250.999 25.409C251.272 25.4404 251.495 25.8824 251.893 26.3069" fill="#2F3131"/>
<path d="M251.683 16.9999C251.043 17.2749 250.713 17.5252 250.39 17.514C250.176 17.5049 249.761 17.0217 249.808 16.9225C249.956 16.587 250.248 16.1434 250.546 16.1088C250.792 16.0706 251.114 16.5273 251.683 16.9999" fill="#2F3131"/>
<path d="M251.706 45.5927C250.843 45.594 250.865 46.9239 251.716 46.9129C252.567 46.9019 252.557 45.5817 251.706 45.5927Z" fill="#2F3131"/>
<path d="M253.621 146.289C254.17 147.348 254.692 147.92 254.676 148.472C254.65 148.846 253.862 149.512 253.478 149.482C253.029 149.439 252.284 148.733 252.307 148.364C252.361 147.81 252.958 147.294 253.621 146.289" fill="#2F3131"/>
<path d="M254.241 200.653C253.671 200.044 252.91 199.557 252.976 199.233C253.083 198.654 253.693 198.174 254.106 197.659C254.543 198.138 255.186 198.553 255.333 199.109C255.416 199.456 254.732 199.993 254.241 200.653Z" fill="#2F3131"/>
<path d="M252.424 113.273C252.968 113.923 253.588 114.346 253.558 114.725C253.532 115.181 252.932 115.591 252.577 116.018C252.157 115.654 251.468 115.335 251.409 114.923C251.346 114.518 251.934 114.016 252.424 113.273" fill="#2F3131"/>
<path d="M252.529 119.82C253.137 120.371 253.792 120.713 253.765 121.004C253.734 121.497 253.265 121.958 252.972 122.43C252.577 122.167 251.886 121.935 251.86 121.641C251.819 121.146 252.205 120.616 252.529 119.82Z" fill="#2F3131"/>
<path d="M254.298 166.961C254.613 167.653 255.01 168.108 254.93 168.451C254.852 168.792 254.308 169.033 253.972 169.32C253.699 168.955 253.209 168.586 253.209 168.223C253.229 167.887 253.758 167.559 254.298 166.961" fill="#2F3131"/>
<path d="M255.563 208.347C255.062 208.904 254.68 209.566 254.47 209.515C253.994 209.402 253.604 208.937 253.175 208.612C253.487 208.278 253.766 207.745 254.139 207.679C254.481 207.606 254.923 208.022 255.563 208.347Z" fill="#2F3131"/>
<path d="M255.304 177.733C254.774 178.202 254.422 178.514 254.07 178.825C253.743 178.375 253.319 177.961 253.158 177.453C253.111 177.303 253.85 176.71 254.219 176.707C254.532 176.706 254.851 177.279 255.304 177.733" fill="#2F3131"/>
<path d="M254.887 216.14C255.134 216.686 255.448 217.051 255.381 217.321C255.304 217.633 254.891 217.862 254.622 218.127C254.356 217.764 253.996 217.427 253.876 217.02C253.833 216.878 254.386 216.56 254.887 216.14" fill="#2F3131"/>
<path d="M253.944 187.89C254.382 188.394 254.806 188.67 254.816 188.959C254.82 189.259 254.416 189.567 254.195 189.874C253.906 189.645 253.416 189.441 253.361 189.163C253.315 188.87 253.656 188.493 253.944 187.89" fill="#2F3131"/>
<path d="M254.265 138.83C253.781 139.146 253.481 139.351 253.181 139.555C252.943 139.193 252.692 138.823 252.441 138.452C252.751 138.26 253.083 137.896 253.371 137.932C253.644 137.963 253.866 138.405 254.265 138.83" fill="#2F3131"/>
<path d="M254.07 129.529C253.416 129.796 253.086 130.047 252.763 130.035C252.549 130.026 252.134 129.542 252.181 129.444C252.342 129.116 252.634 128.673 252.919 128.63C253.165 128.591 253.487 129.049 254.07 129.529Z" fill="#2F3131"/>
<path d="M254.078 158.114C253.227 158.125 253.237 159.445 254.088 159.434C254.939 159.424 254.93 158.103 254.078 158.114Z" fill="#2F3131"/>
<path d="M255.671 256.29C256.217 257.348 256.736 257.918 256.716 258.467C256.7 258.847 255.911 259.514 255.52 259.478C255.074 259.439 254.329 258.731 254.358 258.364C254.402 257.805 254.997 257.289 255.671 256.29" fill="#2F3131"/>
<path d="M256.284 310.648C255.714 310.041 254.953 309.553 255.017 309.227C255.129 308.652 255.743 308.174 256.148 307.655C256.582 308.131 257.235 308.552 257.371 309.103C257.458 309.45 256.775 309.99 256.284 310.648" fill="#2F3131"/>
<path d="M254.468 223.272C255.004 223.92 255.633 224.348 255.606 224.729C255.572 225.181 254.974 225.59 254.622 226.018C254.202 225.655 253.509 225.335 253.446 224.918C253.386 224.515 253.976 224.016 254.468 223.272Z" fill="#2F3131"/>
<path d="M254.578 229.821C255.177 230.367 255.836 230.71 255.813 231.005C255.779 231.496 255.31 231.957 255.022 232.43C254.625 232.166 253.922 231.928 253.898 231.636C253.86 231.143 254.252 230.616 254.578 229.821" fill="#2F3131"/>
<path d="M256.344 276.96C256.662 277.654 257.051 278.102 256.974 278.447C256.896 278.79 256.354 279.031 256.015 279.317C255.742 278.952 255.249 278.581 255.259 278.223C255.268 277.882 255.802 277.555 256.344 276.96" fill="#2F3131"/>
<path d="M257.605 318.346C257.103 318.903 256.722 319.564 256.511 319.514C256.035 319.401 255.644 318.934 255.218 318.612C255.535 318.28 255.812 317.747 256.179 317.675C256.528 317.608 256.97 318.025 257.605 318.346Z" fill="#2F3131"/>
<path d="M257.343 287.727C256.816 288.198 256.464 288.511 256.115 288.824C255.789 288.374 255.361 287.956 255.206 287.454C255.161 287.305 255.89 286.703 256.261 286.704C256.578 286.706 256.893 287.275 257.343 287.727Z" fill="#2F3131"/>
<path d="M256.93 326.137C257.177 326.684 257.492 327.049 257.425 327.317C257.347 327.631 256.934 327.859 256.667 328.125C256.399 327.76 256.037 327.424 255.919 327.017C255.876 326.875 256.431 326.557 256.93 326.137" fill="#2F3131"/>
<path d="M255.987 297.892C256.418 298.391 256.848 298.671 256.853 298.957C256.86 299.259 256.457 299.567 256.233 299.873C255.941 299.64 255.461 299.444 255.408 299.167C255.351 298.867 255.694 298.492 255.987 297.892" fill="#2F3131"/>
<path d="M256.307 248.826C255.83 249.148 255.529 249.351 255.226 249.554C254.98 249.188 254.732 248.821 254.486 248.453C254.797 248.261 255.126 247.895 255.41 247.929C255.685 247.961 255.91 248.403 256.307 248.826Z" fill="#2F3131"/>
<path d="M256.11 239.521C255.462 239.791 255.13 240.041 254.807 240.028C254.594 240.02 254.182 239.539 254.229 239.44C254.382 239.108 254.675 238.666 254.965 238.625C255.216 238.59 255.534 239.045 256.11 239.521" fill="#2F3131"/>
<path d="M256.118 268.113C255.266 268.122 255.28 269.447 256.133 269.437C256.985 269.426 256.971 268.104 256.118 268.113Z" fill="#2F3131"/>
<path d="M257.685 406.495C257.142 405.434 256.623 404.863 256.647 404.315C256.664 403.936 257.453 403.271 257.845 403.307C258.289 403.348 259.034 404.056 259.005 404.424C258.958 404.983 258.361 405.498 257.685 406.495" fill="#2F3131"/>
<path d="M257.215 352.135C257.784 352.743 258.543 353.233 258.479 353.56C258.366 354.135 257.75 354.61 257.343 355.128C256.91 354.651 256.26 354.228 256.124 353.678C256.038 353.33 256.723 352.792 257.215 352.135Z" fill="#2F3131"/>
<path d="M258.797 439.515C258.262 438.868 257.633 438.437 257.663 438.057C257.697 437.606 258.297 437.197 258.651 436.77C259.067 437.134 259.761 437.458 259.823 437.874C259.882 438.276 259.292 438.775 258.797 439.515Z" fill="#2F3131"/>
<path d="M258.709 432.966C258.111 432.419 257.453 432.074 257.475 431.78C257.512 431.288 257.983 430.829 258.27 430.356C258.667 430.621 259.368 430.861 259.391 431.155C259.43 431.648 259.036 432.173 258.709 432.966" fill="#2F3131"/>
<path d="M257.066 385.823C256.749 385.128 256.362 384.679 256.44 384.334C256.517 383.99 257.062 383.751 257.401 383.467C257.673 383.832 258.166 384.206 258.154 384.563C258.144 384.904 257.61 385.229 257.066 385.823" fill="#2F3131"/>
<path d="M255.913 344.434C256.415 343.877 256.799 343.217 257.009 343.268C257.484 343.383 257.875 343.85 258.3 344.174C257.982 344.504 257.704 345.038 257.336 345.108C256.988 345.174 256.545 344.757 255.913 344.434Z" fill="#2F3131"/>
<path d="M256.096 375.054C256.625 374.584 256.976 374.272 257.327 373.96C257.651 374.412 258.079 374.829 258.233 375.333C258.277 375.483 257.547 376.082 257.174 376.078C256.859 376.077 256.545 375.507 256.096 375.054" fill="#2F3131"/>
<path d="M256.608 336.644C256.362 336.097 256.048 335.732 256.116 335.463C256.194 335.15 256.607 334.922 256.877 334.658C257.142 335.023 257.503 335.359 257.622 335.766C257.663 335.909 257.109 336.226 256.608 336.644" fill="#2F3131"/>
<path d="M257.475 364.893C257.046 364.393 256.617 364.113 256.612 363.825C256.608 363.524 257.011 363.217 257.235 362.911C257.527 363.144 258.007 363.342 258.057 363.619C258.114 363.921 257.77 364.294 257.475 364.893Z" fill="#2F3131"/>
<path d="M257.027 413.959C257.504 413.639 257.807 413.436 258.108 413.232C258.354 413.6 258.6 413.968 258.846 414.337C258.536 414.527 258.203 414.893 257.92 414.859C257.645 414.826 257.421 414.381 257.027 413.959Z" fill="#2F3131"/>
<path d="M257.201 423.261C257.847 422.991 258.182 422.744 258.505 422.757C258.718 422.765 259.128 423.247 259.081 423.346C258.927 423.678 258.633 424.119 258.342 424.16C258.091 424.194 257.774 423.739 257.201 423.261" fill="#2F3131"/>
<path d="M257.266 394.671C258.117 394.664 258.107 393.34 257.254 393.349C256.402 393.355 256.414 394.68 257.266 394.671Z" fill="#2F3131"/>
<path d="M259.433 494.247C259.982 495.307 260.504 495.878 260.476 496.422C260.462 496.804 259.674 497.471 259.29 497.44C258.841 497.399 258.096 496.691 258.12 496.321C258.16 495.759 258.758 495.243 259.433 494.247" fill="#2F3131"/>
<path d="M260.055 548.608C259.484 548 258.723 547.513 258.777 547.18C258.897 546.61 259.507 546.129 259.919 545.616C260.344 546.085 261 546.509 261.134 547.057C261.218 547.403 260.546 547.948 260.055 548.608" fill="#2F3131"/>
<path d="M258.236 461.231C258.767 461.873 259.4 462.305 259.37 462.683C259.344 463.14 258.745 463.548 258.39 463.975C257.969 463.611 257.28 463.292 257.21 462.871C257.146 462.466 257.746 461.974 258.236 461.231Z" fill="#2F3131"/>
<path d="M258.37 448.785C258.901 449.427 259.533 449.859 259.504 450.237C259.478 450.694 258.879 451.102 258.524 451.529C258.103 451.165 257.414 450.846 257.343 450.425C257.28 450.02 257.88 449.528 258.37 448.785Z" fill="#2F3131"/>
<path d="M258.341 467.777C258.937 468.321 259.605 468.671 259.579 468.961C259.546 469.455 259.077 469.916 258.786 470.386C258.39 470.123 257.685 469.884 257.66 469.589C257.631 469.104 258.019 468.572 258.341 467.777" fill="#2F3131"/>
<path d="M260.111 514.919C260.424 515.612 260.809 516.058 260.743 516.409C260.663 516.751 260.12 516.991 259.783 517.279C259.511 516.914 259.008 516.535 259.022 516.18C259.028 515.837 259.57 515.516 260.111 514.919" fill="#2F3131"/>
<path d="M261.368 556.299C260.871 556.859 260.49 557.52 260.282 557.473C259.807 557.359 259.417 556.893 258.989 556.568C259.301 556.234 259.579 555.701 259.94 555.627C260.294 555.563 260.735 555.979 261.368 556.299Z" fill="#2F3131"/>
<path d="M261.105 525.68C260.588 526.157 260.236 526.468 259.883 526.781C259.557 526.329 259.133 525.915 258.972 525.409C258.924 525.258 259.651 524.657 260.033 524.663C260.346 524.66 260.665 525.234 261.105 525.68Z" fill="#2F3131"/>
<path d="M260.702 564.096C260.948 564.641 261.26 565.003 261.193 565.272C261.115 565.584 260.705 565.817 260.439 566.081C260.167 565.715 259.802 565.377 259.685 564.971C259.647 564.833 260.192 564.508 260.702 564.096" fill="#2F3131"/>
<path d="M259.756 535.849C260.181 536.344 260.619 536.627 260.616 536.909C260.62 537.209 260.228 537.525 259.994 537.824C259.706 537.594 259.228 537.4 259.174 537.12C259.116 536.819 259.455 536.443 259.756 535.849Z" fill="#2F3131"/>
<path d="M260.079 486.785C259.595 487.102 259.295 487.307 258.995 487.511C258.743 487.141 258.505 486.779 258.254 486.409C258.564 486.217 258.896 485.853 259.185 485.887C259.458 485.919 259.68 486.361 260.079 486.785" fill="#2F3131"/>
<path d="M259.869 477.478C259.229 477.753 258.899 478.004 258.576 477.992C258.362 477.983 257.946 477.5 257.993 477.401C258.141 477.065 258.434 476.622 258.732 476.587C258.977 476.549 259.3 477.006 259.869 477.478" fill="#2F3131"/>
<path d="M259.892 506.071C259.029 506.072 259.05 507.402 259.902 507.391C260.753 507.38 260.743 506.06 259.892 506.071Z" fill="#2F3131"/>
<path d="M261.807 606.767C262.356 607.826 262.878 608.398 262.862 608.951C262.836 609.324 262.048 609.99 261.664 609.96C261.215 609.918 260.47 609.211 260.493 608.842C260.547 608.288 261.144 607.772 261.807 606.767" fill="#2F3131"/>
<path d="M262.428 661.131C261.857 660.522 261.096 660.035 261.162 659.712C261.269 659.133 261.879 658.652 262.292 658.138C262.729 658.616 263.372 659.032 263.519 659.587C263.603 659.934 262.918 660.471 262.428 661.131Z" fill="#2F3131"/>
<path d="M260.61 573.751C261.153 574.401 261.773 574.825 261.743 575.203C261.718 575.66 261.117 576.069 260.763 576.496C260.342 576.132 259.653 575.814 259.595 575.401C259.532 574.996 260.12 574.494 260.61 573.751" fill="#2F3131"/>
<path d="M260.714 580.298C261.322 580.85 261.977 581.192 261.951 581.482C261.919 581.975 261.45 582.436 261.157 582.908C260.762 582.645 260.071 582.413 260.045 582.119C260.004 581.624 260.39 581.094 260.714 580.298Z" fill="#2F3131"/>
<path d="M262.484 627.44C262.798 628.131 263.196 628.586 263.116 628.93C263.038 629.271 262.493 629.512 262.157 629.798C261.884 629.433 261.394 629.064 261.395 628.701C261.414 628.365 261.943 628.037 262.484 627.44" fill="#2F3131"/>
<path d="M263.749 668.825C263.247 669.382 262.866 670.044 262.655 669.993C262.18 669.88 261.789 669.415 261.361 669.09C261.673 668.756 261.951 668.223 262.325 668.157C262.667 668.084 263.108 668.5 263.749 668.825Z" fill="#2F3131"/>
<path d="M263.489 638.211C262.96 638.68 262.607 638.993 262.255 639.304C261.929 638.853 261.504 638.439 261.344 637.932C261.296 637.781 262.036 637.188 262.405 637.186C262.717 637.184 263.037 637.757 263.489 638.211" fill="#2F3131"/>
<path d="M263.073 676.618C263.32 677.165 263.634 677.529 263.567 677.799C263.49 678.112 263.077 678.34 262.808 678.605C262.542 678.242 262.182 677.906 262.062 677.498C262.019 677.356 262.572 677.038 263.073 676.618" fill="#2F3131"/>
<path d="M262.129 648.368C262.568 648.872 262.991 649.148 263.002 649.437C263.006 649.737 262.601 650.045 262.38 650.352C262.091 650.123 261.601 649.919 261.547 649.641C261.501 649.348 261.842 648.971 262.129 648.368" fill="#2F3131"/>
<path d="M262.451 599.308C261.967 599.624 261.666 599.829 261.367 600.033C261.129 599.671 260.877 599.301 260.626 598.931C260.936 598.739 261.268 598.374 261.557 598.41C261.829 598.442 262.052 598.884 262.451 599.308" fill="#2F3131"/>
<path d="M262.255 590.007C261.601 590.275 261.271 590.525 260.948 590.514C260.734 590.505 260.319 590.02 260.366 589.922C260.527 589.594 260.819 589.152 261.104 589.109C261.35 589.069 261.672 589.527 262.255 590.007Z" fill="#2F3131"/>
<path d="M262.264 618.592C261.413 618.603 261.423 619.923 262.274 619.912C263.125 619.902 263.116 618.581 262.264 618.592Z" fill="#2F3131"/>
<path d="M263.857 716.768C264.402 717.827 264.922 718.397 264.901 718.945C264.885 719.325 264.097 719.992 263.706 719.956C263.26 719.917 262.514 719.209 262.543 718.843C262.588 718.283 263.183 717.767 263.857 716.768" fill="#2F3131"/>
<path d="M264.47 771.126C263.899 770.519 263.138 770.031 263.203 769.705C263.315 769.129 263.929 768.652 264.333 768.133C264.768 768.609 265.421 769.03 265.557 769.58C265.643 769.927 264.96 770.468 264.47 771.126" fill="#2F3131"/>
<path d="M262.653 683.751C263.19 684.398 263.819 684.826 263.791 685.207C263.758 685.659 263.16 686.068 262.807 686.496C262.388 686.133 261.694 685.813 261.632 685.396C261.571 684.993 262.161 684.494 262.653 683.751Z" fill="#2F3131"/>
<path d="M262.763 690.299C263.362 690.845 264.021 691.188 263.998 691.483C263.964 691.974 263.495 692.436 263.207 692.908C262.81 692.645 262.107 692.406 262.084 692.114C262.045 691.621 262.437 691.094 262.763 690.299" fill="#2F3131"/>
<path d="M264.529 737.438C264.847 738.132 265.236 738.58 265.159 738.925C265.081 739.268 264.539 739.509 264.2 739.795C263.927 739.43 263.434 739.059 263.445 738.701C263.453 738.36 263.988 738.033 264.529 737.438" fill="#2F3131"/>
<path d="M265.79 778.824C265.289 779.381 264.908 780.042 264.697 779.992C264.221 779.879 263.83 779.411 263.404 779.09C263.72 778.757 263.998 778.225 264.365 778.153C264.713 778.086 265.156 778.503 265.79 778.824Z" fill="#2F3131"/>
<path d="M265.528 748.205C265.001 748.676 264.65 748.989 264.3 749.302C263.975 748.852 263.546 748.434 263.391 747.932C263.346 747.783 264.075 747.181 264.447 747.182C264.764 747.184 265.078 747.753 265.528 748.205Z" fill="#2F3131"/>
<path d="M265.115 786.615C265.362 787.161 265.677 787.527 265.611 787.795C265.532 788.108 265.119 788.337 264.852 788.603C264.585 788.238 264.223 787.902 264.104 787.495C264.062 787.353 264.617 787.035 265.115 786.615" fill="#2F3131"/>
<path d="M264.173 758.37C264.603 758.869 265.033 759.149 265.039 759.435C265.046 759.737 264.642 760.045 264.419 760.351C264.126 760.118 263.646 759.922 263.594 759.645C263.537 759.345 263.88 758.97 264.173 758.37" fill="#2F3131"/>
<path d="M264.492 709.304C264.015 709.626 263.714 709.83 263.412 710.032C263.165 709.666 262.918 709.299 262.672 708.931C262.982 708.739 263.312 708.373 263.596 708.407C263.87 708.439 264.096 708.881 264.492 709.304Z" fill="#2F3131"/>
<path d="M264.295 699.999C263.647 700.269 263.315 700.52 262.992 700.506C262.779 700.498 262.367 700.017 262.414 699.918C262.567 699.586 262.861 699.145 263.15 699.103C263.401 699.068 263.719 699.523 264.295 699.999" fill="#2F3131"/>
<path d="M264.303 728.591C263.451 728.6 263.466 729.925 264.318 729.915C265.171 729.905 265.157 728.582 264.303 728.591Z" fill="#2F3131"/>
<path d="M265.871 866.972C265.328 865.912 264.809 865.341 264.833 864.793C264.85 864.414 265.639 863.749 266.031 863.784C266.475 863.825 267.22 864.534 267.191 864.901C267.144 865.461 266.547 865.976 265.871 866.972" fill="#2F3131"/>
<path d="M265.401 812.613C265.97 813.221 266.729 813.71 266.665 814.037C266.552 814.613 265.936 815.088 265.529 815.606C265.096 815.129 264.446 814.706 264.31 814.156C264.224 813.808 264.909 813.27 265.401 812.613Z" fill="#2F3131"/>
<path d="M266.47 906.917C265.934 906.27 265.306 905.839 265.336 905.459C265.369 905.008 265.969 904.599 266.323 904.172C266.74 904.536 267.434 904.86 267.495 905.276C267.554 905.678 266.964 906.177 266.47 906.917Z" fill="#2F3131"/>
<path d="M267.47 927.918C266.934 927.271 266.306 926.84 266.336 926.46C266.369 926.009 266.969 925.6 267.323 925.174C267.74 925.537 268.434 925.861 268.495 926.277C268.554 926.679 267.964 927.179 267.47 927.918Z" fill="#2F3131"/>
<path d="M267.47 936.917C266.934 936.27 266.306 935.839 266.336 935.459C266.369 935.008 266.969 934.599 267.323 934.173C267.74 934.536 268.434 934.86 268.495 935.276C268.554 935.678 267.964 936.178 267.47 936.917Z" fill="#2F3131"/>
<path d="M266.336 918C265.801 917.353 265.173 916.922 265.202 916.542C265.236 916.091 265.836 915.681 266.19 915.255C266.606 915.619 267.3 915.943 267.362 916.359C267.421 916.761 266.831 917.26 266.336 918Z" fill="#2F3131"/>
<path d="M266.49 895.716C265.892 895.169 265.234 894.823 265.255 894.529C265.293 894.037 265.764 893.578 266.05 893.106C266.448 893.37 267.149 893.611 267.171 893.904C267.211 894.397 266.817 894.923 266.49 895.716" fill="#2F3131"/>
<path d="M265.251 846.301C264.934 845.606 264.547 845.156 264.625 844.811C264.703 844.468 265.247 844.229 265.586 843.944C265.859 844.31 266.351 844.684 266.34 845.041C266.329 845.382 265.796 845.706 265.251 846.301" fill="#2F3131"/>
<path d="M264.098 804.911C264.601 804.355 264.984 803.695 265.195 803.745C265.669 803.861 266.061 804.328 266.485 804.652C266.167 804.982 265.889 805.515 265.522 805.586C265.174 805.652 264.731 805.234 264.098 804.911Z" fill="#2F3131"/>
<path d="M264.282 835.531C264.811 835.062 265.162 834.749 265.513 834.438C265.836 834.889 266.265 835.307 266.418 835.811C266.463 835.96 265.732 836.559 265.36 836.556C265.045 836.555 264.731 835.984 264.282 835.531" fill="#2F3131"/>
<path d="M264.793 797.121C264.547 796.574 264.234 796.21 264.302 795.941C264.379 795.628 264.793 795.4 265.062 795.136C265.327 795.501 265.688 795.837 265.807 796.244C265.848 796.386 265.294 796.704 264.793 797.121" fill="#2F3131"/>
<path d="M265.661 825.37C265.232 824.87 264.803 824.591 264.798 824.303C264.794 824.002 265.197 823.695 265.421 823.389C265.713 823.622 266.193 823.82 266.243 824.097C266.3 824.399 265.956 824.772 265.661 825.37Z" fill="#2F3131"/>
<path d="M265.213 874.437C265.69 874.116 265.993 873.913 266.294 873.71C266.54 874.078 266.786 874.446 267.032 874.814C266.722 875.005 266.389 875.371 266.106 875.337C265.831 875.304 265.607 874.859 265.213 874.437Z" fill="#2F3131"/>
<path d="M265.387 883.739C266.033 883.469 266.368 883.222 266.691 883.234C266.904 883.242 267.314 883.725 267.267 883.824C267.113 884.156 266.819 884.596 266.528 884.638C266.277 884.672 265.96 884.216 265.387 883.739" fill="#2F3131"/>
<path d="M265.452 855.149C266.303 855.142 266.293 853.818 265.44 853.826C264.588 853.833 264.6 855.157 265.452 855.149Z" fill="#2F3131"/>
</svg>
