<svg width="41" height="39" viewBox="0 0 41 39" fill="none" xmlns="http://www.w3.org/2000/svg">
<path d="M40.0334 17.7882C34.1684 18.641 28.3021 19.4929 22.8599 20.2832C21.0334 27.0196 27.3425 31.8669 25.0943 38.3637C20.212 34.4409 18.776 28.9123 14.7801 24.1797C12.3491 25.9432 9.83375 27.5484 7.59256 29.4609C5.63774 31.1257 3.87016 32.679 0.46021 30.7108C3.55004 26.0259 6.53278 21.5035 9.46407 17.059C6.46926 12.7921 3.818 9.01424 0.986599 4.97809C4.22031 3.44125 6.28631 4.76532 8.43107 5.60008C16.1099 8.58205 16.1018 8.55835 20.233 1.84114C20.5684 1.29359 21.2757 0.974821 22.1275 0.298124C24.1924 3.70212 23.054 6.98054 23.6123 10.3431C29.0388 12.4671 34.6117 14.6473 40.1833 16.8266C40.133 17.1476 40.0836 17.4672 40.0334 17.7882Z" fill="#F9BA32"/>
</svg>
