<svg width="264" height="273" viewBox="0 0 264 273" fill="none" xmlns="http://www.w3.org/2000/svg">
<path d="M238.77 168.723C235.807 166.367 231.719 164.743 229.261 161.94C233.116 160.976 237.587 162.256 241.554 161.481C244.908 160.827 248.269 159.143 251.78 158.58C247.135 156.391 241.529 153.357 236.983 150.091C240.775 148.708 244.897 149.799 248.541 148.179C252.293 146.513 254.31 144.026 258.523 143.612C256.106 136.036 236.732 140.678 234.001 131.691C236.548 130.915 240.619 129.14 243.573 128.517C246.595 127.881 248.497 128.395 250.676 127.231C243.969 127.346 241.658 123.974 235.932 122.351C236.122 118.906 247.575 114.838 250.414 112.302C254.229 108.894 256.26 104.951 257.16 99.8639C252.158 104.446 249.55 106.258 242.146 105.495C236.542 104.917 232.264 101.788 227.337 99.195C232.629 97.392 236.284 91.8068 240.163 88.1827C234.919 88.0246 227.81 91.141 223.09 86.9939C225.166 85.2761 227.159 83.4336 228.983 81.2932C232.878 76.7234 240.716 67.3317 245.602 63.9082C231.666 65.4284 219.25 75.3097 214.183 76.8299C217.085 72.1294 220.711 62.4397 224.319 58.3351C218.104 60.205 214.978 58.7516 207.848 62.6433C207.695 57.4747 207.803 55.0728 208.784 49.8889C209.86 44.179 211.578 39.2383 215.368 34.3676C205.838 37.183 198.961 59.007 189.5 57.5385C192.578 51.2783 193.702 44.629 196.136 37.8732C189.908 39.3417 188.911 49.6639 180.797 47.8701C182.158 43.6804 183.454 39.6731 183.636 34.8997C183.816 30.1019 182.969 24.6688 184.531 20.4639C178.131 21.6436 176.952 27.1801 173.644 32.2393C170.946 36.3652 165.855 39.2718 159.71 39.3326C163.725 30.1901 157.189 25.0883 156.578 16.2134C152.462 20.1964 153.419 25.2313 151.735 30.0746C150.909 32.4553 148.077 34.9058 146.077 37.3108C145.499 31.8502 143.932 26.8518 139.741 22.3003C135.23 17.4083 129.55 14.0639 125.704 8.46042C125.113 17.2745 132.724 27.0312 125.114 34.4802C122.588 30.327 122.651 24.4225 120.424 19.9075C118.28 15.5659 113.389 14.3101 111.21 10.2725C110.084 16.6056 113.956 19.6521 114.489 25.7086C114.996 31.4914 110.246 34.6443 110.03 39.6944C108.488 33.5133 104.841 25.9002 98.9191 21.9598C92.1053 17.4296 86.8797 16.0341 84.4 6.90073C77.6409 12.8751 81.8333 21.0537 84.9889 27.6696C88.8098 35.678 92.831 42.8047 89.3431 51.3392L87.2467 49.2139C85.2467 48.2379 85.42 49.1653 83.192 48.4538C79.6658 47.3289 76.2444 49.4936 72.7811 47.5903C70.2977 46.2221 66.8025 44.4101 65.458 41.8653C63.1908 37.5783 58.7491 41.9413 54.8166 40.0927C52.2274 38.8735 48.6847 35.0639 46.4555 33.2518C43.2439 36.5051 48.4224 47.4718 51.2679 49.974C56.9519 54.9724 59.6384 58.0919 56.3368 67.2039C52.9723 64.3733 46.6623 63.4004 42.5243 62.5187C42.61 66.1672 48.2226 73.6404 49.9948 77.3862C48.0304 76.5258 45.7012 74.5739 43.4163 73.9476C40.06 73.0233 38.2133 74.4918 35.1848 74.9235C30.972 75.5225 23.9043 74.805 19.4316 73.5706C21.8782 82.406 37.3912 81.81 36.5636 93.8196C33.5992 94.1571 31.6895 93.6949 28.7191 94.0598C25.5087 94.455 22.0183 95.8506 18.8058 96.3917C22.8924 98.1126 26.8176 99.0977 29.7701 100.776C32.896 102.558 37.0482 106.398 38.8688 109.399C32.8175 108.581 27.8307 106.677 21.7535 109.979C16.1133 113.05 10.4648 113.74 4.39587 115.343C7.43992 117.477 18.0609 117.893 22.1287 118.547C27.0967 119.35 31.263 120.94 36.0017 122.527C31.1763 125.297 24.9946 127.741 20.358 130.545C24.8356 131.271 33.048 134.226 37.4566 132.059C28.7583 137.221 28.453 146.394 10.2225 149.295C15.5265 149.419 21.7821 151.514 27.3272 149.377C32.8272 147.258 34.4447 146.352 40.3069 148.048C36.9792 149.964 31.3831 155.239 29.9282 158.601C33.4697 158.796 36.6192 157.844 39.971 157.793C35.3769 171.243 8.70229 171.59 10.7308 184.764C15.0099 180.325 18.5897 181.073 25.0301 180.447C29.3794 180.024 34.5457 182.739 39.5848 182.383C37.7107 186.312 37.1194 190.599 32.3581 193.429C36.7156 192.085 43.9995 186.296 48.6492 188.762C47.1433 194.426 48.0837 199.093 43.3081 203.523C39.2559 207.281 32.2368 208.814 30.8923 214.706C33.3912 214.311 35.9935 212.842 38.5435 212.334C41.9268 211.662 44.3701 211.811 47.4674 211.367C51.6479 210.769 57.072 204.916 61.2239 207.114C60.743 211.118 59.1528 215.144 58.4818 219.072C63.572 217.013 66.4878 209.896 72.3345 208.555C72.8869 213.806 67.6693 218.403 65.6492 222.997C63.8654 227.053 62.9366 232.675 62.4176 236.958C67.0162 236.648 72.319 232.054 75.6956 228.689C77.9878 226.408 84.5827 215.867 88.7359 219.254C90.1126 220.376 88.8274 222.401 89.4379 223.857C89.9855 225.162 91.4142 226.22 92.1256 227.454C93.603 230.035 94.35 232.675 94.7668 235.572C95.7361 242.3 94.2372 249.695 95.7373 256.326C97.1922 253.942 98.0949 250.5 100.103 248.266C102.166 245.973 105.121 244.429 107.139 241.835C109.147 239.248 110.279 235.329 112.204 232.288C113.136 239.157 113.534 244.316 113.344 251.4C113.904 247.025 120.015 240.048 124.088 238.041C124.069 246.548 113.582 262.695 121.197 270.151C122.983 264.091 128.49 257.755 133.226 253.346C137.939 248.953 141.7 244.28 146.04 239.512C146.182 239.746 146.98 239.932 147.284 240.011C147.278 240.567 147.4 241.218 147.443 241.784C148.389 241.616 147.833 243.316 148.815 243.039C148.487 243.401 150.174 244.228 149.829 244.559C153.375 252.16 156.162 255.961 164.225 259.217C161.736 255.201 159.408 249.193 160.426 242.826C160.947 239.582 162.373 228.081 165.139 228.923C175.418 233.41 181.671 263.605 187.409 260.135C189.118 259.099 185.458 254.775 185.554 252.668C185.716 249.093 187.486 242.373 188.498 238.983C189.421 235.9 190.803 232.55 191.478 229.391C192.265 225.718 191.345 223.018 191.473 219.181C197.538 224.155 207.848 228.85 211.731 232.963C210.31 227.399 208.566 222.222 206.364 216.715C204.505 212.064 200.726 206.491 199.771 201.666C202.188 203.444 205.46 203.368 208.296 204.165C211.142 204.97 214.393 207.242 217.41 207.448C218.446 200.355 212.209 196.646 211.759 190.191C215.811 190.006 219.313 188.364 223.395 189.045C227.2 189.68 229.022 189.163 232.172 190.845C235.833 192.8 240.18 195.563 244.081 196.378C247.663 197.126 250.881 199.437 254.643 199.233C255.371 190.519 248.532 185.32 245.157 177.92C243.311 173.873 242.593 171.757 238.77 168.723Z" fill="#F2C45D"/>
<path d="M61.7912 144.698C54.7819 132.715 64.751 110.01 69.9614 98.8332C77.5514 82.561 93.7084 76.6809 108.484 69.1194C121.952 62.2329 138.66 62.8045 153.469 65.7933C168.109 68.7485 177.21 78.4018 187.483 88.6115C199.189 100.247 201.178 114.202 202.711 129.903C204.249 145.631 200.433 159.635 192.113 173.408C173.83 203.681 139.465 212.392 107.631 202.277C84.8484 195.034 56.2391 162.253 61.3044 136.315L61.7912 144.698Z" fill="#EFA54C"/>
<path d="M49.0896 90.3841C51.9044 92.7647 53.3817 97.6871 55.617 100.901C58.0469 104.391 60.8307 106.209 63.958 108.912C66.5649 106.285 70.2158 102.497 69.3438 98.4168C65.9307 97.5017 61.6787 97.1155 58.1564 96.5469C54.7964 96.0088 52.649 92.3451 50.5399 91.8343L49.0896 90.3841Z" fill="#EFA54C"/>
<path d="M100.587 70.7978C96.6559 65.7264 98.1275 59.7611 98.0314 53.5192C99.9043 55.6627 100.972 58.5754 102.853 60.9074C104.499 62.9505 106.7 64.7839 107.515 67.1737C105.666 68.9006 101.216 69.3171 100.224 71.5244L100.587 70.7978Z" fill="#EFA54C"/>
<path d="M181.46 81.6794C179.607 76.5138 183.39 73.972 187.606 72.2481C192.788 70.132 194.961 68.405 198.522 64.036C197.594 70.5911 194.143 71.9623 190.602 76.6202C188.989 78.7332 189.409 80.8403 187.183 82.6676C185.419 84.1148 181.435 84.7502 181.823 81.6794H181.46Z" fill="#EFA54C"/>
<path d="M201.043 157.477C204.312 158.653 207.384 162.156 209.747 165.093C212.121 168.039 212.795 169.082 215.405 172.019C210.627 168.54 204.029 168.48 198.912 166.558C199.276 164.305 200.709 161.21 202.494 159.65L201.043 157.477Z" fill="#EFA54C"/>
<path d="M155.346 202.809C158.922 206.627 161.934 208.984 166.588 211.513C171.082 213.955 174.516 215.761 176.399 220.829C176.775 216.363 175.31 212.492 172.845 208.975C170.677 205.873 167.209 202.091 168.347 198.187C165.802 196.965 157.488 200.395 157.523 203.897L155.346 202.809Z" fill="#EFA54C"/>
<path d="M97.3217 195.916C93.5106 196.822 91.3987 200.954 89.4322 203.906C86.9746 207.591 83.5864 209.467 80.875 212.544C84.0686 208.303 84.7564 201.638 86.5222 196.281C87.5459 193.174 87.8086 191.274 90.6946 192.727C92.4845 193.63 95.5118 196.98 96.9581 198.455L97.3217 195.916Z" fill="#EFA54C"/>
<path d="M66.8562 164.004C63.8559 160.87 50.9035 165.312 47.4104 166.941C50.0936 162.949 54.8344 158.206 58.5246 154.929C64.8453 149.313 63.9569 160.271 66.4925 164.366L66.8562 164.004Z" fill="#EFA54C"/>
<path d="M72.7899 175.609C52.2235 145.813 58.7649 100.186 87.9518 78.721C120.971 54.4404 168.186 60.9742 191.362 95.2304C212.309 126.194 205.936 167.218 176.222 190.246C141.26 217.339 97.4944 204.943 70.8946 173.156C70.3078 172.456 68.9882 173.235 69.5039 174.056C106.473 232.954 204.298 208.64 206.945 138.261C209.52 69.7305 123.176 36.0581 76.7318 84.9781C55.1 107.763 51.5655 151.575 71.6939 176.54C72.284 177.272 73.3056 176.357 72.7899 175.609Z" fill="#260029"/>
<path d="M87.9956 76.4226C83.5833 73.3518 83.9859 62.3972 85.2698 58.0556C85.8673 56.0337 87.1108 54.1304 87.922 52.1845C89.1202 49.3053 90.7462 46.2284 90.7736 43.0056C90.8079 39.1017 88.9645 35.9701 87.1987 32.6256C86.5964 31.4885 85.6985 30.4517 85.0336 29.3511C80.131 21.2424 80.5524 9.04128 85.8861 0.874779C86.2911 0.254539 85.417 -0.335266 84.9552 0.224167C80.2769 5.89754 77.0216 12.7627 78.65 20.3394C81.0227 31.3821 91.1308 35.5718 87.7438 48.8978C85.2188 58.8247 74.7486 70.2323 87.4124 77.2556C87.9718 77.5658 88.5431 76.8057 87.9956 76.4226Z" fill="#260029"/>
<path d="M84.9808 0.449055C79.8942 10.7834 88.5283 16.1375 96.5094 21.1663C100.894 23.9331 105.495 26.3897 107.872 31.455C110.47 36.9916 108.239 41.9809 109.493 47.3897C111.235 54.9147 118.319 56.5474 121.314 63.4461C121.631 64.1758 122.906 63.8049 122.681 63.0083C121.066 57.3075 117.178 57.0156 113.666 52.455C108.753 46.0762 112.739 37.6635 109.488 30.6858C104 18.9103 79.8191 16.928 86.0854 0.859463C86.3669 0.135849 85.3085 -0.213753 84.9808 0.449055Z" fill="#260029"/>
<path d="M117.919 55.5805C113.508 42.7226 125.296 37.9827 128.754 27.4751C131.553 18.962 124.589 12.2639 125.238 3.79946C125.29 3.11233 124.263 3.01812 124.177 3.69613C123.687 7.5848 124.322 10.4579 125.497 14.1459C128.62 23.9664 126.827 28.5757 120.96 36.7088C116.445 42.9659 113.227 48.5663 116.884 56.07C117.214 56.7511 118.153 56.2615 117.919 55.5805Z" fill="#260029"/>
<path d="M124.587 4.02157C129.159 13.2674 140.284 18.1624 143.534 27.8491C145.475 33.635 143.361 39.7219 145.362 45.5503C147.784 52.604 151.255 56.9305 150.787 65.3798C150.762 65.8419 151.431 66.0213 151.595 65.5622C153.357 60.6763 152.593 56.8089 150.597 52.1632C148.683 47.6999 146.704 44.5105 146.228 39.5333C145.918 36.2953 146.57 33.0938 145.968 29.877C143.84 18.5272 131.263 12.9178 125.74 3.47429C125.333 2.77803 124.216 3.27363 124.587 4.02157Z" fill="#260029"/>
<path d="M137.681 206.509C136.937 223.8 152.546 224.323 164.364 231.416C177.628 239.376 172.494 261.631 190.44 263.732C191.018 263.799 191.215 262.936 190.667 262.738C174.764 257.071 179.898 242.091 169.29 232.504C158.514 222.766 139.332 225.718 139.143 206.649C139.134 205.721 137.723 205.551 137.681 206.509Z" fill="#260029"/>
<path d="M190.548 262.723C181.388 248.512 194.372 235.378 192.857 220.799C192.3 215.439 190.34 210.142 187.291 205.682C184.26 201.249 177.198 196.214 176.044 191.392C175.886 190.735 174.765 190.681 174.778 191.441C174.85 195.567 175.92 196.339 178.48 199.44C186.954 209.711 192.954 216.941 189.86 231.401C187.322 243.258 180.731 252.753 189.602 263.334C190.001 263.811 190.905 263.276 190.548 262.723Z" fill="#260029"/>
<path d="M191.845 219.139C193.964 223.049 197.501 225.141 201.332 227.175C203.786 228.476 206.306 229.704 208.497 231.434C211.148 233.526 212.435 236.189 214.318 238.88C214.623 239.315 215.251 238.92 215.197 238.467C213.838 227.542 198.366 226.299 192.716 218.573C192.369 218.099 191.563 218.616 191.845 219.139Z" fill="#260029"/>
<path d="M214.4 236.329C213.846 221.352 201.069 211.118 200.968 196.494C200.906 187.473 203.216 178.179 195.121 172.034C194.181 171.325 193.225 172.77 194.087 173.509C203.48 181.572 196.843 194.794 199.968 204.977C203.492 216.463 211.468 223.815 213.187 236.378C213.277 237.047 214.428 237.025 214.4 236.329Z" fill="#260029"/>
<path d="M121.494 205.566C113.901 212.59 121.183 222.577 123.044 230.592C125.519 241.252 118.798 247.439 117.417 257.363C116.664 262.759 118.357 267.302 120.562 272.136C120.858 272.78 121.777 272.315 121.544 271.671C118.288 262.616 119.485 255.523 122.83 247.04C124.329 243.246 125.879 239.886 125.793 235.812C125.596 226.381 114.987 214.916 122.563 206.539C123.119 205.925 122.097 205.01 121.494 205.566Z" fill="#260029"/>
<path d="M121.712 271.966C122.622 259.573 135.193 254.891 142.591 246.654C148.331 240.263 151.525 232.79 150.455 224.113C150.371 223.429 149.404 223.544 149.301 224.161C148.151 231.012 147.66 236.67 143.414 242.522C139.867 247.408 135.234 250.814 130.642 254.565C124.921 259.239 119.917 264.201 120.399 272.017C120.445 272.771 121.659 272.698 121.712 271.966Z" fill="#260029"/>
<path d="M185.56 85.4464C192.793 73.7348 207.895 82.2814 218.168 76.9485C225.016 73.3912 228.472 68.9036 236.706 67.2162C241.649 66.2007 243.074 66.6051 246.321 62.61C246.81 62.008 245.899 61.1962 245.327 61.704C239.91 66.5048 231.736 64.8447 225.669 68.7699C221.11 71.716 219.313 75.3249 213.161 76.7813C209.891 77.5535 206.131 76.9303 202.797 76.9363C195.502 76.9546 187.302 76.991 184.377 84.8262C184.113 85.5285 185.15 86.1123 185.56 85.4464Z" fill="#260029"/>
<path d="M199.271 106.203C202.485 105.376 205.338 104.102 207.874 101.925C210.163 99.9612 213.226 96.9451 213.977 93.9807C214.137 93.3453 213.455 92.7402 212.885 93.2176C210.584 95.1452 209.226 98.1795 206.963 100.262C204.643 102.393 201.881 104.032 198.915 105.081C198.288 105.306 198.625 106.37 199.271 106.203Z" fill="#260029"/>
<path d="M212.912 95.4585C217.281 87.9578 226.958 86.6778 231.53 79.2592C233.504 76.0516 235.289 73.8716 238.553 71.716C239.637 71.0015 240.758 70.6032 241.828 69.8127C244.335 67.9611 246.01 65.7994 246.599 62.7559C246.782 61.8104 245.305 61.5215 244.985 62.3881C242.899 68.025 238.401 68.554 234.271 71.9592C230.997 74.6621 230.123 78.9795 227.022 81.8678C221.91 86.6261 214.691 87.9608 211.852 94.902C211.597 95.5253 212.563 96.0574 212.912 95.4585Z" fill="#260029"/>
<path d="M174.587 75.0635C176.887 61.6431 190.114 60.8374 198.699 53.1635C206.309 46.3621 208.372 36.5751 217.298 30.6068C217.766 30.2936 217.26 29.6156 216.784 29.8132C204.838 34.7599 202.851 49.2961 191.608 55.6049C183.682 60.053 173.362 64.3673 173.505 74.9601C173.514 75.6533 174.466 75.7597 174.587 75.0635Z" fill="#260029"/>
<path d="M197.569 78.2345C204.368 75.6866 206.679 70.8798 207.793 63.9112C208.814 57.5142 210.16 52.1388 212.592 46.1826C214.43 41.6798 215.009 34.766 217.471 30.7648C217.796 30.2358 217.187 29.725 216.697 30.0594C214.763 31.3789 215.004 31.4276 214.11 33.5346C212.052 38.387 211.244 44.1121 209.172 49.1531C205.11 59.0314 207.893 71.4149 197.112 77.2707C196.504 77.6021 196.93 78.4747 197.569 78.2345Z" fill="#260029"/>
<path d="M181.378 79.6271C182.13 73.0203 187.171 71.415 192.554 68.9219C196.185 67.2405 200.594 64.872 201.087 60.4452C201.157 59.8037 200.272 59.6547 200.026 60.2019C197.399 66.076 191.827 67.2861 186.575 70.0681C182.905 72.0139 179.513 75.109 180.423 79.6635C180.528 80.1986 181.316 80.1743 181.378 79.6271Z" fill="#260029"/>
<path d="M189.671 79.3291C191.124 74.7047 194.947 73.1571 197.976 69.8005C200.49 67.0124 200.745 64.0602 200.922 60.43C200.942 60.0073 200.335 59.8402 200.181 60.2598C199.443 62.2968 199.42 64.5892 198.475 66.5321C197.443 68.6573 195.613 70.0589 193.833 71.5244C191.322 73.5918 188.929 75.6624 188.534 79.0676C188.457 79.7213 189.469 79.9706 189.671 79.3291Z" fill="#260029"/>
<path d="M263.24 143.263C260.981 139.702 259.034 138.468 254.758 138.027C252.095 137.756 249.407 138.41 246.738 138.006C240.057 136.987 236.273 133.126 231.534 129.201C222.848 122.004 214.159 116.714 204.184 124.71C203.559 125.212 204.247 126.346 204.964 125.917C219.027 117.498 226.607 129.246 237.004 136.081C244.348 140.909 256.845 137.045 262.186 143.947C262.616 144.5 263.63 143.877 263.24 143.263Z" fill="#260029"/>
<path d="M203.676 151.52C208.972 152.685 212.008 152.892 217.243 151.332C219.404 150.687 221.249 149.48 223.455 148.939C228.892 147.616 233.152 149.128 238.586 149.851C240.895 150.158 242.722 150.602 245.087 150.195C250.652 149.24 256.984 141.283 262.615 145.178C263.561 145.835 264.552 144.409 263.637 143.722C261.283 141.961 261.058 141.657 258.139 141.87C248.322 142.575 250.425 149.143 236.452 147.212C232.829 146.713 229.798 145.43 226.019 145.984C223.736 146.318 221.836 147.413 219.702 148.179C214.14 150.18 209.806 150.456 203.804 150.167C202.908 150.125 202.842 151.335 203.676 151.52Z" fill="#260029"/>
<path d="M10.7734 188.333C8.35748 173.572 24.7233 172.794 33.4052 166.066C36.3921 163.752 38.0263 161.076 39.4954 157.644C41.1096 153.867 41.8885 149.31 45.315 146.549C49.46 143.208 55.2438 145.117 59.9801 144.342C60.8697 144.196 60.8579 142.737 59.9147 142.718C53.1821 142.603 47.194 140.769 42.2305 146.656C36.4432 153.521 37.2343 161.712 28.3469 166.54C19.0667 171.584 5.9206 175.378 9.4952 188.558C9.71015 189.352 10.9099 189.173 10.7734 188.333Z" fill="#260029"/>
<path d="M10.5502 188.808C13.244 176.023 31.0954 184.043 38.2808 183.204C41.6301 182.812 44.3865 181.319 47.6075 180.441C56.1778 178.1 65.3321 183.639 71.4567 176.427C72.0447 175.737 70.945 174.743 70.2858 175.36C65.9675 179.41 55.553 176.293 49.8486 177.646C45.8654 178.592 42.3473 180.793 38.2036 181.274C33.7144 181.791 29.3745 180.042 24.979 179.726C18.8697 179.288 8.99324 181.158 9.54446 188.847C9.58824 189.468 10.4423 189.319 10.5502 188.808Z" fill="#260029"/>
<path d="M81.663 186.795C72.2971 188.811 72.3375 196.156 72.208 204.365C72.0822 212.395 68.8697 214.387 64.4492 219.957C58.8458 227.013 64.5584 235.007 54.5096 240.656C53.7175 241.099 54.2672 242.282 55.1176 241.936C57.9966 240.759 60.5074 239.519 62.0881 236.758C63.1963 234.821 62.9312 232.723 63.5073 230.701C63.511 226.557 64.9302 222.732 67.7651 219.23C69.2971 218.166 70.6486 216.91 71.8198 215.46C77.7543 206.263 68.2792 192.794 82.0264 187.935C82.67 187.707 82.3222 186.655 81.663 186.795Z" fill="#260029"/>
<path d="M55.8298 241.869C60.2041 240.613 64.7799 239.445 68.4332 236.594C74.2954 232.018 76.438 225.654 83.7586 222.641C88.0486 220.878 92.8275 220.343 96.538 217.342C101.836 213.058 101.296 206.299 105.905 201.547C106.445 200.987 105.774 200.23 105.138 200.641C100.868 203.402 101.278 206.989 98.956 211.273C94.7421 219.047 87.3335 218.451 80.4878 221.948C77.6602 223.389 75.7159 225.457 73.7502 227.901C68.3429 234.62 63.5081 237.627 55.4771 240.768C54.8724 241.005 55.192 242.054 55.8298 241.869Z" fill="#260029"/>
<path d="M16.749 67.9306C16.4593 72.8469 17.7715 77.8666 21.9071 80.9405C26.7884 84.5677 31.1341 86.4527 33.9522 92.497C34.964 94.6679 35.3775 96.9359 36.8597 98.897C38.5365 101.113 40.6766 102.278 43.046 103.689C47.5212 106.352 49.45 109.271 52.4308 113.637C55.1651 117.644 56.8905 118.675 62.0321 118.468C63.2647 118.419 63.4714 116.486 62.2148 116.525C54.2742 116.768 54.2125 110.633 49.8252 106.081C46.2397 102.36 41.5806 101.414 38.4666 97.1306C35.349 92.8375 35.8132 87.6141 31.7324 84.0356C25.8784 78.9034 18.4592 78.8577 17.894 67.8849C17.8606 67.2313 16.7882 67.2891 16.749 67.9306Z" fill="#260029"/>
<path d="M16.885 67.9247C21.5179 79.3505 27.5847 73.7804 37.2936 73.8838C45.0679 73.9689 47.3698 79.618 53.4612 82.4395C61.0847 85.9725 68.4151 81.1169 74.5753 89.3898C75.3758 90.4661 76.9577 89.1193 76.1633 88.043C73.9043 84.9934 71.9566 82.6493 68.2321 81.7585C66.618 81.3724 65.0634 81.6916 63.4493 81.6126C54.9957 81.2051 54.6823 80.6548 48.5504 76.0699C45.6261 73.8808 43.4553 72.1721 39.7153 71.8346C31.4503 71.0927 24.3887 79.238 17.8208 67.4808C17.4967 66.9001 16.6332 67.3044 16.885 67.9247Z" fill="#260029"/>
<path d="M0.405633 114.312C3.67531 115.06 6.53267 115.51 9.81539 114.655C16.6089 112.889 20.5316 107.55 28.2907 108.663C36.5435 109.849 39.4213 110.581 45.9165 104.917C46.7301 104.209 45.6875 102.989 44.8383 103.643C39.4854 107.778 36.6825 108.404 29.7394 107.237C27.4603 106.854 25.6136 106.212 23.2646 106.617C20.0624 107.17 17.4057 109.265 14.6171 110.8C9.93305 113.378 5.8498 113.914 0.494716 113.372C-0.129994 113.309 -0.166813 114.181 0.405633 114.312Z" fill="#260029"/>
<path d="M0.636013 114.233C10.219 121.229 21.9854 118.66 32.4009 123.585C36.4866 125.519 40.3488 128.514 44.8917 129.353C49.5995 130.222 54.572 128.888 59.3075 129.259C60.3549 129.341 60.4476 127.863 59.4583 127.665C53.7752 126.522 47.8941 128.438 42.2527 126.598C38.4829 125.37 35.2753 122.682 31.6408 121.101C21.7087 116.784 10.8818 119.165 1.18359 113.452C0.658513 113.142 0.132432 113.865 0.636013 114.233Z" fill="#260029"/>
<path d="M6.49506 149.602C13.512 148.726 20.5368 147.425 26.1652 142.855C32.4123 137.784 35.0511 130.456 43.5368 128.353C44.5642 128.097 44.303 126.635 43.2532 126.738C37.7233 127.288 34.3256 130.703 30.9703 134.844C28.0962 138.392 25.2944 141.891 21.178 144.111C16.5594 146.601 11.2934 147.148 6.28983 148.434C5.55466 148.623 5.73162 149.696 6.49506 149.602Z" fill="#260029"/>
<path d="M5.8823 150.025C11.3726 149.803 16.6055 152.369 22.1092 151.472C27.975 150.514 35.7305 144.984 40.8873 150.505C41.665 151.338 43.0177 150.21 42.2458 149.356C38.5568 145.278 33.9443 146.169 29.0605 147.62C25.3931 148.711 22.0283 150.11 18.1211 149.909C13.8372 149.69 10.1519 148.209 5.83821 148.93C5.24442 149.03 5.24564 150.052 5.8823 150.025Z" fill="#260029"/>
<path d="M56.5478 177.719C47.2366 178.212 47.194 187.859 46.1381 195.022C44.434 206.597 30.2484 206.275 28.1855 217.026C28.0559 217.698 29.1061 217.907 29.3317 217.29C32.3244 209.121 41.9849 208.534 46.1132 201.441C50.4968 193.909 45.1868 181.103 56.7366 178.79C57.4411 178.647 57.2298 177.683 56.5478 177.719Z" fill="#260029"/>
<path d="M29.1426 217.515C36.8588 211.024 46.7376 214.295 55.0203 209.558C59.5891 206.947 62.853 204.144 68.1189 202.617C71.0167 201.778 72.0678 202.049 74.1201 199.671C74.6759 199.027 73.695 198.3 73.0882 198.732C69.4978 201.279 64.6936 200.699 60.9029 202.918C56.0595 205.755 53.2757 209.136 47.3457 210.24C40.0843 211.593 33.525 210.86 28.3098 216.758C27.8753 217.251 28.6616 217.923 29.1426 217.515Z" fill="#260029"/>
<path d="M91.4034 218.89C86.2013 218.734 87.5433 223.818 89.0078 227.102C91.8631 233.511 94.0932 235.536 92.687 243.477C91.6147 249.537 93.7916 253.483 93.9771 259.515C93.9983 260.269 94.971 260.357 95.1373 259.625C96.2084 254.879 93.5101 251.069 93.9984 246.156C94.4021 242.088 96.2811 238.43 94.9947 234.286C93.8913 230.723 85.5968 222.213 91.566 219.805C92.0008 219.631 91.8749 218.905 91.4034 218.89Z" fill="#260029"/>
<path d="M95.1519 258.709C97.1616 249.619 105.58 246.654 109.798 239.026C112.326 234.453 113.942 232.775 118.824 230.425C121.223 229.266 122.15 228.619 123.128 226.022C123.423 225.241 122.272 224.599 121.811 225.335C119.757 228.622 115.967 228.762 113.153 231.005C110.042 233.483 109.052 237.342 106.875 240.5C102.285 247.156 94.3644 249.552 93.9701 258.6C93.9357 259.381 94.9904 259.442 95.1519 258.709Z" fill="#260029"/>
<path d="M59.7017 81.4118C50.5793 75.0664 60.4962 64.2943 57.4093 56.1065C56.3822 53.3823 54.1387 51.3544 52.2229 49.2748C47.3273 43.9571 45.3869 38.6699 46.6918 31.2087C46.8025 30.5824 45.8189 30.3757 45.6137 30.9625C44.1753 35.0761 43.4225 39.6763 45.2489 43.7778C48.1753 50.342 55.6434 52.5462 56.1387 60.5942C56.6197 68.3928 49.198 78.0856 59.1921 82.3817C59.7765 82.634 60.211 81.7675 59.7017 81.4118Z" fill="#260029"/>
<path d="M45.9598 31.2696C46.4992 34.5167 48.131 36.9491 51.0443 38.597C55.4291 41.0749 60.1037 38.3628 64.5515 41.0475C68.1252 43.2061 69.9969 47.8519 74.2224 49.0894C77.8329 50.1505 83.9684 46.6266 86.1429 51.5642C86.4768 52.3243 87.6108 51.92 87.5005 51.1325C86.6835 45.3375 82.0101 47.5691 77.7238 47.3563C70.3472 46.9914 69.4755 40.8985 63.9328 38.3841C58.3032 35.8332 49.7117 42.136 47.2258 31.0446C47.0465 30.2419 45.8233 30.4487 45.9598 31.2696Z" fill="#260029"/>
<path d="M149.445 51.3057C149.81 39.3813 159.848 41.2725 168.036 37.6757C171.019 36.3653 172.872 34.7964 174.486 31.9323C175.503 30.1203 175.991 28.062 176.874 26.1921C179.159 21.3518 183.151 18.8313 187.962 16.9888C188.479 16.7882 188.204 15.8942 187.663 16.0493C182.841 17.4236 178.739 19.2387 176.087 23.7172C173.518 28.0589 173.407 32.7685 168.445 35.5079C166.104 36.8 163.241 37.1892 160.673 37.846C153.449 39.6976 146.741 42.6255 148.399 51.3484C148.507 51.9139 149.426 51.9199 149.445 51.3057Z" fill="#260029"/>
<path d="M186.412 16.4933C179.396 23.2704 184.109 28.7219 183.499 37.3171C183.147 42.3094 179.763 45.745 179.198 50.5519C178.725 54.5621 180.981 57.5326 181.622 61.4213C181.741 62.1449 182.88 62.1206 182.926 61.3696C183.115 58.3992 182.16 56.0428 181.812 52.9781C181.195 47.5449 183.483 45.9457 184.895 41.0445C187.213 33.0057 179.928 24.8271 187.263 17.4967C187.856 16.9068 187.026 15.8974 186.412 16.4933Z" fill="#260029"/>
<path d="M221.411 123.822C231.929 128.015 237.235 119.341 245.834 115.042C253.448 111.232 259.851 106.899 260.408 97.4407C260.439 96.9056 259.667 96.7019 259.474 97.2279C258.015 101.223 256.478 105.276 253.405 108.301C250.402 111.253 246.702 112.278 243.116 114.251C235.576 118.404 231.338 124.823 221.594 123.026C221.12 122.937 220.993 123.655 221.411 123.822Z" fill="#260029"/>
<path d="M259.112 96.5166C252.074 104.111 245.656 106.015 236.646 101.013C233.702 99.3776 230.745 97.83 227.662 96.4648C224.16 94.9173 216.646 90.758 212.814 93.5886C212.023 94.1724 212.885 95.1849 213.673 94.9204C221.303 92.3786 232.561 101.211 238.983 104.276C247.656 108.414 254.315 104.014 259.922 97.2554C260.317 96.7811 259.54 96.0544 259.112 96.5166Z" fill="#260029"/>
<path d="M199.868 184.767C202.782 194.086 211.421 191.416 219.143 190.367C224.921 189.58 228.829 190.115 233.469 194.01C234.806 195.129 235.357 196.84 236.968 197.731C238.624 198.643 239.396 198.51 241.274 198.732C249.278 199.668 250.719 197.37 257.575 204.119C258.179 204.715 259.019 203.973 258.565 203.28C256.223 199.708 253.603 197.537 249.25 196.67C244.117 195.646 241.522 197.914 236.007 194.122C234.738 193.253 233.922 191.447 232.628 190.437C223.566 183.347 206.435 196.752 201.16 184.357C200.864 183.663 199.635 184.022 199.868 184.767Z" fill="#260029"/>
<path d="M213.109 151.447C216.015 152.809 219.478 153.74 222.14 155.555C228.242 159.714 225.913 160.86 229.313 164.187C232.486 167.294 235.731 167.647 239.101 170.161C244.599 174.262 244.693 180.52 248.458 185.457C249.726 187.12 251.662 188.446 252.969 190.112C256.377 194.454 256.411 198.3 257.522 203.481C257.656 204.11 258.65 204.122 258.686 203.435C258.958 198.37 258.67 193.827 255.633 189.559C255.016 188.832 254.353 188.151 253.648 187.515C249.934 185.162 247.736 181.733 247.054 177.23C245.887 174.524 246.737 174.18 244.665 171.699C242.866 169.544 241.934 169.851 239.757 168.388C235.227 165.345 231.417 161.435 227.497 157.808C223.292 153.919 219.066 152.031 213.556 150.24C212.758 149.982 212.366 151.101 213.109 151.447Z" fill="#260029"/>
<path d="M46.1292 31.6953C46.5722 36.5022 53.5043 43.7262 58.337 39.3054C58.7183 38.9558 58.4142 38.3812 57.9238 38.4268C55.154 38.6974 53.1614 39.0652 50.8002 37.1832C48.9486 35.7056 47.8416 33.5834 47.0128 31.4126C46.8121 30.8927 46.0839 31.2028 46.1292 31.6953Z" fill="#260029"/>
<path d="M110.465 40.6825C109.442 33.6501 115.898 28.8615 115.389 22.0905C114.936 16.0553 107.129 11.5981 112.232 5.34093C112.518 4.99128 111.997 4.55956 111.665 4.82407C106.74 8.74619 109.935 12.6531 112.059 17.3657C114.738 23.3097 112.913 26.5994 110.679 31.9991C109.408 35.076 108.679 37.5509 109.712 40.8163C109.856 41.2723 110.537 41.1872 110.465 40.6825Z" fill="#260029"/>
<path d="M111.479 5.53263C111.017 10.6162 114.455 12.3613 117.472 15.9034C121.749 20.9292 121.358 27.393 124.631 32.7806C125.03 33.4374 125.923 32.9935 125.693 32.2759C124.271 27.8278 123.408 22.7686 121.164 18.6306C118.575 13.8572 112.673 11.3033 112.346 5.49915C112.318 5.00052 111.523 5.05528 111.479 5.53263Z" fill="#260029"/>
<path d="M145.683 36.794C147.39 32.1087 152.338 29.7829 153.535 24.7328C154.797 19.4151 153.079 15.0795 158.402 11.4675C158.924 11.1149 158.361 10.3365 157.823 10.5706C153.408 12.483 152.838 15.8822 152.583 20.2908C152.324 24.7541 151.272 27.463 148.324 30.8288C146.76 32.6165 145.531 34.1549 144.843 36.4839C144.681 37.0311 145.483 37.3413 145.683 36.794Z" fill="#260029"/>
<path d="M157.665 11.3702C155.823 15.2254 156.197 18.8921 157.879 22.8172C159 25.435 160.616 27.542 160.845 30.479C161.095 33.6806 159.073 36.1676 159.183 39.3144C159.212 40.1901 160.536 40.3755 160.584 39.4482C160.828 34.9119 163.464 32.0053 161.791 27.3201C159.844 21.8747 156.261 17.8796 158.448 11.659C158.628 11.1452 157.894 10.8928 157.665 11.3702Z" fill="#260029"/>
<path d="M180.963 49.4786C181.898 45.1856 188.379 45.0061 191.345 42.7319C194.73 40.1415 195.001 35.6265 198.914 33.407C199.381 33.1425 199.163 32.4767 198.633 32.5253C193.621 32.9692 192.988 40.4577 188.749 42.513C185.743 43.9724 179.86 45.0791 179.921 49.3813C179.932 50.0593 180.819 50.1384 180.963 49.4786Z" fill="#260029"/>
<path d="M190.822 56.6752C194.034 54.3219 194.486 49.2262 195.601 45.6081C196.853 41.5461 197.427 37.0099 199.626 33.3067C199.879 32.878 199.448 32.1574 198.93 32.4797C196.478 34.006 196.037 38.4571 195.348 40.9958C194.829 42.9113 194.343 44.8359 193.708 46.7179C192.703 49.6823 192.392 53.6317 190.158 55.8907C189.696 56.359 190.284 57.0674 190.822 56.6752Z" fill="#260029"/>
<path d="M206.772 64.3947C212.845 59.2321 222.186 62.4185 227.134 55.3009C227.644 54.5682 226.583 53.8749 226.023 54.5225C222.525 58.5602 218.421 58.9676 213.476 59.8919C210.55 60.4392 207.953 61.3543 206.108 63.7897C205.797 64.2031 206.384 64.7261 206.772 64.3947Z" fill="#260029"/>
<path d="M213.546 76.833C217.027 74.9237 218.765 71.9075 220.089 68.2651C221.937 63.1846 223.174 59.448 227.354 55.7387C227.683 55.4468 227.443 54.7354 226.952 54.8874C223.432 55.988 221.673 59.4663 220.44 62.7043C218.561 67.6358 217.647 72.7802 213.011 76.003C212.551 76.3253 213.053 77.1036 213.546 76.833Z" fill="#260029"/>
<path d="M222.099 86.9485C225.526 86.2309 227.966 88.8821 231.269 88.9521C235.983 89.0524 239.224 85.9056 244.206 87.3985C244.763 87.5657 245.264 86.7782 244.705 86.4437C241.179 84.3306 238.324 85.7627 234.688 86.8664C231.491 87.8393 229.446 86.9849 226.505 85.9998C224.842 85.4434 223.63 85.4009 221.919 85.9177C221.292 86.1062 221.426 87.0914 222.099 86.9485Z" fill="#260029"/>
<path d="M227.786 96.9269C230.839 97.7113 233.24 95.7076 235.247 93.6432C238.219 90.5846 240.518 86.9939 245.25 87.5199C245.976 87.5989 246.184 86.5622 245.529 86.2946C238.057 83.2572 234.979 96.182 227.995 96.0117C227.497 95.9995 227.235 96.784 227.786 96.9269Z" fill="#260029"/>
<path d="M234.758 121.171C240.997 121.031 247.247 130.605 253.405 126.106C253.806 125.811 253.47 125.099 252.989 125.221C248.558 126.3 246.15 124.558 242.48 122.323C239.993 120.812 237.671 119.873 234.718 120.222C234.194 120.286 234.214 121.183 234.758 121.171Z" fill="#260029"/>
<path d="M233.384 132.159C237.905 131.998 241.417 128.888 245.958 128.921C249.459 128.948 251.728 128.778 254.387 126.188C254.957 125.631 254.239 124.801 253.593 125.251C251.523 126.696 249.873 127.562 247.36 127.568C246.032 127.571 244.768 127.468 243.452 127.702C239.851 128.343 237.082 130.837 233.345 131.165C232.788 131.214 232.817 132.18 233.384 132.159Z" fill="#260029"/>
<path d="M200.093 199.224C199.809 203.101 202.85 204.958 206.217 205.773C211.342 207.014 216.546 206.691 220.205 211.054C220.631 211.562 221.39 211.03 221.152 210.443C217.666 201.866 202.673 208.981 200.98 199.191C200.896 198.698 200.131 198.716 200.093 199.224Z" fill="#260029"/>
<path d="M220.713 209.68C220.323 202.891 215.865 195.548 212.1 190.082C211.6 189.355 210.352 190.155 210.794 190.924C214.345 197.117 217.518 203.016 219.654 209.869C219.86 210.531 220.753 210.379 220.713 209.68Z" fill="#260029"/>
<path d="M227.232 159.9C230.278 162.162 233.311 163.718 237.203 163.481C243.935 163.074 249.256 159 256.227 160.483C256.708 160.584 256.998 159.802 256.564 159.568C253.381 157.869 250.511 158.294 247.07 159.337C239.79 161.545 234.716 163.557 227.758 159.149C227.26 158.836 226.757 159.547 227.232 159.9Z" fill="#260029"/>
<path d="M256.656 159.383C253.235 156.963 249.116 155.065 245.233 153.539C241.728 152.165 238.908 148.583 235.324 147.884C234.667 147.756 234.296 148.787 234.87 149.115C238.086 150.97 240.636 153.542 244.161 154.904C248.265 156.488 252.118 158.577 256.114 160.417C256.732 160.699 257.189 159.76 256.656 159.383Z" fill="#260029"/>
<path d="M147.127 236.572C144.257 243.064 148.158 244.292 151.679 248.98C153.405 251.282 152.97 254.547 155.246 256.39C158.183 258.767 162.84 258.287 163.988 262.847C164.112 263.331 164.887 263.367 164.916 262.811C165.226 256.624 157.396 257.943 155.125 253.55C153.872 251.121 154.045 249.281 151.949 247.174C148.541 243.754 146.372 242.434 147.966 236.883C148.126 236.329 147.362 236.04 147.127 236.572Z" fill="#260029"/>
<path d="M165.155 262.668C165.773 254.845 157.365 249.71 161.129 241.735C163.327 237.077 165.887 233.772 163.251 228.661C162.838 227.859 161.661 228.427 161.989 229.263C164.837 236.493 157.861 239.993 158.185 246.703C158.461 252.404 163.38 256.904 164.07 262.711C164.145 263.331 165.108 263.276 165.155 262.668Z" fill="#260029"/>
<path d="M113.294 253.802C116.428 246.508 111.58 238.552 116.001 231.55C116.276 231.115 115.835 230.534 115.342 230.771C108.701 233.961 113.96 247.968 112.361 253.459C112.182 254.073 113.04 254.395 113.294 253.802Z" fill="#260029"/>
<path d="M113.345 253.997C116.08 249.984 117.723 245.35 121.028 241.726C122.892 239.686 125.708 237.469 125.708 234.493C125.708 233.982 125.041 233.638 124.712 234.128C122.763 237.041 120.583 239.531 118.438 242.294C115.854 245.624 114.465 249.707 112.423 253.352C112.074 253.969 112.928 254.608 113.345 253.997Z" fill="#260029"/>
<path d="M38.4802 58.858C44.4302 64.7807 43.9182 77.1551 52.8281 80.0101C53.2985 80.1621 53.7189 79.481 53.2498 79.2043C45.2913 74.5495 45.733 63.9902 39.0858 58.1952C38.7009 57.8608 38.1153 58.4962 38.4802 58.858Z" fill="#260029"/>
<path d="M38.8747 58.9097C42.8771 63.8443 50.5721 63.2484 54.7845 68.1161C55.1932 68.5873 56.0223 68.2225 55.901 67.5931C55.4118 65.0483 52.1528 63.7774 50.0257 62.9413C46.4462 61.5306 42.5874 60.6671 39.5862 58.1314C39.1125 57.7301 38.5056 58.4567 38.8747 58.9097Z" fill="#260029"/>
<path d="M16.548 129.669C18.0597 131.645 20.074 132.165 22.4886 132.317C26.301 132.56 29.0823 132.521 32.5669 134.397C33.1182 134.692 33.6822 134.117 33.307 133.585C29.6749 128.441 21.5634 132.998 17.1582 129C16.7581 128.638 16.2461 129.277 16.548 129.669Z" fill="#260029"/>
<path d="M16.72 129.854C19.3162 131.153 22.0395 130.314 24.3104 128.76C25.5895 127.884 26.7238 126.817 27.978 125.908C29.5122 124.798 31.2616 124.415 32.801 123.415C33.2653 123.114 32.8995 122.497 32.4839 122.409C30.0908 121.907 27.5849 124.069 25.8519 125.489C22.8817 127.924 20.9291 129.231 16.9456 128.863C16.333 128.806 16.2247 129.608 16.72 129.854Z" fill="#260029"/>
<path d="M16.385 94.6588C18.9645 99.9978 25.4527 98.5627 29.3992 102.391C32.0276 104.938 34.8886 109.681 39.1819 108.617C40.0098 108.414 39.8031 107.213 38.9515 107.31C34.3079 107.848 31.8743 102.053 28.4858 99.785C24.651 97.2158 20.1272 98.3377 17.1476 94.1663C16.8423 93.7407 16.1628 94.1997 16.385 94.6588Z" fill="#260029"/>
<path d="M15.8012 94.6892C18.1788 95.273 20.4734 96.3249 22.9674 96.3219C27.3867 96.3128 30.8904 92.8771 35.3534 94.9355C36.1588 95.3064 36.8344 94.0204 36.0755 93.5552C33.3334 91.8799 30.9056 92.5335 27.9935 93.4913C25.5469 94.2939 23.6041 95.0024 20.9982 94.6193C19.3259 94.373 17.7358 93.695 16.0326 93.6768C15.4862 93.6707 15.1858 94.5372 15.8012 94.6892Z" fill="#260029"/>
<path d="M55.0277 220.282C57.9115 219.345 59.0039 216.734 59.4755 213.955C59.7628 212.267 59.8117 210.547 60.0954 208.862C60.5077 206.421 61.4721 205.059 62.985 203.207C63.3331 202.784 62.7831 202.325 62.3651 202.474C59.8473 203.359 59.017 206.339 58.6466 208.725C58.0194 212.76 58.5098 216.904 54.5965 219.373C54.0456 219.719 54.4114 220.48 55.0277 220.282Z" fill="#260029"/>
<path d="M55.1549 220.294C58.2808 220.324 60.8511 218.68 63.1551 216.706C66.3165 213.991 68.6491 211.644 72.7406 210.41C73.383 210.215 73.4758 209.184 72.6907 209.136C69.7525 208.95 67.225 210.99 65.1551 212.836C61.977 215.679 59.4091 218.33 55.1169 219.379C54.6408 219.494 54.6016 220.288 55.1549 220.294Z" fill="#260029"/>
<path d="M27.4897 195.18C30.9269 194.515 33.4422 192.608 35.4376 189.784C36.3911 188.437 37.1882 186.986 38.1241 185.627C39.339 183.858 40.9054 182.867 42.3615 181.395C42.7035 181.052 42.4791 180.368 41.9328 180.48C39.2034 181.049 37.3284 184.186 35.9767 186.378C33.7344 190.024 31.6417 192.958 27.32 194.22C26.732 194.393 26.8591 195.302 27.4897 195.18Z" fill="#260029"/>
<path d="M26.778 195.618C34.6809 197.433 40.0278 188.869 47.903 189.395C48.6382 189.446 48.8458 188.449 48.1845 188.16C40.8745 184.983 34.5228 195.539 26.9954 194.667C26.4564 194.603 26.2235 195.494 26.778 195.618Z" fill="#260029"/>
<path d="M27.9716 158.988C31.6486 159.057 35.3315 158.571 38.9504 157.939C39.8553 157.781 39.6047 156.44 38.7033 156.543C35.1083 156.96 31.5525 157.771 27.9299 157.942C27.3385 157.972 27.379 158.978 27.9716 158.988Z" fill="#260029"/>
<path d="M28.0924 159.103C30.4594 157.942 31.9239 155.911 33.3252 153.749C34.0771 152.591 34.7992 151.387 35.7113 150.344C36.5961 149.331 37.7423 148.912 38.715 148.057C39.0926 147.723 38.8502 147.209 38.4167 147.112C36.2647 146.628 34.3456 149.307 33.3182 150.824C31.6317 153.317 30.2848 156.494 27.6257 158.121C27.0462 158.477 27.4488 159.416 28.0924 159.103Z" fill="#260029"/>
<path d="M96.6105 50.719C97.7899 55.9333 92.2731 67.8881 99.8197 70.1228C100.469 70.3174 101.055 69.4053 100.403 69.0101C94.461 65.4254 98.9097 56.2829 97.3813 50.5822C97.253 50.1018 96.4977 50.2204 96.6105 50.719Z" fill="#260029"/>
<path d="M96.8432 50.7616C95.6356 58.317 103.76 59.9922 106.062 66.1977C106.353 66.9821 107.691 66.5625 107.476 65.7447C105.832 59.4967 97.1996 57.9643 97.7152 50.8437C97.7553 50.2782 96.9311 50.2082 96.8432 50.7616Z" fill="#260029"/>
<path d="M75.8376 216.67C86.3118 212.553 80.8117 197.354 89.3698 191.973C90.1274 191.495 89.6227 190.456 88.7784 190.726C85.0707 191.915 83.8971 196.296 83.1014 199.665C81.6916 205.621 81.2106 212.416 75.5098 215.98C75.0991 216.238 75.3697 216.852 75.8376 216.67Z" fill="#260029"/>
<path d="M76.5625 216.652C78.7324 215.192 81.179 214.38 83.1434 212.608C84.5614 211.328 85.7372 209.796 86.8369 208.245C89.6459 204.274 91.7231 199.987 96.0852 197.482C96.8951 197.02 96.3381 195.871 95.4689 196.184C91.6471 197.558 89.3713 201.574 87.2704 204.782C85.894 206.88 84.552 209.02 82.8096 210.842C80.7977 212.945 78.0176 213.927 76.0033 215.992C75.6123 216.396 76.1006 216.965 76.5625 216.652Z" fill="#260029"/>
<path d="M41.5337 170.079C50.478 167.142 52.7215 156.47 61.7834 154.26C62.6444 154.05 62.4201 152.834 61.5459 152.913C57.6932 153.259 54.8689 155.68 52.5731 158.62C49.1825 162.967 46.5291 167.127 41.1586 169.288C40.6253 169.504 41.0126 170.252 41.5337 170.079Z" fill="#260029"/>
<path d="M41.034 170.459C49.3987 168.984 56.4427 163.639 65.2635 165.184C65.9844 165.312 66.2146 164.19 65.5448 163.949C57.6744 161.116 47.9546 166.908 40.774 169.641C40.3119 169.817 40.5637 170.541 41.034 170.459Z" fill="#260029"/>
<path d="M45.594 88.1402C48.3994 90.6698 51.1914 94.0325 54.714 95.5983C58.1678 97.1337 61.7032 95.8689 65.0729 97.909C65.4812 98.1553 65.9957 97.6597 65.657 97.2675C63.5907 94.8747 61.1298 95.5406 58.2639 95.2882C53.132 94.8352 49.8743 90.3901 46.068 87.4653C45.6368 87.1339 45.2127 87.7936 45.594 88.1402Z" fill="#260029"/>
<path d="M45.7554 88.2498C51.8542 94.6285 52.6666 106.291 62.8172 108.009C63.7306 108.164 63.8625 106.729 62.9528 106.58C53.5039 105.024 52.6094 93.1874 46.3255 87.6235C45.9634 87.3042 45.4219 87.9032 45.7554 88.2498Z" fill="#260029"/>
<path d="M64.4309 97.3404C65.6614 98.0428 66.8301 98.812 68.1603 99.3228C68.7778 99.563 69.2861 98.6417 68.7063 98.2799C67.4987 97.5289 66.1803 97.0455 64.88 96.48C64.3786 96.2641 63.945 97.0637 64.4309 97.3404Z" fill="#260029"/>
<path d="M153.826 202.997C154.709 207.61 158.896 210.173 162.831 212.049C168.715 214.852 174.033 216.603 176.351 223.228C176.545 223.788 177.293 223.435 177.262 222.939C176.968 218.208 173.009 215.366 169.091 213.441C163.279 210.58 157.593 209.023 154.642 202.739C154.435 202.301 153.734 202.514 153.826 202.997Z" fill="#260029"/>
<path d="M177.26 221.851C179.039 212.757 169.218 206.491 168.145 197.965C168.083 197.467 167.337 197.418 167.178 197.877C166.141 200.875 168.215 203.97 169.775 206.409C173.033 211.504 176.017 215.654 176.314 221.887C176.343 222.465 177.165 222.334 177.26 221.851Z" fill="#260029"/>
<path d="M218.453 173.335C214.378 170.882 210.081 168.568 205.575 167.011C203.062 166.142 199.011 164.737 196.999 167.245C196.546 167.811 197.362 168.446 197.891 168.057C200.807 165.92 205.954 168.562 208.795 169.796C211.92 171.149 214.915 172.782 218.058 174.086C218.501 174.269 218.871 173.587 218.453 173.335Z" fill="#260029"/>
<path d="M201.101 159.009C206.193 159.507 208.935 164.029 211.811 167.729C213.7 170.164 216.512 174.19 219.987 174.196C220.468 174.196 220.787 173.572 220.328 173.265C218.323 171.915 216.517 170.882 214.882 169.03C213.178 167.096 211.729 164.959 210.081 162.983C207.794 160.237 204.919 157.376 201.056 157.914C200.433 157.999 200.486 158.948 201.101 159.009Z" fill="#260029"/>
</svg>
