<svg width="434" height="440" viewBox="0 0 434 440" fill="none" xmlns="http://www.w3.org/2000/svg">
<path d="M33.4264 317.884C25.7566 310.243 19.7412 309.052 12.8479 302.052C2.13785 291.173 5.17092 284.586 6.50605 271.967C9.12551 247.311 1.39053 218.527 4.93152 192.81C7.73965 172.399 10.9397 143.649 25.5172 127.904C34.4641 118.244 37.5914 117.667 43.2802 104.495C47.8806 93.8514 55.4487 82.6102 63.1184 73.6423C74.9314 59.8274 93.5941 50.3204 106.307 28.1979C124.026 18.2345 145.838 20.2445 174.34 12.328C187.859 11.1315 205.201 10.4995 218.668 9.15061C231.083 7.90909 240.741 9.07075 253.498 10.7375C274.555 13.5042 296.983 21.2248 314.892 31.6816C335.463 43.6825 352.573 54.0508 370.655 70.9068C387.983 87.0429 381.858 97.7828 394.404 116.816C410.237 118.397 435.568 218.141 430.424 258.949C414.105 304.945 391.429 346.989 354.786 380.831C337.654 396.642 315.929 412.002 294.582 421.987C271.921 432.574 246.996 427.931 221.832 430.253C198.09 432.449 192.677 440.89 169.588 427.132C152.238 416.8 128.808 408.439 112.671 396.665C95.3211 384 79.5898 374.381 63.8295 358.618C51.4433 346.24 42.482 323.378 28.6808 314.727L33.4264 317.884Z" fill="#F2C45D"/>
<path d="M76.7221 114.979C65.9323 99.0527 105.856 41.9905 119.635 63.2147C127.421 75.2098 107.916 86.7768 101.589 96.4057C96.8289 103.625 78.4636 133.244 73.1304 110.546L76.7221 114.979" fill="#EFA54C"/>
<path d="M184.065 106.164C184.138 95.6003 187.36 89.8099 188.862 80.8754C190.102 73.4611 186.119 63.6421 191.554 56.6472C205.021 39.292 223.067 56.9672 231.129 68.6053C241.875 84.1406 247.854 97.4346 232.79 112.411C223.053 122.085 191.975 133.077 185.654 114.081L184.065 106.164Z" fill="#EFA54C"/>
<path d="M327.008 91.6949C318.968 88.4608 312.996 83.7639 306.03 79.424C296.866 73.7156 292.679 74.5348 283.029 70.7624C272.551 66.675 244.361 43.6593 264.91 35.9467C283.391 28.9939 361.641 77.5309 322.255 94.8665L327.008 91.6949" fill="#EFA54C"/>
<path d="M290.818 246.627C265.182 237.667 273.57 157.53 312.985 173.799C344.84 186.94 330.255 252.636 293.989 248.212L290.818 246.627" fill="#EFA54C"/>
<path d="M382.66 235.774C358.432 235.686 365.681 170.228 395.395 184.683C418.041 195.69 403.66 244.319 382.66 240.524V235.774Z" fill="#EFA54C"/>
<path d="M150.591 256.142C160.198 246.179 154.343 210.327 149.002 199.145C139.453 179.139 115.842 178.485 104.682 197.569C81.8395 236.622 115.298 278.571 155.337 257.724L150.591 256.142" fill="#EFA54C"/>
<path d="M38.1836 286.223C76.8733 319.117 65.5682 245.714 39.7726 239.436C25.6449 246.36 33.8517 277.944 42.9364 286.223H38.1836" fill="#EFA54C"/>
<path d="M212.335 327.388C204.498 323.717 188.143 309.044 192.076 300.521C196.248 291.456 224.598 294.917 232.913 295.643C248.253 296.972 259.819 308.154 245.619 322.666C235.961 332.541 219.765 326.081 209.164 333.723L212.335 327.388" fill="#EFA54C"/>
<path d="M231.795 390.256C204.149 383.515 239.472 373.756 247.976 371.6C257.874 369.083 281.899 355.259 290.054 368.133C304.705 391.242 234.197 396.911 222.297 391.837L231.795 390.256Z" fill="#EFA54C"/>
<path d="M351.111 333.454C331.664 345.5 336.765 304.016 357.75 307.238C370.441 309.183 367.851 318.253 362.568 326.365C355.973 336.487 347.563 334.891 338.42 340.653L351.111 333.454" fill="#EFA54C"/>
<path d="M126.842 368.552C124.157 357.821 93.1879 330.582 85.598 341.56C73.2263 359.446 114.884 378.059 123.751 379.436C127.771 374.944 127.016 372.116 123.671 368.552H126.842" fill="#EFA54C"/>
<path d="M387.995 122.383C388.735 124.899 388.866 127.663 390.106 130.016C390.781 131.277 392.617 130.654 392.465 129.253C392.211 126.807 391.536 124.23 390.81 121.881C390.273 120.155 387.48 120.602 387.995 122.383" fill="#260029"/>
<path d="M393.471 117.397C393.253 122.165 393.942 128.207 397.788 131.518C398.934 132.496 400.248 130.937 399.82 129.784C399.014 127.612 397.788 125.764 397.2 123.471C396.7 121.459 396.496 119.35 396.33 117.286C396.206 115.662 393.543 115.787 393.471 117.397Z" fill="#260029"/>
<path d="M400.718 121.983C400.82 124.551 401.32 127.445 403.018 129.449C403.911 130.509 405.696 129.673 405.456 128.301C405.065 126.09 403.962 124.151 403.766 121.858C403.621 120.155 400.646 120.248 400.718 121.983" fill="#260029"/>
<path d="M3.90093 207.611C8.08772 177.739 16.9474 151.9 26.511 123.564C27.1858 121.555 24.4792 120.082 23.2094 121.839C6.13572 145.421 -0.634133 179.066 1.19441 207.722C1.296 209.317 3.69051 209.063 3.90093 207.611" fill="#260029"/>
<path d="M24.2394 125.487C40.5729 124.464 40.5656 105.133 43.3882 93.5881C43.7438 92.1738 42.4811 90.6573 40.9791 91.3771C35.7112 93.9168 35.0074 99.9176 34.3108 105.164C33.7085 109.699 32.6854 113.392 29.2388 116.592C26.9676 118.709 24.2973 120.175 22.505 122.76C21.5618 124.109 22.7954 125.575 24.2394 125.487" fill="#260029"/>
<path d="M41.1635 97.4631C47.6577 89.7955 54.0577 81.9502 60.864 74.5497C66.1319 68.818 72.706 63.7075 76.2833 56.7155C77.0451 55.2128 75.1222 53.906 73.8233 54.456C66.2189 57.7212 60.5738 65.2045 55.2768 71.3577C48.768 78.9171 43.0574 86.6754 38.1159 95.3312C36.9259 97.4145 39.6107 99.3083 41.1635 97.4631" fill="#260029"/>
<path d="M122.924 17.0442C141.152 20.6353 159.132 11.6304 177.113 8.70766C203.409 4.4396 227.971 7.22016 254.158 9.00589C256.473 9.16408 257.504 5.5643 255.094 4.87569C209.185 -8.19913 167.927 8.64819 122.772 13.2943C120.493 13.5236 120.98 16.6582 122.924 17.0442" fill="#260029"/>
<path d="M303.909 25.9753C319.786 38.5233 337.948 47.7241 354.129 59.8636C369.2 71.168 379.424 84.6201 390.286 99.6846C391.259 101.025 393.617 99.8892 393.24 98.2986C384.148 60.6234 337.012 38.966 306.159 22.7696C303.975 21.6217 301.885 24.3739 303.909 25.9753Z" fill="#260029"/>
<path d="M389.977 94.8663C385.268 108.551 398.837 118.928 407.545 126.654C408.735 127.708 410.926 126.62 410.948 125.081C411.013 118.877 405.861 116.955 402.023 112.983C396.791 107.578 396.116 101.345 393.584 94.6987C392.974 93.1118 390.507 93.3411 389.977 94.8663" fill="#260029"/>
<path d="M405.016 122.049C412.084 139.333 418.912 155.795 421.444 174.474C423.396 188.841 422.873 203.997 426.726 217.983C427.43 220.542 431.399 220.752 431.646 217.778C434.302 186.228 426.966 145.906 408.992 119.472C407.411 117.136 404.037 119.667 405.016 122.049" fill="#260029"/>
<path d="M425.755 216.5C428.658 223.532 431.618 230.003 431.763 237.769C431.894 244.575 429.717 251.046 429.412 257.795C429.311 259.929 432.431 261.539 433.664 259.362C441.189 245.961 440.514 225.485 429.797 213.895C427.91 211.863 424.696 213.94 425.755 216.5" fill="#260029"/>
<path d="M423.905 270.72C427.78 267.366 431.923 262.562 434.129 257.933C435.37 255.352 431.684 253.041 429.674 254.821C425.843 258.217 422.454 263.563 420.321 268.2C419.348 270.312 422.273 272.134 423.905 270.72" fill="#260029"/>
<path d="M422.359 263.288C412.033 285.615 405.597 309.308 392.913 330.617C382.457 348.171 368.801 362.036 353.338 375.214C351.742 376.577 353.44 379.408 355.377 378.371C394.763 357.283 416.445 305.881 425.943 264.608C426.487 262.25 423.418 261.004 422.359 263.288Z" fill="#260029"/>
<path d="M201.973 433.211C256.517 443.007 326.212 418.875 360.12 374.162C361.673 372.107 358.822 369.752 356.899 371.231C306.947 409.717 266.059 427.616 202.299 429.824C200.137 429.904 199.774 432.812 201.973 433.211" fill="#260029"/>
<path d="M2.85642 199.68C-5.32123 226.457 7.34784 253.469 0.73025 280.115C0.120736 282.59 3.50206 284.985 5.04761 282.381C10.6421 272.939 10.41 261.046 9.12564 250.343C7.10118 233.402 6.7819 216.942 5.85312 199.95C5.76605 198.388 3.29179 198.274 2.85642 199.68" fill="#260029"/>
<path d="M1.49582 279.498C-0.274675 283.758 1.075 289.069 2.43915 293.298C3.68721 297.196 5.61006 303.247 9.8549 304.611C11.132 305.025 12.8444 304.234 12.8734 302.718C12.9314 298.908 9.84032 295.606 8.5197 292.052C6.98866 287.893 7.16289 283.358 5.51574 279.316C4.77562 277.497 2.1779 277.865 1.49582 279.498Z" fill="#260029"/>
<path d="M8.15507 302.153C11.9355 307.349 17.5592 310.14 21.9056 314.783C27.2533 320.503 30.6201 328.043 34.8722 334.579C42.5347 346.37 51.7354 357.008 63.4685 364.873C64.9125 365.84 66.6758 363.975 65.5221 362.609C54.2751 349.281 43.848 336.407 34.8068 321.416C28.864 311.578 21.3831 302.884 9.93296 299.614C8.36564 299.162 7.18274 300.832 8.15507 302.153" fill="#260029"/>
<path d="M85.3161 387.47C94.7926 398.986 108.942 406.829 122.25 413.229C139.686 421.602 160.816 423.127 177.012 433.481C180.176 435.505 183.404 430.927 180.364 428.699C167.971 419.615 152.058 418.396 137.901 413.121C119.347 406.228 104.552 394.457 87.5002 385.069C85.9474 384.213 84.0608 385.939 85.3161 387.47" fill="#260029"/>
<path d="M175.776 430.337C177.641 435.83 183.141 439.155 188.772 439.858C191.428 440.193 194.149 439.932 196.688 439.113C200.962 437.727 204.264 433.727 209.053 434.263C210.366 434.416 211.527 432.9 210.86 431.681C208.284 426.979 203.654 427.959 199.605 430.323C191.42 435.119 185.449 434.374 178.171 428.314C176.778 427.168 175.312 428.988 175.776 430.337" fill="#260029"/>
<path d="M252.571 6.74636C263.019 14.1781 276.472 9.1046 287.712 15.006C296.927 19.8306 303.472 29.966 314.197 31.3751C315.546 31.5478 316.57 29.728 315.583 28.7136C308.689 21.5707 299.111 13.779 290.302 9.20695C279.15 3.42454 265.798 5.36917 253.673 3.75033C251.997 3.52684 251.264 5.81976 252.571 6.74636" fill="#260029"/>
<path d="M100.303 34.2916C103.946 29.4162 107.734 24.9696 113.139 21.9787C118.262 19.1473 123.625 18.8302 129.125 17.3275C131.185 16.7608 132.071 13.4019 129.538 12.7046C116.738 9.15055 100.898 20.6581 97.3138 32.7243C96.7768 34.5528 99.1132 35.8872 100.303 34.2916" fill="#260029"/>
<path d="M70.0778 60.2918C78.1684 57.078 85.2359 50.2979 91.3093 44.218C97.0489 38.4784 103.695 32.2824 106.852 24.6997C107.679 22.7275 105.176 21.2959 103.652 22.4496C96.7949 27.6595 91.7155 35.3009 85.5913 41.3468C79.9243 46.9332 73.2923 52.0321 68.4742 58.3899C67.6543 59.4784 68.9531 60.7344 70.0778 60.2918" fill="#260029"/>
<path d="M64.2986 74.3817C70.7057 69.3453 76.8227 63.9257 83.0049 58.628C88.5631 53.8607 94.6146 49.3764 99.2658 43.7021C100.035 42.7668 98.7652 41.1995 97.7058 41.854C91.4655 45.7062 86.2047 51.0969 80.7409 55.9527C74.653 61.386 68.4635 66.712 62.6223 72.395C61.4251 73.5487 62.9707 75.4194 64.2986 74.3817" fill="#260029"/>
<path d="M104.455 35.491C105.094 33.9375 106.342 33.3279 107.641 32.4354C108.766 31.6583 107.982 29.9662 106.814 29.816C103.737 29.3879 101.72 31.9558 101.197 34.748C100.842 36.6868 103.759 37.1882 104.455 35.491Z" fill="#260029"/>
<path d="M125.814 21.5876C136.045 21.9649 147.314 21.0122 156.855 17.0583C158.161 16.5228 157.465 14.4962 156.108 14.7284C145.964 16.4771 136.473 18.4442 126.089 18.6489C124.232 18.6851 123.876 21.5143 125.814 21.5876Z" fill="#260029"/>
<path d="M207.507 9.33767C218.37 9.25205 228.87 10.2302 239.645 11.4804C240.987 11.6306 241.539 9.48205 240.182 9.11344C229.588 6.27629 218.297 5.68927 207.399 6.60209C205.86 6.7327 205.947 9.35146 207.507 9.33767Z" fill="#260029"/>
<path d="M12.6502 178.688C13.9708 174.907 15.1318 171.209 15.1753 167.181C15.1898 165.902 13.3104 164.814 12.5558 166.214C10.5749 169.893 9.71869 173.762 8.99308 177.847C8.60851 179.981 11.9536 180.684 12.6502 178.688" fill="#260029"/>
<path d="M18.9605 154.737C20.3101 150.376 21.8773 146.152 23.7639 141.994C25.6288 137.901 28.241 133.993 29.5906 129.718C30.1348 128.012 28.0742 127.113 26.9713 128.338C21.1156 134.84 18.5033 145.5 16.3482 153.766C15.8983 155.477 18.4308 156.478 18.9605 154.737Z" fill="#260029"/>
<path d="M36.8998 125.021C40.985 121.314 45.7451 116.002 46.5723 110.345C46.7755 108.987 44.8743 108.369 44.1269 109.444C42.6612 111.555 41.8266 114.021 40.4262 116.198C38.8661 118.607 37.0957 120.815 35.0567 122.844C33.7724 124.123 35.5212 126.277 36.8998 125.021Z" fill="#260029"/>
<path d="M9.97245 240.388C8.66635 248.393 8.97122 260.19 11.7213 267.823C12.2655 269.325 14.5874 268.767 14.7107 267.293C15.0445 263.078 14.152 258.767 13.84 254.552C13.499 249.793 13.6368 244.989 12.9257 240.278C12.6645 238.546 10.2337 238.793 9.97245 240.388" fill="#260029"/>
<path d="M349.68 374.366C367.218 362.835 384.864 345.42 392.578 325.489C393.129 324.066 391.018 322.904 390.183 324.233C378.247 343.184 366.695 359.352 347.996 372.385C346.61 373.357 348.308 375.264 349.68 374.366" fill="#260029"/>
<path d="M401.781 308.066C403.073 305.07 404.64 302.051 405.467 298.893C405.794 297.652 404.089 296.479 403.327 297.769C401.6 300.694 400.526 303.987 399.263 307.131C398.603 308.741 401.106 309.648 401.781 308.066" fill="#260029"/>
<path d="M394.228 314.699L393.437 315.685C392.139 317.332 394.519 319.336 396.071 318.086L397.08 317.29C399.206 315.583 396.042 312.405 394.228 314.699Z" fill="#260029"/>
<path d="M408.297 288.358C410.735 284.506 413.02 280.209 414.559 275.907C415.067 274.492 413.144 273.506 412.251 274.696C409.501 278.359 407.194 282.619 405.307 286.791C404.502 288.548 407.266 289.982 408.297 288.358Z" fill="#260029"/>
<path d="M60.4172 362.711C64.4081 368.414 71.3813 370.919 76.0615 375.999C81.09 381.469 84.406 388.47 90.6971 392.688C92.2208 393.702 93.7737 392.098 93.2367 390.539C90.7624 383.385 84.602 376.078 79.1599 370.911C74.4289 366.412 68.0725 362.892 62.108 360.296C60.5842 359.627 59.6191 361.571 60.4172 362.711" fill="#260029"/>
<path d="M56.7791 350.965C57.8384 354.352 60.4435 358.402 63.6072 360.12C64.5505 360.636 66.1178 360.035 65.784 358.734C64.8625 355.231 61.6915 351.631 58.6076 349.803C57.8457 349.347 56.4453 349.896 56.7791 350.965Z" fill="#260029"/>
<path d="M48.5401 340.71C49.5632 341.929 50.3686 342.788 51.7618 343.527C52.8792 344.122 54.5337 343.156 53.8226 341.784C53.0389 340.282 52.0592 339.346 50.7676 338.267C49.2946 337.025 47.3501 339.29 48.5401 340.71Z" fill="#260029"/>
<path d="M73.6582 363.879C74.9063 364.817 75.8133 365.301 77.3081 365.621C78.5271 365.883 79.2093 364.199 78.4837 363.357C77.5113 362.226 76.4882 361.651 75.1458 361.027C73.4261 360.231 72.2288 362.821 73.6582 363.879Z" fill="#260029"/>
<path d="M93.384 388.623C97.237 390.497 100.473 393.456 104.283 395.247C105.734 395.939 106.612 394.023 105.886 392.963C103.434 389.372 98.3979 387.209 94.4143 385.823C92.5712 385.185 91.6788 387.804 93.384 388.623" fill="#260029"/>
<path d="M107.466 397.484C108.924 399.051 110.586 400.015 112.487 400.973C114.243 401.866 115.571 399.079 114.047 397.982C112.429 396.829 110.883 395.879 108.96 395.349C107.763 395.015 106.471 396.415 107.466 397.484Z" fill="#260029"/>
<path d="M208.431 428.351C213.154 428.504 217.893 428.722 222.616 428.518C224.496 428.439 224.351 425.295 222.486 425.216C217.9 425.02 213.292 425.253 208.706 425.406C206.863 425.463 206.486 428.286 208.431 428.351" fill="#260029"/>
<path d="M229.938 427.421L230.816 427.206C231.904 426.922 232.368 425.1 231.033 424.765L230.191 424.55C227.565 423.895 227.775 427.965 229.938 427.421" fill="#260029"/>
<path d="M239.184 426.834C242.573 426.202 246.469 425.992 249.568 424.433C250.83 423.793 250.62 421.61 249.067 421.559C245.584 421.466 241.992 422.886 238.64 423.764C236.732 424.266 237.181 427.205 239.184 426.834Z" fill="#260029"/>
<path d="M102.106 201.16C92.0054 218.626 92.0273 242.31 109.057 255.474C122.75 266.055 152.826 269.195 154.488 245.51C154.604 243.799 152.152 243.189 151.535 244.836C143.183 267.06 114.086 259.929 104.385 242.784C97.2009 230.091 99.6246 215.63 105.908 203.164C107.004 200.979 103.332 199.034 102.106 201.16Z" fill="#260029"/>
<path d="M154.321 243.384C158.435 232.951 153.044 222.458 154.502 211.653C155.605 203.499 156.418 197.251 150.882 190.335C140.433 177.297 120.137 177.144 109.268 189.088C108.005 190.474 109.202 192.555 111.067 191.866C117.721 189.406 122.554 185.117 130.194 185.931C143.502 187.331 151.397 196.922 149.14 210.071C147.217 221.248 152.928 231.571 150.816 242.58C150.417 244.654 153.595 245.227 154.321 243.384" fill="#260029"/>
<path d="M78.7051 97.0717C83.6755 90.1131 87.6664 82.5224 92.499 75.4644C97.1429 68.6879 108.005 56.0092 117.787 61.2924C131.653 68.7866 111.394 82.8569 106.097 87.0887C101.337 90.8837 97.5638 94.6852 95.4523 100.467C94.7557 102.383 97.6219 103.415 98.4056 101.564C103.34 89.7503 116.988 86.3914 122.822 75.3911C125.877 69.6428 126.82 59.3253 119.521 56.5985C97.9121 48.5289 83.008 81.2185 75.6866 95.4986C74.7796 97.2669 77.6022 98.6107 78.7051 97.0717" fill="#260029"/>
<path d="M89.8775 108.63C86.9388 112.601 81.7724 118.709 76.2505 115.175C71.5122 112.142 78.6886 107.281 75.0315 103.5C74.2696 102.718 72.978 102.667 72.3105 103.625C68.443 109.183 67.6303 117.281 75.0678 120.016C82.7303 122.825 88.1941 115.64 92.0907 110.178C93.0993 108.76 90.9152 107.238 89.8775 108.63Z" fill="#260029"/>
<path d="M277.665 40.7801C287.751 45.9239 298.069 50.5164 308.38 55.2045C318.894 59.9718 347.919 77.9394 325.135 89.7872C323.785 90.4896 324.373 92.8479 325.984 92.4568C338.239 89.4186 340.307 75.5812 333.661 66.0002C329.263 59.6511 322.268 56.0034 315.462 52.8231C303.504 47.2308 291.278 42.0216 278.95 37.3102C276.664 36.4402 275.612 39.7199 277.665 40.7801Z" fill="#260029"/>
<path d="M323.374 89.1631C316.074 88.0805 313.824 80.4789 308.847 76.5301C306.031 74.2938 302.781 73.1205 299.298 72.3441C294.102 71.1903 288.66 71.5902 283.501 70.2892C271.528 67.2786 270.723 59.5523 266.21 50.1476C265.39 48.4352 263.082 49.3849 263.213 51.1054C264.134 63.8885 271.579 73.1575 284.306 75.187C295.314 76.9358 302.948 76.573 311.408 85.1127C315.094 88.8431 317.721 91.6149 323.076 92.2897C325.093 92.5502 325.369 89.4606 323.374 89.1631" fill="#260029"/>
<path d="M378.597 193.513C381.441 185.075 387.333 183.238 396.287 187.992C398.733 191.155 400.394 194.703 401.265 198.615C402.39 203.2 402.506 208.011 401.816 212.67C400.198 223.699 390.649 242.166 376.623 235.179C374.454 234.09 373.111 237.362 374.766 238.727C393.327 254.008 408.057 218.075 407.005 204.601C406.359 196.219 402.724 183.995 393.842 180.721C384.939 177.441 378.314 184.8 374.889 192.141C373.808 194.457 377.501 195.769 378.597 193.513" fill="#260029"/>
<path d="M373.677 221.928C373.169 218.634 373.176 215.341 373.88 212.075C374.468 209.323 376.013 206.829 376.369 204.085C376.536 202.83 374.932 202.024 373.996 202.843C369.106 207.118 369.243 216.718 370.484 222.495C370.919 224.533 373.996 224.002 373.677 221.928Z" fill="#260029"/>
<path d="M220.486 396.004C234.127 395.409 244.482 402.518 258.276 399.405C267.52 397.308 279.188 393.47 286.313 387.078C294.273 379.944 295.376 367.804 284.789 363.059C283.092 362.291 282.177 364.939 283.803 365.738C299.403 373.386 278.869 386.707 271.416 389.734C265.365 392.2 258.994 394.981 252.435 395.539C240.868 396.531 231.014 389.363 219.869 392.521C217.649 393.15 218.229 396.089 220.486 396.004" fill="#260029"/>
<path d="M274.691 361.036C264.743 366.18 253.75 369.939 243.033 373.161C236.778 375.055 229.928 376.259 224.246 379.646C217.52 383.66 212.078 392.274 222.244 395.851C224.254 396.562 226.06 393.515 224.043 392.418C213.681 386.767 235.66 379.799 237.133 379.38C240.769 378.32 244.433 377.399 248.039 376.231C257.915 373.037 266.702 368.283 275.859 363.501C277.412 362.697 276.258 360.231 274.691 361.036" fill="#260029"/>
<path d="M354.29 333.259C359.971 330.11 364.325 325.075 366.016 318.718C367.177 314.387 367.126 307.448 362.097 305.439C356.815 303.335 351.141 309.467 348.137 313.021C344.037 317.877 340.14 324.871 340.59 331.393C340.692 332.802 342.738 332.788 343.188 331.634C344.813 327.448 345.474 323.245 347.846 319.313C349.864 315.969 352.468 312.95 355.589 310.583C362.997 304.968 364.02 313.979 362.438 318.987C360.871 323.964 357.446 327.918 352.984 330.509C351.307 331.482 352.563 334.225 354.29 333.259Z" fill="#260029"/>
<path d="M338.682 341.082C344.058 342.548 350.625 340.872 352.969 335.379C353.586 333.928 351.735 332.925 350.625 333.747C347.113 336.328 343.949 338.333 339.393 337.983C337.644 337.839 336.867 340.588 338.682 341.082Z" fill="#260029"/>
<path d="M83.2031 346.002C87.6729 357.742 101.692 377.172 116.11 376.557C121.726 376.316 126.13 372.696 126.602 367.059C127.168 360.216 122.023 355.202 117.133 351.296C116.044 350.426 114.521 352.082 115.486 353.11C119.223 357.073 124.396 362.203 122.596 368.314C120.195 376.498 109.187 371.209 104.841 367.85C96.6558 361.529 91.2791 353.408 85.9894 344.681C84.9662 342.989 82.492 344.122 83.2031 346.002Z" fill="#260029"/>
<path d="M85.8091 342.873C82.6309 336.342 92.8331 338.913 94.444 339.803C95.8734 340.594 97.2013 341.603 98.5654 342.51C101.794 344.667 104.965 347.227 108.717 348.338C110.306 348.816 111.735 347.008 110.603 345.639C107.636 342.054 103.035 339.579 99.1096 337.128C95.975 335.169 92.4412 333.207 88.6028 333.695C83.4727 334.347 80.4178 340.152 83.2912 344.5C84.249 345.937 86.5419 344.375 85.8091 342.873" fill="#260029"/>
<path d="M44.5001 283.815C41.2131 277.976 38.3251 271.93 36.4385 265.479C35.4879 262.222 34.6754 258.79 34.2255 255.422C34.0949 253.608 33.957 251.794 33.8191 249.98C41.692 242.151 46.2997 241.259 47.6348 247.305C49.5141 250.7 49.8915 255.022 51.6475 258.565C54.2451 263.804 70.3101 286.457 51.9158 287.074C49.2456 287.168 48.7739 291.334 51.5167 291.298C60.9932 291.167 64.9479 281.581 62.8436 273.186C60.8554 265.277 54.8401 259.028 52.315 251.259C51.0379 247.339 50.5445 242.435 47.6566 239.292C41.2422 232.333 31.9761 238.399 30.2056 246.134C27.2886 258.818 34.9727 274.957 41.3654 285.303C42.5191 287.162 45.6103 285.79 44.5001 283.815" fill="#260029"/>
<path d="M284.194 200.913C280.784 213.49 270.538 239.873 284.681 249.64C298.409 259.115 312.602 242.957 320.148 233.285C331.99 218.105 336.098 200.568 325.946 183.158C319.583 172.238 304.228 160.65 294.411 174.465C293.098 176.324 295.717 178.884 297.422 177.215C309.38 165.548 317.993 179.051 321.962 186.075C325.866 192.997 328.254 200.848 327.129 208.904C325.678 219.295 318.69 228.481 311.884 236.128C309.003 239.357 304.78 244.43 300.528 245.867C281.996 252.128 281.865 237.225 282.555 228.569C283.273 219.547 286.059 210.587 287.365 201.639C287.626 199.834 284.688 199.117 284.194 200.913" fill="#260029"/>
<path d="M293.278 180.437C288.417 182.578 283.649 190.177 287.314 195.174C288.119 196.271 289.774 195.537 289.941 194.355C290.216 192.382 289.708 190.591 290.369 188.624C291.123 186.395 292.712 184.647 294.708 183.448C296.522 182.36 295.288 179.554 293.278 180.437" fill="#260029"/>
<path d="M200.055 49.2914C189.606 53.3476 186.326 62.1057 185.963 72.5676C185.499 86.1358 187.349 82.3576 183.09 91.1643C181.385 94.6763 179.055 98.7354 178.105 102.559C177.016 106.946 176.697 110.634 178.838 114.755C190.15 136.566 226.155 132.802 235.682 112.207C236.313 110.844 234.231 109.835 233.397 111.011C225.226 122.462 212.448 128.369 198.357 124.021C188.924 121.118 186.333 118.471 184.381 108.747C182.139 97.5875 183.177 98.8058 187.973 88.9679C189.562 85.7164 190.549 83.721 190.832 80.085C191.13 76.2472 189.381 72.3296 189.78 68.5854C190.578 61.0884 195.802 55.7341 201.694 51.8223C203.211 50.8137 201.564 48.6964 200.055 49.2914Z" fill="#260029"/>
<path d="M239.323 102.23C244.903 89.2343 230.833 76.4933 225.718 65.5583C221.705 56.9895 213.419 43.7703 202.215 50.1536C200.8 50.9583 201.373 53.3332 203.129 52.9987C218.331 50.1252 220.805 64.5069 226.349 74.331C231.196 82.936 241.616 90.113 236.972 101.369C236.355 102.862 238.684 103.712 239.323 102.23" fill="#260029"/>
<path d="M191.328 303.922C189.928 316.895 202.053 328.55 214.512 329.835C226.55 331.076 246.025 320.937 250.255 309.016C255.015 295.637 237.884 291.652 228.414 292.837C220.215 293.866 194.557 282.772 193.157 299.2C193.012 300.833 195.37 301.383 195.95 299.838C200.645 287.395 214.265 296.615 222.791 296.819C227.021 296.913 232.5 294.098 236.353 295.201C239.879 297.783 243.413 300.354 246.939 302.927C246.983 307.666 245.118 311.411 241.352 314.146C223.531 330.495 200.87 328.891 193.846 303.829C193.469 302.499 191.495 302.42 191.328 303.922" fill="#260029"/>
<path d="M190.611 203.978C197.243 212.546 211.189 214.402 216.965 203.716C221.217 195.828 214.055 182.113 204.187 184.893C202.699 185.313 202.068 187.702 203.889 188.224C209.868 189.944 216.689 194.545 213.439 201.871C209.455 210.848 197.903 208.235 192.715 202.192C191.561 200.834 189.53 202.577 190.611 203.978Z" fill="#260029"/>
<path d="M425.047 254.989C429.147 248.022 428.298 241.384 426.28 233.668C422.863 220.556 421.825 209.011 421.738 195.437C421.731 194.001 419.423 193.159 419.039 194.82C417.247 202.643 417.399 210.638 418.444 218.584C419.982 230.165 426.556 241.738 421.753 253.268C420.947 255.199 423.958 256.845 425.047 254.989" fill="#260029"/>
<path d="M420.067 182.773C419.632 179.111 419.283 175.432 418.58 171.81C418.26 170.208 416.069 170.693 416.141 172.238C416.323 175.931 416.882 179.596 417.353 183.252C417.571 185.024 420.278 184.536 420.067 182.773" fill="#260029"/>
<path d="M130.979 410.29C136.69 410.913 142.364 411.457 147.93 412.923C152.944 414.244 157.617 416.676 162.638 417.829C164.314 418.206 165.533 416.262 164.075 415.094C155.832 408.484 141.617 406.234 131.32 406.656C129.049 406.741 128.556 410.029 130.979 410.29" fill="#260029"/>
<path d="M146.17 406.409C149 406.132 151.525 406.982 154.297 407.214C155.944 407.35 156.43 405.386 155.327 404.42C152.628 402.056 148.877 402.09 145.532 402.81C143.21 403.311 143.841 406.647 146.17 406.409" fill="#260029"/>
<path d="M19.1931 211.35C19.6648 201.792 21.7037 192.628 22.5889 183.167C22.7631 181.28 20.3178 180.953 19.5487 182.47C15.166 191.154 14.6289 201.96 15.4416 211.494C15.623 213.629 19.0915 213.467 19.1931 211.35" fill="#260029"/>
<path d="M114.501 175.335C99.3504 184.27 85.2953 208.169 89.1701 226.109C89.4531 227.407 91.6444 227.891 92.0072 226.36C93.9881 218.062 94.184 209.853 97.783 201.871C102.166 192.14 108.812 185.48 116.344 178.196C117.658 176.926 116.279 174.284 114.501 175.335Z" fill="#260029"/>
<path d="M95.7058 245.635C99.8418 261.468 125.013 281.916 140.614 268.483C142.029 267.265 140.512 264.668 138.785 265.646C123.918 274.019 103.201 259.622 98.3687 244.784C97.8826 243.282 95.2994 244.096 95.7058 245.635Z" fill="#260029"/>
<path d="M155.318 253.864C159.708 249.516 159.955 244.436 159.86 238.481C159.722 229.524 160.158 219.598 158.032 210.908C157.611 209.216 155.136 209.224 154.911 211.038C154.222 216.682 155.02 222.458 155.441 228.118C155.956 235.114 158.757 245.686 153.228 251.389C151.799 252.86 153.823 255.343 155.318 253.864Z" fill="#260029"/>
<path d="M165.974 233.365C166.25 229.561 166.802 225.615 165.764 221.9C165.387 220.542 163.173 219.947 162.716 221.625C161.635 225.505 162.158 229.533 162.448 233.501C162.593 235.527 165.829 235.329 165.974 233.365" fill="#260029"/>
<path d="M188.51 290.963C176.102 312.992 194.663 342.686 220.698 337.099C222.113 336.793 222.185 334.412 220.596 334.42C197.239 334.574 181.704 314.784 191.325 292.443C192.036 290.796 189.41 289.359 188.51 290.963Z" fill="#260029"/>
<path d="M238.297 328.862C244.755 326.388 250.153 322.04 253.513 315.96C256.401 310.759 258.853 303.094 256.241 297.355C255.53 295.805 253.433 296.414 253.165 297.899C252.12 303.559 252.548 308.647 249.667 313.95C246.75 319.319 242.52 323.471 236.911 325.931C234.981 326.779 236.374 329.594 238.297 328.862Z" fill="#260029"/>
<path d="M223.96 288.75C227.907 288.954 231.833 289.322 235.737 289.94C239.604 290.544 243.479 291.768 247.39 291.777C248.689 291.777 249.814 289.883 248.377 289.098C241.469 285.354 232 285.275 224.308 285.079C221.95 285.013 221.573 288.628 223.96 288.75Z" fill="#260029"/>
<path d="M278.669 243.798C276.028 231.588 279.816 221.29 282.268 209.536C284.873 197.033 281.499 183.819 289.902 173.241C291.07 171.758 288.995 170.321 287.667 171.194C276.855 178.312 280.244 193.498 278.626 204.657C276.608 218.527 270.122 230.998 275.273 244.887C275.977 246.789 279.09 245.766 278.669 243.798" fill="#260029"/>
<path d="M310.443 249.138C326.45 239.915 341.593 218.081 335.643 198.68C335.157 197.104 332.748 196.917 332.552 198.802C331.63 208.025 331.848 216.341 327.886 225.049C323.816 233.988 317.133 241.468 308.94 246.808C307.627 247.664 309.078 249.929 310.443 249.138" fill="#260029"/>
<path d="M332.147 184.74C329.912 178.618 327.031 171.781 322.554 166.912C321.096 165.33 318.193 166.977 319.267 169.037C322.315 174.894 326.153 180.228 328.954 186.257C329.927 188.362 332.916 186.852 332.147 184.74Z" fill="#260029"/>
<path d="M273.301 31.701C260.574 31.1423 248.594 47.055 258.281 58.064C259.188 59.0929 261.234 58.3303 260.857 56.8508C259.609 51.9159 258.542 47.055 261.3 42.361C263.876 37.9935 268.512 35.7572 273.446 35.2638C275.456 35.0628 275.319 31.7888 273.301 31.701" fill="#260029"/>
<path d="M260.475 65.1673C262.652 71.7769 268.007 75.4282 274.298 77.8568C283.063 81.2469 293.243 83.801 302.582 84.6798C304.28 84.8466 304.766 82.4659 303.235 81.8281C291.625 76.9955 268.914 77.6471 264.132 63.4324C263.297 60.9667 259.669 62.7213 260.475 65.1673" fill="#260029"/>
<path d="M186.217 126.807C178.678 119.472 174.085 109.843 175.804 99.0895C177.14 90.7675 182.582 83.9395 183.227 75.4643C183.351 73.9115 181.174 73.4326 180.594 74.8606C176.668 84.5265 170.986 94.3876 171.552 105.127C172.06 114.696 176.646 123.253 183.946 129.305C185.412 130.523 187.61 128.165 186.217 126.807" fill="#260029"/>
<path d="M182.996 65.6462C182.909 59.5525 185.297 53.7897 190.252 50.0368C195.412 46.1482 200.295 47.2228 206.107 46.2643C207.428 46.0408 207.936 44.1158 206.746 43.3619C201.093 39.8078 192.277 42.9425 187.517 46.8172C181.864 51.4234 179.462 58.6593 179.978 65.7768C180.101 67.466 183.018 67.3724 182.996 65.6462Z" fill="#260029"/>
<path d="M173.148 82.5535C174.983 80.0988 176.718 76.893 175.76 73.7867C175.252 72.1033 173.191 71.842 172.4 73.4834C171.326 75.6943 171.174 78.0896 169.882 80.2664C168.591 82.4512 171.595 84.628 173.148 82.5535Z" fill="#260029"/>
<path d="M65.1611 118.672C67.084 110.379 69.2246 102.252 72.751 94.4753C76.7056 85.7593 82.4162 78.5765 87.5898 70.6462C88.3662 69.47 86.8498 67.9905 85.7323 68.9483C72.2359 80.6147 63.9711 100.541 62.0628 117.964C61.8669 119.727 64.7475 120.481 65.1611 118.672Z" fill="#260029"/>
<path d="M106.902 53.5145C110.748 52.8462 114.579 52.8317 118.353 53.9056C121.589 54.8329 124.157 57.2224 127.336 58.0133C128.656 58.3304 130.129 57.1484 129.425 55.7196C127.626 52.1286 122.67 50.3798 118.962 49.5236C114.492 48.4925 110.182 48.7668 105.843 50.1847C103.913 50.808 104.994 53.841 106.902 53.5145" fill="#260029"/>
<path d="M67.4031 124.174C69.725 126.881 73.3168 128.352 76.6619 126.672C77.8301 126.076 77.6849 123.905 76.1756 123.927C73.8101 123.956 71.7494 123.848 70.0515 121.932C68.5712 120.271 65.9446 122.468 67.4031 124.174Z" fill="#260029"/>
<path d="M32.7891 272.041C28.2395 255.561 24.7565 241.216 40.3499 229.743C41.5617 228.849 40.5314 226.812 39.1092 227.101C18.7702 231.253 24.887 259.892 30.0897 272.896C30.6774 274.368 33.2172 273.599 32.7891 272.041Z" fill="#260029"/>
<path d="M34.1909 282.409C38.1383 295.28 55.0885 304.481 67.482 296.796C69.4919 295.558 68.1568 292.624 65.9002 293.466C54.45 297.732 41.4761 293.684 37.1006 281.488C36.5202 279.869 33.683 280.748 34.1909 282.409Z" fill="#260029"/>
<path d="M249.759 406.531C268.125 405.661 294.878 399.065 298.854 377.586C299.123 376.129 296.888 375.33 296.148 376.586C291.431 384.576 286.49 391.14 278.073 395.582C269.177 400.276 258.982 401.713 249.135 403.028C246.806 403.331 247.532 406.642 249.759 406.531Z" fill="#260029"/>
<path d="M269.727 359.621C273.065 358.887 276.316 358.808 279.719 359.068C282.505 359.287 285.19 360.013 287.998 359.868C289.442 359.794 289.652 357.733 288.629 357.008C283.231 353.142 275.075 354.636 269.139 356.305C267.093 356.878 267.572 360.1 269.727 359.621" fill="#260029"/>
<path d="M311.476 306.629C315.771 307.652 319.697 306.657 322.933 303.559C325.516 301.085 328.187 296.513 325.828 293.176C325.103 292.139 323.536 292.428 322.861 293.307C321.38 295.252 321.576 297.748 319.835 299.671C317.941 301.773 315.184 302.95 312.361 302.783C310.22 302.661 309.197 306.085 311.476 306.629" fill="#260029"/>
<path d="M332.254 286.847C336.912 286.32 340.794 280.87 338.48 276.423C337.319 274.194 334.394 275.404 334.511 277.692C334.627 280.079 334.112 282.111 331.543 282.836C329.04 283.534 329.613 287.154 332.254 286.847Z" fill="#260029"/>
<path d="M100.126 295.703C97.5933 299.155 97.9054 303.988 101.098 306.941C103.718 309.364 109.327 310.83 111.598 307.304C112.149 306.442 111.881 305.085 110.8 304.758C109.036 304.214 107.172 304.823 105.466 304.038C102.84 302.828 102.252 299.736 102.97 297.205C103.456 295.47 101.258 294.164 100.126 295.703Z" fill="#260029"/>
<path d="M111.73 308.188C108.958 314.769 116.686 325.583 123.659 320.155C124.828 319.248 124.08 317.462 122.752 317.267C118.928 316.731 113.893 314.415 115.612 309.625C116.527 307.108 112.761 305.745 111.73 308.188Z" fill="#260029"/>
<path d="M167.793 33.3843C169.68 30.4906 172.343 28.1237 175.724 27.1746C178.968 26.2675 181.884 27.319 185.106 27.5287C186.521 27.6078 187.414 25.9751 186.499 24.8584C180.426 17.4724 166.988 24.1045 164.499 31.6581C163.846 33.6173 166.596 35.2354 167.793 33.3843" fill="#260029"/>
</svg>
