<svg width="823" height="458" viewBox="0 0 823 458" fill="none" xmlns="http://www.w3.org/2000/svg">
<path d="M252.64 83.3369C299.202 29.0597 360.091 1.2151 431.585 2.70732C446.209 3.01257 471.894 10.3445 485.716 15.1306C501.213 20.4968 520.48 25.743 533.634 35.5404C550.849 48.3606 562.18 58.0657 577.499 73.088C591.704 87.0227 605.164 102.03 614.656 119.523C627.626 143.404 632.581 170.691 637.351 197.454C638.033 201.267 638.686 205.349 637.082 208.871C635.612 212.115 632.51 214.268 629.507 216.184C581.006 247.184 523.419 260.262 466.754 270.391C408.833 280.749 350.457 288.594 291.855 293.904C270.877 295.793 229.213 302.201 211.437 287.174C197.267 275.189 198.879 241.903 199.17 224.589C200.029 173.276 219.224 122.312 252.64 83.3369Z" fill="#8CAED7"/>
<path d="M637.433 274.346C629.248 313.604 607.219 348.487 583.7 380.973C571.845 397.351 559.287 413.587 543.129 425.725C526.042 438.561 502.168 443.694 481.275 448.173C414.225 462.526 346.798 446.739 286.832 413.473C269.127 403.654 232.808 359.435 251.003 349.319C290.424 338.598 339.642 343.113 380.582 337.292C468 324.855 554.19 303.763 637.433 274.346" fill="#4C7DA2"/>
<path d="M52.6153 253.986C36.6282 264.044 19.9171 278.015 19.2711 296.891C18.767 311.657 28.8406 325.132 41.335 332.996C60.8219 345.279 85.0793 346.338 108.102 346.939C284.875 351.59 466.121 349.879 632.089 288.863C666.917 276.057 700.773 260.73 734.245 244.713C758.282 233.213 782.54 221.076 801.849 202.715C814.897 190.322 825.972 172.302 820.69 155.096C814.776 135.851 792.23 127.942 772.523 123.824C721.218 113.076 668.444 109.312 616.124 112.665C618.843 123.291 622.854 133.599 628.05 143.26C646.323 150.423 672.802 146.932 680.086 165.162C685.183 177.877 675.585 191.734 664.916 200.324C649.78 212.499 631.614 220.221 613.483 227.215C500.388 270.846 378.639 291.93 257.458 288.863C230.454 288.175 199.637 291.439 174.243 282.233C162.587 278.009 152.925 263.257 155.736 251.183C158.363 239.893 172.348 236.571 182.23 230.523C189.868 225.845 208.645 203.774 199.069 193.985C191.991 194.382 161.117 203.311 152.577 206.523C118.012 219.506 83.9292 234.286 52.6153 253.986" fill="#C48D53"/>
<path d="M206.067 294.132C180.766 177.344 238.133 48.9792 358.278 14.2932C486.281 -22.6495 637.008 72.783 637.469 212.016C637.483 215.829 643.39 216.444 643.432 212.576C644.98 73.7258 496.297 -24.9702 367.35 5.56922C240.661 35.5769 171.395 172.17 202.042 294.842C202.673 297.368 206.635 296.722 206.067 294.132" fill="#260029"/>
<path d="M230.807 354.125C275.623 436.623 390.912 471.422 478.685 453.334C559.024 436.765 620.374 364.978 638.115 286.392C638.541 284.482 635.524 283.921 634.849 285.646C606.02 360.023 560.934 429.779 477.627 447.327C388.711 466.048 283.759 429.638 233.618 352.308C232.582 350.711 229.898 352.455 230.807 354.125" fill="#260029"/>
<path d="M195.524 219.902C180.616 226.988 148.649 245.778 153.015 266.232C157.218 285.874 191.911 290.233 207.444 293.4C209.651 293.855 210.347 290.355 208.31 289.609C195.73 285.014 169.137 283.461 161.342 271.725C156.962 268.83 156.401 264.826 159.667 259.715C159.042 254.746 160.533 250.797 164.132 247.875C166.702 244.18 170.486 241.031 173.844 238.041C180.851 231.829 188.454 226.624 196.312 221.564C197.278 220.945 196.625 219.378 195.524 219.902" fill="#260029"/>
<path d="M201.538 292.718C333.97 309.187 487.21 285.241 610.088 234.264C611.721 233.576 610.869 230.706 609.115 231.224C544.677 250.406 481.126 269.121 414.424 278.946C343.462 289.404 273.288 288.735 201.857 289.354C199.72 289.373 199.337 292.44 201.538 292.718" fill="#260029"/>
<path d="M616.672 231.992C630.913 225.978 644.316 218.668 657.037 209.895C666.401 203.419 678.959 195.461 682.792 183.919C691.084 158.895 657.087 153.74 641.057 149.713C638.785 149.139 637.642 152.12 639.793 153.135C647.368 156.748 655.589 157.539 663.341 160.584C665.662 161.712 667.977 162.841 670.291 163.969C677.88 167.896 679.74 173.425 675.864 180.566C673.982 189.909 671.746 192.451 664.768 198.342C649.981 210.81 632.552 220.513 615.351 229.209C613.584 230.11 614.847 232.758 616.672 231.992" fill="#260029"/>
<path d="M200.78 189.149C162.559 199.152 125.189 212.867 90.3544 231.624C67.6446 243.848 31.5884 261.113 20.0028 285.627C-8.54252 346.016 125.374 351.703 157.078 352.003C159.08 352.017 159.428 349.013 157.376 348.859C128.987 346.642 101.351 343.248 73.7567 335.739C65.2734 333.432 49.4567 331.671 42.4712 325.728C3.58969 292.604 36.7707 271.315 55.6897 258.032C99.9807 226.932 150.029 208.216 201.341 192.338C203.286 191.742 202.832 188.617 200.78 189.149Z" fill="#260029"/>
<path d="M171.142 354.111C346.063 363.467 539.839 330.079 700.441 259.566C702.684 258.579 701.058 255.448 698.836 256.193C613.257 285.186 528.864 312.75 439.692 328.768C350.621 344.754 261.712 348.978 171.434 350.993C169.474 351.035 169.077 353.997 171.142 354.111Z" fill="#260029"/>
<path d="M717.287 253.026C746.996 243.615 857.429 183.179 812.229 142.467C810.732 141.117 808.964 143.482 810 144.921C839.866 186.622 747.437 238.509 716.549 250.719C715.292 251.216 715.967 253.445 717.287 253.026" fill="#260029"/>
<path d="M613.383 111.961C677.005 118.223 737.013 112.679 798.108 135.843C799.478 136.362 800.685 134.254 799.336 133.508C746.327 104.074 672.419 107.788 613.582 109.912C612.297 109.953 612.028 111.828 613.383 111.961" fill="#260029"/>
<path d="M379.342 253.851C431.165 251.174 483.137 239.638 531.077 219.639C532.518 219.042 531.467 216.985 530.048 217.481C480.255 234.932 431.3 245.892 378.802 250.847C376.829 251.033 377.425 253.95 379.342 253.851" fill="#260029"/>
<path d="M420.135 259.516C450.994 253.473 481.839 246.227 511.542 235.77C512.727 235.351 512.081 233.299 510.86 233.64C480.569 242.073 450.483 250.569 419.694 257.053C418.125 257.386 418.552 259.821 420.135 259.516" fill="#260029"/>
<path d="M527.929 231.829C563.198 222.346 599.978 205.471 628.374 182.255C629.51 181.334 628.26 179.247 626.947 180.042C594.228 199.784 563.212 216.461 527.184 229.472C525.871 229.954 526.574 232.198 527.929 231.829" fill="#260029"/>
<path d="M536.689 221.012C544.846 218.059 553.223 215.429 560.925 211.378C562.047 210.782 561.564 208.807 560.208 209.14C551.64 211.27 543.525 214.92 535.34 218.191C533.459 218.938 534.822 221.691 536.689 221.012" fill="#260029"/>
<path d="M571.872 205.422C593.076 195.119 614.494 182.491 630.779 165.176C631.823 164.061 630.488 162.394 629.211 163.338C610.093 177.436 591.87 191.911 570.828 203.234C569.472 203.974 570.459 206.104 571.872 205.422" fill="#260029"/>
<path d="M572.01 195.616C584.001 188.289 596.8 181.49 607.889 172.83C608.982 171.978 607.811 170.19 606.569 170.8C594.088 176.931 582.446 185.458 570.761 192.99C569.227 193.969 570.399 196.603 572.01 195.616" fill="#260029"/>
<path d="M537.711 208.275C543.043 205.649 548.367 203.014 553.634 200.266C554.763 199.684 553.947 197.946 552.79 198.486C547.394 200.976 542.07 203.589 536.725 206.195C535.39 206.841 536.384 208.935 537.711 208.275" fill="#260029"/>
<path d="M200.628 248.08C243.379 254.619 286.995 256.335 329.845 249.663C331.208 249.449 330.811 247.469 329.476 247.583C286.08 251.324 244.032 251.784 200.884 245.409C199.166 245.149 198.925 247.824 200.628 248.08Z" fill="#260029"/>
<path d="M229.275 261.382C254.782 262.518 280.423 263.165 305.909 261.326C307.031 261.241 306.96 259.346 305.831 259.329C280.374 259.161 254.959 259.671 229.509 258.869C227.898 258.82 227.642 261.312 229.275 261.382" fill="#260029"/>
<path d="M336.173 255.844C344.089 255.284 352.203 255.093 359.983 253.418C361.197 253.163 361.247 251.174 359.891 251.138C351.82 250.911 343.691 252.203 335.683 253.09C333.873 253.295 334.406 255.975 336.173 255.844Z" fill="#260029"/>
<path d="M326.378 260.944C342.464 262.788 359.104 262.747 374.886 258.797C376.142 258.479 375.837 256.604 374.531 256.795C358.416 259.189 342.855 260.503 326.591 258.701C325.15 258.537 324.944 260.78 326.378 260.944" fill="#260029"/>
<path d="M418.159 239.333C454.343 233.177 490.534 223.416 523.502 207.025C524.957 206.309 523.921 204.193 522.437 204.776C488.07 218.122 454.016 229.841 417.712 236.763C416.058 237.076 416.505 239.611 418.159 239.333Z" fill="#260029"/>
<path d="M501.777 203.142C513.292 200.985 524.495 197.448 534.504 191.251C535.739 190.477 534.909 188.561 533.51 189.162C522.99 193.744 512.547 197.973 501.316 200.544C499.676 200.926 500.095 203.455 501.777 203.142Z" fill="#260029"/>
<path d="M545.117 193.372C567.841 186.792 591.41 176.612 608.753 160.052C609.86 158.992 608.476 157.458 607.241 158.277C586.987 171.601 568.075 183.656 544.691 190.918C543.186 191.379 543.562 193.827 545.117 193.372" fill="#260029"/>
<path d="M218.886 242.259C255.495 245.098 293.326 244.89 329.61 238.715C331.107 238.468 330.674 236.294 329.198 236.422C292.325 239.533 256.12 241.746 219.091 240.079C217.686 240.015 217.473 242.151 218.886 242.259" fill="#260029"/>
<path d="M260.862 235.307C274.613 235.329 288.769 234.597 302.399 232.867C303.613 232.703 303.556 230.706 302.306 230.687C288.57 230.446 274.407 231.247 260.763 232.781C259.35 232.944 259.414 235.307 260.862 235.307" fill="#260029"/>
<path d="M206.639 280.691C236.071 288.991 266.385 291.403 296.577 286.129C297.876 285.91 297.514 283.98 296.229 284.135C265.937 287.607 237.023 286.265 207.54 278.242C205.936 277.81 205.02 280.238 206.639 280.691" fill="#260029"/>
<path d="M221.673 276.539C240.407 280.558 259.298 282.964 278.486 282.951C279.7 282.951 279.92 281.09 278.671 281.032C259.525 280.208 240.648 278.27 221.871 274.382C220.501 274.096 220.317 276.248 221.673 276.539Z" fill="#260029"/>
<path d="M387.619 261.978C394.498 260.098 401.037 260.281 408.043 259.735C409.371 259.629 409.037 257.827 407.958 257.585C401.356 256.129 393.547 257.769 387.208 259.651C385.781 260.084 386.143 262.383 387.619 261.978" fill="#260029"/>
<path d="M305.164 268.12C313.264 268.048 321.499 268.381 329.57 267.729C330.734 267.637 330.635 265.763 329.492 265.691C321.499 265.244 313.377 265.804 305.377 265.932C303.971 265.954 303.751 268.134 305.164 268.12Z" fill="#260029"/>
<path d="M310.651 260.636C314.761 260.495 318.921 260.531 323.017 260.048C324.21 259.898 324.132 257.996 322.925 257.924C318.928 257.705 314.889 258.01 310.885 258.146C309.295 258.201 309.039 260.686 310.651 260.636Z" fill="#260029"/>
<path d="M339.708 247.084C358.371 245.878 377.546 244.757 396.01 241.79C397.175 241.599 397.167 239.602 395.925 239.638C377.12 240.129 357.966 242.542 339.303 244.813C337.805 244.999 338.259 247.178 339.708 247.084" fill="#260029"/>
<path d="M383.01 236.826C388.604 235.811 394.227 234.874 399.764 233.527C401.063 233.213 400.737 231.303 399.402 231.474C393.751 232.17 388.164 233.277 382.57 234.314C380.952 234.611 381.392 237.126 383.01 236.826" fill="#260029"/>
<path d="M494.822 259.862C529.43 253.218 564.733 242.974 596.743 228.094C598.028 227.498 597.098 225.682 595.813 226.142C562.241 238.063 529.061 249.186 494.46 257.813C493.175 258.124 493.494 260.121 494.822 259.862" fill="#260029"/>
<path d="M550.061 237.481C563.102 233.327 576.541 229.685 589.205 224.467C590.355 223.998 589.759 222.068 588.538 222.365C575.121 225.66 562.016 230.701 548.918 235.074C547.293 235.629 548.457 237.999 550.061 237.481Z" fill="#260029"/>
<path d="M302.364 336.463C385.43 330.839 468.403 316.258 547.686 290.546C548.928 290.133 548.253 287.954 546.968 288.309C466.288 311.139 385.572 327.148 301.902 333.856C300.206 333.997 300.695 336.568 302.364 336.463" fill="#260029"/>
<path d="M418.33 308.676C434.232 308.826 449.594 306.064 464.261 299.825C465.453 299.306 464.836 297.19 463.544 297.587C448.721 302.182 433.735 305.169 418.223 306.087C416.768 306.178 416.867 308.662 418.33 308.676" fill="#260029"/>
<path d="M561.368 291.788C623.562 275.948 686.013 258.237 742.393 226.782C762.221 215.721 817.317 191.534 805.291 161.457C804.574 159.66 801.457 160.603 802.004 162.513C812.227 197.967 720.408 234.209 696.179 244.613C652.505 263.37 606.688 276.689 560.927 289.273C559.359 289.708 559.77 292.193 561.368 291.788" fill="#260029"/>
<path d="M28.7387 294.833C33.5874 322.661 68.3869 330.365 92.5591 335.162C140.286 344.646 193.614 342.333 242.072 340.886C243.627 340.842 243.946 338.484 242.306 338.392C199.208 336.03 44.2005 354.57 31.3867 294.365C31.0246 292.682 28.4406 293.122 28.7387 294.833Z" fill="#260029"/>
<path d="M249.09 340.736C258.894 341.496 269.486 340.58 278.359 336.008C279.495 335.426 278.991 333.382 277.635 333.756C268.094 336.413 259.377 338.529 249.353 337.952C247.557 337.847 247.287 340.6 249.09 340.736Z" fill="#260029"/>
<path d="M36.5157 285.632C67.5812 258.506 100.727 240.149 138.039 223.296C139.196 222.778 138.621 220.753 137.351 221.123C99.3565 232.135 62.9385 256.171 34.8191 283.638C33.6336 284.803 35.2308 286.755 36.5157 285.632" fill="#260029"/>
<path d="M53.2738 277.576C42.5755 286.137 33.1266 300.809 45.5926 312.104C60.3302 325.451 85.6455 329.064 104.579 326.884C105.906 326.737 105.849 324.486 104.479 324.494C91.495 324.6 78.7665 323.457 66.4284 319.106C60.8414 317.146 52.9544 314.783 48.8582 310.451C36.3284 297.204 46.8135 288.316 54.9207 279.521C56.0139 278.342 54.6013 276.511 53.2738 277.576" fill="#260029"/>
<path d="M145.09 332.933C210.444 333.304 276.465 330.883 341.102 320.617C342.792 320.354 342.309 317.869 340.64 318.025C275.492 324.322 210.849 330.207 145.303 330.634C143.841 330.642 143.599 332.927 145.09 332.933Z" fill="#260029"/>
<path d="M348.164 321.413C362.845 319.325 377.334 316.541 391.773 313.177C393.214 312.844 392.852 310.715 391.376 310.906C376.68 312.872 362.149 315.412 347.681 318.657C345.928 319.048 346.375 321.669 348.164 321.413" fill="#260029"/>
<path d="M479.309 298.361C563.333 283.808 649.267 262.624 726.888 226.477C728.287 225.823 727.271 223.834 725.873 224.339C644.376 253.199 564.171 280.289 478.89 296.012C477.378 296.29 477.79 298.633 479.309 298.361" fill="#260029"/>
<path d="M639.309 122.382C643.426 122.271 647.629 122.382 651.718 121.83C653.045 121.653 652.96 119.564 651.618 119.465C647.636 119.16 643.568 119.509 639.571 119.628C637.811 119.686 637.534 122.44 639.309 122.382" fill="#260029"/>
<path d="M665.448 123.073C689.741 122.141 713.331 124.398 737.504 125.557C739.037 125.626 739.165 123.533 737.724 123.236C714.332 118.38 689.081 118.854 665.349 120.516C663.915 120.616 663.993 123.128 665.448 123.073" fill="#260029"/>
<path d="M658.514 134.267C662.865 136.275 667.288 136.744 671.867 135.246C673.138 134.827 672.385 132.953 671.178 133.094C667.117 133.585 663.256 133.244 659.522 131.533C657.811 130.759 656.824 133.493 658.514 134.267" fill="#260029"/>
<path d="M686.93 136.433C696.18 137.262 704.962 139.556 714.084 141.053C715.383 141.275 715.773 139.3 714.588 138.859C706.026 135.659 696.201 134.65 687.164 133.89C685.524 133.749 685.283 136.275 686.93 136.433Z" fill="#260029"/>
<path d="M757.223 152.115C761.958 154.996 766.891 158.168 769.383 163.274C774.395 173.531 763.924 180.78 756.505 185.663C745.573 192.857 734.009 196.462 721.614 200.339C720.173 200.779 720.457 202.842 722.025 202.687C738.396 200.97 761.198 191.52 771.08 177.635C779.833 165.34 768.936 155.551 758.209 150.232C757.123 149.694 756.193 151.482 757.223 152.115" fill="#260029"/>
<path d="M746.859 140.06C761.086 141.047 799.556 150.567 789.823 172.68C784.995 183.633 772.125 189.612 763.862 197.64C762.875 198.599 763.918 200.621 765.267 199.811C776.228 193.225 796.78 180.22 794.998 164.962C792.705 145.349 762.704 138.355 747.065 137.844C745.645 137.794 745.418 139.96 746.859 140.06" fill="#260029"/>
<path d="M69.6068 267.702C78.3174 264.222 86.9639 259.316 94.8936 254.305C96.0294 253.586 95.2769 251.829 93.9706 252.375C85.2033 256.071 76.2302 260.411 68.2721 265.641C67.044 266.446 68.3787 268.184 69.6068 267.702Z" fill="#260029"/>
<path d="M88.9266 265.323C74.2883 275.544 35.5487 296.617 67.8494 310.557C88.5644 319.494 119.424 318.835 141.651 320.645C167.683 322.775 193.623 323.471 219.578 320.39C221.047 320.221 220.614 318.041 219.18 318.155C186.631 320.582 153.996 318.992 121.596 315.407C109.528 314.073 95.0742 314.015 83.4957 310.252C70.8594 306.15 60.0477 296.495 69.2551 283.078C73.0389 277.563 85.4266 270.952 90.4244 267.083C91.6099 266.16 90.1263 264.485 88.9266 265.323" fill="#260029"/>
<path d="M259.399 302.756C301.517 303.457 345.162 302.132 386.713 294.997C388.083 294.769 387.671 292.823 386.344 292.917C343.991 295.848 302.142 299.653 259.619 300.427C258.142 300.449 257.879 302.728 259.399 302.756" fill="#260029"/>
<path d="M412.245 292.249C416.263 291.581 420.416 291.179 424.285 289.892C425.705 289.423 424.775 287.557 423.554 287.612C419.607 287.771 415.66 288.877 411.791 289.65C410.13 289.986 410.57 292.518 412.245 292.249" fill="#260029"/>
<path d="M439.371 288.813C470.67 284.831 501.494 278.76 531.573 269.127C532.68 268.772 532.077 266.856 530.941 267.161C500.586 275.283 470.138 282.282 438.987 286.678C437.61 286.869 437.986 288.982 439.371 288.813Z" fill="#260029"/>
<path d="M161.591 233.469C149.018 241.399 134.316 253.027 136.361 269.782C138.533 287.521 161.676 291.952 176.165 293.833C177.443 293.996 177.975 291.889 176.676 291.575C163.287 288.402 138.902 284.454 139.357 266.474C139.726 251.984 152.596 243.443 162.989 235.648C164.153 234.769 162.854 232.681 161.591 233.469Z" fill="#260029"/>
<path d="M126.891 270.173C123.973 277.946 130.199 288.517 139.08 287.693C140.429 287.565 140.173 285.632 138.98 285.427C132.236 284.257 126.834 278.101 129.148 271.01C129.638 269.532 127.437 268.708 126.891 270.173" fill="#260029"/>
<path d="M172.935 224.88C180.929 221.139 189.057 217.604 196.774 213.3C197.867 212.69 197.107 211.079 195.936 211.539C187.715 214.778 179.828 218.81 171.863 222.623C170.415 223.311 171.473 225.56 172.935 224.88" fill="#260029"/>
<path d="M166.86 210.441C169.863 208.652 172.979 207.133 176.273 205.954C179.56 204.781 182.996 204.284 186.276 203.156C187.312 202.809 186.971 201.062 185.914 201.049C178.964 200.963 171.552 204.661 165.838 208.302C164.595 209.098 165.532 211.22 166.86 210.441" fill="#260029"/>
<path d="M568.531 255.553C605.283 244.827 642.063 230.26 673.717 208.417C674.896 207.593 673.611 205.591 672.347 206.287C638.421 225.008 605.367 241.918 568.14 253.368C566.805 253.778 567.154 255.958 568.531 255.553" fill="#260029"/>
<path d="M689 187.438C696.908 176.962 691.826 156.188 677.01 155.138C675.697 155.046 675.342 156.821 676.513 157.339C687.46 162.167 694.729 174.979 686.956 186.004C686.026 187.325 688.035 188.725 689 187.438Z" fill="#260029"/>
<path d="M339.175 352.18C386.59 351.434 434.132 343.967 479.232 329.255C480.454 328.851 479.786 326.751 478.53 327.076C432.28 339.053 386.796 346.634 339.069 349.319C337.457 349.41 337.557 352.2 339.175 352.18" fill="#260029"/>
<path d="M359.273 359.116C403.919 353.328 448.565 345.719 492.089 334.128C493.559 333.737 493.211 331.466 491.677 331.776C447.486 340.849 403.479 349.943 358.868 356.787C357.363 357.023 357.782 359.307 359.273 359.116" fill="#260029"/>
<path d="M480.951 333.395C509.113 326.821 537.822 321.136 565.487 312.7C566.999 312.248 566.693 309.91 565.054 310.21C536.601 315.448 508.51 323.626 480.49 330.769C478.843 331.188 479.269 333.787 480.951 333.395" fill="#260029"/>
<path d="M459.881 345.619C495.497 339.962 530.886 331.557 564.266 317.706C565.721 317.104 564.663 315.08 563.244 315.548C529.005 326.843 494.993 336.809 459.384 342.774C457.553 343.085 458.057 345.91 459.881 345.619Z" fill="#260029"/>
<path d="M434.412 360.882C473.229 352.053 512.593 344.391 550.9 333.532C552.419 333.096 552.093 330.739 550.46 331.047C511.309 338.287 472.64 348.891 433.936 358.178C432.232 358.589 432.679 361.273 434.412 360.882" fill="#260029"/>
<path d="M463.413 364.951C513.384 355.763 562.424 341.837 608.695 320.659C610.08 320.027 609.086 318.006 607.702 318.551C560.443 337.186 512.837 352.471 462.881 361.956C460.964 362.316 461.482 365.314 463.413 364.951Z" fill="#260029"/>
<path d="M554.035 330.287C580.372 324.572 607.604 316.258 631.812 304.345C633.317 303.616 632.245 301.5 630.719 302.046C605.077 311.239 579.875 320.426 553.588 327.739C552.019 328.185 552.388 330.642 554.035 330.287" fill="#260029"/>
<path d="M550.133 322.633C577.699 317.027 606.684 309.528 631.687 296.295C633.029 295.593 632.077 293.691 630.686 294.196C603.759 303.913 577.826 314.073 549.679 320.041C548.018 320.39 548.465 322.975 550.133 322.633" fill="#260029"/>
<path d="M558.529 314.547C579.627 309.132 601.357 302.005 621.071 292.731C622.661 291.985 621.519 289.792 619.928 290.333C599.142 297.318 578.513 305.022 557.769 312.19C556.449 312.645 557.158 314.902 558.529 314.547Z" fill="#260029"/>
<path d="M258.089 358.62C293.911 360.683 330.13 356.304 364.057 344.413C365.249 343.994 364.603 341.965 363.389 342.292C328.462 351.604 294.571 356.559 258.331 356.027C256.669 355.999 256.393 358.52 258.089 358.62" fill="#260029"/>
<path d="M279.268 364.582C311.313 361.082 343.557 358.214 375.403 353.209C376.901 352.973 376.454 350.83 375.006 350.944C342.84 353.315 310.766 357.823 278.764 361.714C276.897 361.941 277.415 364.781 279.268 364.582" fill="#260029"/>
<path d="M278.516 373.583C316.908 369.437 355.385 364.631 393.322 357.377C394.877 357.086 394.458 354.779 392.903 354.97C354.561 359.804 316.354 365.788 278.069 371.043C276.415 371.267 276.876 373.761 278.516 373.583Z" fill="#260029"/>
<path d="M294.197 379.093C344.537 373.683 395.025 366.32 444.406 354.976C445.804 354.657 445.45 352.513 444.009 352.768C393.967 361.423 344.118 369.97 293.7 376.304C291.89 376.528 292.401 379.284 294.197 379.093" fill="#260029"/>
<path d="M316.863 382.529C361.218 377.642 405.722 371.248 448.856 359.57C450.212 359.199 449.892 357.091 448.465 357.382C404.557 366.215 361.012 375.116 316.466 380.263C314.989 380.426 315.401 382.69 316.863 382.529" fill="#260029"/>
<path d="M324.674 391.245C333.527 390.457 342.379 389.755 351.182 388.569C352.581 388.385 352.148 386.403 350.806 386.466C341.918 386.871 333.065 387.754 324.206 388.549C322.445 388.704 322.928 391.408 324.674 391.245" fill="#260029"/>
<path d="M363.237 387.454C399.62 380.882 436.272 375.011 472.413 367.194C473.883 366.88 473.5 364.667 472.009 364.9C435.463 370.502 399.137 378.112 362.804 384.977C361.2 385.274 361.633 387.745 363.237 387.454" fill="#260029"/>
<path d="M369.2 393.375C416.799 387.482 464.05 379.035 510.144 365.61C511.521 365.214 511.202 363.026 509.753 363.376C463.056 374.584 416.401 384.587 368.773 390.967C367.212 391.181 367.645 393.574 369.2 393.375" fill="#260029"/>
<path d="M516.166 358.101C532.295 354.593 548.467 351.271 564.439 347.117C565.803 346.762 565.476 344.662 564.056 344.924C547.842 347.954 531.784 351.803 515.705 355.466C514.043 355.849 514.491 358.456 516.166 358.101Z" fill="#260029"/>
<path d="M574.746 341.473C590.669 336.177 606.848 330.32 621.685 322.42C622.977 321.732 622.068 319.866 620.727 320.381C604.945 326.452 589.526 333.318 573.646 339.139C572.07 339.713 573.198 341.984 574.746 341.473" fill="#260029"/>
<path d="M232.738 355.126C248.682 359.69 265.557 361.892 282.083 359.768C283.39 359.598 283.333 357.461 281.991 357.433C265.436 357.106 249.563 356.105 233.334 352.519C231.85 352.195 231.282 354.707 232.738 355.126Z" fill="#260029"/>
<path d="M234.376 362.43C251.279 365.15 268.267 365.497 285.319 364.19C286.526 364.099 286.455 362.055 285.234 362.039C268.324 361.855 251.513 360.705 234.674 359.266C232.615 359.08 232.367 362.105 234.376 362.43" fill="#260029"/>
<path d="M244.191 369.864C258.517 370.333 272.956 370.644 287.289 370.106C288.744 370.056 289.057 367.876 287.509 367.782C273.205 366.917 258.779 366.925 244.453 367.072C242.686 367.088 242.366 369.801 244.191 369.864" fill="#260029"/>
<path d="M246.945 376.991C263.337 379.212 280.012 380.077 296.489 378.297C297.746 378.17 297.696 376.032 296.397 376.045C279.906 376.209 263.628 376.068 247.201 374.285C245.454 374.093 245.22 376.755 246.945 376.991" fill="#260029"/>
<path d="M260.447 385.46C276.101 387.171 292.024 387.171 307.684 385.56C308.912 385.424 308.856 383.302 307.592 383.352C291.896 383.932 276.37 383.799 260.681 382.997C259.091 382.917 258.857 385.288 260.447 385.46Z" fill="#260029"/>
<path d="M271.712 392.714C292.441 396.172 315.13 395.213 335.618 390.726C337.108 390.402 336.718 388.228 335.213 388.405C313.866 390.89 293.385 391.231 271.953 390.238C270.335 390.16 270.136 392.451 271.712 392.714" fill="#260029"/>
<path d="M284.811 403.363C305.015 403.826 325.78 402.115 345.423 397.378C346.892 397.023 346.538 394.853 345.018 395.058C324.971 397.742 305.327 399.877 285.081 400.523C283.292 400.581 282.944 403.327 284.811 403.363Z" fill="#260029"/>
<path d="M296.479 413.992C299.446 413.934 302.463 413.962 305.374 413.338C306.801 413.032 306.73 410.975 305.267 410.775C302.314 410.385 299.311 410.653 296.351 410.83C294.576 410.939 294.683 414.011 296.479 413.992" fill="#260029"/>
<path d="M325.004 408.523C342.169 408.929 359.15 406.239 375.513 401.034C376.72 400.659 376.465 398.729 375.158 399.04C358.532 403.021 341.97 405.138 324.904 406.047C323.498 406.125 323.605 408.491 325.004 408.523" fill="#260029"/>
<path d="M349.821 395.881C354.812 395.931 359.831 396.158 364.8 395.873C366.036 395.803 365.915 393.815 364.715 393.73C359.86 393.369 354.926 393.538 350.056 393.502C348.529 393.488 348.295 395.867 349.821 395.881" fill="#260029"/>
<path d="M356.097 390.025C357.275 390.025 357.46 388.192 356.274 388.192C355.103 388.192 354.911 390.025 356.097 390.025Z" fill="#260029"/>
<path d="M384.084 400.701C395.208 398.912 406.325 397.187 417.35 394.822C418.656 394.547 418.308 392.628 416.995 392.792C405.814 394.212 394.746 396.277 383.651 398.274C382.082 398.557 382.508 400.964 384.084 400.701Z" fill="#260029"/>
<path d="M390.851 405.756C413.149 406.416 436.065 401.511 456.368 392.323C457.682 391.727 456.737 389.869 455.424 390.338C433.978 397.975 413.398 401.879 390.759 403.421C389.439 403.513 389.524 405.72 390.851 405.756" fill="#260029"/>
<path d="M518.761 365.929C539.625 364.56 561.078 360.023 580.296 351.632C581.722 351.008 580.686 349.036 579.288 349.505C559.055 356.204 539.519 361.102 518.321 363.417C516.66 363.594 517.156 366.038 518.761 365.929Z" fill="#260029"/>
<path d="M584.988 347.147C586.479 347.147 586.713 344.809 585.208 344.809C583.717 344.809 583.483 347.147 584.988 347.147Z" fill="#260029"/>
<path d="M422.609 450.211C448.237 448.891 473.864 444.623 497.277 433.706C498.328 433.215 497.809 431.304 496.631 431.682C472.075 439.491 448.045 446.171 422.226 448.023C420.785 448.123 421.204 450.281 422.609 450.211Z" fill="#260029"/>
<path d="M439.024 439.59C453.727 437.566 468.599 435.508 483.102 432.35C484.579 432.031 484.181 429.899 482.698 430.049C467.932 431.61 453.173 434.33 438.57 437.028C436.916 437.333 437.363 439.818 439.024 439.59" fill="#260029"/>
<path d="M492.896 438.894C509.727 435.522 526.396 429.51 540.31 419.259C541.347 418.493 540.232 416.751 539.089 417.364C523.94 425.398 509.238 432.328 492.448 436.387C490.872 436.773 491.27 439.222 492.896 438.894" fill="#260029"/>
<path d="M493.161 426.94C508.552 424.519 524.738 420.805 538.872 414.034C539.958 413.515 539.433 411.571 538.205 411.94C523.02 416.477 508.318 421.366 492.714 424.419C491.102 424.738 491.529 427.195 493.161 426.94" fill="#260029"/>
<path d="M538.232 409.824C545.899 407.026 553.864 404.583 561.226 401.056C562.397 400.496 561.843 398.438 560.502 398.807C552.515 400.992 544.792 404.4 537.068 407.362C535.428 407.991 536.606 410.413 538.232 409.824Z" fill="#260029"/>
<path d="M551.469 398.657C552.946 398.657 553.173 396.364 551.689 396.364C550.213 396.364 549.986 398.657 551.469 398.657Z" fill="#260029"/>
<path d="M381.588 449.607C396.205 451.196 411.432 450.758 425.581 446.462C426.844 446.071 426.589 444.113 425.219 444.374C410.659 447.185 396.645 448.81 381.801 447.341C380.338 447.194 380.133 449.451 381.588 449.607Z" fill="#260029"/>
<path d="M382.041 443.118C392.931 442.408 403.871 441.919 414.725 440.755C415.854 440.633 415.804 438.681 414.64 438.708C403.629 439.036 392.626 440.037 381.629 440.796C380.11 440.905 380.543 443.226 382.041 443.118Z" fill="#260029"/>
<path d="M420.585 440.982C426.363 440.783 432.163 440.733 437.928 440.228C439.071 440.128 439.007 438.206 437.842 438.192C432.064 438.134 426.271 438.547 420.492 438.789C419.257 438.839 419.328 441.032 420.585 440.982" fill="#260029"/>
<path d="M447.057 429.602C460.936 428.537 474.438 425.498 487.309 420.159C488.473 419.677 487.635 417.938 486.471 418.399C473.6 423.504 460.545 426.726 446.745 427.818C445.58 427.913 445.907 429.688 447.057 429.602" fill="#260029"/>
<path d="M415.673 437.269C422.473 434.693 429.402 433.562 436.636 433.109C437.871 433.029 437.772 430.994 436.544 430.936C428.962 430.589 421.629 432.214 414.622 435.054C413.152 435.649 414.21 437.815 415.673 437.269" fill="#260029"/>
<path d="M488.984 417.542C497.567 415.226 506.213 413.082 514.689 410.412C515.96 410.007 515.704 407.986 514.313 408.296C505.666 410.285 497.126 412.819 488.565 415.162C487.081 415.567 487.479 417.944 488.984 417.542Z" fill="#260029"/>
<path d="M433.891 391.408C452.874 387.822 471.964 385.006 491.018 381.824C492.288 381.611 491.933 379.737 490.677 379.881C471.474 381.988 452.441 385.419 433.487 389.088C431.996 389.37 432.393 391.694 433.891 391.408Z" fill="#260029"/>
<path d="M467.654 394.775C473.525 393.41 479.538 392.31 485.296 390.529C486.616 390.124 486.36 388.144 484.919 388.363C478.963 389.278 473.085 390.92 467.214 392.282C465.638 392.65 466.057 395.129 467.654 394.775" fill="#260029"/>
<path d="M505.249 379.021C511.134 377.629 517.033 376.273 522.883 374.712C524.175 374.37 523.87 372.354 522.521 372.632C516.593 373.832 510.708 375.252 504.823 376.614C503.296 376.969 503.715 379.384 505.249 379.021Z" fill="#260029"/>
<path d="M591.573 341.227C595.535 340.467 599.496 339.777 603.422 338.875C604.841 338.548 604.479 336.435 603.017 336.632C599.042 337.173 595.08 337.933 591.119 338.628C589.451 338.917 589.912 341.537 591.573 341.227Z" fill="#260029"/>
<path d="M262.432 354.734C286.385 355.794 310.72 354.26 333.863 347.672C335.212 347.289 334.914 345.215 333.48 345.486C309.854 349.923 286.789 353.068 262.653 352.413C261.162 352.372 260.927 354.671 262.432 354.734Z" fill="#260029"/>
<path d="M249.145 356.282C276.426 356.418 303.637 354.153 330.457 349.114C331.87 348.842 331.487 346.729 330.074 346.92C303.232 350.611 276.497 352.941 249.4 353.578C247.682 353.62 247.377 356.277 249.145 356.282" fill="#260029"/>
<path d="M266.474 361.784C289.056 360.258 311.752 359.249 334.249 356.773C335.527 356.631 335.463 354.443 334.156 354.493C311.418 355.253 288.701 357.468 266.02 359.166C264.309 359.285 264.785 361.897 266.474 361.784" fill="#260029"/>
<path d="M273.542 366.944C297.693 364.909 321.95 363.345 345.995 360.322C347.443 360.145 346.996 358.065 345.611 358.134C321.389 359.343 297.21 362.02 273.059 364.213C271.284 364.368 271.774 367.088 273.542 366.944" fill="#260029"/>
<path d="M281.855 371.659C298.275 370.069 314.887 369.074 331.194 366.625C332.649 366.398 332.195 364.368 330.81 364.432C314.319 365.2 297.821 367.43 281.401 369.06C279.704 369.232 280.18 371.816 281.855 371.659" fill="#260029"/>
<path d="M282.894 379.24C298.718 379.107 314.641 377.36 330.124 374.107C331.508 373.816 331.153 371.73 329.741 371.95C314.116 374.343 298.583 375.995 282.802 377.033C281.559 377.119 281.637 379.248 282.894 379.24" fill="#260029"/>
<path d="M319.971 358.811C342.128 357.51 364.184 354.998 385.929 350.489C387.242 350.22 386.894 348.212 385.567 348.437C363.659 352.222 341.773 355.167 319.567 356.509C318.069 356.604 318.488 358.894 319.971 358.811Z" fill="#260029"/>
<path d="M345.333 350.114C375.696 346.47 406.258 343.548 436.45 338.62C437.948 338.379 437.508 336.207 436.038 336.327C405.555 338.884 375.185 343.453 344.837 347.294C343.005 347.53 343.516 350.325 345.333 350.114" fill="#260029"/>
<path d="M365.79 350.888C387.286 350.503 409.144 348.75 430.121 343.922C431.669 343.567 431.271 341.283 429.688 341.496C408.341 344.3 387.229 347.203 365.697 348.495C364.348 348.573 364.434 350.907 365.79 350.888" fill="#260029"/>
<path d="M361.658 358.988C389.877 357.078 417.833 353.004 445.221 345.897C446.534 345.556 446.215 343.49 444.852 343.789C417.194 349.851 389.515 354.471 361.289 356.85C359.883 356.964 360.288 359.071 361.658 358.988" fill="#260029"/>
<path d="M373.418 362.671C394.764 360.96 415.799 357.618 436.436 351.803C437.728 351.434 437.423 349.383 436.06 349.696C415.21 354.443 394.296 358.229 372.992 360.236C371.394 360.395 371.849 362.798 373.418 362.671Z" fill="#260029"/>
<path d="M425.207 350.603C441.826 347.599 458.502 344.782 475.057 341.418C476.356 341.155 476.015 339.175 474.695 339.394C458.026 342.098 441.436 345.35 424.817 348.409C423.418 348.673 423.794 350.858 425.207 350.603Z" fill="#260029"/>
<path d="M445.287 339.685C469.147 333.446 493.157 329.123 517.478 325.16C518.862 324.94 518.472 322.866 517.095 323.024C492.716 325.814 468.58 331.08 444.862 337.278C443.35 337.678 443.768 340.076 445.287 339.685Z" fill="#260029"/>
<path d="M465.708 330.57C489 326.106 512.434 322.043 535.598 316.927C536.926 316.627 536.578 314.619 535.236 314.839C511.823 318.693 488.567 323.657 465.275 328.163C463.735 328.463 464.153 330.87 465.708 330.57" fill="#260029"/>
<path d="M475.181 328.823C508.107 321.114 541.188 313.86 573.95 305.446C575.285 305.099 574.951 303.012 573.574 303.31C540.506 310.387 507.666 318.665 474.762 326.466C473.278 326.821 473.683 329.172 475.181 328.823" fill="#260029"/>
<path d="M526.634 321.378C546.518 315.634 566.53 310.152 586.251 303.857C587.394 303.488 586.77 301.528 585.605 301.832C565.692 307.107 545.978 313.227 526.222 319.056C524.781 319.475 525.171 321.796 526.634 321.378Z" fill="#260029"/>
<path d="M414.875 347.749C444.421 344.009 473.854 339.047 502.626 331.238C503.897 330.889 503.599 328.895 502.257 329.178C473.094 335.417 444.01 341.296 414.414 345.178C412.753 345.392 413.207 347.954 414.875 347.749" fill="#260029"/>
<path d="M424.712 354.585C450.495 350.261 476.279 345.528 501.566 338.826C502.879 338.478 502.567 336.44 501.197 336.718C475.555 341.907 450.041 347.53 424.25 351.967C422.561 352.25 423.022 354.87 424.712 354.585" fill="#260029"/>
<path d="M424.271 358.844C449.643 354.643 475.036 350.084 500.209 344.777C501.572 344.491 501.217 342.425 499.833 342.639C474.418 346.629 449.068 351.421 423.852 356.523C422.368 356.822 422.766 359.094 424.271 358.844" fill="#260029"/>
<path d="M478.437 339.699C499.826 336.108 521.364 332.103 542.172 325.864C543.542 325.459 543.251 323.316 541.774 323.621C520.484 328.135 499.4 333.174 477.925 336.823C476.079 337.142 476.584 340.004 478.437 339.699" fill="#260029"/>
<path d="M495.175 330.656C513.214 326.452 531.338 322.52 549.27 317.914C550.626 317.564 550.292 315.457 548.887 315.753C530.777 319.558 512.788 324.059 494.757 328.276C493.252 328.631 493.656 331.011 495.175 330.656" fill="#260029"/>
<path d="M399.928 366.726C426.536 362.394 453.171 358.22 479.651 353.137C480.985 352.882 480.63 350.858 479.281 351.052C452.596 354.906 426.06 359.69 399.495 364.304C397.933 364.573 398.352 366.98 399.928 366.726" fill="#260029"/>
<path d="M360.564 366.101C378.723 364.717 396.875 363.345 415.02 361.742C416.334 361.637 415.95 359.662 414.665 359.748C396.485 360.927 378.311 362.338 360.145 363.722C358.597 363.844 359.023 366.221 360.564 366.101" fill="#260029"/>
<path d="M257.364 373.988C284.198 372.909 310.649 370.006 336.937 364.426C338.201 364.154 337.874 362.247 336.589 362.452C310.287 366.726 283.879 369.956 257.257 371.381C255.788 371.454 255.887 374.052 257.364 373.988" fill="#260029"/>
<path d="M270.911 379.212C295.013 377.657 319.284 375.316 342.846 369.884C344.188 369.579 343.847 367.585 342.477 367.776C318.468 371.084 294.665 374.867 270.485 376.778C268.895 376.905 269.35 379.312 270.911 379.212Z" fill="#260029"/>
<path d="M272.393 382.371C294.733 381.692 317.045 379.986 339.053 376.017C340.345 375.785 339.997 373.852 338.698 374.015C316.705 376.778 294.797 379.162 272.627 379.917C271.065 379.972 270.809 382.421 272.393 382.371Z" fill="#260029"/>
<path d="M281.143 388.03C299.16 386.084 317.284 384.551 335.238 382.066C336.58 381.874 336.189 379.9 334.876 380C316.802 381.45 298.77 383.854 280.753 385.843C279.333 385.998 279.716 388.186 281.143 388.03Z" fill="#260029"/>
<path d="M281.694 393.71C302.111 393.375 322.286 391.167 342.064 385.943C343.42 385.588 343.094 383.471 341.674 383.755C321.889 387.703 302.139 390.515 281.942 391.081C280.274 391.131 279.99 393.737 281.694 393.71Z" fill="#260029"/>
<path d="M291.086 398.075C313.747 397.911 336.826 395.632 358.705 389.57C360.061 389.193 359.755 387.135 358.321 387.385C335.846 391.131 313.775 394.348 290.973 395.362C289.446 395.426 289.539 398.089 291.086 398.075" fill="#260029"/>
<path d="M304.474 408.072C310.153 407.813 315.833 407.644 321.498 407.148C322.627 407.048 322.57 405.124 321.42 405.138C315.634 405.182 309.862 405.57 304.084 405.875C302.657 405.956 303.069 408.127 304.474 408.072Z" fill="#260029"/>
<path d="M312.538 414.566C321.213 416.299 330.158 416.832 338.925 415.495C340.146 415.318 340.125 413.238 338.84 413.274C330.051 413.479 321.49 413.296 312.779 412.045C311.139 411.812 310.976 414.253 312.538 414.566Z" fill="#260029"/>
<path d="M326.155 421.543C329.129 421.679 332.132 421.729 335.064 421.138C336.541 420.842 336.37 418.84 334.965 418.59C332.005 418.057 329.023 418.185 326.034 418.371C324.224 418.471 324.366 421.466 326.155 421.543" fill="#260029"/>
<path d="M345.638 420.146C355.058 420.004 364.322 418.817 373.445 416.383C374.666 416.058 374.368 414.139 373.097 414.411C364.081 416.327 355.072 417.547 345.858 417.852C344.402 417.894 344.147 420.174 345.638 420.146" fill="#260029"/>
<path d="M338.415 428.06C354.43 429.106 371.567 427.996 387.015 423.504C388.272 423.14 388.002 421.261 386.646 421.451C370.51 423.767 354.998 425.689 338.628 425.825C337.208 425.839 336.945 427.963 338.415 428.06" fill="#260029"/>
<path d="M355.724 436.482C368.793 438.603 383.985 436.964 396.309 432.222C397.523 431.759 396.87 429.788 395.614 430.043C382.125 432.774 369.73 434.017 355.965 434.025C354.382 434.025 354.141 436.218 355.724 436.482" fill="#260029"/>
<path d="M589.635 352.499C583.466 355.007 577.574 358.029 571.739 361.218C570.496 361.898 571.362 363.722 572.683 363.198C578.873 360.763 584.957 358.171 590.835 355.034C592.425 354.183 591.304 351.831 589.635 352.499" fill="#260029"/>
<path d="M580.863 365.014C572.784 367.704 564.627 370.275 556.74 373.519C555.604 373.993 556.194 375.968 557.415 375.621C565.728 373.269 573.834 370.233 581.963 367.313C583.517 366.761 582.396 364.504 580.863 365.014" fill="#260029"/>
<path d="M574.157 375.125C568.769 376.85 563.21 378.361 558.042 380.682C556.849 381.223 557.446 383.208 558.759 382.911C564.403 381.656 569.876 379.49 575.349 377.629C577.039 377.047 575.825 374.593 574.157 375.125Z" fill="#260029"/>
<path d="M563.465 390.194C564.764 390.194 564.963 388.172 563.656 388.172C562.357 388.172 562.159 390.194 563.465 390.194Z" fill="#260029"/>
<path d="M495.695 333.451C511.398 329.2 527.264 325.082 542.563 319.511C543.919 319.02 543.188 316.791 541.789 317.104C526.029 320.576 510.56 325.573 495.155 330.365C493.274 330.953 493.721 333.983 495.695 333.451" fill="#260029"/>
<path d="M490.141 343.398C503.012 339.913 515.875 336.418 528.746 332.933C529.86 332.627 529.555 330.847 528.433 331.152C515.556 334.61 502.685 338.065 489.814 341.537C488.643 341.843 488.963 343.717 490.141 343.398" fill="#260029"/>
<path d="M498.894 337.5C521.199 332.076 543.639 327.034 565.746 320.858C567.087 320.49 566.775 318.396 565.369 318.701C542.936 323.543 520.745 329.546 498.482 335.148C497.005 335.517 497.403 337.869 498.894 337.5Z" fill="#260029"/>
<path d="M511.683 340.226C529.189 334.894 546.922 330.002 564.194 323.931C565.429 323.499 564.762 321.397 563.492 321.733C545.907 326.41 528.607 332.309 511.242 337.705C509.695 338.187 510.114 340.7 511.683 340.226" fill="#260029"/>
<path d="M454.795 356.34C462.881 353.664 470.988 350.98 479.074 348.296C480.253 347.907 479.415 346.18 478.251 346.557C470.136 349.197 462.015 351.825 453.894 354.457C452.63 354.862 453.525 356.759 454.795 356.34" fill="#260029"/>
<path d="M390.836 377.205C423.861 370.197 457.176 363.361 489.704 354.26C491.188 353.842 490.854 351.562 489.278 351.853C456.062 357.987 423.151 366.525 390.403 374.77C388.877 375.153 389.26 377.537 390.836 377.205" fill="#260029"/>
<path d="M359.367 379.595C371.393 378.297 383.426 377.097 395.423 375.599C396.729 375.444 396.353 373.483 395.068 373.597C383.028 374.72 371.009 376.132 358.984 377.432C357.578 377.587 357.968 379.745 359.367 379.595" fill="#260029"/>
<path d="M405.309 382.684C420.366 380.172 435.543 377.978 450.473 374.74C451.956 374.412 451.566 372.219 450.061 372.413C434.912 374.385 419.89 377.446 404.854 380.141C403.222 380.441 403.662 382.962 405.309 382.684Z" fill="#260029"/>
<path d="M208.707 180.453C231.928 187.383 256.824 188.688 280.684 184.479C281.983 184.251 281.628 182.322 280.336 182.477C255.894 185.458 233.532 183.896 209.68 177.827C207.969 177.386 206.961 179.934 208.707 180.453Z" fill="#260029"/>
<path d="M233.355 195.205C252.87 197.172 272.79 196.888 292.014 192.684C293.356 192.388 293.008 190.372 291.638 190.577C272.187 193.503 253.218 194.828 233.568 192.912C232.091 192.762 231.878 195.064 233.355 195.205" fill="#260029"/>
<path d="M298.58 188.356C323.902 183.789 349.374 179.693 374.547 174.369C375.924 174.077 375.562 171.992 374.164 172.206C348.735 176.116 323.455 181.271 298.154 185.955C296.606 186.24 297.032 188.63 298.58 188.356Z" fill="#260029"/>
<path d="M311.33 172.865C323.732 174.127 336.29 172.921 347.84 168.024C348.948 167.555 348.373 165.567 347.173 165.949C335.396 169.685 323.945 171.579 311.564 170.373C309.96 170.223 309.726 172.702 311.33 172.865" fill="#260029"/>
<path d="M247.518 166.205C259.387 167.178 271.576 167.455 283.361 165.509C284.93 165.248 284.447 163.041 282.942 163.132C271.144 163.82 259.572 164.493 247.759 163.664C246.126 163.543 245.885 166.072 247.518 166.205" fill="#260029"/>
<path d="M347.916 77.6167C379.471 78.2074 411.921 74.075 441.794 63.687C442.972 63.2766 442.34 61.2889 441.126 61.5877C410.047 69.1475 380.245 74.1723 348.171 74.9624C346.496 75.0043 346.184 77.5805 347.916 77.6167" fill="#260029"/>
<path d="M374.266 85.8161C391.744 83.2264 409.492 81.2571 426.771 77.5606C428.12 77.2696 427.751 75.345 426.409 75.4728C408.81 77.134 391.283 80.5834 373.833 83.3542C372.25 83.609 372.676 86.049 374.266 85.8161" fill="#260029"/>
<path d="M446.418 71.0273C458.047 68.4511 469.86 64.7603 480.033 58.4571C481.332 57.6393 480.466 55.6678 478.996 56.2691C468.028 60.7337 457.465 65.2793 445.929 68.2183C444.161 68.6648 444.608 71.4327 446.418 71.0273Z" fill="#260029"/>
<path d="M465.914 54.9352C472.062 51.7129 478.451 49.6031 485.11 47.7005C486.487 47.3037 486.189 45.2244 484.713 45.4515C477.692 46.5526 471.04 49.2481 464.8 52.5783C463.323 53.3741 464.424 55.7232 465.914 54.9352" fill="#260029"/>
<path d="M287.734 67.6861C300.647 77.4473 318.054 81.0167 333.459 75.4873C334.652 75.0542 333.991 73.1659 332.785 73.3853C316.996 76.3108 302.827 74.5275 289.154 65.6622C287.812 64.8025 286.463 66.7349 287.734 67.6861Z" fill="#260029"/>
<path d="M289.211 81.3932C301.258 84.5736 313.887 86.5677 326.353 85.3836C327.674 85.2558 327.581 83.1098 326.261 83.0402C314.001 82.4219 302.131 81.7482 290.105 78.9724C288.529 78.6033 287.592 80.9602 289.211 81.3932" fill="#260029"/>
<path d="M340.703 85.6941C348.504 85.489 356.512 85.7807 364.25 84.7791C365.578 84.6016 365.493 82.4996 364.151 82.4165C356.491 81.9039 348.632 82.6856 340.965 82.9688C339.226 83.027 338.935 85.7445 340.703 85.6941" fill="#260029"/>
<path d="M271.449 70.8671C276.298 72.8385 281.111 75.0129 286.109 76.5655C287.507 77.0063 288.139 75.1094 286.883 74.4805C282.197 72.1229 277.235 70.3346 272.365 68.3881C270.789 67.7556 269.888 70.2211 271.449 70.8671" fill="#260029"/>
<path d="M323.875 62.3537C360.925 68.7202 399.508 66.9042 435.238 54.8493C436.352 54.4723 435.749 52.606 434.613 52.8751C397.57 61.7432 362.018 64.8022 324.13 59.6774C322.398 59.4417 322.192 62.0705 323.875 62.3537Z" fill="#260029"/>
<path d="M440.435 58.4209C445.979 56.6823 451.495 54.9353 456.897 52.8056C458.04 52.359 457.444 50.4125 456.237 50.7312C450.629 52.2377 445.163 54.1118 439.668 56.0058C438.319 56.4687 439.065 58.8454 440.435 58.4209" fill="#260029"/>
<path d="M459.291 45.9565C465.063 43.9098 471.012 42.0988 476.599 39.6085C477.707 39.1179 477.16 37.2104 475.939 37.5349C469.919 39.1627 464.055 41.5387 458.184 43.6273C456.623 44.1817 457.744 46.5081 459.291 45.9565" fill="#260029"/>
<path d="M496.189 21.5925C494.322 25.3472 491.206 27.3129 487.507 28.9655C486.272 29.515 486.939 31.331 488.217 31.1677C493.115 30.5437 496.814 26.872 498.915 22.6069C499.753 20.9152 497.013 19.937 496.189 21.5925Z" fill="#260029"/>
<path d="M507.158 22.3713C496.666 30.1029 485.498 36.2784 473.877 42.1159C472.6 42.7591 473.508 44.5835 474.822 44.0958C487.146 39.4594 498.504 32.4597 508.918 24.4456C510.303 23.3673 508.556 21.3341 507.158 22.3713Z" fill="#260029"/>
<path d="M516.319 26.4616C506.629 33.6657 496.385 39.2818 485.552 44.5195C484.239 45.152 485.176 47.0041 486.496 46.5299C497.869 42.3983 508.468 35.8459 517.853 28.2861C519.059 27.3128 517.533 25.5522 516.319 26.4616Z" fill="#260029"/>
<path d="M522.691 32.7288C512.965 38.2668 503.325 44.0376 493.869 50.0441C492.669 50.8037 493.549 52.8418 494.848 52.1014C504.602 46.6082 514.243 40.843 523.72 34.8805C524.984 34.0847 524.047 31.9493 522.691 32.7288Z" fill="#260029"/>
<path d="M383.645 163.728C416.371 159.624 450.766 149.644 480.611 135.524C481.974 134.878 480.994 132.997 479.638 133.465C447.642 144.588 416.201 153.654 383.212 161.208C381.607 161.576 382.019 163.928 383.645 163.728" fill="#260029"/>
<path d="M410.932 165.135C424.264 161.946 437.646 158.851 450.722 154.755C452.078 154.328 451.815 152.22 450.332 152.512C436.886 155.16 423.675 158.851 410.456 162.428C408.774 162.883 409.2 165.545 410.932 165.135Z" fill="#260029"/>
<path d="M497.31 134.805C528.639 125.962 558.98 111.259 584.011 90.2588C585.154 89.3019 583.72 87.6911 582.542 88.5203C555.58 107.56 528.425 122.135 496.785 131.81C494.946 132.37 495.408 135.346 497.31 134.805" fill="#260029"/>
<path d="M487.432 140.726C477.55 142.581 467.668 144.703 457.985 147.423C456.565 147.811 456.877 149.963 458.382 149.713C468.307 148.088 478.16 145.831 487.893 143.324C489.512 142.905 489.121 140.415 487.432 140.726" fill="#260029"/>
<path d="M540.234 135.943C510.78 146.003 481.013 154.891 451.219 163.842C449.941 164.225 450.246 166.268 451.581 165.922C481.844 157.991 511.66 148.274 541.206 138C542.591 137.512 541.604 135.466 540.234 135.943" fill="#260029"/>
<path d="M503.088 159.327C495.187 160.817 487.25 162.203 479.399 163.984C478.014 164.297 478.369 166.39 479.789 166.172C487.74 164.948 495.627 163.323 503.528 161.812C505.118 161.507 504.693 159.022 503.088 159.327Z" fill="#260029"/>
<path d="M440.505 166.028C411.484 172.835 382.335 178.806 353.179 184.967C351.802 185.258 352.164 187.355 353.563 187.133C382.946 182.441 412.123 175.916 440.959 168.62C442.592 168.207 442.159 165.636 440.505 166.028" fill="#260029"/>
<path d="M429.387 179.019C423.076 180.233 416.722 181.349 410.447 182.804C409.155 183.101 409.481 185.067 410.816 184.853C417.17 183.833 423.459 182.449 429.77 181.185C431.155 180.908 430.785 178.75 429.387 179.019" fill="#260029"/>
<path d="M396.145 166.923C393.455 167.838 390.757 168.703 388.137 169.804C387.03 170.273 387.598 172.156 388.791 171.857C391.659 171.124 394.434 170.154 397.239 169.23C398.793 168.72 397.693 166.396 396.145 166.923" fill="#260029"/>
<path d="M373.16 164.616C369.447 164.707 365.55 164.765 361.944 165.686C360.645 166.022 360.538 168.107 362.043 168.193C365.77 168.393 369.597 167.733 373.253 167.087C374.594 166.851 374.601 164.58 373.16 164.616" fill="#260029"/>
<path d="M538.876 108.079C523.422 116.703 507.655 122.681 490.929 128.324C489.687 128.752 490.376 130.732 491.625 130.504C508.734 127.36 525.417 119.756 539.977 110.386C541.311 109.526 540.346 107.263 538.876 108.079" fill="#260029"/>
<path d="M512.556 111.154C482.684 123.214 452.179 132.179 421.142 140.621C419.807 140.983 420.12 143.063 421.525 142.778C453.073 136.353 483.876 125.598 513.55 113.233C514.92 112.665 513.934 110.599 512.556 111.154Z" fill="#260029"/>
<path d="M470.471 116.783C464.004 119.337 457.558 121.894 451.154 124.57C449.919 125.08 450.806 126.883 452.035 126.43C458.544 123.996 465.005 121.453 471.465 118.89C472.863 118.344 471.862 116.234 470.471 116.783Z" fill="#260029"/>
<path d="M415.761 144.766C403.856 147.229 391.823 150.049 380.457 154.414C379.257 154.877 379.889 156.935 381.153 156.594C392.838 153.407 404.353 149.908 416.229 147.415C417.912 147.06 417.457 144.411 415.761 144.766" fill="#260029"/>
<path d="M560.376 117.335C536.871 127.232 512.457 134.239 488.803 143.574C487.611 144.042 488.228 146.008 489.485 145.726C514.126 140.116 538.22 129.362 561.334 119.373C562.669 118.799 561.703 116.775 560.376 117.335Z" fill="#260029"/>
<path d="M566.429 124.967C561.14 127.488 555.809 129.93 550.705 132.82C549.455 133.522 550.321 135.36 551.656 134.822C557.115 132.67 562.354 130.05 567.643 127.515C569.276 126.736 568.076 124.174 566.429 124.967" fill="#260029"/>
<path d="M207.671 172.403C223.764 178.118 241.632 180.248 258.493 177.089C259.934 176.826 259.508 174.823 258.109 174.909C240.816 175.897 225.241 174.887 208.494 170.168C207.039 169.755 206.201 171.884 207.671 172.403" fill="#260029"/>
<path d="M278.93 174.759C283.353 174.419 287.79 174.128 292.212 173.673C293.54 173.531 293.128 171.615 291.857 171.679C287.413 171.892 282.976 172.275 278.547 172.602C277.141 172.702 277.531 174.874 278.93 174.759Z" fill="#260029"/>
<path d="M230.544 155.279C245.018 157.772 259.834 158.426 274.387 156.297C275.544 156.124 275.523 154.159 274.309 154.2C259.671 154.669 245.338 154.499 230.792 152.689C229.109 152.475 228.904 155.004 230.544 155.279Z" fill="#260029"/>
<path d="M223.264 168.448C229.823 169.899 236.908 170.6 243.539 169.208C244.781 168.945 244.831 166.823 243.446 166.864C236.631 167.1 230.235 167.214 223.519 165.772C221.823 165.403 221.603 168.079 223.264 168.448" fill="#260029"/>
<path d="M293.736 168.59C299.273 167.824 304.981 167.369 310.44 166.135C311.895 165.794 311.476 163.798 310.042 163.884C304.456 164.211 298.847 165.353 293.303 166.155C291.734 166.39 292.16 168.811 293.736 168.59" fill="#260029"/>
<path d="M292.244 182.391C293.82 182.391 294.069 179.929 292.471 179.929C290.902 179.929 290.647 182.391 292.244 182.391Z" fill="#260029"/>
<path d="M207.603 286.742C216.115 290.347 225.848 291.07 234.906 289.573C236.184 289.359 236.177 287.188 234.814 287.23C225.706 287.515 217.407 286.242 208.604 284.035C206.829 283.589 205.857 286.001 207.603 286.742Z" fill="#260029"/>
<path d="M293.904 284.626C317.594 285.222 340.992 283.708 364.284 279.138C365.526 278.897 365.193 276.994 363.936 277.191C340.765 280.899 317.58 282.998 294.103 282.573C292.783 282.551 292.577 284.589 293.904 284.626Z" fill="#260029"/>
<path d="M366.172 282.901C383.962 281.196 401.66 277.604 418.293 270.96C419.479 270.492 418.62 268.817 417.456 269.2C400.468 274.821 383.643 279.08 365.81 280.849C364.476 280.976 364.852 283.02 366.172 282.901" fill="#260029"/>
<path d="M363.963 277.591C379.602 275.944 395.284 274.36 410.816 271.917C412.286 271.689 411.86 269.555 410.426 269.668C394.751 270.988 379.133 273.167 363.551 275.269C362.039 275.467 362.465 277.746 363.963 277.591" fill="#260029"/>
<path d="M413.822 276.476C436.674 275.929 460.179 272.189 482.072 265.642C483.393 265.245 483.116 263.193 481.696 263.476C459.036 267.949 436.646 271.548 413.737 274.466C412.623 274.615 412.665 276.504 413.822 276.476" fill="#260029"/>
<path d="M424.091 270.888C443.266 265.5 462.476 262.46 482.147 259.651C483.666 259.438 483.198 257.272 481.735 257.358C462.057 258.423 442.492 262.888 423.701 268.644C422.324 269.072 422.664 271.284 424.091 270.888Z" fill="#260029"/>
<path d="M473.448 265.614C481.058 264.704 488.668 263.894 496.236 262.802C497.549 262.61 497.173 260.681 495.895 260.8C488.263 261.523 480.668 262.511 473.072 263.429C471.652 263.589 472.035 265.783 473.448 265.614" fill="#260029"/>
<path d="M487.74 254.638C499.127 250.52 510.685 247.875 522.568 245.745C524.009 245.487 523.584 243.457 522.185 243.557C509.889 244.388 497.984 247.597 486.59 252.212C484.972 252.863 486.143 255.22 487.74 254.638" fill="#260029"/>
<path d="M533.46 244.863C538.521 243.515 543.604 242.178 548.666 240.781C549.887 240.44 549.574 238.496 548.311 238.815C543.235 240.093 538.159 241.441 533.083 242.755C531.756 243.102 532.125 245.226 533.46 244.863Z" fill="#260029"/>
<path d="M588.86 239.311C607.204 234.122 625.2 226.314 640.179 214.351C641.222 213.513 639.93 212.115 638.859 212.803C622.815 223.206 606.941 231.885 588.519 237.367C587.326 237.714 587.632 239.66 588.86 239.311" fill="#260029"/>
<path d="M581.871 234.519C603.807 230.063 625.764 220.881 642.44 205.627C643.505 204.653 642.149 203.1 640.999 203.938C622.371 217.454 604.204 227.448 581.473 232.312C580.068 232.612 580.444 234.81 581.871 234.519" fill="#260029"/>
<path d="M588.988 231.233C605.984 224.134 622.545 215.36 636.935 203.746C638.05 202.843 636.673 201.353 635.537 202.091C620.118 212.115 604.755 221.508 587.931 229.026C586.497 229.672 587.54 231.838 588.988 231.233" fill="#260029"/>
<path d="M589.712 222.878C606.899 215.829 624.128 206.955 638.298 194.787C639.285 193.941 638.064 192.635 637.041 193.303C621.289 203.519 606.011 213.308 588.746 220.848C587.412 221.431 588.378 223.424 589.712 222.878" fill="#260029"/>
<path d="M591.735 213.982C606.373 206.655 620.621 197.504 632.299 185.955C633.222 185.048 632.008 183.564 630.992 184.401C618.292 194.856 605.457 204.407 590.819 212.044C589.598 212.684 590.5 214.606 591.735 213.982Z" fill="#260029"/>
<path d="M617.569 204.908C622.872 200.43 628.764 196.165 633.577 191.151C634.514 190.172 633.336 188.745 632.214 189.54C626.528 193.544 621.423 198.714 616.184 203.278C615.141 204.185 616.518 205.804 617.569 204.908Z" fill="#260029"/>
<path d="M205.975 274.319C209.702 274.942 213.507 275.844 217.284 276.013C218.455 276.071 219.016 274.26 217.767 273.919C214.019 272.899 210.043 272.557 206.195 271.967C204.683 271.734 204.492 274.077 205.975 274.319" fill="#260029"/>
<path d="M204.164 267.63C218.54 272.89 233.767 274.61 248.888 272.094C250.194 271.881 249.818 270.001 248.533 270.1C233.511 271.257 219.399 269.887 205.023 265.314C203.511 264.831 202.659 267.083 204.164 267.63" fill="#260029"/>
<path d="M205.194 263.548C213.485 264.654 221.848 266.155 230.211 266.629C231.659 266.706 231.801 264.677 230.417 264.413C222.196 262.846 213.727 262.264 205.414 261.313C203.965 261.141 203.767 263.365 205.194 263.548" fill="#260029"/>
<path d="M207.999 256.576C212.514 255.866 216.788 256.371 221.118 257.783C222.424 258.21 223.127 256.313 221.856 255.775C217.263 253.837 212.5 253.467 207.587 254.283C206.111 254.525 206.515 256.804 207.999 256.576Z" fill="#260029"/>
<path d="M255.217 275.029C270.011 275.589 284.912 276.689 299.714 276.426C301.02 276.404 301.282 274.466 299.912 274.351C285.168 273.046 270.231 273.132 255.444 272.671C253.932 272.627 253.698 274.97 255.217 275.029Z" fill="#260029"/>
<path d="M312.02 276.681C322.69 276.426 333.374 276.334 344.03 275.73C345.13 275.672 345.066 273.786 343.952 273.778C333.374 273.75 322.797 274.232 312.226 274.543C310.863 274.587 310.643 276.709 312.02 276.681Z" fill="#260029"/>
<path d="M394.007 173.476C400.027 172.885 406.054 172.361 412.052 171.592C413.337 171.429 412.954 169.557 411.705 169.649C405.678 170.082 399.657 170.777 393.637 171.396C392.289 171.529 392.665 173.603 394.007 173.476" fill="#260029"/>
<path d="M320.497 162.267C329.477 162.586 338.493 163.188 347.48 162.864C349.021 162.8 349.347 160.556 347.715 160.398C338.777 159.511 329.747 159.56 320.774 159.333C318.892 159.291 318.601 162.195 320.497 162.267" fill="#260029"/>
<path d="M232.709 145.526C236.465 146.072 240.263 146.86 244.054 147.01C245.282 147.068 245.906 145.108 244.565 144.789C240.767 143.879 236.812 143.568 232.943 143.064C231.36 142.856 231.148 145.294 232.709 145.526" fill="#260029"/>
<path d="M232.101 136.788C238.497 139.55 245.972 141.813 253.007 140.94C254.477 140.756 254.207 138.727 252.908 138.491C246.114 137.262 239.618 136.63 233.101 134.082C231.362 133.403 230.411 136.048 232.101 136.788Z" fill="#260029"/>
<path d="M232.658 127.14C244.4 130.61 256.781 133.266 268.885 135.041C270.184 135.233 270.674 133.161 269.396 132.783C257.668 129.312 245.302 126.509 233.212 124.725C231.82 124.52 231.288 126.741 232.658 127.14" fill="#260029"/>
<path d="M239.885 119.573C241.717 120.211 243.52 120.721 245.43 121.007C246.864 121.22 247.176 119.182 245.976 118.642C244.301 117.904 242.618 117.407 240.836 117.002C239.175 116.62 238.167 118.977 239.885 119.573Z" fill="#260029"/>
<path d="M255.789 124.116C260.773 124.725 265.941 125.776 270.96 125.721C272.174 125.704 272.898 123.783 271.485 123.441C266.48 122.249 261.142 122.091 256.038 121.567C254.398 121.403 254.171 123.91 255.789 124.116" fill="#260029"/>
<path d="M249.829 111.692C254.791 112.438 259.931 113.645 264.943 113.794C266.135 113.83 266.746 111.969 265.447 111.623C260.477 110.314 255.146 110.003 250.056 109.307C248.53 109.093 248.324 111.451 249.829 111.692" fill="#260029"/>
<path d="M255.643 103.322C256.913 103.464 258.163 103.614 259.434 103.728C260.804 103.855 260.953 101.861 259.625 101.626C258.383 101.406 257.119 101.215 255.863 101.029C254.4 100.802 254.166 103.151 255.643 103.322Z" fill="#260029"/>
<path d="M533.878 48.3408C529.711 50.812 525.04 53.3606 521.469 56.6325C520.44 57.5753 521.497 59.3003 522.818 58.7125C527.24 56.7326 531.436 53.4436 535.341 50.604C536.569 49.7109 535.213 47.545 533.878 48.3408" fill="#260029"/>
<path d="M540.986 53.3104C535.668 55.3543 530.025 58.2436 526.312 62.6805C525.417 63.751 526.986 64.8244 527.959 64.1869C532.673 61.1116 536.875 57.8943 542.178 55.815C543.839 55.1633 542.647 52.6701 540.986 53.3104" fill="#260029"/>
<path d="M547.161 59.9104C540.594 62.1707 534.12 65.5761 529.143 70.495C528.093 71.5265 529.413 73.0656 530.613 72.2286C536.256 68.2823 541.822 64.7384 548.254 62.1899C549.773 61.5879 548.673 59.3864 547.161 59.9104Z" fill="#260029"/>
<path d="M556.843 63.0133C556.346 63.7317 556.197 64.0143 555.885 64.8101C555.43 65.931 556.907 66.9959 557.816 66.1667C558.448 65.5895 558.668 65.3425 559.158 64.6383C560.187 63.1411 557.872 61.5161 556.843 63.0133" fill="#260029"/>
<path d="M551.262 68.9205C538.796 74.0254 525.734 78.5319 513.737 84.6797C512.303 85.4201 513.332 87.3638 514.787 86.8868C527.608 82.7217 540.017 76.6378 552.434 71.3767C554.045 70.6867 552.881 68.2603 551.262 68.9205Z" fill="#260029"/>
<path d="M563.836 71.1636C552.52 77.4889 540.814 81.8981 528.653 86.2491C527.446 86.6758 528.092 88.7111 529.342 88.3923C541.808 85.2559 553.691 79.5966 564.816 73.2209C566.072 72.4976 565.128 70.4395 563.836 71.1636Z" fill="#260029"/>
<path d="M565.882 77.1562C562.176 80.1094 558.058 82.8851 554.878 86.3991C554.062 87.3 555.382 88.7979 556.404 88.2016C560.493 85.8028 564.057 82.3221 567.713 79.3136C569.118 78.1571 567.308 76.0196 565.882 77.1562Z" fill="#260029"/>
<path d="M570.841 84.6597C568.953 86.2492 567.029 87.7464 565.368 89.5793C564.317 90.7443 566.142 91.964 567.221 91.2768C569.194 89.9897 570.912 88.3647 572.687 86.8399C574.078 85.6309 572.254 83.4735 570.841 84.6597" fill="#260029"/>
<path d="M584.91 100.647C579.827 105.153 574.347 108.603 568.689 112.302C567.681 112.962 568.554 114.851 569.711 114.481C576.377 112.374 582.433 107.746 587.061 102.605C588.19 101.357 586.138 99.56 584.91 100.647" fill="#260029"/>
<path d="M592.307 107.796C588.104 111.168 583.739 114.396 579.877 118.159C578.84 119.154 580.132 120.602 581.289 119.828C585.776 116.831 589.858 113.239 594.046 109.848C595.388 108.753 593.649 106.709 592.307 107.796Z" fill="#260029"/>
<path d="M597.405 115.491C594.92 118.053 592.364 120.56 590.114 123.328C589.276 124.37 590.838 125.741 591.825 124.889C594.444 122.632 596.787 120.083 599.194 117.607C600.429 116.334 598.647 114.205 597.405 115.491" fill="#260029"/>
<path d="M598.643 122.532C588.669 130.031 577.935 135.906 567.038 141.904C565.689 142.651 566.626 144.625 568.067 144.065C579.802 139.469 590.55 132.379 600.531 124.747C602.022 123.611 600.141 121.412 598.643 122.532" fill="#260029"/>
<path d="M603.088 131.4C593.575 137.015 583.921 141.749 574.003 146.577C572.832 147.146 573.378 149.189 574.72 148.826C585.404 145.981 595.847 140.471 604.671 133.848C605.977 132.862 604.529 130.546 603.088 131.4" fill="#260029"/>
<path d="M610.664 138.823C605.808 141.799 600.704 144.547 596.203 148.047C595.117 148.893 596.281 150.651 597.509 150.055C602.521 147.62 607.15 144.312 611.856 141.331C613.333 140.393 612.19 137.886 610.664 138.823" fill="#260029"/>
<path d="M614.73 143.979C612.529 146.003 610.044 147.889 608.319 150.354C607.638 151.333 608.795 152.988 609.931 152.256C612.465 150.631 614.467 148.294 616.597 146.181C617.896 144.888 616.114 142.714 614.73 143.979" fill="#260029"/>
<path d="M618.932 150.723C617.051 151.538 615.177 152.37 613.317 153.222C611.861 153.89 612.912 155.942 614.367 155.429C616.305 154.747 618.243 154.037 620.167 153.33C621.892 152.684 620.65 149.977 618.932 150.723Z" fill="#260029"/>
<path d="M212.488 233.732C216.911 236.726 222.789 238.709 228.064 236.985C229.285 236.579 228.731 234.804 227.652 234.669C222.789 234.023 218.565 233.837 214.171 231.325C212.552 230.401 210.891 232.653 212.488 233.732" fill="#260029"/>
<path d="M206.855 221.891C224.333 226.264 243.095 226.824 260.566 222.06C261.951 221.691 261.638 219.656 260.176 219.847C242.236 222.254 225.277 222.564 207.416 219.42C206.01 219.17 205.449 221.536 206.855 221.891" fill="#260029"/>
<path d="M212.599 216.608C215.943 216.899 219.201 217.227 222.559 217.105C224.085 217.049 224.355 214.961 222.779 214.7C219.478 214.137 216.198 214.04 212.855 213.896C211.122 213.827 210.853 216.444 212.599 216.608Z" fill="#260029"/>
<path d="M231.425 217.171C237.41 216.622 243.557 216.411 249.478 215.324C250.678 215.105 250.692 213.072 249.386 213.103C243.266 213.216 237.097 214.21 231.02 214.878C229.515 215.033 229.941 217.304 231.425 217.171Z" fill="#260029"/>
<path d="M215.102 209.958C222.017 211.314 229.407 211.697 236.25 209.814C237.642 209.431 237.322 207.429 235.867 207.592C228.889 208.394 222.279 208.779 215.336 207.501C213.76 207.215 213.562 209.659 215.102 209.958Z" fill="#260029"/>
<path d="M216.509 202.496C220.385 201.453 223.707 202.191 227.264 203.825C228.442 204.363 229.273 202.596 228.286 201.872C224.744 199.265 220.236 198.861 216.076 200.003C214.521 200.438 214.933 202.915 216.509 202.496" fill="#260029"/>
<path d="M289.757 180.417C297.026 179.929 304.303 179.56 311.544 178.75C312.694 178.623 312.637 176.649 311.459 176.684C304.076 176.898 296.714 177.572 289.359 178.118C287.854 178.232 288.28 180.517 289.757 180.417" fill="#260029"/>
<path d="M299.511 193.664C311.196 192.821 322.945 192.258 334.581 190.905C335.773 190.76 335.724 188.709 334.495 188.758C322.683 189.193 310.891 190.436 299.114 191.401C297.63 191.521 298.042 193.777 299.511 193.664Z" fill="#260029"/>
<path d="M355.357 161.236C360.611 159.164 365.97 158.468 371.564 158.072C372.963 157.971 372.771 155.833 371.465 155.678C365.466 154.946 359.631 156.28 354.108 158.609C352.376 159.342 353.625 161.926 355.357 161.236" fill="#260029"/>
<path d="M344.353 151.901C347.661 152.101 350.984 152.412 354.292 152.442C355.626 152.456 355.846 150.523 354.498 150.368C351.211 149.963 347.874 149.85 344.566 149.63C343.104 149.536 342.891 151.815 344.353 151.901" fill="#260029"/>
<path d="M284.02 155.118C289.905 157.864 296.677 157.95 302.775 155.892C304.082 155.451 303.35 153.421 302.058 153.64C296.131 154.6 290.679 154.236 284.872 152.803C283.338 152.42 282.557 154.436 284.02 155.118Z" fill="#260029"/>
<path d="M318.857 38.2247C339.011 32.1046 359.328 26.3671 379.433 20.1554C380.796 19.7366 380.533 17.6878 379.042 17.9207C358.711 21.0599 337.037 27.9005 318.218 36.2284C317.16 36.6969 317.699 38.5796 318.857 38.2247Z" fill="#260029"/>
<path d="M392.038 16.7835C395.822 17.3798 399.556 18.0202 403.403 18.0479C404.66 18.0479 405.363 16.0736 403.936 15.713C400.095 14.7262 396.234 14.3712 392.301 13.9744C390.476 13.7969 390.249 16.5088 392.038 16.7835Z" fill="#260029"/>
<path d="M417.941 16.0266C431.373 15.003 444.088 16.4866 457.313 18.4942C458.747 18.7079 459.294 16.4007 457.881 15.9961C444.819 12.2691 430.919 12.0412 417.494 13.461C415.805 13.6335 416.295 16.1537 417.941 16.0266Z" fill="#260029"/>
<path d="M298.382 62.8301C304.999 64.0142 311.998 66.0304 318.728 66.1582C320.127 66.1859 320.787 64.1285 319.303 63.6373C312.8 61.4941 305.403 61.061 298.645 59.9827C296.827 59.6916 296.593 62.5028 298.382 62.8301" fill="#260029"/>
<path d="M306.522 54.084C311.746 55.2042 317.021 56.6325 322.331 57.2651C323.581 57.412 324.063 55.4598 322.835 55.085C317.603 53.4877 312.101 52.6557 306.756 51.5411C305.144 51.2082 304.931 53.7432 306.522 54.084Z" fill="#260029"/>
<path d="M358.686 56.3972C374.268 57.3847 391.171 57.1348 406.42 53.6073C407.839 53.2743 407.449 51.3221 406.036 51.4137C390.248 52.4786 374.801 54.0758 358.92 53.9899C357.387 53.9842 357.124 56.2972 358.686 56.3972" fill="#260029"/>
<path d="M334.325 70.3344C340.927 70.9776 347.564 71.4461 354.202 71.4326C355.601 71.427 355.835 69.4165 354.408 69.239C347.827 68.4013 341.19 68.0329 334.559 67.8498C332.962 67.805 332.706 70.1761 334.325 70.3344Z" fill="#260029"/>
<path d="M322.293 87.3914C326.95 88.9525 331.898 89.5211 336.69 88.2149C338.074 87.8322 337.755 85.8218 336.293 85.9936C331.742 86.5317 327.561 86.4678 323.174 85.0203C321.633 84.5021 320.753 86.859 322.293 87.3914" fill="#260029"/>
<path d="M427.276 80.3144C432.494 79.8373 437.719 79.427 442.915 78.7448C444.278 78.5673 443.859 76.615 442.553 76.6874C437.314 76.9842 432.089 77.5386 426.871 78.0349C425.387 78.1846 425.806 80.4421 427.276 80.3144" fill="#260029"/>
<path d="M484.049 61.9207C487.655 60.9254 491.383 60.0962 494.854 58.6679C496.203 58.122 495.471 56.0696 494.094 56.2911C490.509 56.8598 487.024 58.0524 483.538 59.0591C481.763 59.5723 482.232 62.4169 484.049 61.9207" fill="#260029"/>
<path d="M219.691 284.016C234.145 287.89 249.024 289.473 263.868 287.066C265.373 286.819 264.912 284.709 263.471 284.79C248.889 285.647 234.755 285.241 220.479 281.905C219.095 281.578 218.278 283.63 219.691 284.016" fill="#260029"/>
<path d="M212.979 279.365C229.803 281.382 247.061 282.771 263.978 281.132C265.327 280.996 265.235 278.783 263.879 278.739C246.94 278.193 230.13 278.32 213.234 276.689C211.502 276.517 211.268 279.157 212.979 279.365Z" fill="#260029"/>
<path d="M214.06 271.639C230.111 272.607 246.24 274.096 262.32 273.991C263.853 273.977 264.123 271.761 262.547 271.584C246.574 269.732 230.388 269.49 214.337 268.717C212.456 268.622 212.172 271.526 214.06 271.639" fill="#260029"/>
<path d="M212.28 262.547C229.531 266.251 247.484 268.667 265.132 266.75C266.481 266.606 266.389 264.427 265.033 264.357C247.321 263.475 230.034 262.866 212.578 259.402C210.569 259.011 210.328 262.128 212.28 262.547Z" fill="#260029"/>
<path d="M209.058 258.323C224.257 259.183 239.754 260.991 254.975 260.539C256.579 260.495 256.884 258.224 255.209 257.996C240.138 255.894 224.548 256.038 209.349 255.262C207.375 255.165 207.077 258.209 209.058 258.323Z" fill="#260029"/>
<path d="M210.577 252.799C224.2 253.163 238.036 254.247 251.645 253.524C253.108 253.445 252.937 251.138 251.546 251.006C238.107 249.65 224.364 250.101 210.861 249.832C208.952 249.791 208.653 252.758 210.577 252.799" fill="#260029"/>
<path d="M208.82 243.662C221.592 244.267 234.718 245.773 247.489 245.076C248.895 244.999 248.653 242.897 247.397 242.711C234.86 240.881 221.762 241.227 209.104 240.681C207.188 240.603 206.897 243.571 208.82 243.662" fill="#260029"/>
<path d="M217.475 236.826C227.669 238.354 238.396 239.383 248.647 237.805C250.003 237.6 249.967 235.401 248.555 235.357C238.19 235.06 228.074 235.229 217.773 233.704C215.779 233.412 215.494 236.53 217.475 236.826" fill="#260029"/>
<path d="M218.984 231.616C228.028 232.206 237.321 232.675 246.322 231.352C247.728 231.147 247.678 228.862 246.223 228.826C237.228 228.557 228.269 228.998 219.275 228.471C217.251 228.352 216.953 231.488 218.984 231.616" fill="#260029"/>
<path d="M215.317 224.722C226.065 225.291 237.09 226.591 247.838 226.05C249.322 225.973 249.073 223.743 247.746 223.543C237.204 222.026 226.214 222.323 215.587 221.882C213.755 221.805 213.472 224.63 215.317 224.722" fill="#260029"/>
<path d="M215.405 218.446C223.562 218.682 232.293 219.803 240.393 218.732C241.976 218.51 241.707 216.317 240.287 216.07C232.364 214.664 223.739 215.416 215.703 215.302C213.687 215.274 213.367 218.391 215.405 218.446" fill="#260029"/>
<path d="M214.558 213.827C216.184 213.827 216.439 211.284 214.8 211.284C213.167 211.284 212.911 213.827 214.558 213.827Z" fill="#260029"/>
<path d="M220.79 267.735C222.21 267.735 222.423 265.522 220.996 265.522C219.576 265.522 219.356 267.735 220.79 267.735Z" fill="#260029"/>
<path d="M603.522 258.656C620.879 254.943 638.158 249.244 655.061 243.842C656.183 243.485 655.572 241.599 654.436 241.868C637.172 246.042 619.452 250.182 602.684 256.044C601.2 256.554 602.01 258.983 603.522 258.656" fill="#260029"/>
<path d="M678.014 234.788C682.55 233.185 687.499 231.879 691.737 229.6C692.858 229.004 692.376 227.11 691.034 227.393C686.2 228.43 681.493 230.66 676.886 232.404C675.288 233.008 676.431 235.351 678.014 234.788Z" fill="#260029"/>
<path d="M655.743 283.02C685.467 276.334 714.516 266.238 741.265 251.515C742.415 250.883 741.592 249.072 740.385 249.649C712.855 262.915 685.169 273.791 655.395 281.082C654.167 281.381 654.486 283.306 655.743 283.02Z" fill="#260029"/>
<path d="M628.785 104.756C663.585 104.643 698.618 104.834 733.397 103.974C734.788 103.946 735.072 101.881 733.602 101.761C699.137 98.9912 663.159 99.6734 628.7 102.421C627.379 102.527 627.458 104.765 628.785 104.756" fill="#260029"/>
<path d="M669.24 89.7986C670.446 89.7986 670.631 87.9103 669.417 87.9103C668.203 87.9103 668.019 89.7986 669.24 89.7986Z" fill="#260029"/>
<path d="M744.691 107.199C764.078 108.156 782.131 112.685 800.461 118.832C801.98 119.346 802.775 117.143 801.32 116.512C783.544 108.88 764.121 105.721 744.89 105.153C743.569 105.111 743.363 107.136 744.691 107.199" fill="#260029"/>
<path d="M63.2995 351.149C111.254 361.182 162.516 368.067 211.492 362.834C212.827 362.685 212.763 360.422 211.393 360.441C161.295 361.018 112.972 356.95 63.5267 348.772C61.9933 348.517 61.83 350.838 63.2995 351.149" fill="#260029"/>
<path d="M132.898 371.348C139.976 372.127 147.04 373.292 154.181 373.428C155.502 373.447 155.686 371.589 154.373 371.375C147.324 370.211 140.168 370.056 133.062 369.542C131.897 369.451 131.734 371.212 132.898 371.348Z" fill="#260029"/>
<path d="M27.8296 261.446C17.4792 269.432 -13.8347 305.36 8.49179 316.444C9.68443 317.032 10.7493 315.029 9.58507 314.364C-9.3339 303.557 20.7235 270.86 29.3063 263.179C30.3995 262.205 28.9938 260.544 27.8296 261.446" fill="#260029"/>
<path d="M15.4393 322.902C17.8103 327.284 22.2614 331.366 27.5005 331.421C28.7713 331.435 29.2824 329.696 28.0116 329.191C23.7593 327.525 20.2524 325.906 17.8742 321.746C17.0294 320.254 14.6158 321.369 15.4393 322.902" fill="#260029"/>
<path d="M51.8994 246.219C76.093 235.216 100.954 224.298 124.146 211.306C125.453 210.568 124.544 208.622 123.146 209.198C98.5544 219.306 74.5525 232.007 50.9056 244.139C49.5852 244.813 50.5364 246.837 51.8994 246.219Z" fill="#260029"/>
<path d="M85.635 218.072C88.4817 217.176 91.2787 216.303 93.9835 215.047C95.1619 214.509 94.5869 212.57 93.2878 212.848C90.3701 213.477 87.6086 214.459 84.7902 215.46C83.342 215.97 84.1442 218.541 85.635 218.072" fill="#260029"/>
<path d="M115.972 207.537C129.254 202.091 142.636 196.839 155.812 191.151C157.452 190.45 156.273 188.02 154.64 188.666C141.294 193.954 128.118 199.692 114.879 205.23C113.367 205.86 114.453 208.153 115.972 207.537" fill="#260029"/>
<path d="M167.121 192.757C176.584 189.122 186.878 186.381 195.837 181.626C197.05 180.98 196.532 178.778 195.056 179.183C185.181 181.937 175.746 187.069 166.29 190.988C165.126 191.47 165.964 193.195 167.121 192.757Z" fill="#260029"/>
<path d="M97.685 348.168C157.218 357.788 220.052 356.163 280.088 352.632C344.356 348.859 411.144 342.048 472.962 323.443C474.978 322.833 474.574 319.836 472.38 320.14C412.187 328.545 353.081 340.367 292.32 344.868C227.136 349.688 163.046 345.791 97.9407 345.464C96.1943 345.456 95.9387 347.885 97.685 348.168" fill="#260029"/>
<path d="M444.888 330.77C552.353 312.922 667.919 286.273 764.054 233.063C766.311 231.808 764.735 228.671 762.357 229.495C656.496 266.168 555.022 306.214 444.234 327.057C441.856 327.511 442.495 331.167 444.888 330.77" fill="#260029"/>
</svg>
