<svg width="463" height="371" viewBox="0 0 463 371" fill="none" xmlns="http://www.w3.org/2000/svg">
<path d="M295.873 146.492C295.873 146.492 336.13 143.405 347.972 151.608C369.311 166.389 375.291 246.388 358.722 274.74C346.557 295.552 272.009 284.809 272.009 284.809L295.873 146.492Z" fill="white"/>
<path d="M362.925 256.235L346.239 256.096C345.808 256.091 345.376 256.087 344.944 256.082C344.856 254.831 344.76 253.587 344.658 252.357C347.403 254.152 350.751 255.04 354.132 255.04C357.463 255.04 360.826 254.176 363.672 252.465C363.442 253.749 363.194 255.005 362.925 256.235Z" fill="#B9AFBE"/>
<path d="M311.779 289.911C311.451 289.911 311.125 289.911 310.794 289.91C290.707 289.826 271.866 287.143 271.677 287.115C270.405 286.932 269.522 285.751 269.705 284.478C269.888 283.204 271.075 282.32 272.34 282.505C292.645 285.427 347.385 289.521 356.711 273.563C372.978 245.732 366.393 167.201 346.647 153.523C337.495 147.184 307.022 147.976 296.051 148.815C294.767 148.911 293.651 147.953 293.551 146.671C293.454 145.387 294.413 144.269 295.696 144.169C297.372 144.043 336.919 141.119 349.296 149.691C359.783 156.957 367.479 178.714 369.883 207.893C371.71 230.081 370.266 259.601 360.732 275.915C355.302 285.203 338.833 289.911 311.779 289.911Z" fill="#371A45"/>
<path d="M366.059 217.475L345.387 219.074C343.541 219.218 342.022 220.585 341.697 222.409C340.505 229.086 338.552 244.651 345.053 249.775C350.447 254.028 359.191 253.508 364.305 249.156C370.025 244.289 370.551 229.026 370.441 221.472C370.406 219.123 368.401 217.293 366.059 217.475Z" fill="white"/>
<path d="M354.128 250.389C351.327 250.389 348.57 249.582 346.494 247.944C345.327 247.026 344.429 245.516 343.807 243.506C343.718 242.69 343.625 241.878 343.531 241.072C343.909 241.478 344.357 241.704 344.891 241.704C344.992 241.704 345.097 241.695 345.205 241.68C346.281 241.512 347.624 238.609 347.624 238.609C347.624 238.609 351.465 244.479 357.347 244.477C359.85 244.477 362.725 243.413 365.829 240.381C366.076 240.14 366.317 239.882 366.549 239.607C365.646 243.354 364.376 246.038 362.797 247.381C360.453 249.376 357.264 250.389 354.128 250.389Z" fill="#B9AFBE"/>
<path d="M366.239 219.797L345.567 221.397C344.775 221.458 344.127 222.042 343.988 222.818C341.72 235.528 342.657 244.921 346.494 247.944C350.894 251.415 358.36 251.157 362.797 247.381C366.317 244.387 368.304 234.713 368.114 221.505C368.106 221.02 367.905 220.573 367.548 220.246C367.19 219.919 366.729 219.759 366.239 219.797ZM354.132 255.04C350.309 255.04 346.528 253.903 343.611 251.604C336.373 245.898 337.869 230.606 339.405 221.998C339.916 219.135 342.303 216.977 345.207 216.751L365.881 215.152C367.638 215.017 369.386 215.619 370.685 216.804C371.985 217.989 372.743 219.678 372.769 221.438C372.923 232.062 371.841 245.803 365.812 250.931C362.608 253.658 358.343 255.04 354.132 255.04Z" fill="#371A45"/>
<path d="M354.404 254.504C353.946 254.243 353.716 254.064 353.412 253.839C353.133 253.622 352.863 253.401 352.613 253.169C352.102 252.709 351.637 252.224 351.207 251.714C350.353 250.693 349.595 249.611 349.006 248.454C347.783 246.163 347.046 243.699 346.683 241.234C346.528 239.998 346.392 238.768 346.384 237.538C346.322 236.301 346.386 235.12 346.428 233.908C346.485 232.703 346.584 231.497 346.744 230.293C346.924 229.075 347.095 227.924 347.543 226.653C347.656 226.334 348.005 226.168 348.326 226.28C348.623 226.386 348.788 226.697 348.718 226.999L348.698 227.079C348.457 228.075 348.37 229.295 348.329 230.427C348.292 231.582 348.315 232.744 348.379 233.905C348.509 236.245 348.757 238.53 349.302 240.707C349.849 242.884 350.72 244.946 351.922 246.724C352.5 247.629 353.205 248.427 353.945 249.149C354.315 249.509 354.709 249.84 355.111 250.131C355.311 250.284 355.516 250.415 355.718 250.542C355.898 250.655 356.165 250.798 356.229 250.818C357.326 251.156 357.942 252.317 357.607 253.414C357.271 254.512 356.109 255.13 355.012 254.792C354.867 254.748 354.732 254.689 354.603 254.618L354.404 254.504Z" fill="#371A45"/>
<path d="M320.13 160.976C319.246 160.976 318.403 160.472 318.011 159.616C317.476 158.447 317.988 157.064 319.158 156.528C338.034 147.876 349.599 150.462 350.081 150.575C351.334 150.871 352.108 152.125 351.813 153.378C351.517 154.627 350.269 155.402 349.023 155.112C348.877 155.08 338.339 152.859 321.098 160.763C320.782 160.908 320.453 160.976 320.13 160.976Z" fill="#371A45"/>
<path d="M213.538 161.212C213.538 161.212 195.051 216.753 144.312 234.68V268.751H213.538V161.212Z" fill="white"/>
<path d="M213.539 161.209V268.748H144.314V234.677C195.049 216.753 213.539 161.209 213.539 161.209Z" fill="white"/>
<path d="M192.708 255.049H187.031L183.885 242.264C184.846 241.055 185.782 239.83 186.691 238.598C186.833 243.447 189.679 247.595 193.742 249.628C193.375 251.563 193.028 253.373 192.708 255.049ZM194.813 226.345C196.567 223.401 198.187 220.472 199.674 217.61C199.184 220.321 198.702 222.972 198.232 225.543C197.049 225.653 195.9 225.923 194.813 226.345Z" fill="#B9AFBE"/>
<path d="M146.639 266.422H211.21V172.79C208.65 178.168 204.933 185.097 199.878 192.534C189.876 207.243 172.582 226.635 146.639 236.314V266.422ZM215.867 271.08H141.983V233.032L143.537 232.484C192.574 215.156 211.148 161.02 211.331 160.475L215.867 146.886V271.08Z" fill="#371A45"/>
<path d="M343.279 268.748H192.418C192.418 268.748 200.723 226.967 208.267 181.866C209.437 174.877 210.59 167.807 211.689 160.802C220.862 102.311 308.288 140.452 308.288 140.452C308.288 140.452 311.704 145.129 316.402 154.353C326.127 173.428 341.359 211.959 343.279 268.748Z" fill="white"/>
<path d="M195.249 266.422H340.862C337.743 190.245 310.228 147.434 306.764 142.335C301.029 139.956 255.539 121.881 230.278 135.763C221.341 140.673 215.861 149.218 213.986 161.162C206.915 206.237 197.586 254.486 195.249 266.422ZM345.687 271.08H189.58L190.134 268.296C190.245 267.739 201.298 212.003 209.386 160.438C211.496 146.994 217.772 137.317 228.043 131.676C256.907 115.822 307.098 137.389 309.22 138.315L309.799 138.567L310.17 139.077C310.505 139.538 318.479 150.584 326.883 172.164C334.604 191.989 344.119 224.826 345.605 268.671L345.687 271.08Z" fill="#371A45"/>
<path d="M188.596 238.51C188.752 244.488 193.722 249.21 199.698 249.054C205.672 248.898 210.391 243.925 210.236 237.945C210.08 231.965 205.11 227.245 199.134 227.401C193.158 227.556 188.441 232.53 188.596 238.51Z" fill="white"/>
<path d="M199.451 247.149C194.641 247.148 190.628 243.311 190.501 238.459C190.478 237.564 190.587 236.684 190.818 235.844C192.806 238.259 195.82 239.795 199.169 239.795C199.263 239.795 199.36 239.793 199.456 239.792C200.372 239.767 201.262 239.63 202.106 239.392L201.724 246.847C201.06 247.024 200.365 247.128 199.648 247.146C199.582 247.148 199.517 247.149 199.451 247.149Z" fill="#B9AFBE"/>
<path d="M199.422 229.306C199.343 229.306 199.263 229.306 199.184 229.307C196.802 229.37 194.589 230.356 192.949 232.085C191.31 233.814 190.44 236.077 190.501 238.46C190.631 243.378 194.75 247.253 199.648 247.146C204.564 247.018 208.457 242.913 208.329 237.996C208.267 235.613 207.281 233.397 205.555 231.757C203.885 230.169 201.715 229.306 199.422 229.306ZM199.411 250.965C192.543 250.965 186.87 245.468 186.691 238.559C186.601 235.158 187.843 231.926 190.184 229.458C192.524 226.99 195.685 225.583 199.084 225.493C202.497 225.408 205.714 226.647 208.18 228.988C210.646 231.331 212.052 234.495 212.141 237.896C212.324 244.917 206.764 250.777 199.749 250.96C199.636 250.963 199.523 250.965 199.411 250.965Z" fill="#371A45"/>
<path d="M206.208 218.067C206.263 217.142 206.308 216.225 206.348 215.315C206.389 216.13 206.424 216.954 206.455 217.784C206.371 217.877 206.289 217.972 206.208 218.067Z" fill="#B9AFBE"/>
<path d="M215.078 269.752L271.599 272.659C278.289 273.004 284.048 267.809 284.394 261.106L285.939 231.01C286.24 225.142 282.294 219.999 276.812 218.578C276.036 218.372 275.228 218.251 274.393 218.207L217.882 215.3C211.183 214.953 205.424 220.15 205.087 226.853L203.857 250.69L203.534 256.949C203.188 263.652 208.389 269.407 215.078 269.752Z" fill="white"/>
<path d="M246.269 255.72L244.507 255.717C245.096 255.618 245.674 255.511 246.237 255.395C246.247 255.504 246.258 255.612 246.269 255.72ZM215.864 255.049H205.964L206.127 251.871C208.79 253.112 212.125 254.205 216.301 255.021L215.864 255.049Z" fill="#B9AFBE"/>
<path d="M271.715 270.335C277.136 270.619 281.789 266.423 282.067 260.99L283.613 230.89C283.892 225.458 279.703 220.811 274.274 220.531L217.76 217.624C215.142 217.488 212.621 218.392 210.658 220.162C208.697 221.934 207.542 224.351 207.408 226.969L205.86 257.07C205.726 259.687 206.627 262.211 208.396 264.174C210.167 266.138 212.583 267.293 215.199 267.428L271.717 270.335H271.715ZM272.232 275.008C271.98 275.008 271.729 275.002 271.477 274.988H271.476L214.961 272.081C211.102 271.883 207.544 270.182 204.94 267.295C202.337 264.407 201.013 260.691 201.211 256.83L202.758 226.729C203.168 218.732 210.016 212.565 217.998 212.971L274.514 215.878C282.506 216.29 288.675 223.132 288.264 231.129L286.717 261.23C286.519 265.09 284.82 268.652 281.934 271.257C279.237 273.691 275.818 275.008 272.232 275.008Z" fill="#371A45"/>
<path d="M212.823 269.413C213.547 269.604 214.296 269.717 215.078 269.752L271.599 272.659C276.501 272.908 280.903 270.192 283.04 266.071C283.818 264.575 284.298 262.895 284.386 261.106L285.077 247.735L285.306 243.325L285.939 231.01C286.284 224.307 281.083 218.552 274.393 218.207L262.18 217.581C267.754 218.932 271.787 224.118 271.485 230.046L270.655 246.302L269.941 260.151C269.595 266.845 263.836 272.049 257.146 271.702L212.823 269.413Z" fill="white"/>
<path d="M267.669 270.126L271.72 270.335C274.332 270.471 276.852 269.57 278.813 267.799C280.776 266.027 281.931 263.609 282.065 260.99L283.61 230.89C283.747 228.272 282.846 225.749 281.077 223.785C279.306 221.821 276.889 220.666 274.271 220.53L270.632 220.342C272.798 223.044 273.998 226.508 273.809 230.168L272.264 260.268C272.07 264.044 270.442 267.536 267.669 270.126ZM272.24 275.008C271.987 275.008 271.733 275.001 271.479 274.988L214.959 272.078C214.053 272.038 213.135 271.901 212.244 271.673L212.938 267.09L257.268 269.374C259.88 269.509 262.401 268.609 264.362 266.839C266.325 265.065 267.48 262.648 267.614 260.03L269.159 229.93C269.401 225.203 266.238 220.96 261.635 219.842L262.303 215.251L274.511 215.877C278.371 216.078 281.929 217.777 284.533 220.664C287.136 223.553 288.462 227.27 288.26 231.131L286.715 261.228C286.519 265.09 284.82 268.652 281.932 271.258C279.237 273.691 275.821 275.008 272.24 275.008Z" fill="#371A45"/>
<path d="M248.415 244.196C248.364 245.309 249.519 254.368 249.519 254.368C249.519 254.368 252.363 254.498 255.858 254.658C260.221 254.857 263.967 250.496 264.222 244.918C264.475 239.34 261.144 234.656 256.779 234.456C253.834 234.322 250.44 234.168 250.44 234.168C250.44 234.168 248.497 242.382 248.415 244.196Z" fill="#22A7F0"/>
<path d="M248.415 244.196H248.422H248.415ZM250.159 244.271C250.156 244.427 250.185 245.526 251.01 252.23C251.044 252.497 251.264 252.699 251.534 252.711L255.937 252.912C259.355 253.066 262.266 249.445 262.477 244.839C262.582 242.528 261.99 240.343 260.81 238.684C259.722 237.155 258.263 236.274 256.699 236.202L252.273 235.999C251.999 235.993 251.767 236.169 251.709 236.43C250.332 242.484 250.175 243.96 250.159 244.271ZM256.141 256.412C256.021 256.412 255.899 256.409 255.777 256.403L251.375 256.201C249.397 256.111 247.788 254.62 247.545 252.657C246.622 245.162 246.658 244.402 246.671 244.117C246.719 243.053 247.269 240.205 248.305 235.653C248.739 233.742 250.492 232.411 252.432 232.509L256.858 232.712C259.518 232.832 261.931 234.235 263.654 236.657C265.286 238.949 266.105 241.912 265.965 244.998C265.674 251.38 261.303 256.41 256.141 256.412Z" fill="#371A45"/>
<path d="M242.076 243.906C241.821 249.484 245.154 254.168 249.519 254.368C253.882 254.568 257.628 250.206 257.881 244.628C258.136 239.05 254.805 234.366 250.44 234.168C246.075 233.968 242.331 238.328 242.076 243.906Z" fill="#22A7F0"/>
<path d="M257.885 244.627C257.831 245.787 257.628 246.887 257.296 247.911C257.407 242.484 254.123 237.988 249.847 237.789C246.389 237.632 243.322 240.341 242.07 244.248C242.065 244.132 242.07 244.021 242.076 243.905C242.332 238.325 246.075 233.969 250.44 234.168C254.805 234.365 258.135 239.047 257.885 244.627Z" fill="white"/>
<path d="M245.904 250.693C244.524 249.097 243.699 246.666 243.821 243.986C243.827 243.825 243.838 243.665 243.851 243.506C244.353 244.276 244.945 244.944 245.608 245.489C245.611 245.574 245.614 245.658 245.617 245.745C245.617 245.75 245.617 245.755 245.617 245.759C245.617 245.762 245.617 245.767 245.617 245.77C245.659 247.008 245.729 248.244 245.819 249.462C245.849 249.874 245.878 250.286 245.904 250.693Z" fill="#2976B4"/>
<path d="M243.821 243.986C243.61 248.593 246.203 252.468 249.598 252.622C251.151 252.692 252.694 251.949 253.918 250.527C255.244 248.981 256.033 246.858 256.138 244.549C256.243 242.24 255.652 240.053 254.471 238.394C253.384 236.865 251.924 235.984 250.361 235.912C246.94 235.758 244.031 239.38 243.821 243.986ZM249.813 256.122C249.688 256.122 249.565 256.119 249.44 256.113C244.12 255.87 240.035 250.359 240.331 243.827C240.63 237.295 245.178 232.168 250.519 232.422C253.178 232.544 255.592 233.945 257.316 236.367C258.946 238.661 259.767 241.622 259.626 244.709C259.486 247.793 258.399 250.669 256.565 252.804C254.72 254.953 252.334 256.122 249.813 256.122Z" fill="#371A45"/>
<path d="M232.661 272.186C232.644 272.186 232.629 272.186 232.612 272.185C231.648 272.159 230.889 271.355 230.914 270.39L231.468 250.429L222.084 243.829L223.435 215.61C223.481 214.645 224.313 213.919 225.262 213.948C226.226 213.993 226.969 214.813 226.923 215.776L225.663 242.075L235.011 248.65L234.406 270.488C234.38 271.435 233.603 272.186 232.661 272.186Z" fill="#371A45"/>
<path d="M335.008 230.499C335.008 230.499 340.238 234.664 340.468 241.089C340.733 248.518 336.089 251.531 336.089 251.531C336.089 251.531 315.761 261.946 283.148 255.026C283.148 255.026 273.548 242.885 284.241 236.034C284.241 236.034 318.662 240.766 335.008 230.499Z" fill="white"/>
<path d="M324.597 252.883C326.215 250.333 327.505 247.621 328.526 244.808C332.621 243.288 335.612 239.963 336.573 236.001C337.389 237.414 338.069 239.174 338.141 241.173C338.337 246.646 335.427 249.117 334.901 249.52C334.186 249.858 330.594 251.482 324.597 252.883Z" fill="#B9AFBE"/>
<path d="M284.515 252.932C314.003 258.941 333.144 250.353 334.901 249.52C335.427 249.117 338.337 246.646 338.141 241.173C338.014 237.631 335.975 234.841 334.659 233.397C318.722 242.043 290.348 239.128 284.824 238.458C282.992 239.805 281.942 241.4 281.621 243.313C280.976 247.163 283.453 251.353 284.515 252.932ZM305.241 259.746C298.591 259.746 291.029 259.08 282.666 257.306L281.844 257.131L281.322 256.473C281.1 256.19 275.868 249.478 277.029 242.543C277.608 239.084 279.613 236.234 282.985 234.073L283.708 233.611L284.557 233.727C284.891 233.773 318.336 238.22 333.769 228.526L335.166 227.648L336.457 228.675C336.704 228.874 342.529 233.594 342.794 241.007C343.105 249.657 337.59 253.335 337.355 253.486L337.149 253.605C336.507 253.935 324.861 259.746 305.241 259.746Z" fill="#371A45"/>
<path d="M245.588 190.209C243.778 190.209 241.963 190.153 240.145 190.037C236.262 189.793 232.351 189.292 228.457 188.506C223.941 187.609 219.442 186.339 214.984 184.686C213.51 184.132 212.055 183.549 210.635 182.933C210.577 182.907 210.519 182.882 210.46 182.856C210.893 180.279 211.322 177.69 211.747 175.099C211.952 175.174 212.156 175.247 212.36 175.32C216.555 176.823 220.868 178.018 225.19 178.878C229.103 179.665 233.14 180.193 237.188 180.45C239.041 180.567 240.906 180.625 242.777 180.625C245.695 180.625 248.628 180.483 251.546 180.198C253.26 180.024 254.988 179.802 256.686 179.54C278.118 176.167 297.268 165.252 311.032 149.332C312.15 151.32 313.425 153.697 314.805 156.461C300.985 174.143 280.933 185.723 259.135 189.152C257.471 189.408 255.801 189.623 254.125 189.793C251.3 190.068 248.451 190.209 245.588 190.209Z" fill="#B9AFBE"/>
<path d="M210.46 182.856C209.722 182.536 208.99 182.206 208.267 181.866C208.691 179.336 209.112 176.793 209.53 174.247C210.115 174.481 210.725 174.716 211.364 174.957C211.493 175.006 211.619 175.052 211.747 175.099C211.322 177.69 210.893 180.279 210.46 182.856ZM314.805 156.461C313.425 153.697 312.15 151.32 311.032 149.333C311.579 148.698 312.118 148.058 312.648 147.408C313.753 149.329 315.022 151.646 316.402 154.354C315.879 155.066 315.347 155.768 314.805 156.461Z" fill="#371A45"/>
<path d="M167.616 135.949C175.229 148.525 186.014 159.251 199.361 166.807C202.084 168.346 204.904 169.754 207.824 171.018C209.244 171.636 210.699 172.216 212.174 172.773C216.629 174.427 221.13 175.696 225.649 176.593C229.542 177.377 233.449 177.88 237.336 178.124C242.029 178.423 246.702 178.33 251.311 177.88C252.992 177.71 254.663 177.496 256.324 177.239C286.72 172.456 313.711 151.834 325.173 120.915C342.07 75.3712 318.864 24.7496 273.356 7.84264C264.589 4.59341 255.627 2.81541 246.76 2.42014C245.724 2.36519 244.682 2.33772 243.642 2.33467C240.859 2.30415 238.091 2.4064 235.342 2.63991C228.99 3.18323 222.747 4.42094 216.73 6.2966C210.712 8.16464 204.905 10.6798 199.433 13.7825C197.691 14.7669 195.983 15.8108 194.308 16.9172C191.799 18.5792 189.37 20.3603 187.03 22.2863C175.353 31.8356 165.981 44.5287 160.357 59.7019C150.636 85.9002 154.189 113.774 167.616 135.949Z" fill="white"/>
<path d="M167.815 135.827C175.56 148.62 186.508 159.262 199.477 166.603C202.224 168.155 205.064 169.568 207.917 170.803C209.229 171.373 210.649 171.947 212.258 172.555C216.637 174.18 221.158 175.462 225.695 176.364C229.494 177.129 233.416 177.641 237.351 177.89C241.951 178.183 246.642 178.101 251.288 177.646C252.957 177.478 254.639 177.261 256.288 177.007C287.624 172.077 313.937 150.552 324.954 120.833C341.777 75.4871 318.592 24.8991 273.274 8.06241C264.675 4.87576 255.751 3.05502 246.749 2.65517C245.765 2.60176 244.748 2.57277 243.641 2.56819C240.876 2.54073 238.092 2.64145 235.363 2.87343C229.087 3.40912 222.842 4.63615 216.799 6.52098C210.809 8.37985 205.006 10.8919 199.547 13.987C197.789 14.9821 196.07 16.0336 194.436 17.1141C191.885 18.8021 189.443 20.603 187.178 22.4664C175.19 32.272 165.991 45.1759 160.575 59.7828C151.206 85.0364 153.845 112.753 167.815 135.827ZM242.779 178.531C240.952 178.531 239.129 178.473 237.32 178.359C233.365 178.108 229.423 177.593 225.604 176.823C221.042 175.917 216.497 174.629 212.093 172.993C210.475 172.382 209.049 171.807 207.731 171.233C204.862 169.992 202.007 168.571 199.245 167.01C186.208 159.63 175.2 148.931 167.414 136.072C153.37 112.872 150.718 85.0074 160.136 59.6195C165.581 44.9347 174.828 31.9622 186.88 22.1047C189.158 20.2306 191.613 18.4205 194.178 16.7219C195.821 15.6368 197.549 14.5792 199.317 13.578C204.805 10.4677 210.638 7.94336 216.66 6.07379C222.735 4.17828 229.014 2.94516 235.322 2.40642C238.066 2.17291 240.866 2.06912 243.644 2.09964C244.759 2.10422 245.782 2.13171 246.772 2.18665C255.821 2.58955 264.792 4.41789 273.437 7.62286C318.998 24.5496 342.306 75.4078 325.393 120.996C314.317 150.874 287.864 172.513 256.361 177.47C254.703 177.727 253.013 177.944 251.335 178.113C248.489 178.391 245.628 178.531 242.779 178.531Z" fill="#371A45"/>
<path d="M257.599 174.664C270.164 170.7 281.609 164.109 290.898 155.262C300.043 146.553 306.776 136.146 310.928 124.447C313.801 126.136 316.843 127.098 319.942 127.301C308.085 152.067 284.89 169.829 257.599 174.664ZM229.255 174.333C228.148 174.333 227.034 174.313 225.922 174.273C225.753 174.238 225.584 174.204 225.415 174.169C225.413 174.168 225.412 174.168 225.408 174.168C225.378 174.162 225.349 174.156 225.317 174.148C225.312 174.148 225.308 174.146 225.303 174.146C225.276 174.14 225.248 174.134 225.219 174.128C225.213 174.127 225.206 174.125 225.198 174.124C225.174 174.119 225.149 174.113 225.123 174.108C225.113 174.105 225.102 174.104 225.091 174.101C225.07 174.096 225.047 174.092 225.024 174.087C225.012 174.084 225 174.082 224.986 174.079C224.966 174.075 224.946 174.07 224.925 174.066C224.911 174.063 224.896 174.059 224.881 174.056C224.862 174.052 224.844 174.049 224.826 174.044C224.809 174.041 224.792 174.037 224.776 174.034C224.759 174.03 224.743 174.027 224.728 174.023C224.708 174.02 224.689 174.015 224.669 174.011C224.655 174.008 224.641 174.005 224.628 174.001C224.606 173.997 224.585 173.992 224.564 173.988C224.551 173.985 224.539 173.982 224.527 173.98C224.504 173.974 224.481 173.969 224.458 173.965C224.448 173.962 224.437 173.96 224.426 173.957C224.402 173.953 224.377 173.947 224.353 173.942C224.344 173.939 224.335 173.937 224.326 173.936C224.3 173.93 224.274 173.924 224.246 173.918C224.24 173.916 224.233 173.914 224.225 173.913C224.197 173.907 224.17 173.901 224.143 173.895C224.136 173.893 224.129 173.892 224.123 173.89C224.095 173.884 224.066 173.878 224.037 173.872C224.033 173.87 224.027 173.869 224.021 173.867C223.99 173.861 223.961 173.853 223.932 173.847C223.928 173.846 223.924 173.846 223.92 173.844C223.888 173.837 223.857 173.831 223.827 173.823C223.824 173.823 223.821 173.821 223.818 173.821C223.786 173.814 223.754 173.806 223.72 173.798C223.719 173.798 223.717 173.798 223.715 173.798C223.683 173.791 223.65 173.783 223.616 173.776L223.613 173.774C222.37 173.489 221.132 173.173 219.899 172.831C219.896 172.829 219.892 172.828 219.889 172.828C219.858 172.819 219.828 172.811 219.797 172.802C219.79 172.8 219.784 172.797 219.776 172.796C219.75 172.788 219.724 172.782 219.698 172.774C219.683 172.77 219.668 172.765 219.652 172.761C219.634 172.756 219.616 172.75 219.596 172.745C219.578 172.741 219.561 172.735 219.543 172.73C219.527 172.726 219.512 172.721 219.495 172.716C219.477 172.712 219.457 172.706 219.437 172.701C219.424 172.697 219.408 172.692 219.393 172.687C219.372 172.681 219.35 172.675 219.331 172.669C219.318 172.666 219.305 172.663 219.294 172.66C219.271 172.652 219.247 172.646 219.224 172.64C219.213 172.637 219.202 172.634 219.192 172.631C219.167 172.623 219.143 172.616 219.119 172.61C219.109 172.607 219.1 172.603 219.091 172.602C219.065 172.594 219.041 172.587 219.015 172.579C219.007 172.578 218.998 172.574 218.99 172.571C218.963 172.564 218.937 172.556 218.911 172.549C218.903 172.547 218.896 172.545 218.89 172.542C218.861 172.535 218.833 172.526 218.806 172.518C218.8 172.517 218.794 172.515 218.789 172.513C218.76 172.504 218.73 172.497 218.701 172.488C218.698 172.486 218.693 172.484 218.688 172.484C218.658 172.475 218.629 172.466 218.6 172.459C218.595 172.457 218.591 172.455 218.588 172.454C218.557 172.445 218.527 172.436 218.496 172.426C218.493 172.426 218.49 172.425 218.487 172.425C218.457 172.416 218.425 172.407 218.394 172.397C218.391 172.396 218.388 172.396 218.386 172.394C218.353 172.385 218.321 172.375 218.289 172.365C218.287 172.365 218.287 172.365 218.287 172.365C218.254 172.355 218.22 172.346 218.188 172.335C218.187 172.335 218.187 172.335 218.187 172.335C216.437 171.81 214.705 171.228 212.996 170.594C212.972 170.584 212.948 170.575 212.923 170.566C211.377 169.982 210.013 169.431 208.749 168.878C208.683 168.851 208.618 168.822 208.552 168.794C206.386 167.851 204.228 166.803 202.117 165.667C211.094 168.535 220.326 169.978 229.459 169.978C243.163 169.978 256.643 166.725 268.686 160.158C285.759 150.846 297.698 136.123 303.188 118.22C303.278 118.096 303.366 117.973 303.454 117.849C304.54 119.209 305.721 120.456 306.987 121.571C303.119 133.126 296.625 143.377 287.688 151.887C272.606 166.252 251.468 174.334 229.255 174.333ZM322.788 60.0743C321.795 59.9064 320.794 59.8179 319.789 59.8087C319.559 56.7671 319.17 53.7513 318.627 50.7692C320.197 53.7864 321.586 56.8938 322.788 60.0743Z" fill="#B9AFBE"/>
<path d="M169.159 135.014C176.764 147.576 187.515 158.026 200.25 165.235C202.948 166.76 205.738 168.149 208.541 169.359C209.832 169.922 211.227 170.485 212.812 171.084C217.105 172.678 221.545 173.937 226 174.823C229.735 175.574 233.585 176.079 237.448 176.321C241.969 176.608 246.574 176.529 251.136 176.082C252.772 175.917 254.427 175.705 256.048 175.454C286.821 170.612 312.662 149.473 323.482 120.286C340.003 75.7527 317.235 26.0713 272.728 9.53523C264.283 6.40506 255.517 4.6179 246.679 4.22415C245.706 4.17227 244.716 4.14479 243.633 4.14021C240.915 4.11427 238.174 4.21194 235.496 4.43935C229.334 4.96587 223.2 6.17001 217.265 8.02126C211.383 9.84808 205.682 12.3144 200.322 15.353C198.594 16.3313 196.905 17.3645 195.303 18.4252C192.797 20.0826 190.399 21.8514 188.175 23.6813C176.399 33.3115 167.367 45.9832 162.049 60.3293C152.847 85.1311 155.438 112.352 169.159 135.014ZM242.777 180.102C240.918 180.102 239.062 180.044 237.221 179.926C233.196 179.673 229.182 179.146 225.294 178.363C220.654 177.442 216.028 176.131 211.547 174.467C209.896 173.843 208.447 173.258 207.105 172.672C204.188 171.413 201.283 169.968 198.473 168.379C185.2 160.866 173.997 149.975 166.071 136.885C151.776 113.274 149.077 84.9128 158.664 59.0732C164.205 44.1259 173.619 30.9215 185.887 20.8884C188.203 18.9822 190.701 17.1386 193.312 15.4125C194.984 14.306 196.744 13.2285 198.544 12.2106C204.127 9.04532 210.066 6.47523 216.195 4.57211C222.376 2.64455 228.767 1.39005 235.19 0.840622C237.984 0.602539 240.837 0.495728 243.661 0.529297C244.791 0.533875 245.842 0.562866 246.857 0.617798C256.053 1.02681 265.186 2.88875 273.983 6.15018C320.357 23.3776 344.078 75.1438 326.866 121.542C315.592 151.953 288.669 173.977 256.603 179.023C254.917 179.284 253.198 179.503 251.492 179.676C248.593 179.96 245.678 180.102 242.777 180.102Z" fill="#371A45"/>
<path d="M169.606 134.742C177.165 147.228 187.85 157.613 200.508 164.779C203.189 166.294 205.962 167.674 208.749 168.878C210.033 169.438 211.419 169.998 212.996 170.594C217.261 172.178 221.675 173.428 226.102 174.308C229.815 175.056 233.642 175.557 237.482 175.799C241.975 176.085 246.551 176.005 251.085 175.561C252.71 175.396 254.355 175.186 255.967 174.937C286.552 170.125 312.237 149.114 322.991 120.105C339.411 75.8412 316.782 26.4619 272.546 10.0266C264.152 6.91472 255.441 5.13824 246.656 4.74754C245.688 4.69565 244.705 4.66818 243.632 4.6636C240.912 4.63461 238.202 4.73381 235.54 4.96121C229.417 5.48468 223.32 6.68123 217.421 8.52026C211.573 10.3364 205.907 12.789 200.58 15.8092C198.862 16.7814 197.185 17.8085 195.591 18.8616C193.1 20.5099 190.718 22.268 188.508 24.0857C176.803 33.6594 167.825 46.2533 162.54 60.5123C153.393 85.1615 155.969 112.218 169.606 134.742ZM242.777 180.625C240.906 180.625 239.041 180.567 237.188 180.45C233.14 180.193 229.103 179.665 225.19 178.878C220.526 177.95 215.871 176.631 211.364 174.957C209.704 174.331 208.245 173.742 206.896 173.153C203.964 171.886 201.042 170.432 198.216 168.835C184.866 161.276 173.596 150.323 165.624 137.157C151.246 113.408 148.531 84.8807 158.173 58.8916C163.748 43.8572 173.216 30.575 185.557 20.4824C187.884 18.567 190.397 16.7128 193.022 14.9744C194.706 13.8619 196.477 12.7783 198.286 11.7542C203.902 8.57063 209.876 5.98682 216.039 4.07147C222.256 2.13322 228.686 0.871078 235.145 0.318604C237.956 0.0789948 240.828 -0.0232544 243.667 0.00422668C244.803 0.00880432 245.86 0.0393219 246.885 0.0942688C256.131 0.506332 265.315 2.37894 274.165 5.65869C320.81 22.9868 344.67 75.0552 327.356 121.726C316.018 152.313 288.938 174.465 256.686 179.54C254.988 179.802 253.26 180.024 251.546 180.198C248.628 180.483 245.695 180.625 242.777 180.625Z" fill="#371A45"/>
<path d="M181.661 153.572C234.836 187.05 303.57 158.024 304.264 95.7623C304.737 53.4034 263.653 20.2366 222.967 22.3885C193.355 23.9544 165.13 38.4454 154.995 85.0974C154.995 85.0974 153.695 106.444 160.13 120.302C166.563 134.161 175.159 146.552 175.159 146.552L181.661 153.572Z" fill="#371A45"/>
<path d="M304.263 95.7623C303.57 158.022 234.834 187.049 181.66 153.574L180.343 152.15C237.43 159.521 292.192 122.884 294.064 59.9476C300.599 70.495 304.406 82.6906 304.263 95.7623Z" fill="#220F2D"/>
<path d="M225.922 174.273C249.343 175.125 271.854 166.967 287.689 151.887C302.811 137.486 310.936 118.105 311.187 95.8432C311.415 75.4749 302.764 55.8315 286.824 40.5332C269.371 23.7804 245.235 14.4997 222.259 15.7191C209.414 16.3998 197.996 19.2675 188.316 24.2428C176.707 33.7936 167.796 46.3296 162.54 60.5123C153.393 85.1615 155.969 112.217 169.606 134.742C177.165 147.228 187.85 157.613 200.508 164.779C203.189 166.294 205.962 167.674 208.749 168.878C210.033 169.438 211.419 169.998 212.996 170.594C217.203 172.155 221.554 173.394 225.922 174.273ZM229.241 178.992C228.017 178.992 226.79 178.969 225.561 178.922L225.196 178.879C220.526 177.95 215.871 176.631 211.364 174.957C209.704 174.331 208.245 173.742 206.896 173.153C203.964 171.886 201.042 170.432 198.216 168.835C184.866 161.276 173.596 150.323 165.624 137.157C151.246 113.408 148.531 84.8807 158.173 58.8915C163.748 43.8572 173.216 30.5749 185.557 20.4823L185.743 20.3282L185.958 20.2168C196.276 14.866 208.407 11.7862 222.013 11.0674C246.266 9.7854 271.685 19.5437 290.048 37.171C306.924 53.3698 316.085 74.2249 315.842 95.8951C315.577 119.445 306.952 139.974 290.898 155.262C274.952 170.449 252.652 178.992 229.241 178.992Z" fill="#371A45"/>
<path d="M183.159 151.762C209.377 168.147 241.269 169.805 266.458 156.066C288.713 143.93 301.646 121.939 301.937 95.7364C302.138 77.6863 294.468 60.2773 280.34 46.7173C264.864 31.863 243.468 23.6385 223.09 24.7145C187.84 26.5779 165.709 46.9996 157.308 85.4103C157.209 87.4325 156.43 106.806 162.241 119.32C168.163 132.076 176.051 143.733 176.982 145.093L183.159 151.762ZM229.459 169.979C212.722 169.979 195.647 165.13 180.421 155.542L180.162 155.381L173.247 147.88C172.891 147.367 164.463 135.164 158.018 121.283C151.412 107.054 152.615 85.8514 152.67 84.9555L152.719 84.603C161.59 43.7687 185.184 22.0528 222.845 20.0612C244.48 18.9272 267.176 27.6264 283.563 43.3551C298.63 57.8156 306.808 76.4364 306.593 95.7883C306.282 123.728 292.465 147.19 268.686 160.158C256.643 166.725 243.163 169.979 229.459 169.979Z" fill="#371A45"/>
<path d="M343.015 90.0131C344.909 107.26 336.319 122.837 323.83 124.804C311.338 126.771 299.677 114.383 297.782 97.1358C295.888 79.8885 304.478 64.3124 316.969 62.3452C329.459 60.3779 341.121 72.7659 343.015 90.0131Z" fill="white"/>
<path d="M321.217 122.679C317.788 122.679 314.39 121.452 311.276 119.07C306.206 115.194 302.43 108.636 300.775 101.043C301.469 101.13 302.17 101.176 302.876 101.176C303.737 101.176 304.605 101.109 305.477 100.973C306.802 100.764 308.154 100.41 309.505 99.9242C309.87 102.381 310.506 104.748 311.379 106.949C311.476 107.238 311.576 107.525 311.681 107.81C313.586 112.944 316.779 116.561 320.512 118.376C321.281 118.833 322.079 119.227 322.907 119.552C324.684 120.25 326.487 120.598 328.28 120.598C328.459 120.598 328.637 120.595 328.816 120.587C327.152 121.549 325.359 122.205 323.467 122.502C322.718 122.621 321.966 122.679 321.217 122.679ZM332.712 71.0536C332.095 70.8293 331.476 70.6477 330.853 70.5073C330.861 70.0662 330.859 69.6221 330.846 69.1765C331.492 69.7579 332.116 70.3852 332.712 71.0536Z" fill="#B9AFBE"/>
<path d="M319.582 64.4697C318.832 64.4697 318.08 64.5277 317.331 64.6467C306.069 66.4186 298.339 80.8806 300.096 96.881C301.121 106.204 305.3 114.499 311.276 119.07C315.072 121.974 319.289 123.162 323.467 122.502C334.729 120.729 342.458 106.268 340.701 90.2681C339.678 80.9447 335.499 72.65 329.523 68.0791C326.409 65.6967 323.009 64.4697 319.582 64.4697ZM321.185 127.342C316.745 127.342 312.392 125.79 308.448 122.772C301.377 117.364 296.646 108.112 295.469 97.3907C293.443 78.9515 302.925 62.1987 316.606 60.0438C322.071 59.183 327.518 60.6817 332.351 64.3781C339.422 69.7853 344.153 79.037 345.329 89.7584C347.354 108.198 337.872 124.95 324.191 127.105C323.188 127.262 322.184 127.342 321.185 127.342Z" fill="#371A45"/>
<path d="M345.933 102.416C343.168 115.644 332.897 123.213 322.995 119.325C313.094 115.436 307.309 101.562 310.074 88.3359C312.841 75.1085 323.11 67.5387 333.011 71.4274C342.915 75.3161 348.7 89.1905 345.933 102.416Z" fill="white"/>
<path d="M327.73 70.6431C325.431 70.6431 323.149 71.2352 320.97 72.4134C315.728 75.2475 311.842 81.0699 310.312 88.3863C307.574 101.479 313.304 115.258 323.084 119.099C327.081 120.668 331.213 120.405 335.037 118.339C340.28 115.505 344.165 109.684 345.695 102.368C348.433 89.273 342.704 75.4948 332.923 71.6534C331.206 70.9804 329.462 70.6431 327.73 70.6431ZM328.28 120.598C326.487 120.598 324.684 120.25 322.907 119.552C312.914 115.629 307.051 101.603 309.836 88.2856C311.395 80.8288 315.369 74.8874 320.738 71.9846C324.691 69.8495 328.965 69.5763 333.101 71.2001C343.093 75.1239 348.956 89.151 346.171 102.467C344.612 109.924 340.637 115.865 335.269 118.768C333.016 119.986 330.656 120.598 328.28 120.598Z" fill="#371A45"/>
<path d="M320.512 118.376C316.779 116.561 313.586 112.944 311.681 107.81C311.576 107.525 311.476 107.238 311.379 106.949C313.342 111.893 316.509 115.992 320.512 118.376Z" fill="#8C7B94"/>
<path d="M326.236 119.712C325.693 119.712 325.155 119.677 324.621 119.61C324.107 119.47 323.595 119.299 323.084 119.099C316.272 116.424 311.425 108.929 310.036 100.202C309.868 98.0576 309.927 95.8889 310.197 93.7614C313.213 100.173 318.414 103.73 323.936 103.73C326.848 103.73 329.85 102.741 332.667 100.658C337.939 96.7634 341.348 89.9338 342.271 82.6387C342.565 83.2538 342.834 83.907 343.085 84.5785C347.272 95.8706 343.637 110.226 334.964 116.64C332.148 118.724 329.148 119.712 326.236 119.712Z" fill="#B9AFBE"/>
<path d="M324.621 119.61C323.207 119.43 321.826 119.015 320.512 118.376C316.509 115.992 313.342 111.892 311.379 106.949C310.656 104.774 310.216 102.5 310.036 100.202C311.425 108.929 316.272 116.424 323.084 119.099C323.595 119.299 324.107 119.47 324.621 119.61Z" fill="#371A45"/>
<path d="M327.235 71.4198C326.726 71.4198 326.218 71.461 325.712 71.5449C317.639 72.8819 311.948 84.6761 313.284 97.2991C314.116 105.148 317.425 111.978 322.138 115.567C324.737 117.547 327.576 118.353 330.345 117.893C338.418 116.556 344.109 104.762 342.773 92.1391C341.941 84.29 338.632 77.4604 333.919 73.8708C331.796 72.2531 329.511 71.4198 327.235 71.4198ZM328.791 122.681C325.507 122.681 322.272 121.524 319.318 119.276C313.605 114.923 309.618 106.891 308.654 97.7905C307.013 82.2815 314.172 68.7337 324.952 66.9481C329.02 66.2766 333.094 67.3877 336.739 70.1622C342.452 74.5149 346.439 82.5471 347.403 91.6492C349.046 107.157 341.886 120.704 331.106 122.49C330.335 122.618 329.561 122.681 328.791 122.681Z" fill="#371A45"/>
<path d="M179.646 127.968C169.574 119.832 163.549 110.22 162.448 96.3682C162.344 95.0023 162.287 93.5891 162.273 92.1377C162.268 91.8034 162.271 91.4723 162.28 91.138L162.283 91.1182C162.462 88.1757 162.843 84.3191 163.636 80.0031C166.02 66.9894 172.116 49.8047 187.606 40.9499C199.921 33.9081 212.313 31.7623 222.389 31.7623C236.01 31.7623 245.402 35.683 244.684 36.7361C244.684 36.7361 205.02 41.3818 184.339 65.4647C184.318 65.4907 184.297 65.5166 184.275 65.5411C179.927 70.6141 177.029 76.7737 175.841 83.35C174.269 92.0461 174.458 98.2698 174.836 103.743C175.992 120.386 179.646 127.968 179.646 127.968Z" fill="#C3BAC7"/>
<path d="M278.238 89.1662C273.091 89.1662 268.024 85.3553 266.006 79.4735C263.549 72.3172 266.532 64.8054 272.67 62.6962C273.763 62.3208 274.883 62.1423 275.999 62.1423C281.145 62.1423 286.212 65.9531 288.231 71.835C290.687 78.9912 287.704 86.503 281.566 88.6122C280.473 88.9876 279.353 89.1662 278.238 89.1662Z" fill="#C3BAC7"/>
<path d="M282.651 103.608C281.87 103.001 281.206 102.166 280.761 101.156C279.5 98.2973 280.467 95.103 282.918 94.021C283.471 93.7768 284.052 93.6608 284.637 93.6608C285.459 93.6608 286.284 93.8897 287.039 94.314C285.738 97.5297 284.27 100.628 282.651 103.608Z" fill="#C3BAC7"/>
<path d="M285.764 104.733C284.675 104.733 283.581 104.33 282.651 103.608C284.27 100.628 285.738 97.5296 287.039 94.314C288.123 94.9229 289.064 95.9317 289.639 97.2381C290.899 100.097 289.934 103.291 287.481 104.373C286.927 104.617 286.346 104.733 285.764 104.733Z" fill="#BCB7C0"/>
<path d="M454.716 259.484C424.905 324.154 337.259 371 233.773 371C130.286 371 42.6406 324.154 12.8295 259.484H454.716Z" fill="#371A45"/>
<path d="M303.146 331.524L300.397 331.95C299.846 332.034 299.413 332.467 299.329 333.018L298.903 335.77L298.479 333.018C298.394 332.467 297.962 332.034 297.412 331.95L294.662 331.524L297.412 331.1C297.962 331.014 298.394 330.582 298.479 330.03L298.903 327.28L299.329 330.03C299.413 330.582 299.846 331.014 300.397 331.1L303.146 331.524Z" fill="#FFE266"/>
<path d="M232.225 319.315L229.475 319.74C228.924 319.824 228.491 320.258 228.407 320.809L227.981 323.56L227.557 320.809C227.472 320.258 227.04 319.824 226.49 319.74L223.74 319.315L226.49 318.89C227.04 318.805 227.472 318.373 227.557 317.82L227.981 315.07L228.407 317.82C228.491 318.373 228.924 318.805 229.475 318.89L232.225 319.315Z" fill="#FFE266"/>
<path d="M258.592 346.529L255.826 346.956C255.27 347.042 254.836 347.478 254.75 348.032L254.323 350.801L253.896 348.032C253.811 347.478 253.375 347.042 252.821 346.956L250.054 346.529L252.821 346.102C253.375 346.016 253.811 345.581 253.896 345.026L254.323 342.257L254.75 345.026C254.836 345.581 255.27 346.016 255.826 346.102L258.592 346.529Z" fill="#FFE266"/>
<path d="M383.945 315.281L380.215 315.858C379.467 315.974 378.88 316.56 378.764 317.308L378.189 321.041L377.613 317.308C377.497 316.56 376.911 315.974 376.164 315.858L372.432 315.281L376.164 314.704C376.911 314.589 377.497 314.002 377.613 313.254L378.189 309.521L378.764 313.254C378.88 314.002 379.467 314.589 380.215 314.704L383.945 315.281Z" fill="#FFE266"/>
<path d="M48.3278 271.022L45.091 271.522C44.4425 271.621 43.9337 272.131 43.8337 272.78L43.3339 276.018L42.8341 272.78C42.734 272.131 42.225 271.621 41.5767 271.522L38.3401 271.022L41.5767 270.521C42.225 270.422 42.734 269.912 42.8342 269.264L43.3339 266.025L43.8337 269.264C43.9337 269.912 44.4425 270.422 45.091 270.521L48.3278 271.022Z" fill="#FFE266"/>
<path d="M188.032 308.761L184.525 309.303C183.824 309.411 183.272 309.962 183.163 310.666L182.622 314.173L182.081 310.666C181.972 309.962 181.422 309.411 180.719 309.303L177.212 308.761L180.719 308.219C181.422 308.109 181.972 307.558 182.081 306.856L182.622 303.348L183.163 306.856C183.272 307.558 183.824 308.109 184.525 308.219L188.032 308.761Z" fill="#FFE266"/>
<path d="M342.612 332.438L339.275 332.954C338.606 333.056 338.081 333.581 337.979 334.251L337.463 337.59L336.948 334.251C336.844 333.581 336.319 333.056 335.651 332.954L332.314 332.438L335.651 331.922C336.319 331.818 336.844 331.293 336.948 330.625L337.463 327.286L337.979 330.625C338.081 331.293 338.606 331.818 339.275 331.922L342.612 332.438Z" fill="#FFE266"/>
<path d="M139.164 307.943L136.416 308.367C135.864 308.453 135.432 308.885 135.347 309.436L134.923 312.187L134.499 309.436C134.413 308.885 133.982 308.453 133.43 308.367L130.681 307.943L133.43 307.517C133.982 307.432 134.413 307 134.499 306.449L134.923 303.697L135.347 306.449C135.432 307 135.864 307.432 136.416 307.517L139.164 307.943Z" fill="#FFE266"/>
<path d="M146.363 341.98L144.535 339.881C144.169 339.461 143.572 339.327 143.061 339.548L140.51 340.659L142.607 338.831C143.028 338.465 143.162 337.868 142.939 337.357L141.829 334.804L143.658 336.902C144.024 337.323 144.62 337.458 145.131 337.235L147.681 336.124L145.584 337.952C145.165 338.32 145.03 338.917 145.253 339.428L146.363 341.98Z" fill="#FFE266"/>
<path d="M198.481 345.354L195.298 345.845C194.66 345.945 194.16 346.445 194.063 347.083L193.57 350.268L193.079 347.083C192.981 346.445 192.481 345.945 191.843 345.845L188.66 345.354L191.843 344.863C192.481 344.763 192.981 344.263 193.079 343.625L193.57 340.441L194.063 343.625C194.16 344.263 194.66 344.763 195.298 344.863L198.481 345.354Z" fill="#FFE266"/>
<path d="M98.0771 318.434L95.3272 318.86C94.7766 318.945 94.3449 319.377 94.2595 319.928L93.8355 322.68L93.41 319.928C93.3261 319.377 92.8929 318.945 92.3423 318.86L89.5924 318.434L92.3423 318.01C92.8929 317.924 93.3261 317.492 93.41 316.941L93.8355 314.19L94.2595 316.941C94.3449 317.492 94.7766 317.924 95.3272 318.01L98.0771 318.434Z" fill="#FFE266"/>
<path d="M424.793 274.1L421.54 274.604C420.889 274.704 420.376 275.216 420.276 275.869L419.774 279.124L419.271 275.869C419.17 275.216 418.659 274.704 418.008 274.604L414.753 274.1L418.008 273.598C418.659 273.497 419.17 272.986 419.271 272.333L419.774 269.077L420.276 272.333C420.376 272.986 420.889 273.497 421.54 273.598L424.793 274.1Z" fill="#FFE266"/>
<path d="M358.879 315.473H254.197L259.498 302.27L267.379 282.66L334.887 283.372L350.405 304.134L358.879 315.473Z" fill="white"/>
<path d="M257.641 313.141H354.231L333.714 285.691L268.947 285.008L257.641 313.141ZM363.528 317.8H250.748L265.814 280.315L336.065 281.056L363.528 317.8Z" fill="#371A45"/>
<path d="M344.54 307.95C341.31 307.96 338.081 307.897 334.852 307.873L325.167 307.674C321.94 307.627 318.707 307.486 315.493 307.409C312.27 307.348 309.046 307.313 305.82 307.311C299.369 307.216 292.914 307.235 286.459 307.181L276.776 307.096C273.547 307.033 270.318 307.013 267.089 306.928C270.315 306.754 273.542 306.662 276.77 306.536L286.453 306.301C292.911 306.172 299.369 306.162 305.828 306.166C309.058 306.203 312.29 306.273 315.52 306.369C318.758 306.499 321.977 306.614 325.202 306.798L334.872 307.314C338.095 307.528 341.318 307.702 344.54 307.95Z" fill="#371A45"/>
<path d="M340.224 300.828C337.256 300.858 334.288 300.816 331.32 300.811L322.414 300.674C316.477 300.574 310.553 300.326 304.621 300.153L286.837 299.55C283.872 299.453 280.915 299.366 277.95 299.431C276.919 299.428 275.888 299.43 274.855 299.431C272.921 299.434 270.984 299.437 269.046 299.408C274.964 299.036 280.906 298.601 286.851 298.67C292.792 298.665 298.726 298.825 304.659 299.01C310.591 299.212 316.524 299.491 322.448 299.798L331.335 300.252C334.297 300.446 337.261 300.6 340.224 300.828Z" fill="#371A45"/>
<path d="M335.764 294.684C333.036 294.668 330.315 294.58 327.592 294.531L319.434 294.258L303.113 293.763L286.795 293.188C284.075 293.084 281.359 293.002 278.639 292.97C275.911 292.872 273.185 292.813 270.47 292.681C275.92 292.475 281.351 292.288 286.811 292.307C292.261 292.306 297.706 292.452 303.151 292.62C308.593 292.822 314.035 293.023 319.472 293.383L327.626 293.974C330.339 294.212 333.056 294.41 335.764 294.684Z" fill="#371A45"/>
<path d="M331.771 288.783C326.839 289.287 321.874 289.092 316.934 289.018C311.993 288.919 307.054 288.751 302.115 288.603L287.303 288.065C284.835 287.962 282.366 287.872 279.898 287.822C277.445 287.736 274.923 287.752 272.516 287.588L279.896 287.262C282.372 287.198 284.846 287.19 287.319 287.184C292.267 287.179 297.21 287.309 302.152 287.459C307.094 287.637 312.034 287.836 316.969 288.142C319.437 288.297 321.9 288.442 324.368 288.558C326.834 288.692 329.302 288.846 331.771 288.783Z" fill="#371A45"/>
<path d="M411.221 299.067H306.537L319.727 266.254L329.819 266.359L387.229 266.97L411.221 299.067Z" fill="white"/>
<path d="M245.099 264.859L207.457 298.856C207.457 298.856 241.005 297.127 256.576 297.171C269.272 297.208 311.738 300.462 311.738 300.462L321.614 266.256L245.099 264.859Z" fill="white"/>
<path d="M312.324 305.53C312.324 305.53 278.194 302.911 261.98 302.344L263.054 299.674C279.631 300.346 311.193 302.757 311.561 302.785L313.449 302.93L313.891 301.396H345.452L347.498 304.134H312.725L312.324 305.53Z" fill="#B9AFBE"/>
<path d="M350.405 304.134H347.498L345.452 301.396H348.359L350.405 304.134ZM261.98 302.343C261.097 302.313 260.267 302.287 259.498 302.27L260.578 299.583C261.357 299.609 262.186 299.639 263.053 299.674L261.98 302.343Z" fill="#371A45"/>
<path d="M411.221 299.067H306.537L319.727 266.254L329.819 266.359L387.229 266.97L411.221 299.067Z" fill="white"/>
<path d="M309.982 296.736H406.573L386.056 269.285L321.29 268.601L309.982 296.736ZM415.871 301.396H303.091L318.157 263.91L388.407 264.65L415.871 301.396Z" fill="#371A45"/>
<path d="M396.882 291.544C393.652 291.555 390.423 291.491 387.194 291.466L377.509 291.269C374.283 291.222 371.05 291.08 367.835 291.004C364.612 290.941 361.388 290.906 358.162 290.905C351.71 290.81 345.256 290.83 338.801 290.776L329.118 290.691C325.889 290.627 322.661 290.607 319.431 290.522C322.657 290.348 325.886 290.256 329.111 290.129L338.796 289.896C345.253 289.766 351.71 289.757 358.171 289.762C361.4 289.798 364.632 289.868 367.864 289.965C371.102 290.093 374.32 290.209 377.544 290.393L387.214 290.909C390.437 291.121 393.661 291.297 396.882 291.544Z" fill="#371A45"/>
<path d="M392.566 284.422C389.598 284.452 386.63 284.409 383.662 284.405L374.756 284.269C368.818 284.17 362.895 283.921 356.963 283.749L339.179 283.146C336.214 283.048 333.258 282.96 330.292 283.027C329.256 283.024 328.219 283.025 327.184 283.027C325.253 283.03 323.322 283.031 321.388 283.004C327.307 282.632 333.249 282.195 339.193 282.265C345.134 282.261 351.068 282.421 357.001 282.604C362.934 282.805 368.866 283.085 374.79 283.393L383.679 283.848C386.64 284.04 389.604 284.194 392.566 284.422Z" fill="#371A45"/>
<path d="M388.108 279.042C385.378 279.027 382.657 278.938 379.934 278.888L371.776 278.616L355.455 278.122L339.138 277.545C336.419 277.442 333.702 277.36 330.981 277.328C328.253 277.23 325.529 277.171 322.812 277.04C328.262 276.833 333.695 276.646 339.153 276.666C344.604 276.663 350.049 276.811 355.493 276.978C360.936 277.178 366.377 277.381 371.816 277.742L379.968 278.331C382.683 278.57 385.399 278.769 388.108 279.042Z" fill="#371A45"/>
<path d="M384.113 273.903C379.181 274.408 374.216 274.213 369.276 274.138C364.334 274.041 359.396 273.873 354.457 273.723L339.644 273.184C337.177 273.084 334.707 272.994 332.241 272.943C329.789 272.858 327.264 272.871 324.859 272.71L332.238 272.383C334.715 272.317 337.189 272.31 339.663 272.305C344.609 272.301 349.552 272.43 354.495 272.58C359.435 272.759 364.377 272.955 369.313 273.264C371.779 273.418 374.244 273.563 376.71 273.679C379.176 273.813 381.644 273.966 384.113 273.903Z" fill="#371A45"/>
<path d="M2.0226 257.421L16.3648 257.161L30.7074 256.964L59.3919 256.578L116.761 256.097C135.884 255.903 155.008 255.89 174.131 255.791L231.5 255.696L288.869 255.788C307.992 255.89 327.116 255.9 346.239 256.096L403.608 256.577L432.293 256.964L446.636 257.16L460.977 257.421C462.115 257.44 463.021 258.38 463 259.517C462.98 260.63 462.08 261.52 460.977 261.541L446.636 261.802L432.293 261.997L403.608 262.385L346.239 262.867C327.116 263.061 307.992 263.072 288.869 263.174L231.5 263.266L174.131 263.171C155.008 263.072 135.884 263.058 116.761 262.864L59.3919 262.384L30.7074 261.996L16.3648 261.801L2.0226 261.541C0.885106 261.521 -0.0200983 260.581 0.000339379 259.444C0.020472 258.332 0.920795 257.442 2.0226 257.421Z" fill="#371A45"/>
<path d="M195.96 293.875L228.892 263.241C229.023 263.118 229.098 262.947 229.098 262.767V257.262C229.098 256.889 228.784 256.593 228.412 256.616L123.074 263.049L74.1852 293.875H195.96Z" fill="#3E8DFF"/>
<path d="M195.838 290.809L194.969 287.28L226.609 262.184L195.838 290.809Z" fill="#4C6ACA"/>
<path d="M82.2471 291.546H195.046L226.77 262.034V259.05L123.81 265.337L82.2471 291.546ZM196.877 296.205H66.1237L122.337 260.76L228.27 254.29C229.09 254.246 229.894 254.535 230.49 255.095C231.085 255.655 231.427 256.445 231.427 257.263V262.767C231.427 263.588 231.082 264.381 230.481 264.943L196.877 296.205Z" fill="#371A45"/>
<path d="M195.96 280.927L229.098 256.575H123.074L74.1852 280.927H195.96Z" fill="#3E8DFF"/>
<path d="M187.413 277.852L208.97 262.01H139.999L108.197 277.852H187.413Z" fill="white"/>
<path d="M80.6715 279.401H195.461L224.445 258.101H123.432L80.6715 279.401ZM196.46 282.453H67.6988L122.715 255.049H227.124C228.065 255.049 228.895 255.65 229.188 256.545C229.481 257.44 229.168 258.416 228.41 258.974L196.46 282.453Z" fill="#371A45"/>
<path d="M192.821 295.315H54.2941C53.3977 295.315 52.577 294.949 51.9833 294.337C51.5934 293.942 51.3024 293.429 51.1569 292.852L27.8586 198.236C26.8516 194.153 29.9362 190.211 34.1386 190.211H163.464C167.725 190.211 171.456 192.989 172.719 197.013C172.783 197.205 172.841 197.404 172.887 197.601L195.958 291.303C196.465 293.342 194.917 295.315 192.821 295.315Z" fill="#3E8DFF"/>
<path d="M192.821 295.315H58.1469L57.9551 294.537C59.3439 294.563 60.8459 294.58 62.4492 294.58C86.2797 294.58 132.3 290.978 156.183 265.195C174.146 245.8 174.52 215.469 172.745 197.274C172.763 197.276 172.781 197.279 172.8 197.282C172.783 197.222 172.766 197.164 172.749 197.106C172.801 197.269 172.849 197.434 172.887 197.601L195.958 291.303C196.024 291.566 196.054 291.828 196.056 292.084C196.058 293.818 194.647 295.315 192.821 295.315ZM54.2746 295.315C54.2725 295.315 54.2705 295.315 54.2683 295.315C54.2705 295.315 54.2726 295.315 54.2746 295.315ZM54.2554 295.315C54.2528 295.315 54.2501 295.315 54.2475 295.315C54.2502 295.315 54.2528 295.315 54.2554 295.315ZM54.2362 295.315C54.2333 295.315 54.2304 295.315 54.2276 295.315C54.2304 295.315 54.2334 295.315 54.2362 295.315ZM54.2176 295.315C54.2142 295.315 54.2109 295.315 54.2076 295.314C54.211 295.315 54.2142 295.315 54.2176 295.315ZM54.2014 295.314C54.1864 295.314 54.1715 295.314 54.1566 295.312C54.1715 295.314 54.1864 295.314 54.2014 295.314ZM54.1543 295.312C54.1488 295.312 54.1433 295.312 54.1378 295.312C54.1433 295.312 54.1488 295.312 54.1543 295.312ZM54.1376 295.312C53.8376 295.297 53.5475 295.242 53.2727 295.151C53.5477 295.242 53.8381 295.297 54.1376 295.312ZM53.2726 295.151C53.269 295.149 53.2657 295.147 53.2622 295.146C53.2657 295.147 53.269 295.149 53.2726 295.151ZM53.2515 295.143C53.2501 295.143 53.2489 295.141 53.2477 295.141C53.2491 295.141 53.2501 295.143 53.2515 295.143Z" fill="#4C6ACA"/>
<path d="M58.1469 295.315H54.2941C54.2875 295.315 54.2811 295.315 54.2746 295.315C54.2811 295.315 54.2875 295.315 54.2941 295.315H58.1469ZM54.2683 295.315C54.2641 295.315 54.2596 295.315 54.2554 295.315C54.2596 295.315 54.2641 295.315 54.2683 295.315ZM54.2474 295.315C54.2436 295.315 54.24 295.315 54.2362 295.315C54.24 295.315 54.2436 295.315 54.2474 295.315ZM54.2276 295.315C54.2242 295.315 54.2209 295.315 54.2175 295.315C54.2209 295.315 54.2242 295.315 54.2276 295.315ZM54.2076 295.314C54.2055 295.314 54.2035 295.314 54.2014 295.314C54.2035 295.314 54.2055 295.314 54.2076 295.314ZM54.1565 295.312C54.1559 295.312 54.155 295.312 54.1542 295.312C54.155 295.312 54.1559 295.312 54.1565 295.312ZM54.1378 295.312H54.1376C54.1376 295.312 54.1376 295.312 54.1378 295.312ZM53.2727 295.151H53.2725H53.2727ZM53.2622 295.146C53.2586 295.146 53.255 295.144 53.2515 295.143C53.255 295.144 53.2586 295.146 53.2622 295.146ZM53.2477 295.141C52.2282 294.792 51.4251 293.943 51.1569 292.852L45.8747 271.402L51.1569 292.852C51.3024 293.429 51.5934 293.942 51.9833 294.337C52.3354 294.7 52.7674 294.977 53.2477 295.141Z" fill="#7D6A86"/>
<path d="M172.749 197.106C172.739 197.074 172.73 197.044 172.719 197.013C171.525 193.208 168.125 190.518 164.158 190.235C168.159 190.521 171.584 193.251 172.749 197.106ZM164.158 190.235C164.15 190.235 164.143 190.234 164.135 190.234C164.143 190.234 164.15 190.235 164.158 190.235ZM164.132 190.234C164.126 190.234 164.118 190.232 164.111 190.232C164.118 190.232 164.126 190.234 164.132 190.234ZM164.108 190.232C164.1 190.231 164.094 190.231 164.086 190.231C164.094 190.231 164.1 190.232 164.108 190.232ZM164.082 190.231C164.076 190.229 164.07 190.229 164.062 190.229C164.07 190.229 164.076 190.229 164.082 190.231ZM164.057 190.229C164.051 190.228 164.044 190.228 164.037 190.228C164.044 190.228 164.051 190.228 164.057 190.229ZM164.031 190.228C164.025 190.226 164.019 190.226 164.013 190.226C164.019 190.226 164.025 190.226 164.031 190.228ZM164.007 190.226C164.001 190.226 163.995 190.225 163.989 190.225C163.995 190.225 164.001 190.226 164.007 190.226ZM163.981 190.225C163.976 190.225 163.97 190.223 163.964 190.223C163.97 190.223 163.976 190.225 163.981 190.225ZM163.957 190.223C163.951 190.223 163.944 190.223 163.94 190.222C163.946 190.223 163.951 190.223 163.957 190.223ZM163.931 190.222C163.926 190.222 163.92 190.222 163.914 190.222C163.92 190.222 163.926 190.222 163.931 190.222ZM163.906 190.22C163.902 190.22 163.896 190.22 163.89 190.22C163.896 190.22 163.9 190.22 163.906 190.22ZM163.88 190.22C163.876 190.22 163.87 190.219 163.865 190.219C163.87 190.219 163.876 190.22 163.88 190.22ZM163.856 190.219C163.851 190.219 163.845 190.219 163.841 190.219C163.845 190.219 163.851 190.219 163.856 190.219ZM163.83 190.217C163.825 190.217 163.821 190.217 163.816 190.217C163.821 190.217 163.825 190.217 163.83 190.217ZM163.804 190.217C163.8 190.217 163.795 190.217 163.79 190.216C163.795 190.217 163.8 190.217 163.804 190.217ZM163.78 190.216C163.775 190.216 163.771 190.216 163.766 190.216C163.771 190.216 163.775 190.216 163.78 190.216ZM163.755 190.216C163.751 190.216 163.746 190.216 163.74 190.214C163.746 190.216 163.751 190.216 163.755 190.216ZM163.729 190.214C163.725 190.214 163.72 190.214 163.716 190.214C163.72 190.214 163.725 190.214 163.729 190.214ZM163.703 190.214C163.7 190.214 163.694 190.214 163.691 190.214C163.696 190.214 163.7 190.214 163.703 190.214ZM163.679 190.212C163.674 190.212 163.67 190.212 163.665 190.212C163.67 190.212 163.674 190.212 163.679 190.212ZM163.655 190.212C163.65 190.212 163.646 190.212 163.641 190.212C163.646 190.212 163.65 190.212 163.655 190.212ZM163.629 190.212C163.624 190.212 163.62 190.212 163.615 190.212C163.62 190.212 163.624 190.212 163.629 190.212ZM163.604 190.212C163.6 190.212 163.595 190.211 163.591 190.211C163.595 190.211 163.6 190.212 163.604 190.212ZM163.577 190.211C163.574 190.211 163.569 190.211 163.565 190.211C163.569 190.211 163.574 190.211 163.577 190.211ZM163.552 190.211C163.548 190.211 163.543 190.211 163.54 190.211C163.543 190.211 163.548 190.211 163.552 190.211ZM163.527 190.211C163.522 190.211 163.519 190.211 163.514 190.211C163.519 190.211 163.522 190.211 163.527 190.211ZM163.495 190.211C163.493 190.211 163.491 190.211 163.49 190.211C163.491 190.211 163.493 190.211 163.495 190.211Z" fill="#DEF4FF"/>
<path d="M57.9551 294.537C55.6235 294.491 53.6087 294.417 51.9833 294.337C51.5935 293.942 51.3024 293.429 51.1569 292.852L45.8747 271.402L45.6807 270.613L27.8586 198.236C27.7288 197.711 27.6669 197.186 27.6667 196.673C27.6655 193.202 30.478 190.211 34.1386 190.211H163.464C163.473 190.211 163.481 190.211 163.49 190.211C163.491 190.211 163.493 190.211 163.494 190.211C163.502 190.211 163.508 190.211 163.514 190.211C163.519 190.211 163.522 190.211 163.527 190.211C163.531 190.211 163.536 190.211 163.54 190.211C163.543 190.211 163.548 190.211 163.552 190.211C163.557 190.211 163.56 190.211 163.565 190.211C163.569 190.211 163.574 190.211 163.577 190.211C163.581 190.211 163.586 190.211 163.591 190.211C163.595 190.211 163.6 190.213 163.604 190.213C163.607 190.213 163.612 190.213 163.615 190.213C163.62 190.213 163.624 190.213 163.629 190.213C163.633 190.213 163.636 190.213 163.641 190.213C163.645 190.213 163.65 190.213 163.655 190.213C163.658 190.213 163.662 190.213 163.665 190.213C163.67 190.213 163.674 190.213 163.679 190.213C163.682 190.214 163.687 190.214 163.691 190.214C163.694 190.214 163.7 190.214 163.703 190.214C163.708 190.214 163.713 190.214 163.716 190.214C163.72 190.214 163.725 190.214 163.729 190.214C163.732 190.214 163.737 190.214 163.74 190.214C163.746 190.216 163.751 190.216 163.755 190.216C163.758 190.216 163.761 190.216 163.766 190.216C163.771 190.216 163.775 190.216 163.78 190.216C163.783 190.216 163.787 190.216 163.79 190.216C163.795 190.217 163.8 190.217 163.804 190.217C163.809 190.217 163.812 190.217 163.816 190.217C163.821 190.217 163.825 190.217 163.83 190.217C163.833 190.217 163.836 190.219 163.841 190.219C163.845 190.219 163.851 190.219 163.856 190.219C163.859 190.219 163.862 190.219 163.865 190.219C163.87 190.219 163.876 190.22 163.88 190.22C163.883 190.22 163.886 190.22 163.889 190.22C163.896 190.22 163.902 190.22 163.906 190.22C163.909 190.222 163.912 190.222 163.914 190.222C163.92 190.222 163.926 190.222 163.931 190.222C163.934 190.222 163.937 190.222 163.94 190.222C163.944 190.223 163.951 190.223 163.957 190.223C163.958 190.223 163.961 190.223 163.964 190.223C163.97 190.223 163.976 190.225 163.981 190.225C163.984 190.225 163.987 190.225 163.989 190.225C163.995 190.225 164.001 190.226 164.007 190.226C164.008 190.226 164.012 190.226 164.013 190.226C164.019 190.226 164.025 190.226 164.031 190.228C164.034 190.228 164.036 190.228 164.037 190.228C164.044 190.228 164.051 190.228 164.057 190.229C164.059 190.229 164.06 190.229 164.062 190.229C164.069 190.229 164.076 190.229 164.082 190.231C164.083 190.231 164.085 190.231 164.086 190.231C164.094 190.231 164.1 190.231 164.108 190.232C164.109 190.232 164.109 190.232 164.111 190.232C164.118 190.232 164.126 190.234 164.132 190.234C164.134 190.234 164.135 190.234 164.135 190.234C164.143 190.234 164.15 190.235 164.158 190.235C168.125 190.518 171.525 193.208 172.719 197.013C172.73 197.044 172.739 197.074 172.749 197.106C172.739 197.074 172.73 197.044 172.719 197.013C172.727 197.1 172.736 197.187 172.745 197.274C172.356 197.227 171.965 197.199 171.566 197.199H37.98C35.9487 197.199 34.4526 199.104 34.9418 201.079L57.9551 294.537Z" fill="#81B5FF"/>
<path d="M58.1469 295.315H54.2941C54.2876 295.315 54.2812 295.315 54.2746 295.315C54.2726 295.315 54.2705 295.315 54.2684 295.315C54.2641 295.315 54.2597 295.315 54.2554 295.315C54.2528 295.315 54.2502 295.315 54.2475 295.315C54.2437 295.315 54.24 295.315 54.2362 295.315C54.2334 295.315 54.2304 295.315 54.2276 295.315C54.2243 295.315 54.2209 295.315 54.2176 295.315C54.2142 295.315 54.211 295.315 54.2077 295.314C54.2055 295.314 54.2035 295.314 54.2014 295.314C54.1865 295.314 54.1715 295.314 54.1566 295.312C54.156 295.312 54.155 295.312 54.1543 295.312C54.1488 295.312 54.1433 295.312 54.1378 295.312C54.1376 295.312 54.1377 295.312 54.1377 295.312C53.8381 295.297 53.5477 295.242 53.2727 295.151H53.2726C53.2691 295.149 53.2657 295.147 53.2622 295.146C53.2587 295.146 53.255 295.144 53.2515 295.143C53.2501 295.143 53.2491 295.141 53.2477 295.141C52.7674 294.977 52.3355 294.7 51.9833 294.337C53.6087 294.416 55.6235 294.491 57.9551 294.537L58.1469 295.315ZM172.8 197.282C172.781 197.279 172.763 197.276 172.745 197.274C172.736 197.187 172.727 197.1 172.719 197.013C172.73 197.044 172.739 197.074 172.749 197.106C172.766 197.164 172.783 197.222 172.8 197.282Z" fill="#8A9EDC"/>
<path d="M34.1384 192.54C32.8568 192.54 31.6682 193.12 30.878 194.129C30.0872 195.138 29.8101 196.432 30.1162 197.676L53.4142 292.294C53.5147 292.7 53.8767 292.983 54.2952 292.983H192.82C193.204 292.983 193.431 292.767 193.533 292.637C193.635 292.506 193.793 292.233 193.701 291.859L170.628 198.156C169.813 194.849 166.867 192.54 163.464 192.54H34.1384ZM192.82 297.643H54.2952C51.7281 297.643 49.5074 295.902 48.8937 293.408L25.5956 198.791C24.9441 196.146 25.5339 193.399 27.2125 191.255C28.8919 189.111 31.4164 187.881 34.1384 187.881H163.464C169.016 187.881 173.82 191.647 175.149 197.041L198.222 290.745C198.634 292.417 198.26 294.154 197.198 295.511C196.137 296.866 194.54 297.643 192.82 297.643Z" fill="#371A45"/>
<path d="M321.051 296.736H315.237L323.354 268.624L329.148 268.685L328.025 272.569L324.859 272.71C325.872 272.778 326.906 272.815 327.948 272.841L326.778 276.895C325.457 276.94 324.135 276.989 322.812 277.039C324.104 277.102 325.398 277.148 326.692 277.189L325.082 282.769C323.85 282.847 322.619 282.926 321.388 283.004C322.596 283.021 323.802 283.027 325.007 283.028L322.89 290.361C321.737 290.409 320.584 290.461 319.431 290.522C320.563 290.552 321.693 290.574 322.825 290.592L321.051 296.736Z" fill="#B9AFBE"/>
<path d="M320.378 299.067H314.564L315.237 296.736H321.051L320.378 299.067ZM329.148 268.685L323.354 268.624L324.025 266.298L329.819 266.359L329.148 268.685Z" fill="#371A45"/>
<path d="M322.825 290.592C321.693 290.574 320.563 290.552 319.431 290.522C320.584 290.461 321.737 290.409 322.89 290.361L322.825 290.592Z" fill="#371A45"/>
<path d="M325.007 283.028C323.802 283.027 322.596 283.02 321.388 283.004C322.619 282.926 323.849 282.846 325.082 282.769L325.007 283.028Z" fill="#371A45"/>
<path d="M326.692 277.189C325.398 277.148 324.104 277.102 322.812 277.04C324.135 276.989 325.457 276.94 326.778 276.895L326.692 277.189Z" fill="#371A45"/>
<path d="M327.948 272.841C326.906 272.815 325.872 272.778 324.859 272.71L328.025 272.569L327.948 272.841Z" fill="#371A45"/>
<path d="M245.099 264.859L207.457 298.856C207.457 298.856 241.005 297.127 256.576 297.171C269.272 297.208 311.738 300.462 311.738 300.462L321.614 266.256L245.099 264.859Z" fill="white"/>
<path d="M255.986 294.842C256.187 294.842 256.385 294.842 256.582 294.842C267.836 294.874 301.557 297.359 310.027 297.995L318.534 268.53L245.976 267.205L213.86 296.211C224.258 295.723 244.582 294.842 255.986 294.842ZM313.449 302.93L311.561 302.785C311.137 302.752 269.034 299.537 256.568 299.502C241.263 299.47 207.911 301.165 207.577 301.182L201.033 301.519L244.222 262.513L324.693 263.982L313.449 302.93Z" fill="#371A45"/>
<path d="M265.323 265.328C265.337 270.505 264.327 275.594 262.39 280.083L261.585 281.942C260.664 284.075 258.353 284.075 257.432 281.942L256.602 280.016C254.685 275.574 253.674 270.532 253.674 265.401V212.47C253.674 210.651 256.247 209.174 259.424 209.174C262.596 209.174 265.167 210.651 265.167 212.47C265.167 212.557 265.163 212.644 265.148 212.731L265.323 265.328Z" fill="#371A45"/>
<path d="M305.599 290.743C302.405 290.691 299.218 290.568 296.028 290.481L286.47 290.099C280.102 289.785 273.725 289.585 267.35 289.398C260.978 289.138 254.602 288.945 248.23 288.745C245.041 288.623 241.867 288.603 238.67 288.545C235.478 288.449 232.286 288.394 229.098 288.265C235.481 288.055 241.849 287.859 248.245 287.865C254.631 287.883 261.01 288.084 267.39 288.255L276.954 288.661C280.142 288.793 283.328 288.971 286.511 289.223L296.062 289.923C299.242 290.198 302.423 290.435 305.599 290.743Z" fill="#371A45"/>
<path d="M308.98 285.105C304.955 285.059 300.938 284.942 296.927 284.751C294.919 284.67 292.915 284.55 290.91 284.447C288.904 284.334 286.903 284.19 284.9 284.109L272.876 283.52C268.864 283.346 264.858 283.114 260.837 283.004C264.849 282.669 268.878 282.601 272.899 282.627C276.922 282.647 280.939 282.776 284.958 282.967C288.979 283.185 292.979 283.518 296.985 283.863C300.99 284.205 304.989 284.618 308.98 285.105Z" fill="#371A45"/>
<path d="M319.211 161.212C319.211 161.212 329.876 184.686 331.674 211.332C333.504 238.467 330.852 277.043 267.702 271.812C245.566 269.978 246.641 260.566 245.819 249.462C244.8 235.703 246.371 219.904 262.437 219.314C291.469 218.248 300.14 211.915 304.266 194.1L319.211 161.212Z" fill="white"/>
<path d="M300.766 269.613C300.764 269.613 300.767 269.613 300.766 269.613V269.613ZM300.784 269.609C302.211 269.206 303.575 268.763 304.879 268.279H304.881C303.578 268.762 302.21 269.206 300.784 269.609Z" fill="#B9AFBE"/>
<path d="M328.523 244.81C329.661 241.673 330.463 238.41 331.012 235.1C330.464 238.412 329.664 241.672 328.526 244.808C328.526 244.808 328.524 244.808 328.523 244.81Z" fill="#B9AFBE"/>
<path d="M324.591 252.885C326.21 250.333 327.502 247.624 328.523 244.81C328.524 244.808 328.526 244.808 328.526 244.808C327.505 247.621 326.215 250.333 324.597 252.883C324.595 252.883 324.594 252.883 324.591 252.885Z" fill="#8C7B94"/>
<path d="M322.44 255.928C322.439 255.928 322.437 255.928 322.436 255.928C323.212 254.944 323.93 253.927 324.591 252.885C324.594 252.883 324.595 252.883 324.597 252.883C323.933 253.927 323.217 254.942 322.44 255.928ZM331.012 235.1C331.042 234.908 331.074 234.713 331.105 234.519C331.074 234.713 331.044 234.908 331.012 235.1Z" fill="#371A45"/>
<path d="M313.864 263.785H313.859C314.216 263.548 314.566 263.31 314.909 263.066C314.91 263.066 314.912 263.066 314.913 263.066C314.57 263.31 314.221 263.548 313.864 263.785Z" fill="#371A45"/>
<path d="M314.909 263.066C317.886 260.955 320.37 258.552 322.436 255.928C322.437 255.928 322.439 255.928 322.44 255.928C320.375 258.55 317.891 260.955 314.913 263.066C314.912 263.066 314.91 263.066 314.909 263.066Z" fill="#371A45"/>
<path d="M246.236 255.395C246.233 255.356 246.229 255.317 246.226 255.277C246.23 255.317 246.233 255.356 246.238 255.395C246.237 255.395 246.238 255.395 246.236 255.395Z" fill="#B9AFBE"/>
<path d="M246.269 255.72C246.258 255.612 246.247 255.504 246.237 255.395C246.238 255.395 246.237 255.395 246.238 255.395C246.247 255.504 246.258 255.612 246.269 255.72Z" fill="#8C7B94"/>
<path d="M246.225 255.276C246.143 254.391 246.081 253.486 246.023 252.564C246.081 253.486 246.145 254.391 246.225 255.276Z" fill="#371A45"/>
<path d="M247.916 262.581H247.914C246.949 260.517 246.52 258.202 246.269 255.72C246.522 258.202 246.95 260.517 247.916 262.581Z" fill="#371A45"/>
<path d="M245.608 245.489C245.579 244.486 245.569 243.481 245.581 242.481C245.569 243.481 245.579 244.486 245.608 245.489Z" fill="#2976B4"/>
<path d="M245.617 245.745C245.614 245.658 245.611 245.574 245.608 245.489C245.611 245.574 245.614 245.66 245.617 245.745Z" fill="#2E568D"/>
<path d="M304.881 268.279H304.879C308.262 267.028 311.242 265.514 313.859 263.785H313.864C311.245 265.514 308.266 267.028 304.881 268.279ZM251.389 266.959C249.777 265.685 248.677 264.212 247.914 262.58H247.916C248.678 264.212 249.777 265.685 251.389 266.959Z" fill="#371A45"/>
<path d="M278.783 272.292C275.315 272.292 271.627 272.136 267.704 271.812C259.509 271.133 254.496 269.416 251.389 266.959C249.777 265.685 248.678 264.212 247.916 262.581C246.95 260.517 246.522 258.202 246.269 255.72C246.258 255.612 246.247 255.504 246.238 255.395C246.234 255.356 246.23 255.316 246.226 255.276C246.145 254.391 246.081 253.486 246.023 252.564C245.957 251.548 245.896 250.512 245.819 249.46C245.729 248.241 245.659 247.007 245.617 245.77C245.617 245.765 245.617 245.762 245.617 245.759C245.617 245.754 245.617 245.75 245.617 245.745C245.614 245.66 245.611 245.574 245.608 245.489C245.579 244.486 245.569 243.48 245.581 242.481C245.581 242.473 245.581 242.467 245.581 242.461C245.581 242.455 245.581 242.446 245.581 242.44C245.652 237.142 246.385 231.97 248.427 227.865C248.456 229.501 248.537 231.137 248.66 232.745C249.481 243.845 248.404 253.262 270.538 255.092C274.463 255.417 278.157 255.572 281.629 255.572C313.445 255.572 326.753 242.467 331.912 226.473C331.776 229.154 331.521 231.851 331.105 234.519C331.074 234.713 331.042 234.908 331.012 235.1C330.463 238.411 329.66 241.674 328.523 244.81C327.502 247.624 326.21 250.333 324.591 252.885C323.93 253.927 323.212 254.944 322.436 255.928C320.37 258.551 317.886 260.955 314.909 263.066C314.566 263.31 314.216 263.548 313.859 263.785C311.242 265.514 308.262 267.028 304.879 268.279C303.575 268.763 302.211 269.206 300.784 269.609C300.778 269.61 300.772 269.612 300.766 269.613C294.659 271.332 287.397 272.292 278.783 272.292Z" fill="#B9AFBE"/>
<path d="M297.29 206.172C297.77 205.167 298.336 204.241 298.89 203.278C299.437 202.317 300.04 201.358 300.599 200.349C301.736 198.339 302.774 196.201 304.001 194.039C304.078 193.901 304.251 193.852 304.388 193.93C304.475 193.978 304.525 194.069 304.531 194.161C304.672 196.662 304.403 199.144 303.802 201.599C303.491 202.822 303.114 204.052 302.547 205.209C301.984 206.364 301.296 207.486 300.371 208.42C299.62 209.175 298.4 209.18 297.644 208.43C297.046 207.837 296.918 206.948 297.261 206.23L297.29 206.172Z" fill="#371A45"/>
<path d="M278.636 274.614C275.09 274.614 271.383 274.454 267.51 274.134C244.925 272.263 244.277 261.923 243.65 251.923C243.601 251.169 243.554 250.406 243.497 249.634C242.547 236.787 244.387 227.967 249.124 222.671C252.314 219.105 256.765 217.191 262.35 216.986C280.822 216.307 290.563 213.461 295.972 207.159C296.811 206.182 298.281 206.073 299.254 206.91C300.23 207.748 300.342 209.22 299.503 210.195C293.152 217.594 282.439 220.91 262.523 221.643C258.188 221.801 254.941 223.153 252.592 225.778C248.746 230.081 247.287 237.771 248.142 249.289C248.2 250.08 248.248 250.861 248.297 251.632C248.912 261.459 249.319 267.951 267.894 269.491C291.073 271.409 307.868 267.414 317.814 257.613C329.988 245.614 330.374 226.661 329.351 211.489C327.601 185.565 317.197 162.407 317.093 162.175C316.561 161.005 317.078 159.624 318.247 159.091C319.419 158.558 320.799 159.076 321.331 160.248C321.774 161.221 332.191 184.416 333.997 211.175C335.087 227.34 334.605 247.604 321.081 260.932C311.852 270.03 297.602 274.614 278.636 274.614Z" fill="#371A45"/>
<path d="M323.017 257.501C322.983 257.501 322.948 257.501 322.915 257.5C321.63 257.445 320.633 256.357 320.689 255.072C322.346 216.763 298.728 210.549 297.721 210.303C296.475 209.998 295.706 208.742 296.004 207.495C296.304 206.248 297.554 205.477 298.798 205.769C299.095 205.841 306.174 207.573 312.981 214.66C319.143 221.076 326.29 233.331 325.341 255.273C325.288 256.525 324.255 257.501 323.017 257.501Z" fill="#371A45"/>
<path d="M127.663 226.867C125.514 224.785 123.417 222.76 121.315 220.725C121.311 220.673 121.315 220.609 121.315 220.551C123.395 220.487 125.482 220.429 127.59 220.365C127.886 222.601 127.864 224.695 127.663 226.867ZM127.082 230.316C126.399 232.98 125.349 235.471 123.65 237.658C122.337 239.338 120.775 240.764 119.102 242.072C114.565 245.622 109.539 248.355 104.35 250.808C104.097 250.925 103.932 250.936 103.72 250.719C103.26 250.237 102.756 249.78 102.276 249.309C102.244 249.283 102.227 249.236 102.175 249.146C102.296 249.013 102.429 248.88 102.561 248.743C105.304 245.892 108.063 243.047 110.805 240.192C111.6 239.375 111.462 238.198 110.53 237.647C109.879 237.261 109.117 237.383 108.523 237.988C106.871 239.692 105.224 241.399 103.579 243.11C102.349 244.382 101.132 245.648 99.8555 246.972C99.2622 246.4 98.6964 245.881 98.1717 245.326C98.0817 245.225 98.1137 244.933 98.193 244.779C99.4742 242.061 100.74 239.332 102.096 236.646C103.435 233.982 105.034 231.465 106.855 229.102C108.56 226.871 110.466 224.843 112.928 223.433C114.507 222.528 116.169 221.823 117.926 221.362C118.085 221.314 118.344 221.441 118.483 221.574C120.653 223.651 122.804 225.733 124.957 227.82C125.604 228.44 126.245 229.076 126.906 229.685C127.102 229.87 127.15 230.046 127.082 230.316ZM117.613 250.093C117.307 252.074 116.407 253.785 115.22 255.369C113.744 257.32 111.917 258.883 109.91 260.361C109.376 257.701 108.847 255.099 108.328 252.552C111.43 250.771 114.464 249.034 117.513 247.285C117.774 248.16 117.763 249.129 117.613 250.093ZM96.1965 241.06C93.7501 240.652 91.2153 240.228 88.6102 239.793C90.7653 236.678 93.1202 233.887 96.6267 232.329C98.1397 231.656 99.9714 231.418 101.115 231.692C99.491 234.798 97.859 237.902 96.1965 241.06ZM130.994 222.914C130.936 221.308 130.904 219.683 130.353 218.125C130.189 217.97 130.036 217.812 129.871 217.658C129.389 217.563 128.914 217.415 128.421 217.368C124.947 217.006 121.506 217.177 118.106 217.992C113.675 219.057 109.762 221.066 106.649 224.455C105.522 225.679 104.526 227.021 103.498 228.329C103.223 228.684 102.996 228.847 102.514 228.71C101.381 228.387 100.205 228.344 99.035 228.461C95.9007 228.789 93.2743 230.215 90.9285 232.233C88.3875 234.427 86.481 237.135 84.7545 239.984C84.0193 241.193 84.5486 242.337 85.9518 242.586C86.8364 242.734 87.7195 242.878 88.6041 243.026C90.7226 243.375 92.835 243.72 94.9474 244.07C94.952 244.132 94.9627 244.164 94.9581 244.196C94.9474 244.239 94.9367 244.286 94.9154 244.329C94.2382 245.536 94.592 246.507 95.62 247.311C95.7314 247.401 95.832 247.513 95.9327 247.613C96.4879 248.154 97.0552 248.7 97.6424 249.262C97.0491 249.881 96.4558 250.421 95.954 251.041C95.6993 251.354 95.498 251.783 95.4446 252.186C95.3501 252.837 95.768 253.425 96.3719 253.669C97.0125 253.935 97.6165 253.828 98.103 253.352C98.7223 252.753 99.3049 252.117 99.9302 251.47C100.729 252.25 101.486 252.985 102.244 253.712C103.112 254.538 103.636 254.623 104.716 254.141C104.912 254.046 105.108 253.971 105.342 253.877C105.394 254.115 105.442 254.306 105.479 254.486C106.062 257.378 106.633 260.276 107.231 263.159C107.512 264.525 108.697 265.013 109.852 264.233C110.895 263.534 111.934 262.803 112.945 262.04C115.274 260.276 117.328 258.237 118.832 255.71C120.711 252.531 121.51 249.176 120.351 245.532C120.304 245.388 120.389 245.118 120.505 245.023C121.527 244.123 122.586 243.264 123.607 242.359C125.917 240.303 127.648 237.823 128.865 234.989C130.523 231.137 131.148 227.089 130.994 222.914Z" fill="#371A45"/>
<path d="M122.003 234.098C119.901 236.243 116.482 236.314 114.348 234.241C112.204 232.175 112.15 228.753 114.226 226.586C116.264 224.461 119.689 224.414 121.84 226.479C123.967 228.535 124.047 232.005 122.003 234.098ZM126.906 229.685C126.245 229.077 125.604 228.44 124.957 227.82C122.804 225.733 120.653 223.651 118.483 221.574C118.344 221.441 118.085 221.314 117.926 221.362C116.169 221.823 114.507 222.528 112.928 223.433C110.466 224.843 108.56 226.871 106.855 229.102C105.034 231.465 103.435 233.982 102.096 236.646C100.74 239.332 99.4742 242.061 98.193 244.779C98.1137 244.933 98.0817 245.225 98.1717 245.326C98.6963 245.881 99.2622 246.4 99.8555 246.972C101.132 245.648 102.349 244.383 103.579 243.11C105.224 241.399 106.871 239.693 108.523 237.988C109.117 237.384 109.879 237.261 110.53 237.648C111.462 238.198 111.6 239.375 110.805 240.192C108.063 243.047 105.304 245.892 102.561 248.743C102.429 248.88 102.296 249.013 102.175 249.146C102.227 249.236 102.244 249.283 102.276 249.309C102.756 249.781 103.26 250.237 103.72 250.719C103.932 250.936 104.097 250.925 104.35 250.808C109.539 248.355 114.565 245.622 119.102 242.072C120.775 240.764 122.337 239.339 123.65 237.658C125.349 235.471 126.399 232.98 127.082 230.316C127.15 230.046 127.102 229.87 126.906 229.685Z" fill="white"/>
<path d="M127.663 226.865C125.512 224.786 123.415 222.76 121.315 220.725C121.312 220.67 121.315 220.611 121.314 220.551C123.395 220.49 125.482 220.431 127.591 220.365C127.889 222.599 127.864 224.693 127.663 226.865Z" fill="#DB2C2C"/>
<path d="M101.118 231.694C99.4895 234.795 97.8591 237.902 96.1997 241.063C93.7487 240.651 91.2138 240.228 88.6103 239.796C90.7669 236.677 93.1203 233.884 96.6267 232.329C98.1397 231.654 99.9699 231.418 101.118 231.694Z" fill="#DB2C2C"/>
<path d="M115.219 255.371C113.741 257.321 111.918 258.886 109.908 260.36C109.373 257.703 108.845 255.101 108.326 252.552C111.43 250.773 114.462 249.036 117.516 247.284C117.775 248.16 117.761 249.127 117.616 250.095C117.308 252.077 116.408 253.787 115.219 255.371Z" fill="#DB2C2C"/>
<path d="M120.109 232.365C119.044 233.457 117.243 233.484 116.126 232.423C114.972 231.332 114.961 229.473 116.1 228.329C117.163 227.248 119.001 227.237 120.087 228.307C121.221 229.42 121.225 231.222 120.109 232.365ZM121.84 226.479C119.689 224.414 116.264 224.461 114.226 226.586C112.15 228.753 112.204 232.175 114.348 234.241C116.482 236.314 119.901 236.243 122.003 234.098C124.047 232.005 123.967 228.535 121.84 226.479Z" fill="#371A45"/>
<path d="M120.107 232.365C119.043 233.457 117.243 233.484 116.123 232.423C114.973 231.332 114.961 229.475 116.099 228.33C117.165 227.25 119 227.237 120.084 228.307C121.217 229.42 121.228 231.222 120.107 232.365Z" fill="#22A7F0"/>
</svg>
