<svg width="85" height="84" viewBox="0 0 85 84" fill="none" xmlns="http://www.w3.org/2000/svg">
<path d="M68.4383 76.5956L47.5958 68.9394L29.4739 81.7713C25.8386 84.3473 20.8302 81.6327 20.9965 77.1836L21.837 54.9948L4.03187 41.7209C0.461438 39.0617 1.495 33.4608 5.77774 32.2451L17.8884 28.8117C17.8909 28.8073 17.8953 28.8093 17.8953 28.8093L27.1429 26.1843L34.2625 5.15322C35.6861 0.935326 41.3321 0.184418 43.8121 3.88256L56.1762 22.3297L78.3833 22.6015C82.8329 22.6559 85.2911 27.7911 82.5409 31.2917L68.818 48.7523L74.2407 66.1545L75.4252 69.9517C76.7449 74.2032 72.6235 78.1276 68.4383 76.5956Z" fill="#FFDA22"/>
<path d="M5.12238 32.4746C5.12287 32.4746 5.12287 32.4746 5.12337 32.4746C5.12287 32.4746 5.12287 32.4746 5.12238 32.4746ZM5.13178 32.4711C5.13228 32.4706 5.13228 32.4707 5.13228 32.4707C5.13228 32.4707 5.13228 32.4706 5.13178 32.4711ZM5.16841 32.4558C5.16841 32.4558 5.16841 32.4558 5.16891 32.4553C5.16841 32.4558 5.16841 32.4558 5.16841 32.4558ZM5.17732 32.4518C5.17781 32.4518 5.17831 32.4518 5.17831 32.4513C5.17781 32.4518 5.17781 32.4518 5.17732 32.4518ZM5.20356 32.4414C5.20455 32.4409 5.20504 32.4409 5.20553 32.4405C5.20504 32.4409 5.20405 32.4409 5.20356 32.4414ZM5.21296 32.4375C5.21395 32.437 5.21494 32.437 5.21643 32.4365C5.21544 32.4365 5.21395 32.4375 5.21296 32.4375ZM5.22286 32.4335C5.22385 32.433 5.22534 32.4325 5.22583 32.4325C5.22534 32.4325 5.22385 32.433 5.22286 32.4335ZM5.2486 32.4231C5.25009 32.4231 5.25157 32.4221 5.25256 32.4216C5.25107 32.4221 5.25009 32.4231 5.2486 32.4231ZM5.25899 32.4192C5.25998 32.4187 5.26147 32.4182 5.26296 32.4177C5.26197 32.4182 5.25998 32.4192 5.25899 32.4192ZM5.26939 32.4152C5.27038 32.4147 5.27187 32.4142 5.27335 32.4137C5.27187 32.4142 5.27038 32.4147 5.26939 32.4152ZM5.28424 32.4098C5.28573 32.4088 5.28771 32.4083 5.28919 32.4078C5.28721 32.4083 5.28573 32.4088 5.28424 32.4098ZM5.29463 32.4053C5.29612 32.4048 5.2981 32.4043 5.29958 32.4038C5.2981 32.4043 5.29612 32.4048 5.29463 32.4053ZM5.30503 32.4014C5.30701 32.4009 5.3085 32.4004 5.31048 32.3994C5.3085 32.4004 5.30701 32.4009 5.30503 32.4014ZM5.31592 32.3974C5.3179 32.3964 5.31988 32.3959 5.32236 32.3949C5.31988 32.3959 5.31839 32.3964 5.31592 32.3974ZM5.33028 32.3919C5.33226 32.3914 5.33424 32.3905 5.33622 32.39C5.33424 32.3905 5.33226 32.3914 5.33028 32.3919ZM5.34117 32.388C5.34315 32.3875 5.34513 32.3865 5.34711 32.386C5.34513 32.3865 5.34315 32.387 5.34117 32.388ZM5.35206 32.384C5.35453 32.383 5.35602 32.3825 5.35849 32.3816C5.35651 32.382 5.35404 32.383 5.35206 32.384ZM5.36245 32.3801C5.36641 32.3786 5.36938 32.3776 5.37284 32.3761C5.36938 32.3776 5.36592 32.3786 5.36245 32.3801ZM5.37681 32.3746C5.37928 32.3741 5.38176 32.3731 5.38423 32.3721C5.38176 32.3731 5.37928 32.3741 5.37681 32.3746ZM5.38819 32.3707C5.39017 32.3697 5.39265 32.3692 5.39463 32.3682C5.39265 32.3692 5.39067 32.3697 5.38819 32.3707ZM5.39908 32.3667C5.40205 32.3657 5.40453 32.3647 5.407 32.3637C5.40453 32.3647 5.40156 32.3657 5.39908 32.3667ZM5.40997 32.3627C5.41343 32.3618 5.4174 32.3603 5.42037 32.3588C5.4169 32.3603 5.41343 32.3613 5.40997 32.3627ZM5.42482 32.3573C5.42729 32.3568 5.42928 32.3558 5.43175 32.3553C5.42928 32.3558 5.4268 32.3568 5.42482 32.3573ZM5.43571 32.3533C5.43818 32.3528 5.44017 32.3518 5.44264 32.3514C5.44066 32.3518 5.43818 32.3528 5.43571 32.3533ZM5.44709 32.3499C5.45006 32.3484 5.45304 32.3474 5.4565 32.3464C5.45304 32.3474 5.45006 32.3484 5.44709 32.3499ZM5.45997 32.3449C5.46294 32.3439 5.46541 32.3434 5.46838 32.3424C5.46541 32.3434 5.46294 32.3439 5.45997 32.3449ZM5.47283 32.3405C5.47531 32.34 5.47729 32.339 5.47977 32.3385C5.47729 32.339 5.47481 32.34 5.47283 32.3405ZM5.48373 32.337C5.4862 32.336 5.48868 32.335 5.49115 32.3345C5.48868 32.335 5.4862 32.336 5.48373 32.337ZM5.49511 32.333C5.49808 32.3321 5.50204 32.3306 5.50551 32.3296C5.50204 32.3306 5.49857 32.3321 5.49511 32.333ZM5.50848 32.3286C5.51095 32.3276 5.51392 32.3266 5.51689 32.3256C5.51392 32.3266 5.51095 32.3276 5.50848 32.3286ZM5.52036 32.3246C5.52283 32.3236 5.5258 32.3226 5.52828 32.3217C5.5258 32.3226 5.52333 32.3236 5.52036 32.3246ZM5.53174 32.3207C5.53471 32.3197 5.53719 32.3187 5.54016 32.3182C5.53719 32.3187 5.53471 32.3197 5.53174 32.3207ZM5.54313 32.3167C5.54709 32.3157 5.55055 32.3147 5.55402 32.3132C5.55055 32.3142 5.54709 32.3157 5.54313 32.3167ZM5.55698 32.3123C5.55995 32.3113 5.56243 32.3108 5.5654 32.3098C5.56243 32.3108 5.55995 32.3113 5.55698 32.3123ZM5.56887 32.3083C5.57184 32.3073 5.57431 32.3068 5.57728 32.3058C5.57481 32.3068 5.57184 32.3078 5.56887 32.3083ZM5.58025 32.3048C5.58372 32.3038 5.58718 32.3028 5.59064 32.3014C5.58668 32.3028 5.58372 32.3038 5.58025 32.3048ZM5.59163 32.3014C5.5951 32.2999 5.59906 32.2989 5.60253 32.2974C5.59906 32.2989 5.59559 32.2999 5.59163 32.3014ZM5.60648 32.2964C5.60896 32.2954 5.61143 32.2949 5.61391 32.2939C5.61143 32.2949 5.60896 32.2954 5.60648 32.2964ZM5.61837 32.2925C5.62084 32.292 5.62332 32.291 5.62579 32.2905C5.62332 32.291 5.62084 32.292 5.61837 32.2925ZM5.62926 32.289C5.63322 32.288 5.63668 32.287 5.64064 32.2855C5.63668 32.287 5.63322 32.288 5.62926 32.289ZM5.64262 32.285C5.64559 32.284 5.64856 32.283 5.65153 32.2821C5.64906 32.283 5.64559 32.284 5.64262 32.285ZM5.65549 32.2811C5.65797 32.2801 5.66044 32.2796 5.66292 32.2786C5.66044 32.2796 5.65846 32.2801 5.65549 32.2811ZM5.66737 32.2776C5.67034 32.2766 5.67282 32.2756 5.67628 32.2746C5.67282 32.2756 5.67034 32.2766 5.66737 32.2776ZM5.67826 32.2741C5.68222 32.2731 5.68618 32.2717 5.68964 32.2707C5.68618 32.2717 5.68172 32.2731 5.67826 32.2741ZM5.69212 32.2697C5.69509 32.2692 5.69806 32.2682 5.70103 32.2672C5.69806 32.2682 5.69509 32.2692 5.69212 32.2697ZM5.70499 32.2662C5.70747 32.2652 5.70994 32.2647 5.71291 32.2637C5.70994 32.2647 5.70747 32.2652 5.70499 32.2662ZM5.71638 32.2628C5.71984 32.2618 5.7233 32.2608 5.72677 32.2598C5.7233 32.2608 5.71984 32.2618 5.71638 32.2628ZM5.72776 32.2593C5.73172 32.2583 5.73518 32.2573 5.73914 32.2558C5.73518 32.2573 5.73172 32.2583 5.72776 32.2593ZM5.74261 32.2548C5.74558 32.2543 5.74806 32.2533 5.75103 32.2529C5.74806 32.2533 5.74558 32.2543 5.74261 32.2548ZM5.75449 32.2514C5.75746 32.2509 5.75994 32.2499 5.76291 32.2494C5.75994 32.2499 5.75697 32.2509 5.75449 32.2514ZM5.76637 32.2484C5.76983 32.2469 5.7738 32.2459 5.77776 32.2449C5.7738 32.2459 5.76983 32.2469 5.76637 32.2484Z" fill="#D5D5FE"/>
<path d="M17.8954 28.8092C17.8954 28.8092 17.8949 28.8087 17.8939 28.8087C17.8944 28.8087 17.8954 28.8092 17.8954 28.8092ZM22.5192 27.497L27.143 26.1842L29.019 20.6427L27.143 26.1842L22.5192 27.497Z" fill="white"/>
<path d="M29.019 20.6427L29.5936 18.9444L29.019 20.6427Z" fill="#C3BAC7"/>
<path d="M31.2861 13.9458L34.2626 5.15311C34.5858 4.19529 35.1264 3.41666 35.7986 2.8281C35.1269 3.41666 34.5858 4.19578 34.2626 5.15311L31.2861 13.9458ZM37.6132 1.7881C38.178 1.59802 38.772 1.501 39.3675 1.501C39.4764 1.501 39.5853 1.50446 39.6942 1.5109C39.5853 1.50446 39.4764 1.501 39.3675 1.501C38.772 1.501 38.178 1.59802 37.6132 1.7881Z" fill="white"/>
<path d="M29.5937 18.9443L29.8778 18.1058L29.5937 18.9443Z" fill="#C3BAC7"/>
<path d="M35.7986 2.82812C36.3346 2.35837 36.9544 2.00988 37.6132 1.78812C36.9544 2.00988 36.3346 2.35837 35.7986 2.82812Z" fill="#C3BAC7"/>
<path d="M30.1911 17.1802L31.2861 13.9459L30.1911 17.1802Z" fill="#EAE7EB"/>
<path d="M29.8778 18.1058L30.1912 17.1802L29.8778 18.1058Z" fill="#C3BAC7"/>
<path d="M78.0463 22.5969L76.0202 22.5722L78.0463 22.5969Z" fill="#D5D5FE"/>
<path d="M76.0203 22.5721L75.4579 22.5652L76.0203 22.5721Z" fill="#C3BAC7"/>
<path d="M6.66875 34.6947C6.40739 33.7502 6.42967 32.8078 6.78904 31.9583L17.8884 28.8116C17.8894 28.8092 17.8914 28.8087 17.8929 28.8087C17.8934 28.8087 17.8934 28.8087 17.8939 28.8087C17.8949 28.8087 17.8954 28.8092 17.8954 28.8092L22.5191 27.4969L27.1429 26.1842L29.019 20.6426L29.5937 18.9443L29.8778 18.1058L30.1912 17.1801L31.2861 13.9458L34.2625 5.1531C34.5858 4.19577 35.1268 3.41665 35.7985 2.82809C36.3346 2.35834 36.9543 2.00985 37.6132 1.78809C38.178 1.59801 38.772 1.50099 39.3675 1.50099C39.4764 1.50099 39.5853 1.50445 39.6942 1.51089C41.2593 1.60444 42.7998 2.37269 43.8121 3.88244L56.1762 22.3296L73.666 22.5434L75.4579 22.5652L76.0202 22.5722L78.0463 22.5969C78.7615 23.4973 79.2818 24.3146 79.462 25.2001C79.2719 25.1778 79.0768 25.1655 78.8783 25.163L56.6712 24.8912L44.3071 6.44456C43.224 4.82937 41.538 4.06312 39.8625 4.06312C37.7018 4.06312 35.5594 5.33922 34.7575 7.71473L27.6379 28.7463L18.3904 31.3708C18.3904 31.3708 18.3894 31.3703 18.3879 31.3703C18.3864 31.3703 18.3849 31.3713 18.3834 31.3737L6.66875 34.6947ZM3.40274 33.6408C3.40423 33.6399 3.40522 33.6389 3.40621 33.6379C3.40522 33.6389 3.40423 33.6399 3.40274 33.6408ZM3.40819 33.6354C3.87893 33.1567 4.45264 32.7578 5.12237 32.4746C5.12287 32.4746 5.12287 32.4746 5.12336 32.4746C5.12633 32.4731 5.12881 32.4722 5.13178 32.4712C5.13227 32.4707 5.13227 32.4707 5.13227 32.4707C5.14415 32.4657 5.15653 32.4608 5.16841 32.4558C5.16841 32.4558 5.16841 32.4558 5.1689 32.4553C5.17187 32.4543 5.17435 32.4533 5.17732 32.4519C5.17781 32.4519 5.17781 32.4519 5.17831 32.4514C5.18672 32.4479 5.19514 32.4449 5.20355 32.4415C5.20405 32.441 5.20504 32.441 5.20553 32.4405C5.20801 32.4395 5.21048 32.4385 5.21296 32.4375C5.21395 32.4375 5.21543 32.4365 5.21642 32.4365C5.2184 32.4355 5.22038 32.4345 5.22286 32.4335C5.22385 32.433 5.22533 32.4326 5.22583 32.4326C5.23375 32.4291 5.24117 32.4266 5.2486 32.4231C5.25008 32.4231 5.25107 32.4222 5.25256 32.4217C5.25454 32.4212 5.25652 32.4202 5.25899 32.4192C5.25998 32.4192 5.26196 32.4182 5.26295 32.4177C5.26493 32.4167 5.26691 32.4162 5.26939 32.4152C5.27038 32.4147 5.27186 32.4142 5.27335 32.4137C5.27731 32.4123 5.28028 32.4113 5.28424 32.4098C5.28572 32.4088 5.28721 32.4083 5.28919 32.4078C5.29117 32.4068 5.29265 32.4063 5.29463 32.4053C5.29612 32.4048 5.2981 32.4043 5.29958 32.4038C5.30156 32.4029 5.30354 32.4024 5.30503 32.4014C5.30701 32.4009 5.30849 32.4004 5.31047 32.3994C5.31196 32.3989 5.31443 32.3979 5.31592 32.3974C5.31839 32.3964 5.31988 32.3959 5.32235 32.3949C5.32483 32.3939 5.3273 32.393 5.33027 32.392C5.33225 32.3915 5.33423 32.3905 5.33621 32.39C5.33819 32.389 5.33968 32.3885 5.34116 32.388C5.34314 32.387 5.34512 32.3865 5.3471 32.386C5.34859 32.385 5.35057 32.3845 5.35205 32.384C5.35403 32.3831 5.35651 32.3821 5.35849 32.3816C5.35997 32.3811 5.36146 32.3806 5.36245 32.3801C5.36591 32.3786 5.36938 32.3776 5.37284 32.3761C5.37383 32.3756 5.37532 32.3751 5.3768 32.3746C5.37928 32.3741 5.38175 32.3732 5.38423 32.3722C5.38571 32.3717 5.3867 32.3712 5.38819 32.3707C5.39066 32.3697 5.39264 32.3692 5.39462 32.3682C5.39611 32.3677 5.39809 32.3672 5.39908 32.3667C5.40155 32.3657 5.40452 32.3647 5.407 32.3637C5.40799 32.3633 5.40898 32.3633 5.40997 32.3628C5.41343 32.3613 5.4169 32.3603 5.42036 32.3588C5.42185 32.3583 5.42333 32.3578 5.42482 32.3573C5.4268 32.3568 5.42927 32.3558 5.43175 32.3553C5.43274 32.3548 5.43472 32.3538 5.43571 32.3534C5.43818 32.3529 5.44066 32.3519 5.44264 32.3514C5.44412 32.3509 5.44561 32.3499 5.44709 32.3499C5.45006 32.3484 5.45303 32.3474 5.4565 32.3464C5.45749 32.3459 5.45897 32.3454 5.45996 32.3449C5.46293 32.3439 5.46541 32.3435 5.46838 32.3425C5.46937 32.342 5.47135 32.341 5.47283 32.3405C5.47481 32.34 5.47729 32.339 5.47976 32.3385C5.48125 32.338 5.48224 32.3375 5.48372 32.337C5.4862 32.336 5.48867 32.335 5.49115 32.3345C5.49263 32.334 5.49362 32.3336 5.49511 32.3331C5.49857 32.3321 5.50204 32.3306 5.5055 32.3296C5.50649 32.3291 5.50748 32.3291 5.50847 32.3286C5.51095 32.3276 5.51392 32.3266 5.51689 32.3256C5.51837 32.3251 5.51936 32.3251 5.52035 32.3246C5.52332 32.3237 5.5258 32.3227 5.52827 32.3217C5.52926 32.3217 5.53075 32.3212 5.53174 32.3207C5.53471 32.3197 5.53718 32.3187 5.54015 32.3182C5.54114 32.3177 5.54213 32.3172 5.54312 32.3167C5.54708 32.3157 5.55055 32.3142 5.55401 32.3133C5.555 32.3133 5.55599 32.3128 5.55698 32.3123C5.55995 32.3113 5.56243 32.3108 5.5654 32.3098C5.56639 32.3093 5.56787 32.3088 5.56886 32.3083C5.57183 32.3078 5.5748 32.3068 5.57728 32.3058C5.57827 32.3053 5.57926 32.3053 5.58025 32.3048C5.58371 32.3039 5.58668 32.3029 5.59064 32.3014C5.59064 32.3014 5.59114 32.3014 5.59163 32.3014C5.59559 32.2999 5.59906 32.2989 5.60252 32.2974C5.60401 32.2974 5.605 32.2969 5.60648 32.2964C5.60896 32.2954 5.61143 32.2949 5.61391 32.294C5.61539 32.2935 5.61688 32.293 5.61836 32.2925C5.62084 32.292 5.62331 32.291 5.62579 32.2905C5.62678 32.29 5.62826 32.2895 5.62925 32.289C5.63321 32.288 5.63668 32.287 5.64064 32.2855C5.64113 32.2855 5.64212 32.2855 5.64262 32.285C5.64559 32.2841 5.64905 32.2831 5.65153 32.2821C5.65301 32.2821 5.6545 32.2816 5.65549 32.2811C5.65846 32.2801 5.66044 32.2796 5.66291 32.2786C5.6644 32.2781 5.66588 32.2781 5.66737 32.2776C5.67034 32.2766 5.67281 32.2756 5.67628 32.2746C5.67677 32.2746 5.67776 32.2742 5.67826 32.2742C5.68172 32.2732 5.68618 32.2717 5.68964 32.2707C5.69063 32.2702 5.69162 32.2702 5.69212 32.2697C5.69509 32.2692 5.69806 32.2682 5.70103 32.2672C5.70251 32.2667 5.7035 32.2662 5.70499 32.2662C5.70746 32.2652 5.70994 32.2647 5.71291 32.2638C5.7139 32.2633 5.71538 32.2628 5.71637 32.2628C5.71984 32.2618 5.7233 32.2608 5.72677 32.2598C5.72726 32.2598 5.72726 32.2593 5.72776 32.2593C5.73172 32.2583 5.73518 32.2573 5.73914 32.2558C5.74013 32.2558 5.74162 32.2553 5.74261 32.2548C5.74558 32.2544 5.74805 32.2534 5.75102 32.2529C5.75201 32.2524 5.7535 32.2519 5.75449 32.2514C5.75696 32.2509 5.75993 32.2499 5.7629 32.2494C5.76389 32.2489 5.76538 32.2484 5.76637 32.2484C5.76983 32.2469 5.77379 32.2459 5.77775 32.2449L6.01684 32.1771L5.77924 32.2449C4.82141 32.5167 4.02595 33.0072 3.40819 33.6354Z" fill="#FFF4BC"/>
<path d="M75.4598 70.068C75.4485 70.0294 75.4371 69.9903 75.4252 69.9517L75.0193 68.6503L75.0119 68.6275L75.4252 69.9517C75.4371 69.9908 75.449 70.0294 75.4598 70.068Z" fill="#D5D5FE"/>
<path d="M75.6703 71.7134L75.2312 70.3056C75.2832 70.118 75.3247 69.9264 75.3554 69.7314L75.4238 69.9512L75.0193 68.6503L75.4252 69.9517C75.4371 69.9903 75.4485 70.0294 75.4599 70.068C75.6203 70.6269 75.6846 71.1788 75.6703 71.7134Z" fill="#FFF4BC"/>
<path d="M20.9956 77.2058C20.9956 77.2053 20.9956 77.2048 20.9956 77.2048C20.9956 77.2048 20.9956 77.2053 20.9956 77.2058ZM20.9961 77.1958C20.9961 77.1952 20.9961 77.1942 20.9961 77.1937C20.9961 77.1942 20.9961 77.1952 20.9961 77.1958Z" fill="#D5D5FE"/>
<path d="M21.4945 79.6715C21.153 78.9439 20.9668 78.1167 20.9956 77.2158C20.9956 77.2123 20.9956 77.2094 20.9956 77.2059C20.9956 77.2054 20.9956 77.2049 20.9956 77.2049C20.9961 77.202 20.996 77.199 20.996 77.196C20.996 77.1955 20.996 77.1945 20.996 77.194C20.996 77.1906 20.9965 77.1871 20.9965 77.1836L21.7564 57.1272L21.7583 57.1287L20.9975 77.1822C20.9926 77.3168 20.9926 77.4499 20.9965 77.5816C20.9965 77.5856 20.997 77.59 20.997 77.594C20.997 77.59 20.9965 77.5856 20.9965 77.5816C20.9926 77.4499 20.9926 77.3168 20.9975 77.1822L21.0248 76.4753C21.1629 76.8822 21.348 77.2628 21.5722 77.6133L21.4945 79.6715Z" fill="#FFF4BC"/>
<path d="M75.012 68.6274L74.8328 68.0532L74.2408 66.1544L69.2492 50.1362L74.2423 66.1539L75.012 68.6274ZM72.3256 44.2888L82.5409 31.2916C83.4567 30.1258 83.7953 28.7789 83.6745 27.4989C83.7953 28.7794 83.4577 30.1263 82.5419 31.2921L72.3256 44.2888ZM2.27866 39.4987C1.74555 38.2255 1.74258 36.7975 2.20936 35.5332C1.74258 36.7975 1.74604 38.225 2.27866 39.4987ZM6.0174 32.1771L6.7901 31.9564C6.7896 31.9569 6.7896 31.9573 6.7891 31.9583L6.0174 32.1771ZM82.3939 24.4685C81.5801 23.5112 80.4248 22.8261 79.0393 22.6469C79.0388 22.6469 79.0383 22.6469 79.0378 22.6469C79.0349 22.6464 79.0324 22.6464 79.0299 22.6459C79.0289 22.6459 79.0284 22.6459 79.0274 22.6454C79.0225 22.6449 79.017 22.6444 79.0121 22.6434C79.0116 22.6434 79.0111 22.6434 79.0106 22.6434C79.0086 22.6434 79.0061 22.6429 79.0037 22.6424C79.0027 22.6424 79.0007 22.6424 78.9997 22.6419C78.9977 22.6419 78.9953 22.6414 78.9933 22.6414C78.9918 22.6414 78.9903 22.641 78.9888 22.641C78.9854 22.6405 78.9819 22.64 78.9784 22.6395C78.9769 22.6395 78.975 22.639 78.973 22.639C78.971 22.639 78.9695 22.6385 78.9675 22.6385C78.9656 22.638 78.9636 22.638 78.9616 22.6375C78.9601 22.6375 78.9581 22.6375 78.9566 22.637C78.9532 22.6365 78.9502 22.6365 78.9467 22.636C78.9453 22.636 78.9443 22.6355 78.9428 22.6355C78.9403 22.635 78.9378 22.635 78.9354 22.6345C78.9339 22.6345 78.9324 22.6345 78.9309 22.634C78.9284 22.634 78.9255 22.6335 78.923 22.6335C78.922 22.633 78.921 22.633 78.92 22.633C78.9165 22.6325 78.9126 22.632 78.9091 22.632C78.9081 22.6315 78.9072 22.6315 78.9062 22.6315C78.9032 22.6311 78.9002 22.631 78.8972 22.6306C78.8963 22.6306 78.8953 22.6306 78.8943 22.6306C78.8908 22.6301 78.8873 22.6296 78.8839 22.6291C78.8834 22.6291 78.8834 22.6291 78.8829 22.6291C78.8789 22.6286 78.875 22.6286 78.8715 22.6281C78.8705 22.6281 78.8695 22.6281 78.869 22.6276C78.8656 22.6276 78.8626 22.6271 78.8596 22.6271C78.8586 22.6266 78.8577 22.6266 78.8567 22.6266C78.8492 22.6261 78.8413 22.6251 78.8334 22.6246C78.8329 22.6241 78.8319 22.6241 78.8314 22.6241C78.8279 22.6241 78.8245 22.6236 78.821 22.6231C78.8205 22.6231 78.82 22.6231 78.8195 22.6231C78.8116 22.6226 78.8032 22.6217 78.7953 22.6212C78.7948 22.6212 78.7948 22.6212 78.7943 22.6212C78.7819 22.6202 78.7695 22.6187 78.7572 22.6182C78.7567 22.6177 78.7567 22.6177 78.7562 22.6177C78.7438 22.6167 78.7314 22.6162 78.7186 22.6152C78.7101 22.6147 78.7017 22.6137 78.6933 22.6132H78.6928C78.6804 22.6122 78.6676 22.6117 78.6547 22.6108C78.6418 22.6103 78.629 22.6093 78.6166 22.6088H78.6161C78.6032 22.6083 78.5908 22.6073 78.578 22.6068H78.5775C78.5691 22.6063 78.5606 22.6063 78.5522 22.6058H78.5517C78.5478 22.6053 78.5433 22.6053 78.5394 22.6053H78.5389C78.5304 22.6048 78.522 22.6043 78.5136 22.6043C78.5131 22.6043 78.5131 22.6043 78.5126 22.6043C78.5087 22.6043 78.5047 22.6038 78.5007 22.6038H78.5003C78.4918 22.6033 78.4834 22.6033 78.475 22.6028C78.4745 22.6028 78.4745 22.6028 78.4735 22.6028C78.4656 22.6028 78.4572 22.6023 78.4488 22.6023H78.4483C78.4443 22.6023 78.4404 22.6023 78.4364 22.6018C78.4359 22.6018 78.4354 22.6018 78.4349 22.6018C78.4265 22.6018 78.4186 22.6019 78.4102 22.6014C78.4097 22.6014 78.4092 22.6014 78.4087 22.6014C78.4052 22.6014 78.4013 22.6014 78.3978 22.6014C78.3968 22.6014 78.3963 22.6014 78.3958 22.6014C78.3918 22.6014 78.3874 22.6014 78.3834 22.6014L78.0463 22.5969C78.0458 22.5964 78.0453 22.5954 78.0449 22.5949L78.3834 22.5999C80.0605 22.6207 81.4549 23.3637 82.3939 24.4685Z" fill="#5F55BC"/>
<path d="M26.1361 80.1095C24.3061 80.1095 22.5597 79.1551 21.5722 77.6132L22.3325 57.5563L21.7583 57.1286L21.839 54.9962L4.03338 41.7208C3.20822 41.107 2.62907 40.3362 2.27861 39.4987C1.74599 38.2251 1.74252 36.7975 2.20931 35.5333C2.4672 34.8348 2.86815 34.1864 3.40275 33.6409C1.84845 35.2278 1.42424 37.6865 2.37216 39.7036C2.48898 37.5539 3.86855 35.4892 6.27276 34.8066L6.66876 34.6947C7.04447 36.0525 8.00724 37.4143 9.40116 38.5102C12.8751 41.2366 18.5997 45.0021 22.6543 47.5969C25.4703 49.3992 26.9509 52.7009 26.4198 56.002C25.4461 62.0529 25.2862 71.0921 26.8346 72.584C27.0083 72.7513 27.2583 72.8285 27.5741 72.8285C31.5316 72.8276 45.6955 60.6501 45.6955 60.6501C45.6955 60.6501 60.6762 69.2482 65.2822 69.2472C65.848 69.2467 66.2583 69.117 66.4638 68.826C67.7339 67.0271 65.7084 57.7969 63.6046 52.0514C62.5246 49.1002 63.1834 45.7956 65.3099 43.4815C68.5428 39.9625 73.2863 34.8026 76.3499 31.4847C79.0224 28.5904 79.7857 26.7851 79.462 25.2001C81.4316 25.4288 82.9448 26.6777 83.6868 28.284C83.8318 25.6189 81.9404 23.0226 79.0392 22.6469C80.4247 22.8261 81.5801 23.5112 82.3939 24.4685C83.1166 25.3189 83.5695 26.3837 83.6744 27.4989C83.7952 28.779 83.4566 30.1259 82.5409 31.2916L72.3256 44.2888L68.8175 48.7517L69.2491 50.1363L74.2407 66.1545L74.8327 68.0533L74.2407 66.1545L69.5303 51.0376L69.313 51.3139L74.7357 68.7161L75.2312 70.3055C74.605 72.5781 72.4914 74.273 70.0589 74.273C69.4486 74.273 68.818 74.166 68.1864 73.9354L47.3419 66.2772L29.2224 79.1116C28.2498 79.7996 27.1796 80.1095 26.1361 80.1095ZM3.40622 33.6379C3.40721 33.6369 3.4077 33.6364 3.4082 33.6354C3.4077 33.6364 3.40721 33.6369 3.40622 33.6379ZM6.01685 32.1772H6.01734L6.78905 31.9584L6.01685 32.1772ZM79.0378 22.6469C79.0348 22.6464 79.0323 22.6464 79.0298 22.6459C79.0323 22.6464 79.0348 22.6464 79.0378 22.6469ZM79.0274 22.6454C79.0224 22.6449 79.017 22.6445 79.012 22.6435C79.017 22.6445 79.0224 22.6449 79.0274 22.6454ZM79.0105 22.6435C79.0081 22.6435 79.0061 22.643 79.0036 22.6425C79.0061 22.643 79.0086 22.6435 79.0105 22.6435ZM78.9996 22.642C78.9977 22.642 78.9957 22.6415 78.9932 22.6415C78.9952 22.6415 78.9977 22.642 78.9996 22.642ZM78.9887 22.641C78.9853 22.6405 78.9818 22.64 78.9784 22.6395C78.9818 22.64 78.9853 22.6405 78.9887 22.641ZM78.9729 22.639C78.9714 22.639 78.9694 22.6385 78.9675 22.6385C78.9694 22.6385 78.9709 22.639 78.9729 22.639ZM78.9615 22.6375C78.96 22.6375 78.9581 22.6375 78.9566 22.637C78.9581 22.6375 78.96 22.6375 78.9615 22.6375ZM78.9467 22.636C78.9452 22.636 78.9442 22.6355 78.9427 22.6355C78.9442 22.6355 78.9452 22.636 78.9467 22.636ZM78.9353 22.6345C78.9338 22.6345 78.9323 22.6346 78.9308 22.6341C78.9323 22.6346 78.9338 22.6345 78.9353 22.6345ZM78.9229 22.6336C78.9219 22.6331 78.9209 22.6331 78.9199 22.6331C78.9209 22.6331 78.9219 22.6331 78.9229 22.6336ZM78.9091 22.6321C78.9081 22.6316 78.9071 22.6316 78.9061 22.6316C78.9071 22.6316 78.9081 22.6316 78.9091 22.6321ZM78.8972 22.6306C78.8962 22.6306 78.8952 22.6306 78.8942 22.6306C78.8952 22.6306 78.8962 22.6306 78.8972 22.6306ZM78.8838 22.6291C78.8833 22.6291 78.8833 22.6291 78.8828 22.6291C78.8833 22.6291 78.8833 22.6291 78.8838 22.6291ZM78.8714 22.6281C78.8704 22.6281 78.8695 22.6281 78.869 22.6276C78.8695 22.6281 78.8704 22.6281 78.8714 22.6281ZM78.8596 22.6271C78.8586 22.6266 78.8576 22.6266 78.8566 22.6266C78.8576 22.6266 78.8586 22.6266 78.8596 22.6271ZM78.8333 22.6246C78.8328 22.6242 78.8318 22.6242 78.8313 22.6242C78.8318 22.6242 78.8328 22.6242 78.8333 22.6246ZM78.8209 22.6232C78.8204 22.6232 78.82 22.6232 78.8195 22.6232C78.82 22.6232 78.8204 22.6232 78.8209 22.6232ZM78.7952 22.6212C78.7947 22.6212 78.7947 22.6212 78.7942 22.6212C78.7947 22.6212 78.7947 22.6212 78.7952 22.6212ZM78.7571 22.6182C78.7566 22.6177 78.7566 22.6177 78.7561 22.6177C78.7566 22.6177 78.7566 22.6177 78.7571 22.6182ZM78.6932 22.6133C78.6927 22.6133 78.6932 22.6133 78.6927 22.6133H78.6932ZM78.6165 22.6088H78.616H78.6165ZM78.5779 22.6068C78.5779 22.6068 78.5779 22.6068 78.5774 22.6068H78.5779ZM78.5522 22.6058H78.5517H78.5522ZM78.5393 22.6053C78.5393 22.6053 78.5393 22.6053 78.5388 22.6053H78.5393ZM78.5135 22.6044C78.5135 22.6044 78.5131 22.6044 78.5126 22.6044C78.5131 22.6044 78.5131 22.6044 78.5135 22.6044ZM78.5007 22.6039H78.5002H78.5007ZM78.4749 22.6029C78.4744 22.6029 78.4744 22.6029 78.4735 22.6029C78.4744 22.6029 78.4744 22.6029 78.4749 22.6029ZM78.4487 22.6024C78.4482 22.6024 78.4482 22.6024 78.4482 22.6024H78.4487ZM78.4363 22.6019C78.4358 22.6019 78.4353 22.6019 78.4348 22.6019C78.4353 22.6019 78.4358 22.6019 78.4363 22.6019ZM78.4101 22.6014C78.4096 22.6014 78.4091 22.6014 78.4086 22.6014C78.4091 22.6014 78.4096 22.6014 78.4101 22.6014ZM78.3977 22.6014C78.3972 22.6014 78.3962 22.6014 78.3957 22.6014C78.3962 22.6014 78.3967 22.6014 78.3977 22.6014Z" fill="#B9972E"/>
<path d="M79.0392 22.6469C79.0387 22.6469 79.0382 22.6469 79.0378 22.6469C79.0382 22.6469 79.0387 22.6469 79.0392 22.6469ZM79.0298 22.6459C79.0288 22.6459 79.0284 22.6459 79.0274 22.6454C79.0284 22.6459 79.0288 22.6459 79.0298 22.6459ZM79.012 22.6434C79.0115 22.6434 79.011 22.6434 79.0105 22.6434C79.011 22.6434 79.0115 22.6434 79.012 22.6434ZM79.0036 22.6424C79.0021 22.6424 79.0011 22.6424 78.9996 22.6419C79.0006 22.6424 79.0026 22.6424 79.0036 22.6424ZM78.9932 22.6414C78.9917 22.6409 78.9902 22.6409 78.9887 22.6409C78.9902 22.6409 78.9917 22.6414 78.9932 22.6414ZM78.9784 22.6394C78.9764 22.6394 78.9749 22.6389 78.9729 22.6389C78.9749 22.6389 78.9769 22.6394 78.9784 22.6394ZM78.9675 22.6384C78.9655 22.6379 78.9635 22.6379 78.9615 22.6374C78.9635 22.6379 78.9655 22.6379 78.9675 22.6384ZM78.9566 22.637C78.9531 22.6365 78.9501 22.6365 78.9467 22.636C78.9501 22.6365 78.9531 22.6365 78.9566 22.637ZM78.9427 22.6355C78.9407 22.6355 78.9378 22.635 78.9353 22.6345C78.9378 22.635 78.9402 22.635 78.9427 22.6355ZM78.9308 22.634C78.9284 22.634 78.9254 22.6335 78.9229 22.6335C78.9254 22.6335 78.9284 22.634 78.9308 22.634ZM78.9199 22.633C78.9165 22.6325 78.9125 22.632 78.9091 22.632C78.9125 22.632 78.9165 22.6325 78.9199 22.633ZM78.9061 22.6315C78.9031 22.631 78.9001 22.631 78.8972 22.6305C78.9001 22.631 78.9031 22.631 78.9061 22.6315ZM78.8942 22.6305C78.8907 22.63 78.8868 22.6295 78.8838 22.629C78.8873 22.6295 78.8907 22.63 78.8942 22.6305ZM78.8828 22.629C78.8789 22.6285 78.8749 22.6285 78.8714 22.628C78.8749 22.6285 78.8789 22.6285 78.8828 22.629ZM78.869 22.6275C78.8655 22.6275 78.8625 22.6271 78.8596 22.6271C78.8625 22.6271 78.8655 22.6275 78.869 22.6275ZM78.8566 22.6266C78.8487 22.6256 78.8412 22.6251 78.8333 22.6246C78.8412 22.6251 78.8492 22.6261 78.8566 22.6266ZM78.8313 22.6241C78.8279 22.6241 78.8244 22.6236 78.8209 22.6231C78.8244 22.6236 78.8279 22.6241 78.8313 22.6241ZM78.8195 22.6231C78.8115 22.6226 78.8031 22.6216 78.7952 22.6211C78.8031 22.6216 78.8115 22.6226 78.8195 22.6231ZM78.7942 22.6211C78.7823 22.6201 78.7695 22.6186 78.7571 22.6181C78.7695 22.6186 78.7818 22.6201 78.7942 22.6211ZM78.7561 22.6176C78.7437 22.6167 78.7313 22.6162 78.7185 22.6152C78.7313 22.6162 78.7437 22.6167 78.7561 22.6176ZM78.7185 22.6152C78.7101 22.6142 78.7017 22.6137 78.6932 22.6132C78.7017 22.6137 78.7101 22.6147 78.7185 22.6152ZM78.6927 22.6132C78.6799 22.6122 78.6675 22.6117 78.6546 22.6107C78.6675 22.6117 78.6804 22.6122 78.6927 22.6132ZM78.6546 22.6107C78.6418 22.6102 78.6294 22.6092 78.6165 22.6087C78.6289 22.6092 78.6418 22.6102 78.6546 22.6107ZM78.616 22.6087C78.6031 22.6082 78.5908 22.6073 78.5779 22.6068C78.5908 22.6073 78.6031 22.6082 78.616 22.6087ZM78.5774 22.6068C78.569 22.6063 78.5606 22.6063 78.5522 22.6058C78.5606 22.6063 78.569 22.6063 78.5774 22.6068ZM78.5517 22.6058C78.5477 22.6053 78.5437 22.6053 78.5393 22.6053C78.5432 22.6053 78.5477 22.6053 78.5517 22.6058ZM78.5388 22.6053C78.5304 22.6048 78.522 22.6043 78.5135 22.6043C78.522 22.6043 78.5304 22.6048 78.5388 22.6053ZM78.5126 22.6043C78.5086 22.6043 78.5046 22.6038 78.5007 22.6038C78.5046 22.6038 78.5086 22.6043 78.5126 22.6043ZM78.5002 22.6038C78.4918 22.6033 78.4833 22.6033 78.4749 22.6028C78.4833 22.6033 78.4918 22.6033 78.5002 22.6038ZM78.4735 22.6028C78.4655 22.6028 78.4571 22.6023 78.4487 22.6023C78.4571 22.6023 78.4655 22.6028 78.4735 22.6028ZM78.4482 22.6023C78.4443 22.6023 78.4403 22.6023 78.4363 22.6018C78.4403 22.6023 78.4443 22.6023 78.4482 22.6023ZM78.4348 22.6018C78.4269 22.6018 78.418 22.6018 78.4101 22.6013C78.4185 22.6018 78.4264 22.6018 78.4348 22.6018ZM78.4086 22.6013C78.4051 22.6013 78.4012 22.6013 78.3977 22.6013C78.4012 22.6013 78.4051 22.6013 78.4086 22.6013ZM78.3957 22.6013C78.3918 22.6013 78.3873 22.6013 78.3834 22.6013L78.0463 22.5969L78.3834 22.6013C78.3873 22.6013 78.3918 22.6013 78.3957 22.6013Z" fill="#9E94BD"/>
<path d="M2.37218 39.7036C1.42426 37.6865 1.84847 35.2278 3.40277 33.6409C3.40426 33.6399 3.40525 33.6389 3.40624 33.6379C3.40723 33.6369 3.40772 33.6364 3.40822 33.6354C4.02598 33.0073 4.82144 32.5167 5.77927 32.245L6.01687 32.1771L6.78907 31.9583C6.4297 32.8078 6.40742 33.7502 6.66878 34.6947L6.27278 34.8066C3.86857 35.4892 2.489 37.5538 2.37218 39.7036ZM83.6868 28.284C82.9448 26.6777 81.4316 25.4288 79.462 25.2001C79.2818 24.3146 78.7616 23.4973 78.0463 22.5969L78.3834 22.6014C78.3873 22.6014 78.3918 22.6014 78.3958 22.6014C78.3963 22.6014 78.3972 22.6014 78.3977 22.6014C78.4012 22.6014 78.4052 22.6014 78.4086 22.6014C78.4091 22.6014 78.4096 22.6014 78.4101 22.6014C78.418 22.6019 78.4269 22.6019 78.4349 22.6019C78.4354 22.6019 78.4359 22.6019 78.4364 22.6019C78.4403 22.6024 78.4443 22.6024 78.4482 22.6024C78.4482 22.6024 78.4482 22.6024 78.4487 22.6024C78.4571 22.6024 78.4656 22.6028 78.4735 22.6028C78.4745 22.6028 78.4745 22.6028 78.475 22.6028C78.4834 22.6033 78.4918 22.6033 78.5002 22.6038H78.5007C78.5047 22.6038 78.5086 22.6043 78.5126 22.6043C78.5131 22.6043 78.5136 22.6043 78.5136 22.6043C78.522 22.6043 78.5304 22.6048 78.5388 22.6053C78.5393 22.6053 78.5393 22.6053 78.5393 22.6053C78.5438 22.6053 78.5477 22.6053 78.5517 22.6058H78.5522C78.5606 22.6063 78.569 22.6063 78.5774 22.6068C78.5779 22.6068 78.5779 22.6068 78.5779 22.6068C78.5908 22.6073 78.6032 22.6083 78.616 22.6088H78.6165C78.6294 22.6093 78.6418 22.6103 78.6546 22.6108C78.6675 22.6118 78.6799 22.6123 78.6928 22.6132C78.6933 22.6132 78.6928 22.6132 78.6933 22.6132C78.7017 22.6137 78.7101 22.6142 78.7185 22.6152C78.7314 22.6162 78.7438 22.6167 78.7561 22.6177C78.7566 22.6177 78.7566 22.6177 78.7571 22.6182C78.7695 22.6187 78.7824 22.6202 78.7942 22.6212C78.7947 22.6212 78.7947 22.6212 78.7952 22.6212C78.8032 22.6217 78.8116 22.6226 78.8195 22.6231C78.82 22.6231 78.8205 22.6231 78.821 22.6231C78.8244 22.6236 78.8279 22.6241 78.8314 22.6241C78.8319 22.6241 78.8328 22.6241 78.8333 22.6246C78.8413 22.6251 78.8487 22.6256 78.8566 22.6266C78.8576 22.6266 78.8586 22.6266 78.8596 22.6271C78.8625 22.6271 78.8655 22.6276 78.869 22.6276C78.8695 22.6281 78.8705 22.6281 78.8715 22.6281C78.8749 22.6286 78.8789 22.6286 78.8828 22.6291C78.8833 22.6291 78.8833 22.6291 78.8838 22.6291C78.8868 22.6296 78.8908 22.6301 78.8942 22.6306C78.8952 22.6306 78.8962 22.6306 78.8972 22.6306C78.9002 22.6311 78.9031 22.6311 78.9061 22.6316C78.9071 22.6316 78.9081 22.6316 78.9091 22.6321C78.9125 22.6321 78.9165 22.6325 78.92 22.633C78.921 22.633 78.9219 22.633 78.9229 22.6335C78.9254 22.6335 78.9284 22.634 78.9309 22.634C78.9324 22.6345 78.9338 22.6345 78.9353 22.6345C78.9378 22.635 78.9408 22.6355 78.9427 22.6355C78.9442 22.6355 78.9452 22.636 78.9467 22.636C78.9502 22.6365 78.9531 22.6365 78.9566 22.637C78.9581 22.6375 78.9601 22.6375 78.9615 22.6375C78.9635 22.638 78.9655 22.638 78.9675 22.6385C78.9695 22.6385 78.9715 22.639 78.9729 22.639C78.9749 22.639 78.9764 22.6395 78.9784 22.6395C78.9818 22.64 78.9853 22.6405 78.9888 22.641C78.9903 22.641 78.9917 22.641 78.9932 22.6415C78.9957 22.6415 78.9977 22.642 78.9997 22.642C79.0011 22.6424 79.0021 22.6424 79.0036 22.6424C79.0061 22.6429 79.0081 22.6434 79.0106 22.6434C79.0111 22.6434 79.0115 22.6434 79.012 22.6434C79.017 22.6444 79.0224 22.6449 79.0274 22.6454C79.0284 22.6459 79.0289 22.6459 79.0299 22.6459C79.0323 22.6464 79.0348 22.6464 79.0378 22.6469C79.0383 22.6469 79.0388 22.6469 79.0393 22.6469C81.9405 23.0226 83.8319 25.6189 83.6868 28.284Z" fill="#B9A892"/>
<path d="M75.0194 68.6501L74.8328 68.0532L75.0119 68.6274L75.0194 68.6501Z" fill="#9E94BD"/>
<path d="M75.2312 70.3055L74.7357 68.7161L69.313 51.3139L69.5303 51.0377L74.2407 66.1545L74.8328 68.0533L75.0194 68.6503L75.4238 69.9511L75.3555 69.7313C75.3248 69.9264 75.2832 70.1179 75.2312 70.3055Z" fill="#B9A892"/>
<path d="M21.5722 77.6132C21.348 77.2627 21.1628 76.882 21.0247 76.4752L20.9975 77.182C20.9925 77.3167 20.9926 77.4498 20.9965 77.5815C20.9926 77.4498 20.9925 77.3167 20.9975 77.182L21.7583 57.1286L22.3325 57.5563L21.5722 77.6132ZM20.997 77.5939C20.997 77.5899 20.9965 77.5854 20.9965 77.5815C20.9965 77.5854 20.997 77.5899 20.997 77.5939Z" fill="#B9A892"/>
<path d="M39.3838 2.55578C39.1853 2.55578 38.9844 2.56914 38.7814 2.59587C37.1157 2.81763 35.8 3.8997 35.2615 5.49112L27.9642 27.0508L6.06636 33.2621C4.44969 33.7205 3.30327 34.9807 2.99885 36.6331C2.69492 38.2854 3.31763 39.8713 4.66452 40.8757L22.9142 54.4783L22.0549 77.2231C21.991 78.9021 22.8355 80.3821 24.3126 81.1821C25.7901 81.9825 27.491 81.8805 28.8621 80.9088L47.4385 67.7562L68.8046 75.6024C70.3822 76.1816 72.0504 75.8361 73.2681 74.6778C74.4848 73.52 74.9134 71.8711 74.414 70.2668L67.6453 48.5353L81.7098 30.6391C82.7483 29.3184 82.9349 27.6245 82.2097 26.1089C81.485 24.5932 80.0491 23.6764 78.369 23.6556L55.6094 23.3779L42.9354 4.47142C42.1137 3.2458 40.8159 2.55578 39.3838 2.55578ZM26.3732 83.8219C25.3253 83.8219 24.2734 83.563 23.3067 83.0398C21.1391 81.8662 19.8506 79.6065 19.9437 77.1434L20.7614 55.5079L3.40227 42.5691C1.42574 41.096 0.47534 38.6749 0.92183 36.2509C1.36783 33.8264 3.11864 31.9023 5.49018 31.2296L26.3188 25.3218L33.2607 4.81396C34.0507 2.47904 36.0599 0.826744 38.5032 0.502022C40.945 0.177299 43.3171 1.24748 44.6902 3.2953L56.7455 21.2791L78.3943 21.5435C80.8594 21.5737 83.0517 22.9735 84.1155 25.1976C85.1792 27.4211 84.8941 30.0065 83.371 31.9444L69.9921 48.9675L76.4306 69.6387C77.1637 71.9919 76.5098 74.5095 74.7234 76.2083C72.9374 77.9076 70.3906 78.4353 68.077 77.5854L47.7528 70.1218L30.0828 82.6329C28.9685 83.4224 27.6741 83.8219 26.3732 83.8219Z" fill="#371A45"/>
</svg>
