<svg width="80" height="52" viewBox="0 0 80 52" fill="none" xmlns="http://www.w3.org/2000/svg">
<path d="M58.913 0.90799L58.865 1.03399C58.88 0.995989 58.892 0.956987 58.907 0.918987L58.913 0.90799ZM24.006 21.057C9.88 23.053 0 27.828 0 34.857C0 44.325 16.508 52 40 52C63.492 52 80 44.325 80 34.857C80 27.828 65.125 22.496 51 20.5L48.5 23.5C59.146 24.977 72 28.97 72 32.572C72 37.622 57.673 41.715 40 41.715C22.327 41.715 8 37.622 8 32.572C7.999 28.982 15.266 25.881 25.945 24.398C43 22.0296 46 18.5 24.006 21.057Z" fill="#AC0F0F"/>
</svg>
