<svg width="443" height="417" viewBox="0 0 443 417" fill="none" xmlns="http://www.w3.org/2000/svg">
<path d="M54.1578 240.453C45.7981 180.4 74.286 115.592 126.632 84.986C137.286 78.7608 148.709 73.9318 160.383 69.939C188.056 60.49 217.659 55.7015 246.702 59.1074C275.745 62.5067 304.196 74.5118 324.867 95.1904C338.245 108.592 348.016 125.122 356.877 141.849C364.973 157.152 372.476 172.887 377.105 189.566C388.789 231.644 380.785 278.647 356.284 314.804C331.785 350.954 291.347 375.74 248.085 381.716C238.113 383.092 228.028 383.517 217.961 383.685C182.339 384.265 147.153 372.321 118.757 349.282C99.5299 333.688 83.7465 316.584 72.1251 295.083C62.9675 278.127 56.8104 259.54 54.1578 240.453" fill="#7C77A6"/>
<path d="M53.023 225.743C67.879 229.621 80.0561 240.284 89.9172 252.053C99.7729 263.816 107.903 276.988 118.205 288.372C135.743 307.749 159.238 321.596 174.123 343.077C176.012 345.795 177.761 348.661 178.768 351.824C179.724 354.832 179.975 358.036 180.812 361.085C184.026 372.773 195.663 380.65 207.6 382.795C219.535 384.94 231.78 382.384 243.52 379.342C245.135 378.93 246.976 378.296 247.538 376.725C247.796 375.997 247.72 375.201 247.617 374.432C245.594 359.25 235.424 346.193 223.373 336.73C211.323 327.254 197.305 320.692 184.011 313.071C157.352 297.781 133.296 277.972 113.183 254.731C101.992 241.809 91.7167 227.564 77.2977 218.392C71.0698 214.426 63.137 209.671 63.9065 202.326C64.6916 194.867 73.7993 191.879 81.2101 190.719C93.566 188.777 106.149 187.145 118.542 188.837C153.861 193.646 182.33 224.468 217.944 226.026C226.166 226.377 234.415 225.123 242.624 225.75C264.778 227.429 283.834 242.631 297.234 260.342C310.633 278.067 319.761 298.611 331.81 317.286C332.71 318.682 333.712 320.146 335.237 320.813C337.632 321.872 340.375 320.618 342.616 319.269C358.461 309.712 370.058 293.384 373.86 275.275C374.173 273.777 374.437 272.192 373.989 270.729C373.109 267.822 369.921 266.426 367.168 265.138C359.765 261.705 353.141 256.586 347.938 250.286C342.801 244.061 339.009 235.233 342.73 228.063C347.688 218.506 361.78 218.729 369.789 211.526C377.245 204.829 377.614 192.554 372.556 183.901C367.497 175.241 358.229 169.818 348.7 166.722C341.431 164.362 333.778 163.121 326.801 160.012C298.709 147.467 289.016 108.666 260.205 97.8883C256.04 96.3235 251.358 95.2714 248.489 91.8722C245.617 88.4797 246.587 81.7555 251.013 81.3306C275.551 85.0265 298.783 96.9306 316.121 114.689C326.103 124.907 336.476 138.079 350.75 137.445C352.122 125.655 344.613 114.736 336.502 106.069C295.955 62.7428 229.483 45.8142 173.151 64.4694C170.891 65.2248 168.314 66.3848 167.835 68.7117C167.452 70.5597 168.585 72.347 169.708 73.8712C186.244 96.2359 212.669 111.013 240.393 113.38C245.793 113.846 251.461 113.927 256.211 116.53C262.247 119.855 265.487 126.512 268.712 132.595C281.173 156.12 300.537 178.04 326.422 184.271C329.359 184.98 333.079 186.308 333.074 189.33C333.072 190.456 332.481 191.495 331.762 192.365C328.076 196.823 321.616 197.356 315.989 198.698C310.364 200.033 304.06 204.013 304.661 209.759C305.111 214.116 309.476 218.56 307 222.169C305.496 224.367 302.136 224.489 299.789 223.234C297.439 221.98 295.811 219.747 294.085 217.717C283.167 204.883 266.34 198.651 249.809 195.393C233.277 192.122 216.255 191.286 200.055 186.652C176.687 179.962 156.311 165.765 136.291 151.986C125.395 144.486 114.127 136.885 101.23 133.944C95.4133 132.622 89.1113 132.332 83.6786 134.801C74.9452 138.773 70.7245 148.566 67.2653 157.516C63.0736 168.375 57.7549 179.287 55.5339 190.746C54.8116 194.469 50.4122 224.974 53.023 225.743" fill="#575B7B"/>
<path d="M57.5091 185.553C74.7075 128.306 115.772 79.9006 175.271 64.6514C233.376 49.7596 297.117 68.8262 336.058 114.743C372.816 158.076 386.386 222.196 369.588 276.866C351.694 335.091 296.808 368.652 240.253 381.399C237.22 382.08 238.018 386.45 241.085 386.127C301.39 379.821 359.058 338.902 377.194 279.679C395.075 221.278 379.594 151.203 338.472 106.285C248.791 8.31479 79.5393 53.9883 54.4235 184.845C54.0836 186.618 56.9925 187.273 57.5091 185.553" fill="#260029"/>
<path d="M57.024 174.923C16.2435 285.816 132.778 408.289 245.495 385.513C248.09 384.993 248.185 380.549 245.3 380.63C194.308 382.114 147.165 373.885 110.429 335.887C66.0103 289.93 47.4576 238.814 60.264 175.672C60.6464 173.777 57.664 173.19 57.024 174.923" fill="#260029"/>
<path d="M108.235 99.588L109.078 100.6C109.921 101.598 111.771 100.512 111.065 99.3182L110.412 98.1851C109.473 96.526 107.045 98.1177 108.235 99.588" fill="#260029"/>
<path d="M177.55 63.6802C179.811 69.521 185.767 74.7276 192.317 74.3365C193.46 74.269 193.629 72.3468 192.519 72.0703C186.797 70.6338 182.263 68.3406 179.997 62.5201C179.365 60.8947 176.923 62.0616 177.55 63.6802Z" fill="#260029"/>
<path d="M197.09 74.9974C199.257 76.7307 201.405 78.6461 203.797 80.0557C204.869 80.6964 206.452 79.2936 205.391 78.3089C203.259 76.3463 200.775 74.7816 198.422 73.0954C197.195 72.2187 195.93 74.0734 197.09 74.9974Z" fill="#260029"/>
<path d="M213.75 84.2984C221.891 91.3464 229.238 93.6125 239.943 93.943C245.407 94.1049 251.113 93.6597 256.517 94.5635C269.463 96.7487 275.913 104.356 282.135 115.202C282.859 116.463 284.902 115.539 284.204 114.217C279.147 104.687 273.742 96.2631 262.84 93.0594C245.462 87.9471 231.241 94.1251 215.336 82.0255C213.89 80.9262 212.425 83.1518 213.75 84.2984Z" fill="#260029"/>
<path d="M288.346 124.509C302.836 145.255 316.37 178.957 347.737 172.523C349.381 172.185 348.923 169.845 347.289 169.98C316.064 172.637 305.146 144.56 289.969 123.133C289.176 122.013 287.569 123.396 288.346 124.509Z" fill="#260029"/>
<path d="M351.355 172.043C356.656 174.289 361.596 177.243 365.961 181.014C370.401 184.831 373.075 189.991 377.156 193.997C378.35 195.157 380.014 193.997 379.516 192.466C377.788 187.117 372.556 182.484 368.399 178.916C363.606 174.802 358.205 171.686 352.338 169.379C350.628 168.712 349.68 171.329 351.355 172.043" fill="#260029"/>
<path d="M168.44 68.3679C172.105 74.4581 178.199 78.3969 184.819 80.7103C186.131 81.1689 186.874 79.1591 185.568 78.6802C179.292 76.4073 174.853 72.0167 170.882 66.7897C169.894 65.488 167.573 66.9313 168.44 68.3679" fill="#260029"/>
<path d="M189.5 82.6387C202.125 85.0465 209.615 96.7346 221.842 100.033C234.224 103.371 246.649 99.9518 258.705 105.543C260.322 106.292 261.705 103.681 260.161 102.764C248.456 95.8242 235.462 99.8911 222.843 96.6335C210.474 93.4366 202.541 82.3217 189.734 80.1365C188.132 79.86 187.929 82.342 189.5 82.6387" fill="#260029"/>
<path d="M268.723 111.897C280.476 125.736 284.03 147.332 299.969 157.476C301.136 158.211 302.825 156.619 301.692 155.58C287.647 142.739 283.53 123.868 270.915 110.035C269.672 108.679 267.521 110.48 268.723 111.897Z" fill="#260029"/>
<path d="M304.903 161.738C310.752 170.567 318.803 176.832 329.136 179.618C347.156 184.467 362.99 178.855 374.898 197.194C375.786 198.556 378.025 197.079 377.287 195.649C373.368 188.082 367.129 182.585 358.833 180.211C351.495 178.1 343.736 179.071 336.257 178.066C323.569 176.373 314.472 170.135 306.773 160.153C305.789 158.878 304.057 160.457 304.903 161.738" fill="#260029"/>
<path d="M262.229 121.177C283.187 143.562 295.216 178.916 327.916 186.834C329.363 187.185 330.209 185.027 328.733 184.629C296.328 175.935 285.208 141.903 263.997 119.673C262.972 118.6 261.199 120.084 262.229 121.177" fill="#260029"/>
<path d="M337.218 188.676C338.557 188.676 338.762 186.585 337.416 186.585C336.075 186.585 335.867 188.676 337.218 188.676Z" fill="#260029"/>
<path d="M348.638 188.77C349.974 188.77 350.182 186.686 348.836 186.686C347.495 186.686 347.287 188.77 348.638 188.77Z" fill="#260029"/>
<path d="M348.956 188.918C359.265 187.839 366.12 191.967 373.655 198.354C374.925 199.426 376.511 197.491 375.549 196.27C369.497 188.588 357.903 185.796 348.592 186.855C347.249 187.003 347.623 189.053 348.956 188.918" fill="#260029"/>
<path d="M255.942 108.7C244.996 104.586 232.606 107.553 221.142 106.717C206.89 105.678 199.692 93.6529 188.988 86.0249C187.921 85.2628 186.369 86.841 187.393 87.7717C195.058 94.759 202.548 105.166 212.659 108.767C225.895 113.482 241.57 108.767 255.315 111.438C256.922 111.755 257.407 109.253 255.942 108.7Z" fill="#260029"/>
<path d="M238.633 56.7128C249.103 82.996 281.311 74.3429 298.09 94.374C306.313 104.194 310.299 116.327 320.671 124.454C329.831 131.637 340.588 132.264 351.068 136.513C352.525 137.107 353.3 134.888 351.906 134.247C338.02 127.847 324.488 126.613 313.755 113.38C307.277 105.401 303.636 95.3519 296.037 88.1825C278.544 71.6855 254.017 80.4264 241.052 55.5663C240.251 54.0353 237.999 55.1211 238.633 56.7128" fill="#260029"/>
<path d="M251.208 57.9539C251.171 64.1453 255.371 69.3655 261.475 70.593C262.729 70.8493 263.185 68.7855 261.973 68.4078C257.454 66.9982 254.386 63.0729 254.448 58.2641C254.475 56.1733 251.218 55.8631 251.208 57.9539Z" fill="#260029"/>
<path d="M292.977 85.5864C310.792 99.8982 321.349 127.287 347.618 127.2C349.905 127.193 350.26 123.632 347.958 123.639C323.048 123.726 311.709 97.3083 294.16 83.9003C293.095 83.091 291.947 84.7636 292.977 85.5864Z" fill="#260029"/>
<path d="M271.314 74.0396C274.188 73.9991 276.319 74.9433 278.738 76.4473C279.932 77.1892 281.415 75.7189 280.437 74.5858C278.185 71.942 275.013 70.9304 271.601 70.9911C269.654 71.0315 269.343 74.0666 271.314 74.0396Z" fill="#260029"/>
<path d="M79.3561 139.987C131.565 120.327 156.47 180.595 199.173 193.376C213.083 197.537 227.447 196.033 241.621 198.016C272.914 202.38 288.872 222.822 305.23 247.096C305.997 248.236 307.986 246.968 307.272 245.774C297.83 230.08 287.326 213.299 271.192 203.682C248.5 190.152 220.545 196.492 196.396 187.738C156.317 173.224 126.425 118.573 78.2493 137.653C76.7008 138.267 77.815 140.567 79.3561 139.987" fill="#260029"/>
<path d="M312.776 253.443C321.815 272.455 339.306 286.767 359.755 291.832C361.739 292.331 362.893 289.371 360.875 288.817C340.779 283.28 325.18 270.634 315.598 252.101C314.678 250.32 311.907 251.622 312.776 253.443" fill="#260029"/>
<path d="M367.044 276.994C352.672 266.406 331.011 250.023 328.674 231.442C325.162 203.466 360.573 207.918 378.159 211.142C379.94 211.465 380.628 208.511 378.87 208.026C360.771 203.028 331.87 200.04 324.124 222.749C316.481 245.167 349.874 268.955 364.973 279.955C366.857 281.324 368.914 278.37 367.044 276.994Z" fill="#260029"/>
<path d="M373.891 212.194C367.526 211.748 361.048 211.209 354.672 211.546C353.3 211.62 353.51 213.711 354.765 213.88C360.982 214.702 367.379 214.682 373.646 214.797C375.306 214.817 375.585 212.308 373.891 212.194Z" fill="#260029"/>
<path d="M332.841 225.615C335.57 247.251 349.067 265.441 369.688 273.346C371.653 274.108 372.752 271.086 370.816 270.297C351.921 262.588 337.942 245.653 334.904 225.251C334.704 223.909 332.673 224.286 332.841 225.615Z" fill="#260029"/>
<path d="M369.806 216.065C361.789 216.888 352.152 216.793 344.514 219.478C340.818 220.773 338.405 223.16 338.367 227.22C338.268 238.672 348.363 252.613 358.109 257.766C359.231 258.359 360.946 256.977 359.787 255.918C352.639 249.376 346.385 243.157 343.194 233.708C341.669 229.19 340.064 225.494 347.16 222.088C349.003 221.204 351.777 221.406 353.775 221.137C359.283 220.395 364.792 219.66 370.286 218.79C372.063 218.506 371.56 215.883 369.806 216.065" fill="#260029"/>
<path d="M361.904 221.656C355.836 221.002 350.457 225.5 349.411 231.476C348.259 238.086 352.609 245.046 358.163 248.324C359.583 249.16 360.792 247.339 359.604 246.267C355.981 242.996 352.451 239.644 352.106 234.444C351.737 228.94 355.847 223.68 361.661 224.192C363.3 224.34 363.532 221.832 361.904 221.656Z" fill="#260029"/>
<path d="M346.568 197.423C336.646 197.956 320.509 198.927 313.965 207.891C308.425 215.478 310.996 227.922 315.177 235.502C315.946 236.899 318.355 236.325 317.98 234.605C316.105 226.06 310.743 215.991 317.97 208.342C324.664 201.247 337.665 200.195 346.942 199.548C348.336 199.453 347.935 197.349 346.568 197.423Z" fill="#260029"/>
<path d="M318.594 193.343C309.605 196.223 303.935 204.728 304.66 214.089C304.757 215.364 306.931 215.29 306.925 213.995C306.886 205.807 311.949 198.388 319.743 195.758C321.379 195.211 320.206 192.83 318.594 193.343" fill="#260029"/>
<path d="M328.529 260.565C336.035 272.132 349.115 282.916 362.633 286.43C364.388 286.882 365.231 284.595 363.605 283.793C350.264 277.251 340.068 270.459 330.621 258.791C329.477 257.381 327.599 259.128 328.529 260.565" fill="#260029"/>
<path d="M359.179 199.791C362.646 199.959 366.074 200.337 369.378 201.457C372.42 202.488 374.971 204.424 377.943 205.544C379.244 206.036 380.272 204.438 379.447 203.399C375.108 197.936 365.615 196.108 359.053 196.601C357.24 196.742 357.38 199.703 359.179 199.791" fill="#260029"/>
<path d="M188.21 61.5082C195.935 69.9051 206.262 73.5607 216.684 77.6006C223.123 80.0893 229.696 83.4817 236.402 85.1274C240.746 86.193 251.339 83.6908 254.595 85.3702C255.828 86.0109 256.756 84.0483 255.691 83.2794C253.331 81.5731 253.215 81.8227 250.299 81.6406C248.523 81.5394 245.778 82.6927 244.065 82.7938C238.506 83.1445 234.07 81.2426 228.817 79.3204C215.293 74.3565 201.195 69.6488 190.692 59.404C189.219 57.9674 186.766 59.9435 188.21 61.5082" fill="#260029"/>
<path d="M203.627 64.0512C212.479 69.4468 242.44 82.2141 240.524 60.5171C240.374 58.831 237.718 58.9929 237.587 60.6318C236.233 77.6548 213.562 66.4387 204.787 61.8457C203.525 61.1848 202.415 63.316 203.627 64.0512Z" fill="#260029"/>
<path d="M211.935 61.225C217.457 64.1386 224.973 66.5734 231.22 64.7861C232.537 64.4152 232.674 62.3648 231.12 62.2367C228.177 62.0006 225.295 62.3244 222.352 61.8388C219.143 61.306 216.105 60.2605 213.181 58.8509C211.811 58.19 210.573 60.5168 211.935 61.225" fill="#260029"/>
<path d="M57.3316 187.556C102.39 159.061 139.082 176.778 178.661 202.664C187.64 208.538 196.647 214.001 207.294 216.362C231.173 221.649 250.835 209.475 272.87 229.736C274.087 230.855 276.024 229.372 274.885 228.03C265.962 217.501 256.536 214.817 243.128 213.509C219.091 211.168 202.902 213.799 180.79 199.629C171.7 193.801 163.649 186.565 154.149 181.338C121.404 163.316 86.517 164.186 55.4924 184.71C53.8987 185.762 55.69 188.595 57.3316 187.556" fill="#260029"/>
<path d="M60.6322 173.629C94.7107 157.496 133.409 158.899 165.043 180.414C166.191 181.196 167.427 179.436 166.281 178.647C134.334 156.532 94.2703 152.66 59.5389 171.329C58.103 172.098 59.1356 174.344 60.6322 173.629" fill="#260029"/>
<path d="M168.201 184.683C187.143 200.721 212.762 210.622 237.79 206.117C239.097 205.881 239.112 203.669 237.693 203.695C212.185 204.141 189.72 199.372 169.568 182.734C168.38 181.749 167.041 183.698 168.201 184.683" fill="#260029"/>
<path d="M70.542 158.089C92.3347 153.496 113.417 154.144 135.244 157.853C136.508 158.069 137.014 155.951 135.75 155.641C114.107 150.394 91.8106 151.217 70.1703 155.998C68.8397 156.295 69.1958 158.373 70.542 158.089" fill="#260029"/>
<path d="M71.8854 148.013C77.028 145.922 82.1761 145.389 87.6951 145.477C89.1708 145.497 89.3657 143.447 87.9089 143.197C82.0493 142.192 76.1958 143.393 70.7786 145.686C69.2483 146.334 70.3517 148.64 71.8854 148.013Z" fill="#260029"/>
<path d="M99.4377 144.135C106.886 144.594 114.165 145.963 121.315 148.094C122.798 148.533 123.644 146.293 122.156 145.828C114.8 143.494 107.368 142.186 99.6569 141.822C98.1683 141.754 97.9417 144.041 99.4377 144.135Z" fill="#260029"/>
<path d="M64.6511 195.143C94.4583 184.743 130.078 179.462 158.76 196.02C160.133 196.816 161.469 194.975 160.183 193.99C134.575 174.249 90.9735 180.724 63.4338 192.58C61.7267 193.315 62.9623 195.73 64.6511 195.143" fill="#260029"/>
<path d="M172.751 204.087C186.05 215.283 202.197 224.476 219.464 227.625C220.813 227.868 221.298 225.703 219.999 225.285C203.119 219.937 187.979 213.421 174.194 202.023C172.943 200.991 171.523 203.048 172.751 204.087Z" fill="#260029"/>
<path d="M235.585 227.025C241.665 228.67 247.737 230.377 253.839 231.948C255.231 232.299 256.034 230.215 254.624 229.824C248.541 228.165 242.421 226.627 236.322 225.028C235.01 224.685 234.257 226.661 235.585 227.025" fill="#260029"/>
<path d="M308.506 277.568C316.51 294.989 327.617 312.369 342.447 324.772C343.851 325.952 345.904 323.72 344.621 322.391C330.987 308.322 319.142 294.442 310.603 276.576C309.958 275.227 307.882 276.205 308.506 277.568" fill="#260029"/>
<path d="M299.348 255.061C318.214 272.206 320.027 310.42 347.889 317.549C349.631 317.994 350.514 315.694 348.862 314.918C322.274 302.529 321.641 270.809 300.974 252.748C299.59 251.534 298.023 253.861 299.348 255.061Z" fill="#260029"/>
<path d="M321.523 276.684C326.99 289.896 337.322 301.099 349.686 308.214C351.357 309.172 353.101 306.764 351.425 305.732C339.222 298.212 330.373 288.305 323.591 275.706C322.893 274.411 320.957 275.322 321.523 276.684" fill="#260029"/>
<path d="M334.075 285.479C339.26 293.707 348.636 300.114 358.634 300.067C360.402 300.06 360.684 297.585 358.898 297.309C349.468 295.859 341.878 292.007 336.385 283.988C335.508 282.714 333.232 284.15 334.075 285.479" fill="#260029"/>
<path d="M56.1537 214.52C61.0064 216.011 65.8698 217.407 70.7723 218.736C72.1529 219.107 72.9461 217.104 71.5581 216.618C66.7709 214.939 61.9681 213.394 57.1148 211.924C55.4105 211.405 54.444 213.988 56.1537 214.52" fill="#260029"/>
<path d="M79.6709 221.278C112.937 234.814 123.505 269.528 149.265 291.63C160.03 300.87 172.044 305.294 184.643 311.324C216.863 326.748 237.439 346.611 245.938 382.134C246.467 384.353 249.897 383.793 249.458 381.514C240.99 337.54 213.296 321.488 176.151 303.608C135.36 283.955 122.127 235.502 80.6091 218.736C78.9884 218.081 78.0556 220.617 79.6709 221.278" fill="#260029"/>
<path d="M54.6899 223.51C90.2009 232.75 97.3224 275.382 122.446 298.057C148.501 321.582 185.33 335.462 187.029 375.989C187.108 377.912 190.47 377.797 190.443 375.848C189.927 337.971 157.878 322.027 131.569 301.18C102.931 278.491 94.2901 229.237 55.2086 221.231C53.915 220.968 53.4017 223.173 54.6899 223.51Z" fill="#260029"/>
<path d="M77.752 228.589C99.3498 247.089 110.966 273.649 131.884 292.756C160.559 318.945 198.705 335.914 204.943 378.843C205.26 381.001 208.545 380.401 208.276 378.256C204.251 345.694 180.582 326.694 155.572 308.14C137.883 295.022 122.924 281.554 110.312 263.391C100.77 249.646 92.179 237.249 78.9376 226.903C77.876 226.074 76.7585 227.74 77.752 228.589" fill="#260029"/>
<path d="M95.2077 237.256C110.098 257.105 125.123 277.115 143.317 294.105C162.977 312.477 194.739 321.858 209.74 343.859C210.475 344.938 212.317 343.758 211.671 342.611C200.761 323.214 175.888 316.813 158.948 303.588C134.686 284.636 115.768 259.856 97.0995 235.65C96.1195 234.383 94.2513 235.981 95.2077 237.256" fill="#260029"/>
<path d="M214.71 351.413C224.258 360.464 226.034 372.86 227.619 385.29C227.907 387.536 231.334 386.916 231.076 384.676C229.63 371.963 227.143 357.793 216.478 349.477C215.316 348.58 213.612 350.374 214.71 351.413" fill="#260029"/>
<path d="M191.367 334.363C206.216 347.069 214.241 363.269 215.79 382.7C215.911 384.245 218.58 384.157 218.533 382.586C217.953 362.966 208.345 344.317 192.698 332.467C191.489 331.55 190.256 333.412 191.367 334.363Z" fill="#260029"/>
<path d="M212.016 333.662C213.491 336.022 214.954 338.403 216.916 340.393C217.852 341.344 219.59 340.393 218.955 339.071C217.743 336.562 216.033 334.356 214.324 332.171C213.381 330.957 211.17 332.306 212.016 333.662Z" fill="#260029"/>
<path d="M223.104 347.488C231.658 357.402 235.117 368.969 235.315 381.911C235.336 383.409 237.53 383.699 237.689 382.134C239.021 368.746 233.763 355.844 224.872 345.99C223.875 344.884 222.121 346.354 223.104 347.488Z" fill="#260029"/>
<path d="M190.002 352.748C192.36 355.392 193.904 358.292 194.747 361.739C195.076 363.081 197.218 362.71 196.873 361.361C195.911 357.577 194.198 354.299 191.575 351.406C190.687 350.435 189.111 351.75 190.002 352.748Z" fill="#260029"/>
<path d="M195.161 366.689C196.699 370.122 196.605 373.737 194.75 377.028C194.023 378.323 195.93 379.665 196.649 378.363C198.884 374.324 199.097 369.94 197.171 365.731C196.576 364.436 194.576 365.387 195.161 366.689Z" fill="#260029"/>
<path d="M139.092 269.704C159.6 293.903 193.196 299.885 215.392 322.162C216.459 323.228 218.248 321.778 217.212 320.611C196.107 296.857 162.153 291.792 140.789 268.26C139.83 267.208 138.16 268.604 139.092 269.704Z" fill="#260029"/>
<path d="M230.236 335.846C242.268 349.045 249.534 363.074 252.09 380.846C252.374 382.822 255.397 382.282 255.138 380.313C252.877 363.155 244.892 346.078 232.328 334.073C231.085 332.879 229.024 334.518 230.236 335.846" fill="#260029"/>
<path d="M253.052 353.645C257.294 361.071 258.785 368.477 259.665 376.867C259.808 378.216 262 378.121 262.06 376.765C262.418 368.342 259.418 359.803 255.092 352.681C254.351 351.46 252.325 352.371 253.052 353.645Z" fill="#260029"/>
<path d="M139.817 318.459C157.449 331.995 180.839 349.733 180.252 374.277C180.209 376.125 183.031 376.421 183.144 374.546C184.68 348.803 159.734 330.161 141.257 316.395C139.954 315.424 138.533 317.475 139.817 318.459Z" fill="#260029"/>
<path d="M57.1504 230.424C60.9313 231.638 64.4749 233.365 67.694 235.705C70.9792 238.092 73.2717 241.168 76.0983 243.994C77.0574 244.952 78.7907 244.001 78.1668 242.652C74.6597 235.138 65.7739 229.999 58.1121 227.821C56.4132 227.342 55.4379 229.871 57.1504 230.424" fill="#260029"/>
<path d="M54.6661 238.807C56.879 239.657 59.0574 240.405 61.4052 240.77C62.7089 240.965 63.5229 238.949 62.3163 238.281C60.235 237.134 58.1064 236.359 55.8174 235.691C53.7805 235.098 52.6475 238.031 54.6661 238.807Z" fill="#260029"/>
<path d="M67.3689 244.904C71.2368 245.45 73.5576 247.723 75.9236 250.623C76.9008 251.824 78.5424 250.542 78.071 249.234C76.5191 244.924 71.972 242.557 67.6407 242.058C65.7961 241.835 65.5485 244.648 67.3689 244.904Z" fill="#260029"/>
<path d="M96.0386 314.682C111.794 329.756 128.542 345.754 147.073 357.348C148.511 358.245 149.773 356.323 148.551 355.237C132.08 340.615 114.054 327.693 97.5271 313.057C96.5896 312.227 95.1274 313.806 96.0386 314.682Z" fill="#260029"/>
<path d="M157.241 361.274C159.908 362.764 162.502 364.599 165.363 365.671C166.689 366.163 167.661 364.309 166.507 363.486C164.015 361.719 161.033 360.619 158.295 359.264C157.141 358.697 156.106 360.646 157.241 361.274" fill="#260029"/>
<path d="M72.099 277.352C74.2356 283.867 78.2459 290.14 83.9969 294.024C85.1219 294.78 86.6866 293.229 85.6567 292.203C80.883 287.428 76.9914 282.552 74.5729 276.172C73.9382 274.499 71.5615 275.713 72.099 277.352Z" fill="#260029"/>
<path d="M256.122 329.176C256.649 329.891 257.16 330.599 257.727 331.287C258.553 332.285 260.372 331.193 259.687 330.026C259.186 329.156 258.635 328.347 258.067 327.524C257.144 326.188 255.15 327.841 256.122 329.176" fill="#260029"/>
<path d="M272.098 356.626C274.996 361.503 276.501 366.743 276.809 372.402C276.898 374.115 279.544 373.636 279.444 371.93C279.09 366.082 277.263 360.619 274.138 355.655C273.379 354.455 271.35 355.358 272.098 356.626Z" fill="#260029"/>
<path d="M261.479 320.55C271.848 334.147 278.255 348.566 283.256 364.807C283.665 366.129 285.735 365.859 285.445 364.416C282.081 347.737 273.814 332.258 263.249 319.053C262.312 317.879 260.575 319.363 261.479 320.55" fill="#260029"/>
<path d="M277.728 336.433C281.944 344.648 285.24 353.146 288.127 361.907C288.522 363.101 290.601 362.446 290.258 361.226C287.747 352.249 284.099 343.703 279.765 335.462C279.093 334.187 277.059 335.131 277.728 336.433" fill="#260029"/>
<path d="M274.901 314.386C276.673 316.942 278.384 319.552 280.385 321.926C281.242 322.951 283.097 321.852 282.401 320.631C280.802 317.825 278.868 315.235 277.013 312.598C275.991 311.135 273.891 312.936 274.901 314.386Z" fill="#260029"/>
<path d="M286.603 333.371C289.617 341.512 292.262 349.936 295.781 357.861C296.292 359.007 298.335 358.427 297.942 357.173C295.333 348.796 291.722 340.628 288.552 332.447C288.052 331.146 286.126 332.076 286.603 333.371" fill="#260029"/>
<path d="M291.512 333.223C294.959 339.495 298.32 345.835 302.101 351.912C302.849 353.105 304.803 352.276 304.137 350.94C300.96 344.54 297.322 338.362 293.784 332.144C292.991 330.754 290.727 331.793 291.512 333.223Z" fill="#260029"/>
<path d="M303.997 339.516C305.52 341.687 306.948 343.967 308.679 345.983C309.511 346.948 311.266 345.916 310.612 344.729C309.274 342.315 307.561 340.102 305.965 337.85C305.006 336.494 303.054 338.167 303.997 339.516Z" fill="#260029"/>
<path d="M97.1361 124.536C98.5976 124.536 98.827 122.256 97.3519 122.256C95.8897 122.256 95.6658 124.536 97.1361 124.536Z" fill="#260029"/>
<path d="M100.477 127.503C102.972 127.942 105.39 128.346 107.92 128.501C109.335 128.576 109.969 126.411 108.497 125.972C105.931 125.21 103.42 124.758 100.78 124.3C98.7329 123.942 98.4462 127.146 100.477 127.503Z" fill="#260029"/>
<path d="M113.507 129.216C126.695 131.165 135.574 138.112 144.932 146.995C145.901 147.912 147.956 146.954 147.105 145.592C140.155 134.403 126.313 128.461 113.723 126.91C112.232 126.728 112.037 129.007 113.507 129.216" fill="#260029"/>
<path d="M106.248 121.946C119.985 123.463 129.269 128.178 140.59 135.718C141.744 136.48 143.195 134.99 142.252 133.89C133.89 124.293 119.047 118.985 106.522 119.059C104.691 119.073 104.359 121.743 106.248 121.946Z" fill="#260029"/>
<path d="M120.231 118.135C124.718 118.149 127.869 120.138 131.239 122.863C132.176 123.619 133.771 122.357 133.096 121.292C130.298 116.867 125.158 115.269 120.134 115.674C118.751 115.788 118.832 118.129 120.231 118.135" fill="#260029"/>
<path d="M122.409 109.718C131.364 112.773 139.645 116.874 148.056 121.143C149.237 121.743 150.225 119.814 149.126 119.106C141.143 113.994 132.22 110.406 123.215 107.546C121.798 107.094 120.992 109.239 122.409 109.718Z" fill="#260029"/>
<path d="M131.467 94.9004C143.941 102.198 156.716 109.866 169.96 115.68C171.12 116.186 172.034 114.419 170.985 113.724C158.895 105.793 145.506 99.2439 132.578 92.7826C131.356 92.1689 130.284 94.2125 131.467 94.9004" fill="#260029"/>
<path d="M143.083 93.3755C147.728 96.2082 152.293 99.3848 157.205 101.745C158.464 102.346 159.354 100.43 158.301 99.6411C154.016 96.4847 149.143 93.9757 144.561 91.2645C143.141 90.4214 141.658 92.5122 143.083 93.3755" fill="#260029"/>
<path d="M148.671 88.0347C157.08 94.9208 167.231 101.793 177.54 105.469C178.797 105.914 179.856 104.08 178.652 103.345C169.083 97.4904 159.404 92.3309 150.186 85.863C148.776 84.8783 147.369 86.9623 148.671 88.0347" fill="#260029"/>
<path d="M163.281 87.3736C166.136 89.1744 168.953 91.0425 171.913 92.6612C173.197 93.3694 174.496 91.6495 173.247 90.766C170.494 88.8168 167.601 87.0768 164.74 85.2895C163.351 84.4194 161.886 86.4968 163.281 87.3736Z" fill="#260029"/>
<path d="M165.203 163.667C180.579 183.044 206.308 194.213 230.994 188.999C232.535 188.675 232.08 186.571 230.58 186.652C205.832 187.967 184.004 180.791 167.074 162.075C166.015 160.909 164.221 162.426 165.203 163.667" fill="#260029"/>
<path d="M188.46 172.172C195.928 177.116 204.227 181.088 213.022 182.983C214.265 183.246 214.739 181.155 213.517 180.798C205.002 178.289 197.182 175.281 189.679 170.425C188.533 169.69 187.311 171.417 188.46 172.172" fill="#260029"/>
<path d="M245.924 191.36C261.984 194.813 275.882 202.211 288.648 212.382C290.106 213.542 291.615 211.242 290.277 210.055C277.747 198.961 262.469 192.23 246.148 189.013C244.654 188.716 244.472 191.043 245.924 191.36" fill="#260029"/>
<path d="M136.403 255.365C155.514 275.086 178.456 291.556 204.422 300.931C206.077 301.531 206.951 299.083 205.362 298.388C179.973 287.374 157.659 273.696 138.123 253.901C137.112 252.876 135.386 254.313 136.403 255.365" fill="#260029"/>
<path d="M163.543 269.461C170.179 273.609 176.713 278.08 183.679 281.668C184.909 282.295 185.837 280.333 184.775 279.564C178.528 275.038 171.644 271.302 165.042 267.323C163.614 266.459 162.109 268.564 163.543 269.461Z" fill="#260029"/>
<path d="M156.389 201.058C180.323 218.803 207.633 235.813 238.453 234.909C239.862 234.868 240.149 232.744 238.666 232.663C207.546 230.997 183.44 215.053 157.827 199.008C156.459 198.145 155.079 200.094 156.389 201.058Z" fill="#260029"/>
<path d="M176.426 224.442C193.129 233.499 211.144 241.04 229.978 244.196C231.515 244.452 232.11 241.93 230.592 241.512C212.174 236.453 194.647 231.004 177.551 222.29C176.323 221.663 175.203 223.781 176.426 224.442Z" fill="#260029"/>
<path d="M181 238.038C186.904 239.502 192.455 241.667 198.137 243.798C199.597 244.344 200.261 242.267 198.954 241.593C193.596 238.834 187.699 237.107 181.851 235.738C180.339 235.381 179.461 237.654 181 238.038" fill="#260029"/>
<path d="M60.4294 198.677C62.3394 205.031 67.7249 207.378 73.5548 209.792C85.8453 214.884 98.22 220.59 110.9 224.63C112.631 225.183 113.437 222.809 111.861 222.027C103.874 218.088 95.3745 215.066 87.1126 211.721C79.4225 208.619 66.6316 206.117 63.138 197.814C62.5269 196.351 59.9607 197.113 60.4294 198.677" fill="#260029"/>
<path d="M104.761 188.574C93.8596 188.021 83.9007 190.914 75.083 197.362C74.2926 197.942 74.4241 199.257 75.1936 199.777C82.4068 204.599 91.4357 209.549 100.259 210.035C101.708 210.123 102.216 208.086 100.828 207.546C92.4972 204.289 84.5941 202.265 76.9458 197.274C76.9822 198.077 77.022 198.886 77.0591 199.689C85.0338 193.72 94.584 190.584 104.553 190.786C105.971 190.82 106.203 188.648 104.761 188.574" fill="#260029"/>
<path d="M116.553 227.497C120.8 231.348 125.078 236.089 129.947 239.117C131.299 239.96 132.94 238.308 131.862 237.013C128.111 232.515 122.723 228.852 118.252 225.069C116.774 223.821 115.167 226.249 116.553 227.497Z" fill="#260029"/>
<path d="M257.54 22.7143C257.672 27.8469 257.129 34.1934 258.955 39.0157C259.548 40.5804 261.548 39.7913 261.835 38.5098C262.909 33.6403 261.442 27.4961 260.86 22.5861C260.639 20.7381 257.49 20.8124 257.54 22.7143" fill="#260029"/>
<path d="M288.598 1.08466C283.05 12.321 277.657 27.0306 278.018 39.7709C278.068 41.4706 280.591 42.4418 281.2 40.4994C283.158 34.2001 283.877 27.5635 285.623 21.19C287.381 14.7827 289.678 8.55753 291.983 2.34588C292.81 0.113456 289.607 -0.952167 288.598 1.08466" fill="#260029"/>
<path d="M292.61 30.369C291.174 34.6719 289.499 38.9817 288.566 43.433C288.223 45.0787 290.661 45.4023 291.28 44.0534C293.111 40.0337 294.264 35.6701 295.606 31.4751C296.228 29.5259 293.264 28.4131 292.61 30.369" fill="#260029"/>
<path d="M101.542 68.1711C103.539 72.2442 105.37 76.4901 107.829 80.3157C108.74 81.7285 110.704 80.2485 110.198 78.8531C108.682 74.7045 106.441 70.7865 104.452 66.8566C103.528 65.0316 100.635 66.3191 101.542 68.1711" fill="#260029"/>
<path d="M133.671 22.7748C139.223 32.1227 146.162 41.2412 154.838 47.9115C156.524 49.2132 158.921 46.6705 157.38 45.126C149.737 37.4913 142.455 30.0318 136.356 21.0415C135.342 19.5442 132.736 21.2034 133.671 22.7748" fill="#260029"/>
<path d="M130.544 41.2478C132.625 46.4748 137.138 52.6459 143.008 53.7925C144.204 54.0218 145.195 52.2278 144.267 51.378C142.373 49.6447 140.084 48.4914 138.255 46.6434C136.284 44.6538 134.712 42.3606 133.516 39.8315C132.599 37.9093 129.767 39.2919 130.544 41.2478" fill="#260029"/>
<path d="M163.35 27.5503C164.175 32.811 166.416 39.8253 171.009 43.0154C172.12 43.7843 173.754 42.5298 173.079 41.2618C171.883 39.0159 170.094 37.1881 168.932 34.895C167.67 32.3996 166.872 29.7625 166.398 27.0108C166.061 25.0481 163.041 25.5809 163.35 27.5503Z" fill="#260029"/>
<path d="M201.924 9.75115C203.086 18.6943 203.56 28.1434 205.773 36.8842C206.141 38.3343 208.663 38.4961 208.613 36.7695C208.333 27.6173 206.17 18.2964 204.811 9.23856C204.527 7.37034 201.679 7.88967 201.924 9.75115" fill="#260029"/>
<path d="M222.052 28.4405C222.394 30.3964 222.695 32.3657 223.092 34.3149C223.469 36.1426 226.08 35.6301 225.92 33.8158C225.74 31.8329 225.477 29.8568 225.226 27.8806C224.966 25.8236 221.694 26.3834 222.052 28.4405Z" fill="#260029"/>
<path d="M8.90334 172.84C18.1588 175.571 29.1287 179.146 38.7611 179.233C40.5632 179.254 41.1217 176.94 39.4592 176.185C30.6677 172.145 19.2548 170.654 9.75179 169.13C7.62054 168.786 6.8166 172.219 8.90334 172.84Z" fill="#260029"/>
<path d="M20.4088 162.021C25.0901 164.267 29.9354 167.201 35.0328 168.307C36.6137 168.651 37.1911 166.351 36.058 165.529C31.869 162.467 26.3466 160.848 21.5837 158.852C19.5441 158.002 18.4772 161.104 20.4088 162.021" fill="#260029"/>
<path d="M39.3353 119.578C46.7805 123.227 54.3026 127.355 62.135 130.1C64.0241 130.767 65.7049 127.935 63.8238 126.869C56.4575 122.728 48.2852 119.7 40.4866 116.462C38.4767 115.633 37.4543 118.661 39.3353 119.578" fill="#260029"/>
<path d="M62.8227 115.518C65.5785 117.946 68.2898 120.361 71.3113 122.458C72.584 123.342 74.3227 121.575 73.1876 120.401C70.5317 117.656 67.639 115.269 64.691 112.847C63.0494 111.505 61.2816 114.163 62.8227 115.518Z" fill="#260029"/>
<path d="M1.38695 218.021C11.6008 217.893 22.777 217.731 32.738 215.458C34.3108 215.1 34.3553 212.645 32.6193 212.524C22.4236 211.816 11.3324 213.387 1.26016 214.891C-0.454825 215.148 -0.425826 218.041 1.38695 218.021" fill="#260029"/>
<path d="M16.2386 234.194C21.1546 233.904 26.9852 234.336 31.6982 232.919C33.2947 232.447 33.3581 230.195 31.5795 229.925C26.5475 229.156 20.7176 230.437 15.6403 230.801C13.4201 230.957 14.0574 234.322 16.2386 234.194" fill="#260029"/>
<path d="M10.1681 257.981C20.7299 256.046 31.8165 254.609 42.0175 251.203C43.6982 250.643 42.6495 248.317 41.1347 248.438C30.5573 249.281 19.9132 252.276 9.57524 254.616C7.44669 255.102 7.99501 258.379 10.1681 257.981" fill="#260029"/>
<path d="M44.9103 287.934C41.9697 289.863 38.9401 291.846 36.3792 294.28C35.2151 295.387 36.4035 297.477 37.9601 296.722C41.2589 295.117 44.275 292.83 47.2048 290.639C49.0676 289.249 46.7704 286.713 44.9103 287.934Z" fill="#260029"/>
<path d="M56.1631 304.101C50.9024 311.041 44.45 313.819 36.4281 316.409C34.9632 316.881 35.5162 319.242 36.9414 319.316C45.8151 319.768 54.5775 313.347 58.8056 305.942C59.8199 304.168 57.4358 302.421 56.1631 304.101Z" fill="#260029"/>
<path d="M62.1568 321.764C55.5809 326.296 48.9134 330.714 42.6241 335.644C41.4992 336.521 42.7509 338.565 44.0128 337.789C50.9097 333.52 57.4229 328.671 64.0142 323.949C65.5216 322.87 63.6615 320.732 62.1568 321.764Z" fill="#260029"/>
<path d="M86.2544 333.149C82.497 336.791 78.7248 340.42 74.9992 344.082C71.6323 347.407 67.6592 350.644 65.0673 354.617C64.3395 355.736 65.5751 357.618 66.8977 356.782C70.9235 354.246 74.1932 350.449 77.5783 347.13C81.3194 343.468 85.0161 339.759 88.7329 336.076C90.4723 334.356 88.0349 331.429 86.2544 333.149" fill="#260029"/>
<path d="M90.6458 344.372C87.9271 348.418 84.913 352.377 82.6658 356.714C81.9178 358.164 84.1333 359.048 85.0472 357.962C88.1011 354.32 90.5271 350.077 93.1278 346.112C94.1947 344.48 91.7364 342.746 90.6458 344.372Z" fill="#260029"/>
<path d="M101.206 354.104C95.8998 363.513 90.2068 372.516 83.8703 381.277C82.8614 382.667 84.9245 384.002 86.007 382.775C93.1811 374.614 99.214 365.32 103.725 355.426C104.394 353.956 102.007 352.681 101.206 354.104Z" fill="#260029"/>
<path d="M113.734 363.641C111.829 367.249 109.951 370.871 108.072 374.492C107.438 375.72 109.545 376.839 110.224 375.625C112.161 372.172 114.098 368.712 116.055 365.266C116.964 363.674 114.575 362.049 113.734 363.641Z" fill="#260029"/>
<path d="M140.044 382.262C135.339 392.804 130.383 403.325 126.418 414.17C125.825 415.789 128.126 416.537 128.868 415.074C134.09 404.768 138.413 393.964 142.887 383.314C143.643 381.5 140.831 380.495 140.044 382.262" fill="#260029"/>
<path d="M154.595 390.254C151.605 396.675 148.067 403.129 145.941 409.887C145.474 411.371 147.574 412.666 148.459 411.216C152.227 405.045 154.796 398.017 157.707 391.408C158.576 389.438 155.488 388.339 154.595 390.254Z" fill="#260029"/>
<path d="M172.367 397.694C172.024 402.158 171.205 406.866 171.574 411.331C171.682 412.66 173.924 412.902 174.238 411.574C175.257 407.217 175.141 402.448 175.447 397.99C175.584 396.001 172.52 395.704 172.367 397.694" fill="#260029"/>
<path d="M402.938 206.487C409.467 207.89 416.854 206.885 423.541 206.737C429.598 206.609 435.749 206.69 441.727 205.665C443.468 205.368 443.323 202.812 441.606 202.603C434.806 201.766 427.833 202.299 420.996 202.488C414.987 202.656 408.643 202.13 402.826 203.682C401.231 204.107 401.371 206.15 402.938 206.487" fill="#260029"/>
<path d="M401.061 195.393C408.701 196.607 416.291 195.832 423.181 192.217C424.744 191.4 423.631 189.263 422.032 189.802C415.306 192.055 408.427 193.114 401.369 192.115C399.262 191.819 398.985 195.063 401.061 195.393Z" fill="#260029"/>
<path d="M398.698 180.596C402.813 178.775 407.081 177.123 411.03 174.944C412.566 174.101 411.488 171.99 409.881 172.53C405.605 173.973 401.503 176.003 397.37 177.804C395.544 178.593 396.872 181.405 398.698 180.596Z" fill="#260029"/>
<path d="M384.619 95.9255C378.246 103.52 370.724 109.3 362.552 114.81C361.427 115.572 362.647 117.407 363.835 116.8C372.803 112.22 380.354 105.118 386.676 97.3621C387.706 96.1009 385.649 94.6913 384.619 95.9255Z" fill="#260029"/>
<path d="M71.0212 68.4293C80.0315 72.5646 87.5963 78.2878 95.0732 84.7101C96.1059 85.5932 97.5522 83.9316 96.6523 82.9463C89.8623 75.5103 81.0151 70.1091 71.8619 66.0647C70.373 65.4054 69.5582 67.7622 71.0212 68.4293Z" fill="#260029"/>
<path d="M383.014 116.253C377.874 119.761 372.69 123.153 367.923 127.146C366.798 128.097 368.021 130.16 369.365 129.385C374.863 126.195 379.943 122.431 385.098 118.708C386.795 117.494 384.703 115.1 383.014 116.253" fill="#260029"/>
<path d="M392.088 133.29C387.277 135.515 381.942 137.377 377.448 140.189C376.309 140.904 376.681 143.211 378.256 142.718C383.436 141.093 388.426 138.22 393.331 135.906C395.017 135.111 393.787 132.494 392.088 133.29Z" fill="#260029"/>
<path d="M351.376 70.4244C347.849 72.124 344.424 74.208 341.539 76.8721C338.994 79.2327 335.753 82.2475 334.66 85.5927C334.199 87.0091 335.891 88.3378 337.087 87.2924C339.634 85.0802 341.368 81.9642 343.881 79.6306C346.576 77.1149 349.427 74.9027 352.633 73.075C354.253 72.151 353.102 69.5949 351.376 70.4244" fill="#260029"/>
<path d="M327.908 67.5916C327.529 70.0736 327.171 72.5555 326.841 75.0375C326.602 76.845 329.239 76.9934 329.599 75.3006C330.126 72.8388 330.622 70.3704 331.085 67.8951C331.465 65.8853 328.219 65.5615 327.908 67.5916Z" fill="#260029"/>
<path d="M363.539 317.69C374.567 326.316 386.752 336.082 399.438 342.085C400.831 342.739 402.322 340.662 401.19 339.583C391.031 329.911 377.536 322.054 365.518 314.864C363.618 313.731 361.776 316.314 363.539 317.69Z" fill="#260029"/>
<path d="M367.62 305.125C373.907 308.471 380.282 312.76 386.976 315.175C388.444 315.701 389.506 313.684 388.239 312.767C382.469 308.599 375.321 305.766 369.014 302.468C367.507 301.672 366.103 304.323 367.62 305.125" fill="#260029"/>
<path d="M383.147 289.289C388.247 288.844 392.452 291.11 396 294.584C397.142 295.703 399.41 294.577 398.522 292.952C395.408 287.259 388.747 284.757 382.504 285.641C380.114 285.985 380.807 289.505 383.147 289.289Z" fill="#260029"/>
<path d="M390.296 254.084C403.59 258.11 417.06 262.77 430.752 265.205C432.37 265.495 432.836 263.027 431.379 262.467C418.528 257.517 404.709 254.556 391.371 251.183C389.476 250.705 388.362 253.497 390.296 254.084" fill="#260029"/>
<path d="M394.215 245.336C401.331 245.667 407.39 247.96 414.114 249.976C415.642 250.442 416.917 248.358 415.463 247.407C409.466 243.468 401.576 242.234 394.528 242.031C392.407 241.971 392.07 245.235 394.215 245.336" fill="#260029"/>
<path d="M397.664 236.433C400.146 236.763 402.63 237.087 405.109 237.431C406.85 237.674 407.003 235.118 405.362 234.767C402.896 234.241 400.433 233.715 397.969 233.189C395.962 232.764 395.551 236.15 397.664 236.433Z" fill="#260029"/>
<path d="M281.598 380.967C285.574 392.655 289.607 405.625 295.864 416.288C296.599 417.536 298.804 417.07 298.449 415.465C295.759 403.244 289.85 390.854 284.772 379.463C283.829 377.352 280.89 378.883 281.598 380.967" fill="#260029"/>
<path d="M270.361 385.364C274.689 392.864 276.425 400.56 278.162 408.943C278.473 410.427 280.878 410.461 280.941 408.829C281.271 400.04 277.822 391.32 273.212 384.002C272.155 382.323 269.325 383.57 270.361 385.364" fill="#260029"/>
<path d="M247.843 393.741C247.153 398.948 248.001 404.694 251.507 408.788C252.519 409.968 254.448 408.734 253.792 407.311C251.758 402.9 250.43 398.981 251.054 394.044C251.315 391.981 248.117 391.691 247.843 393.741" fill="#260029"/>
<path d="M218.398 397.7C216.246 402.293 213.537 407.035 212.368 411.999C211.986 413.61 214.033 415.027 215.115 413.442C218.071 409.092 219.752 403.764 221.755 398.934C222.645 396.783 219.36 395.636 218.398 397.7" fill="#260029"/>
<path d="M321.131 367.855C326.674 372.415 332.488 378.134 339.089 381.075C340.619 381.749 341.9 379.685 340.893 378.491C336.251 372.974 329.109 368.961 323.202 364.895C321.263 363.566 319.356 366.392 321.131 367.855" fill="#260029"/>
<path d="M335.381 351.298C337.318 351.298 337.618 348.283 335.668 348.283C333.732 348.283 333.432 351.298 335.381 351.298Z" fill="#260029"/>
<path d="M335.777 357.22C341.078 358.913 344.005 363.681 344.44 369.056C344.556 370.452 346.895 370.695 347.23 369.306C348.934 362.184 344.216 355.163 337.176 353.436C334.718 352.829 333.259 356.41 335.777 357.22" fill="#260029"/>
<path d="M309.508 380.171C309.732 382.33 309.93 384.393 310.617 386.457C311.089 387.88 313.462 387.381 313.494 385.951C313.541 383.78 313.12 381.736 312.683 379.611C312.258 377.561 309.295 378.121 309.508 380.171" fill="#260029"/>
</svg>
