<svg width="54" height="40" viewBox="0 0 54 40" fill="none" xmlns="http://www.w3.org/2000/svg">
<path d="M44.4854 1.32272L41.0922 3.97367L26.6446 14.71L12.1969 3.86763L8.80372 1.21668C8.00434 0.555394 7.02851 0.143158 5.99713 0.0310501C4.96575 -0.0810583 3.92415 0.111887 3.00135 0.585983C2.07856 1.06008 1.31514 1.79449 0.80566 2.69823C0.296185 3.60197 0.0630471 4.63532 0.13513 5.67027V36.3947C0.13513 37.3509 0.514971 38.2679 1.19109 38.944C1.86722 39.6202 2.78423 40 3.74041 40H12.1969V19.5347L26.6446 30.3771L41.0922 19.5347V40H49.5487C50.5049 40 51.4219 39.6202 52.0981 38.944C52.7742 38.2679 53.154 37.3509 53.154 36.3947V5.67027C53.2038 4.64425 52.9544 3.62587 52.4363 2.73892C51.9181 1.85196 51.1534 1.13463 50.2352 0.674117C49.317 0.213606 48.2848 0.0297492 47.264 0.144895C46.2433 0.26004 45.278 0.669229 44.4854 1.32272Z" fill="#2F3131"/>
</svg>
