<svg width="156" height="154" viewBox="0 0 156 154" fill="none" xmlns="http://www.w3.org/2000/svg">
<path d="M15.616 148.351C15.616 148.638 15.0275 148.888 14.1486 149.026C13.7048 149.096 13.3552 149.445 13.2857 149.889C13.1478 150.768 12.8975 151.357 12.6104 151.357C12.3234 151.357 12.073 150.768 11.9352 149.889C11.8656 149.445 11.516 149.096 11.0722 149.026C10.1926 148.888 9.60265 148.638 9.60265 148.351C9.60265 148.062 10.192 147.811 11.0711 147.675C11.5154 147.605 11.8656 147.255 11.9352 146.811C12.073 145.931 12.3234 145.343 12.6104 145.343C12.8975 145.343 13.1478 145.931 13.2856 146.811C13.3552 147.255 13.7054 147.605 14.1497 147.675C15.028 147.811 15.616 148.062 15.616 148.351Z" fill="#F9BA32"/>
<path d="M153.227 107.044C153.166 107.319 152.55 107.434 151.679 107.38C151.239 107.353 150.83 107.614 150.669 108.024C150.351 108.837 149.987 109.347 149.712 109.287C149.437 109.226 149.322 108.609 149.376 107.738C149.403 107.298 149.142 106.889 148.732 106.729C147.918 106.41 147.407 106.046 147.467 105.771C147.528 105.494 148.146 105.379 149.017 105.434C149.457 105.462 149.867 105.201 150.028 104.79C150.346 103.977 150.71 103.466 150.985 103.527C151.26 103.588 151.376 104.204 151.321 105.076C151.293 105.516 151.555 105.926 151.966 106.086C152.778 106.403 153.288 106.768 153.227 107.044Z" fill="#F9BA32"/>
<path d="M145.637 4.43515C145.637 4.7668 144.957 5.05589 143.942 5.21528C143.429 5.29547 143.025 5.69938 142.945 6.2122C142.785 7.22794 142.496 7.90808 142.164 7.90808C141.832 7.90808 141.543 7.22794 141.384 6.2122C141.303 5.69938 140.899 5.29547 140.387 5.21528C139.37 5.05589 138.689 4.7668 138.689 4.43515C138.689 4.10152 139.37 3.81196 140.386 3.65356C140.899 3.57386 141.303 3.16945 141.384 2.65613C141.543 1.6394 141.832 0.959268 142.164 0.959268C142.496 0.959268 142.785 1.6394 142.944 2.65613C143.025 3.16945 143.429 3.57386 143.943 3.65356C144.958 3.81196 145.637 4.10152 145.637 4.43515Z" fill="#F9BA32"/>
<path d="M148.865 32.5468C148.865 33.0849 148.429 33.521 147.891 33.521C147.353 33.521 146.917 33.0849 146.917 32.5468C146.917 32.0088 147.353 31.5727 147.891 31.5727C148.429 31.5727 148.865 32.0088 148.865 32.5468Z" fill="#F9BA32"/>
<path d="M137.542 147.485C137.153 147.802 136.58 147.744 136.263 147.355C135.945 146.965 136.003 146.393 136.392 146.075C136.782 145.758 137.355 145.816 137.672 146.205C137.99 146.594 137.931 147.167 137.542 147.485Z" fill="#F9BA32"/>
<path d="M153.025 130.608C152.703 131.159 151.995 131.343 151.445 131.02C150.894 130.698 150.71 129.99 151.032 129.439C151.355 128.889 152.063 128.705 152.613 129.028C153.163 129.35 153.348 130.058 153.025 130.608Z" fill="#F9BA32"/>
<path d="M2.83784 26.8404C2.92218 27.5953 2.37863 28.2754 1.62375 28.3596C0.868875 28.4442 0.188546 27.9007 0.104149 27.1459C0.0198006 26.391 0.56336 25.7104 1.31824 25.6262C2.07311 25.5421 2.75349 26.0856 2.83784 26.8404Z" fill="#F9BA32"/>
<path d="M119.449 8.89217C119.449 9.43023 119.012 9.86633 118.475 9.86633C117.937 9.86633 117.5 9.43023 117.5 8.89217C117.5 8.3541 117.937 7.91801 118.475 7.91801C119.012 7.91801 119.449 8.3541 119.449 8.89217Z" fill="#F9BA32"/>
<path d="M14.5988 2.45213C14.6832 3.20701 14.1396 3.88763 13.3848 3.97178C12.6299 4.05643 11.9496 3.51292 11.8652 2.75805C11.7808 2.00317 12.3244 1.32255 13.0793 1.2384C13.8341 1.15375 14.5145 1.69726 14.5988 2.45213Z" fill="#F9BA32"/>
<path d="M6.77895 136.766C6.77895 137.37 6.289 137.86 5.68465 137.86C5.08036 137.86 4.59045 137.37 4.59045 136.766C4.59045 136.162 5.08036 135.671 5.68465 135.671C6.289 135.671 6.77895 136.162 6.77895 136.766Z" fill="#F9BA32"/>
<path d="M155.16 56.2043C155.16 56.481 154.936 56.7052 154.659 56.7052C154.382 56.7052 154.157 56.481 154.157 56.2043C154.157 55.9276 154.382 55.7033 154.659 55.7033C154.936 55.7033 155.16 55.9276 155.16 56.2043Z" fill="#F9BA32"/>
<path d="M126.271 152.91C126.017 153.118 125.642 153.08 125.435 152.826C125.228 152.571 125.266 152.197 125.52 151.99C125.774 151.782 126.148 151.82 126.356 152.075C126.563 152.329 126.525 152.703 126.271 152.91Z" fill="#F9BA32"/>
<path d="M36.6945 7.0711C36.7375 7.45918 36.4584 7.80915 36.0698 7.85222C35.6817 7.89578 35.3317 7.61612 35.2882 7.22804C35.2451 6.83996 35.5248 6.48998 35.9129 6.44642C36.301 6.40335 36.6509 6.68253 36.6945 7.0711Z" fill="#F9BA32"/>
<path d="M12.0542 47.7406C12.0738 48.1307 11.7734 48.4628 11.3833 48.4826C10.9931 48.5019 10.661 48.202 10.6413 47.8114C10.6217 47.4214 10.9221 47.0892 11.3122 47.0694C11.7024 47.0501 12.0346 47.3506 12.0542 47.7406Z" fill="#F9BA32"/>
<path d="M12.5446 104.052C12.544 104.363 12.2916 104.614 11.9808 104.614C11.6699 104.613 11.4185 104.36 11.4191 104.05C11.4197 103.739 11.6721 103.488 11.9829 103.488C12.2937 103.489 12.5451 103.741 12.5446 104.052Z" fill="#F9BA32"/>
<path d="M3.75879 94.4632C3.6934 95.0904 3.13193 95.5458 2.50476 95.4805C1.8776 95.4151 1.4222 94.8538 1.48759 94.2266C1.55302 93.5995 2.1144 93.1441 2.74157 93.2094C3.36878 93.2747 3.82418 93.8361 3.75879 94.4632Z" fill="#F9BA32"/>
</svg>
