<svg width="80" height="80" viewBox="0 0 80 80" fill="none" xmlns="http://www.w3.org/2000/svg">
<circle cx="40" cy="40" r="40" fill="#426E86"/>
<path d="M58.625 58H21.625C20.3984 58 19.222 57.5127 18.3546 56.6454C17.4873 55.778 17 54.6016 17 53.375V25.4238C17.0519 24.2324 17.562 23.1071 18.4238 22.2827C19.2856 21.4584 20.4324 20.9989 21.625 21H58.625C59.8516 21 61.028 21.4873 61.8954 22.3546C62.7627 23.222 63.25 24.3984 63.25 25.625V53.375C63.25 54.6016 62.7627 55.778 61.8954 56.6454C61.028 57.5127 59.8516 58 58.625 58ZM21.625 29.9448V53.375H58.625V29.9448L40.125 42.275L21.625 29.9448ZM23.475 25.625L40.125 36.725L56.775 25.625H23.475Z" fill="#F8F1E5"/>
</svg>
