<svg width="566" height="610" viewBox="0 0 566 610" fill="none" xmlns="http://www.w3.org/2000/svg">
<path d="M277.801 33.0651C278.349 34.1257 278.872 34.6962 278.843 35.2405C278.829 35.6225 278.041 36.2895 277.658 36.2587C277.208 36.2172 276.463 35.5097 276.487 35.14C276.528 34.5777 277.125 34.0616 277.801 33.0651Z" fill="#2F3131"/>
<path d="M278.422 87.4268C277.851 86.8187 277.09 86.3315 277.144 85.9986C277.264 85.4279 277.874 84.9477 278.286 84.4342C278.711 84.9032 279.367 85.3269 279.5 85.8755C279.585 86.2209 278.913 86.7668 278.422 87.4268Z" fill="#2F3131"/>
<path d="M276.603 0.049394C277.134 0.691207 277.767 1.1231 277.737 1.50175C277.712 1.95813 277.112 2.36636 276.757 2.79293C276.337 2.42925 275.648 2.11062 275.577 1.68955C275.514 1.28459 276.114 0.792269 276.603 0.049394Z" fill="#2F3131"/>
<path d="M276.708 6.5958C277.304 7.13916 277.972 7.48972 277.946 7.77914C277.913 8.27336 277.444 8.73445 277.152 9.20446C276.757 8.94176 276.052 8.70268 276.027 8.40713C275.998 7.92214 276.386 7.39052 276.708 6.5958Z" fill="#2F3131"/>
<path d="M278.478 53.737C278.791 54.43 279.176 54.8763 279.11 55.2271C279.031 55.5694 278.487 55.8092 278.151 56.0972C277.878 55.7319 277.375 55.3529 277.389 54.9985C277.395 54.6557 277.937 54.3344 278.478 53.737Z" fill="#2F3131"/>
<path d="M279.736 95.1173C279.238 95.6771 278.857 96.338 278.65 96.291C278.174 96.1774 277.784 95.7111 277.356 95.3865C277.668 95.0528 277.947 94.5192 278.308 94.4452C278.662 94.3814 279.103 94.7971 279.736 95.1173Z" fill="#2F3131"/>
<path d="M279.472 64.4982C278.955 64.9757 278.603 65.2868 278.251 65.599C277.925 65.1474 277.5 64.7336 277.339 64.2271C277.291 64.0766 278.018 63.4752 278.4 63.481C278.713 63.4786 279.032 64.0522 279.472 64.4982Z" fill="#2F3131"/>
<path d="M279.07 102.914C279.316 103.46 279.627 103.821 279.56 104.091C279.483 104.403 279.072 104.635 278.806 104.9C278.534 104.533 278.17 104.196 278.052 103.79C278.015 103.651 278.56 103.326 279.07 102.914Z" fill="#2F3131"/>
<path d="M278.123 74.667C278.548 75.1624 278.985 75.4452 278.983 75.7277C278.987 76.0276 278.595 76.3435 278.361 76.6425C278.073 76.412 277.595 76.2181 277.541 75.9384C277.483 75.6375 277.822 75.2615 278.123 74.667Z" fill="#2F3131"/>
<path d="M278.446 25.6036C277.962 25.9208 277.662 26.1249 277.363 26.329C277.111 25.9594 276.873 25.5969 276.621 25.2273C276.931 25.0355 277.263 24.671 277.552 24.7057C277.825 24.737 278.048 25.179 278.446 25.6036Z" fill="#2F3131"/>
<path d="M278.236 16.2966C277.596 16.5717 277.266 16.8219 276.943 16.8108C276.729 16.8016 276.313 16.3185 276.36 16.2193C276.508 15.8838 276.801 15.4402 277.099 15.4055C277.344 15.3674 277.667 15.8241 278.236 16.2966Z" fill="#2F3131"/>
<path d="M278.259 44.8893C277.395 44.8906 277.417 46.2206 278.269 46.2095C279.12 46.1985 279.11 44.8783 278.259 44.8893Z" fill="#2F3131"/>
<path d="M280.174 145.585C280.723 146.645 281.245 147.216 281.229 147.769C281.203 148.143 280.415 148.808 280.031 148.779C279.582 148.736 278.837 148.03 278.86 147.66C278.914 147.106 279.511 146.59 280.174 145.585Z" fill="#2F3131"/>
<path d="M280.794 199.95C280.224 199.341 279.463 198.853 279.529 198.53C279.636 197.951 280.246 197.471 280.659 196.956C281.095 197.435 281.739 197.85 281.886 198.406C281.969 198.752 281.285 199.29 280.794 199.95Z" fill="#2F3131"/>
<path d="M278.977 112.569C279.521 113.22 280.14 113.643 280.111 114.022C280.085 114.478 279.485 114.888 279.13 115.314C278.709 114.951 278.02 114.632 277.962 114.219C277.899 113.814 278.487 113.312 278.977 112.569Z" fill="#2F3131"/>
<path d="M279.081 119.116C279.69 119.668 280.345 120.01 280.318 120.301C280.286 120.794 279.817 121.255 279.525 121.726C279.129 121.463 278.438 121.232 278.412 120.937C278.371 120.443 278.758 119.912 279.081 119.116Z" fill="#2F3131"/>
<path d="M280.851 166.258C281.165 166.95 281.563 167.404 281.483 167.748C281.404 168.089 280.86 168.33 280.524 168.617C280.251 168.252 279.761 167.882 279.762 167.52C279.781 167.184 280.31 166.855 280.851 166.258Z" fill="#2F3131"/>
<path d="M282.116 207.643C281.614 208.201 281.233 208.863 281.022 208.812C280.547 208.698 280.156 208.233 279.728 207.909C280.04 207.575 280.319 207.041 280.692 206.976C281.034 206.902 281.475 207.318 282.116 207.643Z" fill="#2F3131"/>
<path d="M281.856 177.03C281.327 177.499 280.974 177.811 280.622 178.122C280.295 177.672 279.871 177.258 279.711 176.75C279.663 176.6 280.403 176.007 280.771 176.004C281.084 176.003 281.404 176.575 281.856 177.03Z" fill="#2F3131"/>
<path d="M281.44 215.437C281.687 215.983 282.001 216.348 281.934 216.618C281.857 216.93 281.444 217.158 281.175 217.424C280.909 217.06 280.549 216.724 280.429 216.316C280.386 216.175 280.939 215.857 281.44 215.437Z" fill="#2F3131"/>
<path d="M280.496 187.187C280.935 187.691 281.358 187.966 281.369 188.256C281.373 188.556 280.969 188.863 280.747 189.171C280.458 188.941 279.969 188.738 279.914 188.459C279.868 188.167 280.209 187.79 280.496 187.187Z" fill="#2F3131"/>
<path d="M280.818 138.127C280.334 138.442 280.034 138.648 279.734 138.852C279.496 138.49 279.244 138.12 278.993 137.749C279.303 137.557 279.636 137.193 279.924 137.229C280.197 137.26 280.419 137.702 280.818 138.127Z" fill="#2F3131"/>
<path d="M280.622 128.825C279.969 129.093 279.638 129.343 279.316 129.332C279.101 129.323 278.687 128.839 278.733 128.741C278.895 128.412 279.186 127.97 279.472 127.927C279.718 127.888 280.04 128.346 280.622 128.825Z" fill="#2F3131"/>
<path d="M280.631 157.411C279.78 157.422 279.79 158.742 280.641 158.731C281.492 158.721 281.483 157.4 280.631 157.411Z" fill="#2F3131"/>
<path d="M282.224 255.586C282.769 256.645 283.289 257.215 283.269 257.763C283.253 258.143 282.464 258.811 282.073 258.775C281.627 258.736 280.882 258.027 280.91 257.661C280.955 257.101 281.55 256.586 282.224 255.586Z" fill="#2F3131"/>
<path d="M282.837 309.944C282.267 309.337 281.505 308.85 281.57 308.524C281.682 307.948 282.296 307.47 282.7 306.952C283.135 307.427 283.788 307.849 283.924 308.399C284.011 308.746 283.328 309.286 282.837 309.944Z" fill="#2F3131"/>
<path d="M281.02 222.569C281.557 223.216 282.186 223.644 282.158 224.026C282.125 224.477 281.527 224.887 281.175 225.315C280.755 224.952 280.062 224.632 279.999 224.215C279.938 223.812 280.528 223.312 281.02 222.569Z" fill="#2F3131"/>
<path d="M281.13 229.118C281.73 229.664 282.388 230.007 282.366 230.302C282.332 230.793 281.862 231.254 281.575 231.727C281.178 231.463 280.475 231.225 280.451 230.932C280.413 230.439 280.804 229.912 281.13 229.118Z" fill="#2F3131"/>
<path d="M282.896 276.257C283.214 276.951 283.604 277.398 283.526 277.744C283.449 278.087 282.906 278.328 282.567 278.614C282.294 278.249 281.801 277.878 281.812 277.519C281.82 277.178 282.355 276.852 282.896 276.257Z" fill="#2F3131"/>
<path d="M284.158 317.642C283.656 318.199 283.275 318.86 283.064 318.811C282.588 318.697 282.197 318.23 281.771 317.908C282.088 317.576 282.365 317.043 282.732 316.972C283.081 316.904 283.523 317.321 284.158 317.642Z" fill="#2F3131"/>
<path d="M283.895 287.024C283.368 287.495 283.017 287.808 282.668 288.121C282.342 287.671 281.914 287.253 281.759 286.75C281.714 286.601 282.443 286 282.814 286.001C283.131 286.002 283.445 286.571 283.895 287.024Z" fill="#2F3131"/>
<path d="M283.483 325.434C283.73 325.98 284.045 326.345 283.978 326.613C283.9 326.927 283.487 327.155 283.22 327.421C282.952 327.056 282.59 326.72 282.472 326.313C282.429 326.172 282.984 325.853 283.483 325.434Z" fill="#2F3131"/>
<path d="M282.54 297.189C282.97 297.687 283.4 297.967 283.406 298.254C283.413 298.555 283.009 298.863 282.786 299.169C282.494 298.936 282.013 298.74 281.961 298.464C281.904 298.164 282.247 297.788 282.54 297.189Z" fill="#2F3131"/>
<path d="M282.859 248.123C282.383 248.445 282.082 248.648 281.779 248.851C281.533 248.484 281.285 248.117 281.039 247.75C281.349 247.558 281.679 247.192 281.963 247.225C282.237 247.257 282.463 247.7 282.859 248.123Z" fill="#2F3131"/>
<path d="M282.663 238.818C282.015 239.088 281.683 239.338 281.359 239.325C281.146 239.317 280.735 238.836 280.782 238.737C280.935 238.405 281.228 237.963 281.518 237.921C281.768 237.887 282.086 238.342 282.663 238.818Z" fill="#2F3131"/>
<path d="M282.671 267.41C281.819 267.419 281.833 268.744 282.686 268.733C283.538 268.723 283.524 267.4 282.671 267.41Z" fill="#2F3131"/>
<path d="M284.238 405.791C283.695 404.73 283.177 404.16 283.2 403.612C283.217 403.232 284.006 402.567 284.398 402.603C284.842 402.644 285.587 403.352 285.558 403.72C285.511 404.279 284.914 404.794 284.238 405.791Z" fill="#2F3131"/>
<path d="M283.768 351.431C284.337 352.04 285.096 352.529 285.032 352.856C284.919 353.431 284.303 353.906 283.896 354.425C283.463 353.948 282.813 353.524 282.678 352.975C282.591 352.626 283.276 352.088 283.768 351.431Z" fill="#2F3131"/>
<path d="M285.35 438.811C284.815 438.164 284.187 437.733 284.217 437.353C284.25 436.902 284.85 436.493 285.204 436.067C285.621 436.431 286.314 436.754 286.376 437.17C286.435 437.573 285.845 438.072 285.35 438.811Z" fill="#2F3131"/>
<path d="M285.262 432.262C284.664 431.715 284.006 431.37 284.028 431.076C284.065 430.584 284.536 430.125 284.823 429.653C285.22 429.917 285.921 430.157 285.944 430.451C285.983 430.944 285.589 431.47 285.262 432.262Z" fill="#2F3131"/>
<path d="M283.619 385.12C283.302 384.424 282.915 383.975 282.993 383.63C283.07 383.286 283.615 383.048 283.954 382.763C284.226 383.128 284.719 383.502 284.707 383.859C284.697 384.2 284.163 384.525 283.619 385.12Z" fill="#2F3131"/>
<path d="M282.466 343.73C282.968 343.173 283.352 342.513 283.562 342.564C284.037 342.679 284.428 343.146 284.853 343.471C284.535 343.801 284.257 344.334 283.889 344.404C283.541 344.47 283.098 344.053 282.466 343.73Z" fill="#2F3131"/>
<path d="M282.649 374.35C283.178 373.881 283.529 373.568 283.88 373.256C284.204 373.708 284.632 374.125 284.786 374.629C284.83 374.779 284.1 375.378 283.727 375.374C283.412 375.374 283.098 374.803 282.649 374.35Z" fill="#2F3131"/>
<path d="M283.161 335.94C282.915 335.393 282.601 335.029 282.669 334.759C282.747 334.446 283.16 334.218 283.43 333.955C283.695 334.319 284.056 334.655 284.175 335.063C284.216 335.205 283.662 335.523 283.161 335.94Z" fill="#2F3131"/>
<path d="M284.028 364.189C283.599 363.689 283.17 363.409 283.165 363.121C283.161 362.821 283.564 362.513 283.789 362.208C284.08 362.441 284.56 362.638 284.61 362.915C284.667 363.217 284.324 363.591 284.028 364.189Z" fill="#2F3131"/>
<path d="M283.58 413.255C284.057 412.935 284.36 412.732 284.661 412.529C284.907 412.897 285.153 413.265 285.399 413.633C285.089 413.824 284.757 414.189 284.473 414.155C284.198 414.122 283.974 413.678 283.58 413.255Z" fill="#2F3131"/>
<path d="M283.754 422.558C284.4 422.287 284.735 422.04 285.058 422.053C285.271 422.061 285.681 422.543 285.635 422.643C285.48 422.974 285.186 423.415 284.896 423.456C284.644 423.49 284.327 423.035 283.754 422.558Z" fill="#2F3131"/>
<path d="M283.82 393.967C284.671 393.96 284.661 392.637 283.808 392.645C282.955 392.652 282.967 393.976 283.82 393.967Z" fill="#2F3131"/>
<path d="M285.986 493.543C286.535 494.603 287.057 495.174 287.029 495.718C287.015 496.1 286.227 496.767 285.843 496.736C285.394 496.695 284.649 495.987 284.673 495.618C284.713 495.056 285.311 494.539 285.986 493.543Z" fill="#2F3131"/>
<path d="M286.608 547.905C286.037 547.297 285.276 546.809 285.33 546.476C285.45 545.906 286.06 545.426 286.472 544.912C286.897 545.381 287.553 545.805 287.686 546.353C287.771 546.699 287.099 547.245 286.608 547.905Z" fill="#2F3131"/>
<path d="M284.79 460.527C285.32 461.169 285.953 461.601 285.923 461.98C285.898 462.436 285.298 462.844 284.943 463.271C284.523 462.907 283.834 462.588 283.763 462.167C283.7 461.762 284.3 461.27 284.79 460.527Z" fill="#2F3131"/>
<path d="M284.923 448.081C285.454 448.723 286.086 449.155 286.057 449.534C286.031 449.99 285.432 450.398 285.077 450.825C284.656 450.461 283.967 450.143 283.896 449.722C283.833 449.317 284.433 448.824 284.923 448.081Z" fill="#2F3131"/>
<path d="M284.894 467.074C285.49 467.617 286.158 467.968 286.132 468.257C286.099 468.751 285.63 469.212 285.339 469.682C284.943 469.42 284.238 469.18 284.213 468.885C284.184 468.4 284.572 467.868 284.894 467.074Z" fill="#2F3131"/>
<path d="M286.664 514.215C286.977 514.908 287.362 515.354 287.296 515.705C287.217 516.047 286.673 516.287 286.337 516.575C286.064 516.21 285.561 515.831 285.575 515.476C285.581 515.134 286.123 514.812 286.664 514.215Z" fill="#2F3131"/>
<path d="M287.921 555.595C287.424 556.155 287.043 556.816 286.836 556.769C286.36 556.655 285.97 556.189 285.542 555.864C285.854 555.531 286.133 554.997 286.493 554.923C286.847 554.859 287.289 555.275 287.921 555.595Z" fill="#2F3131"/>
<path d="M287.658 524.976C287.141 525.453 286.789 525.765 286.437 526.077C286.111 525.625 285.686 525.211 285.525 524.705C285.477 524.554 286.204 523.953 286.586 523.959C286.899 523.956 287.218 524.53 287.658 524.976Z" fill="#2F3131"/>
<path d="M287.256 563.392C287.501 563.937 287.813 564.299 287.746 564.568C287.668 564.881 287.258 565.113 286.992 565.378C286.72 565.011 286.355 564.673 286.238 564.267C286.201 564.129 286.745 563.804 287.256 563.392Z" fill="#2F3131"/>
<path d="M286.309 535.145C286.734 535.64 287.172 535.923 287.169 536.206C287.173 536.506 286.781 536.821 286.547 537.12C286.259 536.89 285.781 536.696 285.727 536.416C285.669 536.115 286.008 535.739 286.309 535.145Z" fill="#2F3131"/>
<path d="M286.632 486.081C286.148 486.399 285.848 486.603 285.548 486.807C285.297 486.437 285.059 486.075 284.807 485.705C285.117 485.513 285.449 485.149 285.738 485.184C286.011 485.215 286.233 485.657 286.632 486.081Z" fill="#2F3131"/>
<path d="M286.422 476.774C285.782 477.049 285.452 477.3 285.129 477.289C284.915 477.279 284.499 476.796 284.546 476.697C284.694 476.362 284.987 475.918 285.285 475.883C285.53 475.845 285.853 476.302 286.422 476.774Z" fill="#2F3131"/>
<path d="M286.445 505.367C285.582 505.368 285.603 506.698 286.455 506.687C287.306 506.676 287.296 505.356 286.445 505.367Z" fill="#2F3131"/>
<path d="M288.36 606.063C288.909 607.122 289.431 607.694 289.415 608.247C289.388 608.62 288.601 609.286 288.216 609.257C287.768 609.214 287.022 608.508 287.046 608.138C287.099 607.584 287.697 607.068 288.36 606.063Z" fill="#2F3131"/>
<path d="M287.163 573.047C287.706 573.697 288.326 574.121 288.296 574.5C288.271 574.956 287.67 575.365 287.316 575.792C286.895 575.428 286.206 575.11 286.148 574.697C286.085 574.292 286.673 573.79 287.163 573.047Z" fill="#2F3131"/>
<path d="M287.267 579.594C287.875 580.146 288.53 580.488 288.504 580.779C288.472 581.272 288.003 581.733 287.71 582.204C287.315 581.941 286.624 581.709 286.598 581.415C286.557 580.92 286.944 580.39 287.267 579.594Z" fill="#2F3131"/>
<path d="M289.004 598.604C288.52 598.92 288.219 599.126 287.92 599.33C287.682 598.967 287.43 598.598 287.179 598.227C287.489 598.035 287.821 597.671 288.11 597.706C288.382 597.738 288.605 598.18 289.004 598.604Z" fill="#2F3131"/>
<path d="M288.808 589.303C288.154 589.571 287.824 589.821 287.501 589.81C287.287 589.801 286.873 589.317 286.919 589.219C287.08 588.89 287.372 588.448 287.657 588.405C287.904 588.365 288.225 588.823 288.808 589.303Z" fill="#2F3131"/>
</svg>
