<svg width="38" height="41" viewBox="0 0 38 41" fill="none" xmlns="http://www.w3.org/2000/svg">
<path d="M25.2261 14.9309C29.2506 16.2072 33.2056 17.4617 37.32 18.7652C36.3751 21.55 33.7669 21.0799 32.1605 22.1704C30.5337 23.2746 28.8886 24.3552 27.075 25.5644C28.185 30.3175 29.2655 34.9408 30.4472 40.0033C26.8519 39.2705 26.1517 36.2099 24.1685 34.6232C22.1591 33.0164 19.963 31.6437 17.4037 29.8585C14.4813 32.8412 11.5247 35.8604 8.07399 39.3839C8.00682 37.9986 7.81782 37.3155 7.97037 36.7178C8.72973 33.7235 9.53692 30.7386 10.4078 27.775C11.2264 24.9849 11.0853 24.6274 8.58519 23.0585C5.88361 21.3632 3.23666 19.5795 3.81826e-07 17.464C1.30468 17.0223 2.00031 16.7209 2.72665 16.5545C5.85288 15.8394 8.99726 15.2043 12.1167 14.4619C14.2092 13.9633 15.3909 12.5436 16.1901 10.541C17.4242 7.44783 18.9064 4.45367 20.3193 1.43446C20.5049 1.03827 20.8954 0.738861 21.5296 -3.44998e-06C23.7439 4.90223 23.77 9.9001 25.2261 14.9309Z" fill="#F9BA32"/>
</svg>
