<svg width="566" height="611" viewBox="0 0 566 611" fill="none" xmlns="http://www.w3.org/2000/svg">
<path d="M278.167 34.0331C278.715 35.0937 279.238 35.6642 279.209 36.2086C279.196 36.5905 278.407 37.2576 278.024 37.2268C277.574 37.1853 276.83 36.4778 276.853 36.1081C276.894 35.5458 277.491 35.0297 278.167 34.0331" fill="#2F3131"/>
<path d="M278.789 88.3949C278.217 87.7869 277.456 87.2996 277.51 86.9667C277.63 86.396 278.24 85.9159 278.652 85.4024C279.077 85.8714 279.733 86.295 279.867 86.8437C279.951 87.1891 279.279 87.7349 278.789 88.3949" fill="#2F3131"/>
<path d="M276.97 1.01759C277.5 1.65941 278.133 2.0913 278.104 2.46995C278.078 2.92633 277.478 3.33456 277.123 3.76113C276.703 3.39745 276.014 3.07882 275.943 2.65775C275.88 2.25279 276.48 1.76047 276.97 1.01759Z" fill="#2F3131"/>
<path d="M277.074 7.56388C277.67 8.10724 278.338 8.4578 278.312 8.74722C278.28 9.24144 277.81 9.70253 277.519 10.1725C277.123 9.90984 276.418 9.67076 276.393 9.37521C276.365 8.89022 276.752 8.3586 277.074 7.56388" fill="#2F3131"/>
<path d="M278.844 54.7052C279.158 55.3982 279.542 55.8445 279.476 56.1953C279.397 56.5376 278.854 56.7774 278.517 57.0654C278.244 56.7001 277.742 56.3211 277.755 55.9667C277.761 55.6239 278.303 55.3026 278.844 54.7052" fill="#2F3131"/>
<path d="M280.102 96.0855C279.604 96.6453 279.224 97.3062 279.016 97.2592C278.54 97.1456 278.151 96.6793 277.723 96.3547C278.034 96.021 278.313 95.4874 278.674 95.4134C279.028 95.3496 279.469 95.7653 280.102 96.0855Z" fill="#2F3131"/>
<path d="M279.838 65.4663C279.321 65.9438 278.97 66.2549 278.617 66.5672C278.291 66.1155 277.866 65.7017 277.705 65.1953C277.658 65.0447 278.384 64.4434 278.766 64.4491C279.079 64.4467 279.398 65.0203 279.838 65.4663Z" fill="#2F3131"/>
<path d="M279.436 103.882C279.682 104.428 279.994 104.789 279.926 105.059C279.849 105.371 279.439 105.603 279.172 105.868C278.9 105.501 278.536 105.164 278.418 104.758C278.381 104.619 278.926 104.294 279.436 103.882" fill="#2F3131"/>
<path d="M278.489 75.6352C278.914 76.1306 279.352 76.4134 279.349 76.6959C279.353 76.9958 278.961 77.3117 278.727 77.6107C278.439 77.3802 277.961 77.1863 277.907 76.9066C277.849 76.6057 278.189 76.2297 278.489 75.6352Z" fill="#2F3131"/>
<path d="M278.813 26.5718C278.328 26.889 278.028 27.0931 277.729 27.2972C277.477 26.9276 277.239 26.5651 276.987 26.1955C277.298 26.0037 277.629 25.6392 277.919 25.6739C278.191 25.7052 278.414 26.1472 278.813 26.5718" fill="#2F3131"/>
<path d="M278.602 17.2647C277.962 17.5398 277.632 17.79 277.309 17.7788C277.095 17.7697 276.68 17.2866 276.727 17.1874C276.875 16.8519 277.167 16.4082 277.465 16.3736C277.711 16.3354 278.033 16.7922 278.602 17.2647" fill="#2F3131"/>
<path d="M278.625 45.8575C277.762 45.8588 277.784 47.1888 278.635 47.1777C279.486 47.1667 279.476 45.8465 278.625 45.8575Z" fill="#2F3131"/>
<path d="M280.54 146.553C281.089 147.613 281.611 148.184 281.595 148.737C281.569 149.111 280.781 149.777 280.397 149.747C279.948 149.704 279.203 148.998 279.227 148.628C279.28 148.075 279.877 147.558 280.54 146.553" fill="#2F3131"/>
<path d="M281.16 200.918C280.59 200.309 279.829 199.821 279.895 199.498C280.002 198.919 280.612 198.439 281.025 197.924C281.462 198.403 282.105 198.818 282.252 199.374C282.335 199.721 281.651 200.258 281.16 200.918Z" fill="#2F3131"/>
<path d="M279.343 113.538C279.887 114.188 280.506 114.611 280.477 114.99C280.451 115.446 279.851 115.856 279.496 116.282C279.075 115.919 278.386 115.6 278.328 115.187C278.265 114.783 278.853 114.28 279.343 113.538" fill="#2F3131"/>
<path d="M279.447 120.084C280.056 120.636 280.711 120.978 280.684 121.269C280.653 121.762 280.183 122.223 279.891 122.694C279.495 122.432 278.804 122.2 278.778 121.905C278.738 121.411 279.124 120.88 279.447 120.084Z" fill="#2F3131"/>
<path d="M281.217 167.226C281.531 167.918 281.929 168.373 281.849 168.716C281.771 169.057 281.226 169.298 280.89 169.585C280.618 169.22 280.127 168.851 280.128 168.488C280.148 168.152 280.676 167.824 281.217 167.226" fill="#2F3131"/>
<path d="M282.482 208.612C281.981 209.169 281.599 209.831 281.389 209.78C280.913 209.666 280.523 209.202 280.094 208.877C280.406 208.543 280.685 208.01 281.058 207.944C281.4 207.871 281.842 208.286 282.482 208.612Z" fill="#2F3131"/>
<path d="M282.223 177.998C281.693 178.467 281.34 178.779 280.988 179.09C280.662 178.64 280.237 178.226 280.077 177.718C280.029 177.568 280.769 176.975 281.138 176.972C281.45 176.971 281.77 177.543 282.223 177.998" fill="#2F3131"/>
<path d="M281.806 216.405C282.053 216.951 282.367 217.316 282.301 217.586C282.223 217.898 281.81 218.127 281.542 218.392C281.275 218.028 280.915 217.692 280.795 217.284C280.753 217.143 281.305 216.825 281.806 216.405" fill="#2F3131"/>
<path d="M280.863 188.155C281.301 188.659 281.724 188.934 281.735 189.224C281.739 189.524 281.335 189.831 281.114 190.139C280.825 189.91 280.335 189.706 280.28 189.427C280.234 189.135 280.575 188.758 280.863 188.155" fill="#2F3131"/>
<path d="M281.184 139.095C280.7 139.411 280.4 139.616 280.1 139.82C279.862 139.458 279.61 139.088 279.36 138.717C279.67 138.525 280.002 138.161 280.29 138.197C280.563 138.228 280.785 138.67 281.184 139.095" fill="#2F3131"/>
<path d="M280.988 129.793C280.335 130.061 280.005 130.311 279.682 130.3C279.468 130.291 279.053 129.807 279.099 129.709C279.261 129.381 279.553 128.938 279.838 128.895C280.084 128.856 280.406 129.314 280.988 129.793Z" fill="#2F3131"/>
<path d="M280.998 158.379C280.146 158.39 280.156 159.71 281.007 159.699C281.858 159.689 281.849 158.368 280.998 158.379Z" fill="#2F3131"/>
<path d="M282.59 256.554C283.136 257.613 283.655 258.183 283.635 258.731C283.619 259.112 282.83 259.779 282.439 259.743C281.993 259.704 281.248 258.996 281.277 258.629C281.321 258.069 281.916 257.554 282.59 256.554" fill="#2F3131"/>
<path d="M283.203 310.912C282.633 310.305 281.872 309.818 281.936 309.492C282.048 308.916 282.662 308.438 283.067 307.92C283.501 308.396 284.154 308.817 284.29 309.367C284.377 309.714 283.694 310.254 283.203 310.912" fill="#2F3131"/>
<path d="M281.387 223.537C281.923 224.185 282.552 224.613 282.525 224.994C282.491 225.446 281.893 225.855 281.541 226.283C281.121 225.92 280.428 225.6 280.365 225.183C280.305 224.78 280.894 224.281 281.387 223.537Z" fill="#2F3131"/>
<path d="M281.496 230.086C282.096 230.632 282.754 230.975 282.732 231.27C282.698 231.761 282.229 232.222 281.941 232.695C281.544 232.431 280.841 232.193 280.817 231.901C280.779 231.408 281.171 230.881 281.496 230.086" fill="#2F3131"/>
<path d="M283.262 277.225C283.581 277.919 283.97 278.367 283.893 278.712C283.815 279.055 283.273 279.296 282.933 279.582C282.66 279.217 282.168 278.846 282.178 278.488C282.187 278.146 282.721 277.82 283.262 277.225" fill="#2F3131"/>
<path d="M284.524 318.61C284.022 319.167 283.642 319.828 283.43 319.779C282.955 319.665 282.564 319.198 282.137 318.876C282.454 318.544 282.732 318.012 283.098 317.94C283.447 317.873 283.89 318.289 284.524 318.61Z" fill="#2F3131"/>
<path d="M284.262 287.992C283.735 288.463 283.383 288.776 283.034 289.089C282.708 288.639 282.28 288.221 282.125 287.718C282.08 287.57 282.809 286.968 283.181 286.969C283.497 286.97 283.812 287.539 284.262 287.992Z" fill="#2F3131"/>
<path d="M283.849 326.402C284.096 326.948 284.411 327.314 284.344 327.582C284.266 327.895 283.853 328.123 283.586 328.389C283.318 328.024 282.957 327.688 282.838 327.281C282.795 327.14 283.35 326.821 283.849 326.402" fill="#2F3131"/>
<path d="M282.906 298.157C283.337 298.655 283.767 298.935 283.772 299.222C283.779 299.523 283.376 299.832 283.152 300.137C282.86 299.904 282.38 299.709 282.327 299.432C282.27 299.132 282.613 298.756 282.906 298.157" fill="#2F3131"/>
<path d="M283.226 249.091C282.749 249.413 282.448 249.616 282.146 249.819C281.899 249.453 281.651 249.086 281.406 248.718C281.716 248.526 282.045 248.16 282.33 248.193C282.604 248.226 282.829 248.668 283.226 249.091Z" fill="#2F3131"/>
<path d="M283.029 239.786C282.381 240.056 282.049 240.306 281.725 240.293C281.513 240.285 281.101 239.804 281.148 239.705C281.301 239.373 281.594 238.931 281.884 238.89C282.135 238.855 282.452 239.31 283.029 239.786" fill="#2F3131"/>
<path d="M283.037 268.378C282.185 268.387 282.199 269.712 283.052 269.701C283.904 269.691 283.891 268.369 283.037 268.378Z" fill="#2F3131"/>
<path d="M284.605 406.759C284.061 405.698 283.543 405.128 283.566 404.58C283.583 404.2 284.372 403.535 284.765 403.571C285.209 403.612 285.953 404.32 285.924 404.688C285.878 405.248 285.281 405.762 284.605 406.759" fill="#2F3131"/>
<path d="M284.134 352.399C284.703 353.008 285.462 353.497 285.398 353.824C285.285 354.399 284.669 354.874 284.263 355.393C283.83 354.916 283.18 354.492 283.044 353.943C282.957 353.594 283.642 353.056 284.134 352.399Z" fill="#2F3131"/>
<path d="M285.717 439.78C285.181 439.132 284.553 438.701 284.583 438.321C284.616 437.87 285.216 437.461 285.57 437.035C285.987 437.399 286.681 437.722 286.742 438.138C286.801 438.541 286.211 439.04 285.717 439.78Z" fill="#2F3131"/>
<path d="M285.629 433.231C285.03 432.684 284.372 432.338 284.394 432.044C284.431 431.552 284.902 431.093 285.189 430.621C285.586 430.885 286.288 431.125 286.31 431.419C286.35 431.912 285.955 432.438 285.629 433.231" fill="#2F3131"/>
<path d="M283.985 386.088C283.668 385.392 283.281 384.943 283.359 384.598C283.437 384.254 283.981 384.016 284.32 383.731C284.593 384.097 285.085 384.47 285.074 384.827C285.063 385.169 284.529 385.493 283.985 386.088" fill="#2F3131"/>
<path d="M282.832 344.698C283.335 344.141 283.718 343.481 283.928 343.532C284.403 343.647 284.794 344.114 285.219 344.439C284.901 344.769 284.623 345.302 284.256 345.373C283.907 345.438 283.465 345.021 282.832 344.698Z" fill="#2F3131"/>
<path d="M283.015 375.318C283.545 374.849 283.896 374.536 284.246 374.225C284.57 374.676 284.998 375.093 285.152 375.597C285.197 375.747 284.466 376.346 284.094 376.343C283.778 376.342 283.464 375.771 283.015 375.318" fill="#2F3131"/>
<path d="M283.527 336.908C283.281 336.361 282.967 335.997 283.035 335.727C283.113 335.414 283.527 335.186 283.796 334.923C284.061 335.287 284.422 335.623 284.541 336.031C284.582 336.173 284.028 336.491 283.527 336.908" fill="#2F3131"/>
<path d="M284.394 365.157C283.966 364.657 283.536 364.378 283.531 364.089C283.528 363.789 283.93 363.481 284.155 363.176C284.446 363.409 284.926 363.606 284.977 363.884C285.033 364.185 284.69 364.559 284.394 365.157Z" fill="#2F3131"/>
<path d="M283.946 414.223C284.423 413.903 284.726 413.7 285.027 413.497C285.273 413.865 285.519 414.233 285.765 414.601C285.455 414.792 285.123 415.157 284.839 415.123C284.565 415.09 284.34 414.646 283.946 414.223Z" fill="#2F3131"/>
<path d="M284.12 423.526C284.767 423.256 285.101 423.008 285.424 423.021C285.637 423.029 286.047 423.512 286.001 423.611C285.846 423.942 285.552 424.383 285.262 424.424C285.011 424.459 284.693 424.003 284.12 423.526" fill="#2F3131"/>
<path d="M284.186 394.936C285.037 394.928 285.027 393.605 284.174 393.613C283.321 393.62 283.333 394.944 284.186 394.936Z" fill="#2F3131"/>
<path d="M286.353 494.511C286.901 495.572 287.424 496.142 287.395 496.686C287.381 497.068 286.593 497.735 286.21 497.705C285.76 497.663 285.015 496.956 285.039 496.586C285.08 496.024 285.677 495.508 286.353 494.511" fill="#2F3131"/>
<path d="M286.975 548.873C286.403 548.265 285.642 547.777 285.697 547.444C285.816 546.874 286.426 546.394 286.838 545.88C287.263 546.349 287.919 546.773 288.053 547.321C288.137 547.667 287.465 548.213 286.975 548.873" fill="#2F3131"/>
<path d="M285.156 461.495C285.687 462.137 286.319 462.569 286.29 462.948C286.264 463.404 285.664 463.812 285.31 464.239C284.889 463.875 284.2 463.557 284.129 463.135C284.066 462.731 284.666 462.238 285.156 461.495Z" fill="#2F3131"/>
<path d="M285.289 449.05C285.82 449.691 286.453 450.123 286.423 450.502C286.397 450.958 285.798 451.366 285.443 451.793C285.022 451.429 284.333 451.111 284.263 450.69C284.199 450.285 284.799 449.792 285.289 449.05Z" fill="#2F3131"/>
<path d="M285.26 468.042C285.856 468.585 286.524 468.936 286.498 469.225C286.466 469.719 285.996 470.18 285.705 470.65C285.309 470.388 284.605 470.149 284.579 469.853C284.551 469.368 284.938 468.836 285.26 468.042" fill="#2F3131"/>
<path d="M287.03 515.183C287.344 515.876 287.728 516.322 287.662 516.673C287.583 517.015 287.04 517.255 286.703 517.543C286.43 517.178 285.928 516.799 285.941 516.445C285.947 516.102 286.489 515.78 287.03 515.183" fill="#2F3131"/>
<path d="M288.288 556.563C287.79 557.123 287.409 557.784 287.202 557.737C286.726 557.623 286.336 557.157 285.908 556.832C286.22 556.499 286.499 555.965 286.86 555.891C287.214 555.827 287.655 556.243 288.288 556.563Z" fill="#2F3131"/>
<path d="M288.024 525.944C287.507 526.422 287.156 526.733 286.803 527.045C286.477 526.593 286.053 526.179 285.891 525.673C285.844 525.522 286.57 524.921 286.952 524.927C287.265 524.925 287.584 525.498 288.024 525.944Z" fill="#2F3131"/>
<path d="M287.622 564.36C287.868 564.906 288.179 565.267 288.112 565.537C288.035 565.849 287.624 566.081 287.358 566.346C287.086 565.979 286.722 565.641 286.604 565.236C286.567 565.097 287.112 564.772 287.622 564.36" fill="#2F3131"/>
<path d="M286.675 536.113C287.1 536.608 287.538 536.891 287.535 537.174C287.539 537.474 287.147 537.79 286.913 538.089C286.625 537.858 286.147 537.664 286.093 537.384C286.035 537.084 286.375 536.708 286.675 536.113Z" fill="#2F3131"/>
<path d="M286.998 487.05C286.514 487.367 286.214 487.571 285.915 487.775C285.663 487.405 285.425 487.043 285.173 486.673C285.483 486.482 285.815 486.117 286.104 486.152C286.377 486.183 286.6 486.625 286.998 487.05" fill="#2F3131"/>
<path d="M286.788 477.743C286.148 478.018 285.818 478.268 285.495 478.257C285.281 478.248 284.865 477.764 284.912 477.665C285.06 477.33 285.353 476.886 285.651 476.851C285.896 476.813 286.219 477.27 286.788 477.743" fill="#2F3131"/>
<path d="M286.811 506.335C285.948 506.337 285.97 507.666 286.821 507.655C287.672 507.644 287.662 506.324 286.811 506.335Z" fill="#2F3131"/>
<path d="M288.726 607.031C289.275 608.09 289.797 608.662 289.781 609.215C289.755 609.589 288.967 610.254 288.583 610.225C288.134 610.182 287.389 609.476 287.412 609.106C287.466 608.552 288.063 608.036 288.726 607.031" fill="#2F3131"/>
<path d="M287.529 574.015C288.073 574.666 288.692 575.089 288.663 575.468C288.637 575.924 288.037 576.334 287.682 576.76C287.261 576.396 286.572 576.078 286.514 575.665C286.451 575.26 287.039 574.758 287.529 574.015" fill="#2F3131"/>
<path d="M287.633 580.562C288.242 581.114 288.897 581.456 288.87 581.747C288.838 582.24 288.369 582.701 288.077 583.172C287.681 582.909 286.99 582.678 286.964 582.383C286.923 581.889 287.31 581.358 287.633 580.562Z" fill="#2F3131"/>
<path d="M289.37 599.572C288.886 599.888 288.586 600.094 288.286 600.298C288.048 599.935 287.796 599.566 287.545 599.195C287.855 599.003 288.188 598.639 288.476 598.675C288.749 598.706 288.971 599.148 289.37 599.572" fill="#2F3131"/>
<path d="M289.174 590.271C288.521 590.539 288.19 590.789 287.868 590.778C287.653 590.769 287.239 590.285 287.285 590.187C287.447 589.858 287.738 589.416 288.024 589.373C288.27 589.333 288.592 589.792 289.174 590.271Z" fill="#2F3131"/>
</svg>
