<svg width="138" height="138" viewBox="0 0 138 138" fill="none" xmlns="http://www.w3.org/2000/svg">
<path d="M60.9729 136.754C86.5976 141.6 114.581 125.389 127.781 103.687C128.085 103.182 127.389 102.686 127.032 103.161C111.68 123.55 87.7676 140.317 61.0562 135.872C60.4894 135.778 60.4195 136.651 60.9729 136.754Z" fill="#260029"/>
<path d="M130.197 96.9705C136.597 86.2683 138.138 74.201 136.427 61.9147C136.35 61.3583 135.46 61.3857 135.432 61.9542C134.788 74.6631 135.902 84.815 129.489 96.4719C129.226 96.9522 129.907 97.4539 130.197 96.9705Z" fill="#260029"/>
<path d="M1.72965 58.9959C4.87707 39.4461 14.8274 28.2545 28.4353 14.8676C28.888 14.4207 28.3213 13.77 27.8047 14.1226C12.5471 24.5755 3.13705 40.7231 0.907827 58.9199C0.842459 59.452 1.64664 59.5158 1.72965 58.9959Z" fill="#260029"/>
<path d="M1.54113 78.5183C3.41645 92.2609 8.51641 110.743 21.7552 117.828C22.2931 118.116 22.8063 117.432 22.3086 117.037C10.2622 107.463 4.88921 93.2034 2.32281 78.3815C2.23616 77.8768 1.4712 78.0136 1.54113 78.5183Z" fill="#260029"/>
<path d="M84.6352 5.71C99.2078 10.9212 111.631 18.7564 120.941 31.2554C121.267 31.6932 122.018 31.2159 121.752 30.7294C114.571 17.5493 98.7326 9.27029 84.8964 5.00461C84.4345 4.86171 84.1743 5.54582 84.6352 5.71Z" fill="#260029"/>
<path d="M125.714 37.865C126.51 39.5129 127.578 41.0757 128.987 42.2523C129.376 42.5776 129.841 41.9939 129.56 41.626C128.518 40.27 127.501 38.9079 126.661 37.4181C126.334 36.8374 125.42 37.2509 125.714 37.865Z" fill="#260029"/>
<path d="M92.5381 14.8979C105.827 19.5802 116.457 30.0452 123.35 42.0943C123.633 42.5868 124.358 42.2493 124.148 41.7142C119.482 29.7168 105.202 17.4245 92.8385 14.0892C92.31 13.9463 92.0036 14.7125 92.5381 14.8979Z" fill="#260029"/>
<path d="M81.7791 131.768C89.1092 130.457 97.9668 126.572 102.821 120.749C103.185 120.315 102.534 119.798 102.122 120.111C95.5867 125.076 89.177 128.156 81.5793 131.141C81.2266 131.281 81.4167 131.832 81.7791 131.768Z" fill="#260029"/>
<path d="M108.827 117.183C120.38 105.496 131.766 92.2092 130.287 74.7178C130.243 74.2039 129.426 74.2496 129.389 74.7513C128.746 83.7417 127.212 91.5768 122.233 99.2842C118.197 105.535 112.902 110.874 108.135 116.551C107.791 116.958 108.449 117.566 108.827 117.183Z" fill="#260029"/>
<path d="M86.7922 123.334C101.59 117.761 113.846 105.061 119.288 90.1752C119.453 89.7222 118.776 89.33 118.519 89.7708C110.15 104.121 102.19 115.602 86.3954 122.498C85.8433 122.738 86.241 123.541 86.7922 123.334Z" fill="#260029"/>
<path d="M99.7161 108.074C101.749 106.703 103.708 104.991 105.234 103.066C105.555 102.662 104.968 102.173 104.586 102.477C102.661 103.997 101.07 105.873 99.0581 107.299C98.5212 107.679 99.1816 108.433 99.7161 108.074Z" fill="#260029"/>
<path d="M110.761 95.7908C111.978 93.5682 113.641 91.3822 114.436 88.9621C114.598 88.4725 113.942 88.1107 113.632 88.5424C112.152 90.5977 110.964 93.0423 109.884 95.3317C109.647 95.8394 110.488 96.2894 110.761 95.7908Z" fill="#260029"/>
<path d="M120.579 85.3289C121.868 81.8811 123.424 77.8525 122.981 74.1067C122.918 73.5686 122.156 73.6598 122.076 74.1432C121.461 77.8556 120.669 81.352 119.607 84.9701C119.422 85.6055 120.343 85.9582 120.579 85.3289Z" fill="#260029"/>
<path d="M11.3322 96.8854C18.122 110.783 31.4402 120.941 46.2384 125.164C46.7954 125.325 47.0973 124.541 46.5531 124.319C32.0853 118.338 19.5565 110.85 12.0221 96.557C11.7953 96.1252 11.116 96.4415 11.3322 96.8854Z" fill="#260029"/>
<path d="M16.7406 95.0914C17.3629 96.5691 18.1823 97.7974 19.3663 98.8737C19.7083 99.1838 20.1729 98.6274 19.8971 98.293C18.9817 97.168 18.3058 95.9367 17.5767 94.6962C17.2784 94.1884 16.5065 94.5351 16.7406 95.0914Z" fill="#260029"/>
<path d="M22.9049 104.322C30.5975 112.592 41.8114 121.385 53.658 121.552C54.2615 121.561 54.3408 120.725 53.7458 120.622C41.8433 118.575 31.9571 112.334 23.5866 103.744C23.1889 103.334 22.5094 103.896 22.9049 104.322Z" fill="#260029"/>
<path d="M24.1804 98.1804C31.3551 107.095 41.9099 112.191 53.056 114.167C53.4908 114.246 53.6558 113.531 53.2293 113.41C42.2732 110.251 32.4761 106.499 24.7493 97.7001C24.4334 97.3414 23.8812 97.8065 24.1804 98.1804Z" fill="#260029"/>
<path d="M35.0916 100.668C36.378 101.905 37.8815 103.136 39.5525 103.811C39.9848 103.985 40.3244 103.343 39.9325 103.085C38.4859 102.133 37.0405 101.291 35.7745 100.087C35.3625 99.6978 34.6748 100.266 35.0916 100.668Z" fill="#260029"/>
<path d="M60.8341 123.401C65.0469 124.626 69.928 124.392 73.9921 122.698C74.4603 122.504 74.2049 121.804 73.7285 121.871C69.3354 122.504 65.517 123.385 61.0634 122.4C60.4921 122.273 60.2735 123.24 60.8341 123.401Z" fill="#260029"/>
<path d="M57.9216 129.497C63.5761 130.707 69.234 130.786 74.9895 130.588C75.4467 130.573 75.5416 129.874 75.0582 129.858C69.3517 129.658 63.6354 129.633 58.0143 128.515C57.3883 128.39 57.3111 129.366 57.9216 129.497Z" fill="#260029"/>
<path d="M66.4539 116.63C75.1963 117.21 86.2533 116.079 92.9969 109.88C93.4578 109.457 92.8686 108.773 92.3733 109.144C85.062 114.614 75.5039 116.277 66.5323 115.797C65.9978 115.769 65.9173 116.593 66.4539 116.63Z" fill="#260029"/>
<path d="M68.2737 108.804C69.9304 108.813 71.6227 108.934 73.2676 108.712C73.7522 108.649 73.6941 107.937 73.2332 107.876C71.6346 107.664 69.9803 107.782 68.3698 107.791C67.7225 107.797 67.6167 108.801 68.2737 108.804Z" fill="#260029"/>
<path d="M80.0857 108.697C83.6038 107.566 87.2641 106.35 90.4362 104.422C90.909 104.137 90.5906 103.437 90.0659 103.641C86.5813 105.003 83.2426 106.645 79.7057 107.898C79.1642 108.089 79.5561 108.868 80.0857 108.697Z" fill="#260029"/>
<path d="M38.2194 9.42529C40.1209 8.18785 42.0497 7.22706 44.1445 6.36359C44.6137 6.169 44.3574 5.46972 43.8821 5.53661C41.4842 5.87713 39.476 7.26358 37.5165 8.59831C36.9357 8.99356 37.6435 9.8023 38.2194 9.42529Z" fill="#260029"/>
<path d="M50.2595 3.97381C55.2583 1.44116 60.4364 1.67527 65.8416 2.14957C66.3451 2.19214 66.5196 1.45937 66.0386 1.28303C60.9721 -0.574653 54.4696 0.532105 49.8366 3.08604C49.2857 3.38704 49.6883 4.26265 50.2595 3.97381Z" fill="#260029"/>
<path d="M23.5678 27.5095C30.8051 17.087 43.9016 11.6052 56.2271 10.7204C56.7817 10.6809 56.7461 9.74447 56.1867 9.73535C43.8338 9.57725 29.7483 16.7435 22.9263 27.0595C22.6471 27.4821 23.2789 27.926 23.5678 27.5095Z" fill="#260029"/>
<path d="M62.7901 8.27897C64.6466 8.29721 66.5469 8.43402 68.3924 8.19383C68.8591 8.13302 68.8034 7.44592 68.3592 7.38816C66.5575 7.15709 64.6977 7.29086 62.8829 7.3091C62.2642 7.31214 62.1596 8.27289 62.7901 8.27897Z" fill="#260029"/>
<path d="M18.7436 31.6445C16.7813 32.8121 14.8908 35.2262 14.8312 37.5946C14.8194 38.0416 15.4797 38.4094 15.7421 37.929C16.2672 36.9713 16.525 35.9133 17.1115 34.9829C17.7077 34.0343 18.4952 33.2954 19.3538 32.5931C19.8384 32.1948 19.3076 31.3071 18.7436 31.6445Z" fill="#260029"/>
<path d="M43.6784 28.8899C46.4744 26.2995 49.4837 25.2688 53.1714 24.6698C53.6606 24.5908 53.6251 23.855 53.1371 23.8063C49.4053 23.4202 45.593 25.5758 43.0217 28.1176C42.562 28.5706 43.195 29.3399 43.6784 28.8899Z" fill="#260029"/>
</svg>
