<svg width="60" height="85" viewBox="0 0 60 85" fill="none" xmlns="http://www.w3.org/2000/svg">
<path d="M30.001 0C13.65 0 0.25 13.36 0.25 29.666C0.25 35.984 2.268 41.856 5.683 46.682L26.37 82.445C29.267 86.23 31.193 85.511 33.602 82.245L56.42 43.415C56.88 42.581 57.242 41.693 57.557 40.786C59.0049 37.2575 59.7496 33.4801 59.749 29.666C59.75 13.36 46.354 0 30.001 0ZM30.001 13.9C38.807 13.9 45.809 20.886 45.809 29.666C45.809 38.446 38.807 45.429 30.001 45.429C21.196 45.429 14.191 38.447 14.191 29.666C14.191 20.886 21.196 13.901 30.001 13.901V13.9Z" fill="#AC0F0F"/>
</svg>
