<svg width="40" height="62" viewBox="0 0 40 62" fill="none" xmlns="http://www.w3.org/2000/svg">
<g clip-path="url(#clip0_446_47)">
<path d="M9.23077 0C6.78262 0 4.43474 0.972525 2.70363 2.70363C0.972528 4.43473 3.51232e-06 6.78262 3.51232e-06 9.23077C3.51232e-06 11.6789 0.972528 14.0268 2.70363 15.7579C4.43474 17.489 6.78262 18.4615 9.23077 18.4615H30.7692C33.2174 18.4615 35.5653 17.489 37.2964 15.7579C39.0275 14.0268 40 11.6789 40 9.23077C40 6.78262 39.0275 4.43473 37.2964 2.70363C35.5653 0.972525 33.2174 0 30.7692 0H9.23077ZM30.7692 21.5385C28.3211 21.5385 25.9732 22.511 24.2421 24.2421C22.511 25.9732 21.5385 28.3211 21.5385 30.7692C21.5385 33.2174 22.511 35.5653 24.2421 37.2964C25.9732 39.0275 28.3211 40 30.7692 40C33.2174 40 35.5653 39.0275 37.2964 37.2964C39.0275 35.5653 40 33.2174 40 30.7692C40 28.3211 39.0275 25.9732 37.2964 24.2421C35.5653 22.511 33.2174 21.5385 30.7692 21.5385ZM3.51232e-06 30.7692C3.51232e-06 28.3211 0.972528 25.9732 2.70363 24.2421C4.43474 22.511 6.78262 21.5385 9.23077 21.5385H18.4615V40H9.23077C6.78262 40 4.43474 39.0275 2.70363 37.2964C0.972528 35.5653 3.51232e-06 33.2174 3.51232e-06 30.7692ZM9.23077 43.0769C7.4051 43.0769 5.62042 43.6183 4.10243 44.6326C2.58444 45.6469 1.40131 47.0885 0.702655 48.7752C0.00399956 50.4619 -0.1788 52.3179 0.177371 54.1085C0.533542 55.8991 1.41269 57.5439 2.70363 58.8348C3.99458 60.1258 5.63935 61.0049 7.42994 61.3611C9.22053 61.7173 11.0765 61.5345 12.7632 60.8358C14.4499 60.1372 15.8916 58.954 16.9059 57.436C17.9202 55.918 18.4615 54.1334 18.4615 52.3077V43.0769H9.23077Z" fill="#426E86"/>
</g>
<defs>
<clipPath id="clip0_446_47">
<rect width="40" height="62" fill="white"/>
</clipPath>
</defs>
</svg>
