<svg width="49" height="49" viewBox="0 0 49 49" fill="none" xmlns="http://www.w3.org/2000/svg">
<path d="M28.8206 7.33637L13.136 23.4265C12.8606 23.7091 12.7064 24.0881 12.7064 24.4828C12.7064 24.8775 12.8606 25.2565 13.136 25.5391L28.8206 41.6353C28.9489 41.7671 29.1023 41.8718 29.2718 41.9434C29.4412 42.0149 29.6233 42.0517 29.8073 42.0517C29.9912 42.0517 30.1733 42.0149 30.3428 41.9434C30.5122 41.8718 30.6657 41.7671 30.794 41.6353C31.058 41.365 31.2058 41.0022 31.2058 40.6244C31.2058 40.2465 31.058 39.8837 30.794 39.6134L16.0447 24.4828L30.794 9.3552C31.0571 9.08506 31.2043 8.72287 31.2043 8.34578C31.2043 7.9687 31.0571 7.60651 30.794 7.33637C30.6657 7.20458 30.5122 7.09982 30.3428 7.0283C30.1733 6.95677 29.9912 6.91992 29.8073 6.91992C29.6233 6.91992 29.4412 6.95677 29.2718 7.0283C29.1023 7.09982 28.9489 7.20458 28.8206 7.33637Z" fill="#2F3131"/>
</svg>
