<svg width="55" height="62" viewBox="0 0 55 62" fill="none" xmlns="http://www.w3.org/2000/svg">
<path d="M55 9.72877V15.566C55 20.9412 42.6864 25.2948 27.5 25.2948C12.3136 25.2948 0 20.9412 0 15.566V9.72877C0 4.35606 12.3136 0 27.5 0C42.6864 0 55 4.35606 55 9.72877ZM48.2723 26.1096C50.7154 25.2097 53.1708 24.0544 55 22.6316V35.0236C55 40.3987 42.6864 44.7524 27.5 44.7524C12.3136 44.7524 0 40.3987 0 35.0236V22.6316C1.83292 24.0544 4.17656 25.2097 6.73382 26.1096C12.235 28.0554 19.5815 29.1863 27.5 29.1863C35.4185 29.1863 42.76 28.0554 48.2723 26.1096ZM6.73382 45.5671C12.235 47.5129 19.5815 48.6439 27.5 48.6439C35.4185 48.6439 42.76 47.5129 48.2723 45.5671C50.7154 44.6672 53.1708 43.5119 55 42.0891V52.5354C55 57.9105 42.6864 62.2642 27.5 62.2642C12.3136 62.2642 0 57.9105 0 52.5354V42.0891C1.83292 43.5119 4.17656 44.6672 6.73382 45.5671Z" fill="#F9BA32"/>
</svg>
