<svg width="44" height="62" viewBox="0 0 44 62" fill="none" xmlns="http://www.w3.org/2000/svg">
<g clip-path="url(#clip0_446_10)">
<path d="M26.741 0H7.33333C5.38841 0 3.52315 0.816516 2.14788 2.26992C0.772617 3.72333 0 5.69457 0 7.75V54.25C0 56.3054 0.772617 58.2767 2.14788 59.7301C3.52315 61.1835 5.38841 62 7.33333 62H36.6667C38.6116 62 40.4768 61.1835 41.8521 59.7301C43.2274 58.2767 44 56.3054 44 54.25V18.2396C43.9998 17.212 43.6133 16.2265 42.9257 15.5L29.3333 1.13538C28.6459 0.408621 27.7134 0.00021947 26.741 0V0ZM27.5 13.5625V5.8125L38.5 17.4375H31.1667C30.1942 17.4375 29.2616 17.0292 28.5739 16.3025C27.8863 15.5758 27.5 14.5902 27.5 13.5625ZM17.0353 29.6283C17.2058 29.4481 17.4081 29.3052 17.6309 29.2077C17.8536 29.1102 18.0923 29.0601 18.3333 29.0601C18.5744 29.0601 18.8131 29.1102 19.0358 29.2077C19.2585 29.3052 19.4609 29.4481 19.6313 29.6283C19.8018 29.8084 19.937 30.0222 20.0293 30.2576C20.1215 30.493 20.169 30.7452 20.169 31C20.169 31.2548 20.1215 31.507 20.0293 31.7424C19.937 31.9778 19.8018 32.1916 19.6313 32.3717L13.5923 38.75L19.6313 45.1283C19.9756 45.4921 20.169 45.9855 20.169 46.5C20.169 47.0145 19.9756 47.5079 19.6313 47.8717C19.2871 48.2356 18.8202 48.4399 18.3333 48.4399C17.8465 48.4399 17.3796 48.2356 17.0353 47.8717L9.702 40.1217C9.53127 39.9418 9.39581 39.728 9.30339 39.4926C9.21096 39.2572 9.16339 39.0048 9.16339 38.75C9.16339 38.4952 9.21096 38.2428 9.30339 38.0074C9.39581 37.772 9.53127 37.5582 9.702 37.3783L17.0353 29.6283ZM26.9647 29.6283L34.298 37.3783C34.4687 37.5582 34.6042 37.772 34.6966 38.0074C34.789 38.2428 34.8366 38.4952 34.8366 38.75C34.8366 39.0048 34.789 39.2572 34.6966 39.4926C34.6042 39.728 34.4687 39.9418 34.298 40.1217L26.9647 47.8717C26.6204 48.2356 26.1535 48.4399 25.6667 48.4399C25.1798 48.4399 24.7129 48.2356 24.3687 47.8717C24.0244 47.5079 23.831 47.0145 23.831 46.5C23.831 45.9855 24.0244 45.4921 24.3687 45.1283L30.4077 38.75L24.3687 32.3717C24.1982 32.1916 24.063 31.9778 23.9707 31.7424C23.8785 31.507 23.831 31.2548 23.831 31C23.831 30.7452 23.8785 30.493 23.9707 30.2576C24.063 30.0222 24.1982 29.8084 24.3687 29.6283C24.5391 29.4481 24.7415 29.3052 24.9642 29.2077C25.1869 29.1102 25.4256 29.0601 25.6667 29.0601C25.9077 29.0601 26.1464 29.1102 26.3691 29.2077C26.5919 29.3052 26.7942 29.4481 26.9647 29.6283Z" fill="#F9BA32"/>
</g>
<defs>
<clipPath id="clip0_446_10">
<rect width="44" height="62" fill="white"/>
</clipPath>
</defs>
</svg>
