<svg width="176" height="277" viewBox="0 0 176 277" fill="none" xmlns="http://www.w3.org/2000/svg">
<path d="M87.1668 34.0331C87.7149 35.0937 88.2377 35.6642 88.209 36.2086C88.1956 36.5905 87.407 37.2576 87.0237 37.2268C86.5741 37.1853 85.8296 36.4778 85.8533 36.1081C85.8938 35.5458 86.4912 35.0297 87.1668 34.0331Z" fill="#2F3131"/>
<path d="M87.7888 88.3949C87.2174 87.7869 86.4563 87.2996 86.5107 86.9667C86.6302 86.396 87.2404 85.9159 87.6525 85.4024C88.0771 85.8714 88.7333 86.295 88.8669 86.8437C88.951 87.189 88.2791 87.7349 87.7888 88.3949Z" fill="#2F3131"/>
<path d="M85.9697 1.01766C86.5005 1.65947 87.1331 2.09136 87.1035 2.47001C87.0778 2.92639 86.4782 3.33462 86.1235 3.76119C85.7028 3.39751 85.0138 3.07888 84.9429 2.65781C84.8798 2.25285 85.4797 1.76053 85.9697 1.01766Z" fill="#2F3131"/>
<path d="M86.0744 7.56394C86.6702 8.1073 87.338 8.45786 87.3122 8.74728C87.2799 9.2415 86.8106 9.70259 86.5189 10.1726C86.1234 9.9099 85.4187 9.67082 85.3935 9.37527C85.3647 8.89028 85.7521 8.35866 86.0744 7.56394Z" fill="#2F3131"/>
<path d="M87.8441 54.7052C88.1576 55.3982 88.5421 55.8445 88.4759 56.1953C88.3969 56.5376 87.8535 56.7774 87.5168 57.0654C87.244 56.7001 86.7416 56.3211 86.7551 55.9667C86.7611 55.6239 87.3033 55.3026 87.8441 54.7052Z" fill="#2F3131"/>
<path d="M89.1016 96.0855C88.6039 96.6453 88.2233 97.3062 88.0157 97.2592C87.5402 97.1456 87.1504 96.6793 86.7223 96.3547C87.0341 96.021 87.3128 95.4874 87.6736 95.4134C88.0275 95.3496 88.4687 95.7653 89.1016 96.0855Z" fill="#2F3131"/>
<path d="M88.8381 65.4664C88.3213 65.9439 87.9695 66.255 87.6168 66.5672C87.2908 66.1156 86.8665 65.7018 86.7051 65.1953C86.6576 65.0448 87.3844 64.4434 87.7659 64.4492C88.0794 64.4468 88.3983 65.0204 88.8381 65.4664Z" fill="#2F3131"/>
<path d="M88.4358 103.882C88.6815 104.428 88.9934 104.789 88.926 105.059C88.8485 105.371 88.4384 105.603 88.1721 105.868C87.9001 105.501 87.5355 105.164 87.418 104.758C87.3808 104.619 87.9255 104.294 88.4358 103.882Z" fill="#2F3131"/>
<path d="M87.4891 75.6352C87.9147 76.1306 88.3519 76.4134 88.3491 76.6959C88.3531 76.9958 87.9614 77.3117 87.7275 77.6107C87.4392 77.3802 86.9616 77.1863 86.9075 76.9066C86.8491 76.6057 87.1887 76.2297 87.4891 75.6352Z" fill="#2F3131"/>
<path d="M87.8124 26.5718C87.328 26.889 87.0282 27.0932 86.7285 27.2973C86.4769 26.9277 86.2389 26.5652 85.9872 26.1956C86.2973 26.0037 86.6293 25.6392 86.9183 25.6739C87.1912 25.7053 87.4135 26.1473 87.8124 26.5718Z" fill="#2F3131"/>
<path d="M87.6022 17.2648C86.9621 17.5398 86.6321 17.79 86.3092 17.7789C86.095 17.7698 85.6796 17.2866 85.7267 17.1874C85.8746 16.8519 86.1673 16.4083 86.4653 16.3737C86.7107 16.3355 87.0332 16.7922 87.6022 17.2648Z" fill="#2F3131"/>
<path d="M87.6251 45.8575C86.7619 45.8588 86.7838 47.1888 87.6351 47.1777C88.4863 47.1667 88.4764 45.8465 87.6251 45.8575Z" fill="#2F3131"/>
<path d="M89.5398 146.553C90.0888 147.613 90.6107 148.184 90.5947 148.737C90.5685 149.111 89.7808 149.776 89.3966 149.747C88.9478 149.704 88.2027 148.998 88.2263 148.628C88.2797 148.074 88.877 147.558 89.5398 146.553Z" fill="#2F3131"/>
<path d="M88.3432 113.538C88.8868 114.188 89.5065 114.611 89.4769 114.99C89.4511 115.446 88.8509 115.856 88.4961 116.282C88.0755 115.919 87.3865 115.6 87.3283 115.187C87.2652 114.782 87.8532 114.28 88.3432 113.538Z" fill="#2F3131"/>
<path d="M88.4475 120.084C89.056 120.636 89.711 120.978 89.6844 121.269C89.6529 121.762 89.1836 122.223 88.8911 122.694C88.4956 122.432 87.8046 122.2 87.7785 121.905C87.7379 121.411 88.1243 120.88 88.4475 120.084Z" fill="#2F3131"/>
<path d="M90.2173 167.226C90.5317 167.918 90.929 168.373 90.8491 168.716C90.7709 169.057 90.2266 169.298 89.8907 169.585C89.6179 169.22 89.1276 168.851 89.1283 168.488C89.1479 168.152 89.6765 167.824 90.2173 167.226Z" fill="#2F3131"/>
<path d="M91.2224 177.998C90.6928 178.467 90.3401 178.779 89.9882 179.09C89.6614 178.64 89.2372 178.226 89.0766 177.718C89.0292 177.568 89.7687 176.975 90.1375 176.972C90.4501 176.971 90.7698 177.543 91.2224 177.998Z" fill="#2F3131"/>
<path d="M89.8626 188.155C90.3009 188.659 90.7245 188.934 90.7353 189.224C90.7393 189.524 90.3348 189.831 90.1137 190.139C89.8245 189.91 89.3349 189.706 89.28 189.427C89.2344 189.135 89.575 188.758 89.8626 188.155Z" fill="#2F3131"/>
<path d="M90.184 139.095C89.7004 139.411 89.3998 139.616 89.1001 139.82C88.8621 139.458 88.6105 139.088 88.3597 138.717C88.6697 138.525 89.0018 138.161 89.29 138.197C89.5629 138.228 89.7851 138.67 90.184 139.095Z" fill="#2F3131"/>
<path d="M89.9887 129.793C89.335 130.061 89.0049 130.311 88.682 130.3C88.4678 130.291 88.0534 129.807 88.0996 129.709C88.2611 129.381 88.5528 128.938 88.8381 128.895C89.0843 128.856 89.406 129.314 89.9887 129.793Z" fill="#2F3131"/>
<path d="M89.9973 158.379C89.146 158.39 89.1559 159.71 90.0072 159.699C90.8576 159.689 90.8486 158.368 89.9973 158.379Z" fill="#2F3131"/>
<path d="M90.6311 212.818C91.1801 213.878 91.702 214.449 91.686 215.002C91.6599 215.376 90.8721 216.041 90.4879 216.012C90.0391 215.969 89.294 215.263 89.3176 214.893C89.371 214.339 89.9683 213.823 90.6311 212.818" fill="#2F3131"/>
<path d="M91.2518 267.183C90.6812 266.574 89.92 266.087 89.9864 265.763C90.0932 265.184 90.7034 264.704 91.1163 264.189C91.5528 264.668 92.1963 265.083 92.3435 265.639C92.4267 265.986 91.7421 266.523 91.2518 267.183Z" fill="#2F3131"/>
<path d="M91.3081 233.491C91.6225 234.183 92.0198 234.638 91.9399 234.981C91.8617 235.322 91.3174 235.563 90.9815 235.85C90.7087 235.485 90.2184 235.116 90.2191 234.753C90.2387 234.417 90.7673 234.089 91.3081 233.491" fill="#2F3131"/>
<path d="M92.5735 274.877C92.072 275.434 91.6904 276.096 91.4799 276.045C91.0044 275.931 90.6138 275.467 90.1857 275.142C90.4976 274.808 90.7762 274.275 91.1497 274.209C91.4917 274.136 91.933 274.551 92.5735 274.877Z" fill="#2F3131"/>
<path d="M92.3137 244.263C91.7841 244.732 91.4314 245.044 91.0795 245.355C90.7527 244.905 90.3285 244.491 90.1679 243.983C90.1205 243.833 90.86 243.24 91.2288 243.237C91.5414 243.236 91.8611 243.808 92.3137 244.263" fill="#2F3131"/>
<path d="M90.9539 254.42C91.3922 254.924 91.8158 255.199 91.8266 255.489C91.8306 255.789 91.4261 256.096 91.205 256.404C90.9158 256.175 90.4262 255.971 90.3713 255.693C90.3257 255.4 90.6663 255.023 90.9539 254.42" fill="#2F3131"/>
<path d="M91.2753 205.36C90.7917 205.676 90.4911 205.881 90.1914 206.085C89.9534 205.723 89.7018 205.353 89.451 204.982C89.761 204.79 90.0931 204.426 90.3813 204.462C90.6542 204.493 90.8764 204.935 91.2753 205.36" fill="#2F3131"/>
<path d="M91.0795 196.058C90.4258 196.326 90.0957 196.577 89.7728 196.565C89.5586 196.556 89.1442 196.072 89.1904 195.974C89.3519 195.646 89.6437 195.203 89.9289 195.16C90.1751 195.121 90.4968 195.579 91.0795 196.058Z" fill="#2F3131"/>
<path d="M91.0886 224.644C90.2373 224.655 90.2472 225.975 91.0985 225.964C91.9489 225.954 91.9399 224.633 91.0886 224.644Z" fill="#2F3131"/>
</svg>
