<svg width="37" height="40" viewBox="0 0 37 40" fill="none" xmlns="http://www.w3.org/2000/svg">
<path d="M27.4952 18.6728C27.2344 18.549 26.9756 18.4157 26.7132 18.2909C27.3489 18.4819 27.9745 18.7014 28.5717 18.9306C30.035 19.4941 31.5345 20.0529 32.9205 20.8002C32.8201 20.8459 32.7166 20.883 32.6162 20.9287C30.971 20.0785 29.1339 19.4528 27.4952 18.6728ZM23.3765 0.75017C22.4218 1.20261 21.8749 1.98543 21.182 2.75317C20.4638 3.54593 19.7389 4.33212 19.0299 5.13094C17.527 6.82403 16.0061 8.52731 14.6144 10.3113C14.4922 10.47 14.0258 10.981 13.9839 11.2409C13.9546 11.2787 13.944 11.298 13.9223 11.3276C13.9096 11.3236 13.8984 11.3207 13.8872 11.3177C13.4102 10.9394 12.3874 10.6862 11.8129 10.4258C9.87331 9.53949 7.9427 8.89608 6.14086 7.70112C5.43827 7.23554 4.42663 7.77771 4.29511 8.51624C3.92553 8.90023 3.80699 9.51564 4.23612 10.073C4.70257 10.677 5.14929 11.2943 5.58587 11.9202C5.9375 13.1442 6.17139 14.4069 6.52676 15.6685C6.78335 16.584 7.05457 17.564 7.54801 18.3833C8.07168 19.2533 8.34402 19.0268 7.69106 19.7572C5.66193 22.0251 3.15351 24.2008 1.47497 26.7658C0.919161 27.6152 0.347235 28.7788 0.938535 29.7592C1.69327 31.0077 3.49256 30.8752 4.74328 30.7893C7.94271 30.564 11.3776 30.2549 14.3725 28.9686C15.4053 30.5409 17.258 31.7452 18.3446 33.2125C19.1883 34.3528 20.0158 35.5307 20.71 36.7678C21.3017 37.8208 21.8878 38.8856 22.9046 39.5869C23.6618 40.1061 24.6586 39.5365 24.73 38.6662C24.9286 36.2818 25.0849 33.852 25.0583 31.4596C25.0417 29.8508 24.7643 28.138 25.1172 26.5512C25.5224 24.7355 27.7462 25.0411 29.2333 24.6698C29.3115 24.6512 29.3911 24.6203 29.4703 24.6001C30.8382 24.3763 32.2078 24.1536 33.5616 23.8547C34.1489 23.7263 34.4392 23.2131 34.4437 22.6937C34.9203 22.4637 35.3917 22.2281 35.8514 21.987C36.6822 21.5494 36.6804 20.4903 35.9764 19.947C33.9257 18.3573 31.3376 17.4428 28.9224 16.5456C27.3762 15.9714 25.7395 15.5109 24.09 15.5292C23.9795 13.0046 24.6139 10.302 24.9459 7.85851C25.2111 5.90221 26.079 3.09222 24.954 1.28357C24.6144 0.736921 23.9981 0.453362 23.3765 0.75017Z" fill="#F9BA32"/>
</svg>
